<?xml version="1.0" encoding="UTF-8"?>
<svg width="341px" height="627px" viewBox="0 0 341 627" version="1.1" xmlns="http://www.w3.org/2000/svg" xmlns:xlink="http://www.w3.org/1999/xlink">
    <!-- Generator: Sketch 53.1 (72631) - https://sketchapp.com -->
    <title>Group 4</title>
    <desc>Created with Sketch.</desc>
    <g id="Welcome" stroke="none" stroke-width="1" fill="none" fill-rule="evenodd">
        <g id="iPhone-8-Copy-12" transform="translate(-10.000000, -26564.000000)">
            <g id="Group-4" transform="translate(10.390000, 26564.410000)">
                <path d="M124.553,67.59 L124.553,51.49 L128.417,51.49 C130.947,51.49 132.189,52.893 132.189,55.469 L132.189,63.611 C132.189,66.187 130.947,67.59 128.417,67.59 L124.553,67.59 Z M127.083,65.29 L128.371,65.29 C129.176,65.29 129.659,64.876 129.659,63.726 L129.659,55.354 C129.659,54.204 129.176,53.79 128.371,53.79 L127.083,53.79 L127.083,65.29 Z M133.891,67.59 L133.891,51.49 L140.791,51.49 L140.791,53.79 L136.421,53.79 L136.421,58.045 L139.894,58.045 L139.894,60.345 L136.421,60.345 L136.421,65.29 L140.791,65.29 L140.791,67.59 L133.891,67.59 Z M149.462,67.59 L149.462,55.308 L146.817,55.308 L146.817,53.514 C148.956,53.514 149.715,53.054 150.29,51.49 L151.992,51.49 L151.992,67.59 L149.462,67.59 Z M158.777,67.82 C156.224,67.82 154.821,66.417 154.821,63.841 L154.821,62.415 C154.821,60.874 155.281,59.747 156.477,59.126 L156.477,59.08 C155.419,58.505 154.913,57.493 154.913,55.906 L154.913,55.239 C154.913,52.663 156.316,51.26 158.777,51.26 C161.238,51.26 162.641,52.663 162.641,55.239 L162.641,55.906 C162.641,57.493 162.112,58.505 161.077,59.08 L161.077,59.126 C162.273,59.747 162.733,60.874 162.733,62.415 L162.733,63.841 C162.733,66.417 161.33,67.82 158.777,67.82 Z M158.777,58.045 C159.651,58.045 160.111,57.493 160.111,56.435 L160.111,55.17 C160.111,54.112 159.651,53.56 158.777,53.56 C157.903,53.56 157.443,54.112 157.443,55.17 L157.443,56.435 C157.443,57.493 157.903,58.045 158.777,58.045 Z M158.777,65.52 C159.72,65.52 160.203,64.922 160.203,63.703 L160.203,62.162 C160.203,60.943 159.72,60.345 158.777,60.345 C157.834,60.345 157.351,60.943 157.351,62.162 L157.351,63.703 C157.351,64.922 157.834,65.52 158.777,65.52 Z M167.333,67.59 L169.955,51.49 L173.382,51.49 L176.004,67.59 L173.474,67.59 L173.014,64.393 L173.014,64.439 L170.139,64.439 L169.679,67.59 L167.333,67.59 Z M170.438,62.254 L172.715,62.254 L171.588,54.296 L171.542,54.296 L170.438,62.254 Z M180.857,67.59 L180.857,65.842 C180.857,63.542 181.501,62.139 183.387,60.161 C185.319,58.114 185.871,56.895 185.871,55.4 C185.871,53.951 185.365,53.56 184.56,53.56 C183.755,53.56 183.249,53.997 183.249,55.147 L183.249,56.872 L180.857,56.872 L180.857,55.308 C180.857,52.732 182.145,51.26 184.629,51.26 C187.113,51.26 188.401,52.732 188.401,55.308 C188.401,57.217 187.619,58.919 185.273,61.403 C183.755,63.013 183.364,63.818 183.364,64.945 L183.364,65.29 L188.171,65.29 L188.171,67.59 L180.857,67.59 Z M194.335,67.59 L194.335,64.669 L189.505,64.669 L189.505,62.369 L194.105,51.49 L196.865,51.49 L196.865,62.369 L198.061,62.369 L198.061,64.669 L196.865,64.669 L196.865,67.59 L194.335,67.59 Z M191.805,62.369 L194.335,62.369 L194.335,56.09 L194.289,56.09 L191.805,62.369 Z M202.316,67.59 L204.938,51.49 L208.365,51.49 L210.987,67.59 L208.457,67.59 L207.997,64.393 L207.997,64.439 L205.122,64.439 L204.662,67.59 L202.316,67.59 Z M205.421,62.254 L207.698,62.254 L206.571,54.296 L206.525,54.296 L205.421,62.254 Z M214.207,50.501 L212.988,49.765 C213.563,48.477 214.207,47.833 215.081,47.833 C215.702,47.833 216.116,48.063 216.461,48.27 C216.737,48.431 216.967,48.569 217.243,48.569 C217.611,48.569 217.864,48.316 218.163,47.672 L219.382,48.408 C218.807,49.696 218.163,50.34 217.289,50.34 C216.668,50.34 216.254,50.11 215.909,49.903 C215.633,49.742 215.403,49.604 215.127,49.604 C214.759,49.604 214.506,49.857 214.207,50.501 Z M212.206,67.59 L212.206,51.49 L215.38,51.49 L217.841,61.127 L217.887,61.127 L217.887,51.49 L220.141,51.49 L220.141,67.59 L217.542,67.59 L214.506,55.837 L214.46,55.837 L214.46,67.59 L212.206,67.59 Z M225.684,67.82 C223.2,67.82 221.843,66.348 221.843,63.772 L221.843,55.308 C221.843,52.732 223.2,51.26 225.684,51.26 C228.168,51.26 229.525,52.732 229.525,55.308 L229.525,63.772 C229.525,66.348 228.168,67.82 225.684,67.82 Z M225.684,65.52 C226.489,65.52 226.995,65.083 226.995,63.933 L226.995,55.147 C226.995,53.997 226.489,53.56 225.684,53.56 C224.879,53.56 224.373,53.997 224.373,55.147 L224.373,63.933 C224.373,65.083 224.879,65.52 225.684,65.52 Z M234.516,67.82 C232.032,67.82 230.79,66.348 230.79,63.772 L230.79,62.852 L233.182,62.852 L233.182,63.956 C233.182,65.106 233.688,65.52 234.493,65.52 C235.298,65.52 235.804,65.106 235.804,63.91 C235.804,62.576 235.298,61.725 233.642,60.276 C231.526,58.413 230.836,57.102 230.836,55.262 C230.836,52.732 232.147,51.26 234.608,51.26 C237.069,51.26 238.288,52.732 238.288,55.308 L238.288,55.975 L235.896,55.975 L235.896,55.147 C235.896,53.997 235.436,53.56 234.631,53.56 C233.826,53.56 233.366,53.997 233.366,55.101 C233.366,56.274 233.895,57.125 235.551,58.574 C237.667,60.437 238.334,61.725 238.334,63.726 C238.334,66.348 237,67.82 234.516,67.82 Z" id="de18a24años" fill="#000000" fill-rule="nonzero" opacity="0.6"></path>
                <circle id="Oval-Copy-5" fill="#F34949" cx="108.61" cy="60.59" r="8"></circle>
                <path d="M48.5529998,98.59 L48.5529998,82.49 L52.4169998,82.49 C54.9469998,82.49 56.1889998,83.893 56.1889998,86.469 L56.1889998,94.611 C56.1889998,97.187 54.9469998,98.59 52.4169998,98.59 L48.5529998,98.59 Z M51.0829998,96.29 L52.3709998,96.29 C53.1759998,96.29 53.6589998,95.876 53.6589998,94.726 L53.6589998,86.354 C53.6589998,85.204 53.1759998,84.79 52.3709998,84.79 L51.0829998,84.79 L51.0829998,96.29 Z M57.8909998,98.59 L57.8909998,82.49 L64.7909998,82.49 L64.7909998,84.79 L60.4209998,84.79 L60.4209998,89.045 L63.8939998,89.045 L63.8939998,91.345 L60.4209998,91.345 L60.4209998,96.29 L64.7909998,96.29 L64.7909998,98.59 L57.8909998,98.59 Z M69.8739998,98.59 L69.8739998,96.842 C69.8739998,94.542 70.5179998,93.139 72.4039998,91.161 C74.3359998,89.114 74.8879998,87.895 74.8879998,86.4 C74.8879998,84.951 74.3819998,84.56 73.5769998,84.56 C72.7719998,84.56 72.2659998,84.997 72.2659998,86.147 L72.2659998,87.872 L69.8739998,87.872 L69.8739998,86.308 C69.8739998,83.732 71.1619998,82.26 73.6459998,82.26 C76.1299998,82.26 77.4179998,83.732 77.4179998,86.308 C77.4179998,88.217 76.6359998,89.919 74.2899998,92.403 C72.7719998,94.013 72.3809998,94.818 72.3809998,95.945 L72.3809998,96.29 L77.1879998,96.29 L77.1879998,98.59 L69.8739998,98.59 Z M82.8229998,98.82 C80.3389998,98.82 79.0509998,97.348 79.0509998,94.772 L79.0509998,93.507 L81.4429998,93.507 L81.4429998,94.956 C81.4429998,96.106 81.9489998,96.52 82.7539998,96.52 C83.5589998,96.52 84.0649998,96.106 84.0649998,94.956 L84.0649998,91.345 C84.0649998,90.195 83.5589998,89.758 82.7539998,89.758 C81.9489998,89.758 81.4429998,90.195 81.4429998,91.345 L81.4429998,91.483 L79.0509998,91.483 L79.5109998,82.49 L86.1809998,82.49 L86.1809998,84.79 L81.7649998,84.79 L81.5579998,88.631 L81.6039998,88.631 C82.0639998,87.872 82.7769998,87.458 83.7889998,87.458 C85.6519998,87.458 86.5949998,88.769 86.5949998,91.138 L86.5949998,94.772 C86.5949998,97.348 85.3069998,98.82 82.8229998,98.82 Z M91.3329998,98.59 L93.9549998,82.49 L97.3819998,82.49 L100.004,98.59 L97.4739998,98.59 L97.0139998,95.393 L97.0139998,95.439 L94.1389998,95.439 L93.6789998,98.59 L91.3329998,98.59 Z M94.4379998,93.254 L96.7149998,93.254 L95.5879998,85.296 L95.5419998,85.296 L94.4379998,93.254 Z M108.491,98.82 C106.007,98.82 104.719,97.394 104.719,94.818 L104.719,93.507 L107.111,93.507 L107.111,94.933 C107.111,96.083 107.617,96.52 108.422,96.52 C109.227,96.52 109.733,96.129 109.733,94.703 L109.733,93.392 C109.733,91.897 109.227,91.345 108.077,91.345 L107.226,91.345 L107.226,89.045 L108.146,89.045 C109.089,89.045 109.664,88.631 109.664,87.343 L109.664,86.17 C109.664,85.02 109.135,84.56 108.399,84.56 C107.663,84.56 107.18,84.997 107.18,86.055 L107.18,87.113 L104.788,87.113 L104.788,86.262 C104.788,83.686 106.076,82.26 108.491,82.26 C110.906,82.26 112.194,83.663 112.194,86.239 L112.194,86.814 C112.194,88.539 111.642,89.597 110.4,90.057 L110.4,90.103 C111.757,90.609 112.263,91.782 112.263,93.415 L112.263,94.841 C112.263,97.417 110.975,98.82 108.491,98.82 Z M118.335,98.59 L118.335,95.669 L113.505,95.669 L113.505,93.369 L118.105,82.49 L120.865,82.49 L120.865,93.369 L122.061,93.369 L122.061,95.669 L120.865,95.669 L120.865,98.59 L118.335,98.59 Z M115.805,93.369 L118.335,93.369 L118.335,87.09 L118.289,87.09 L115.805,93.369 Z M126.316,98.59 L128.938,82.49 L132.365,82.49 L134.987,98.59 L132.457,98.59 L131.997,95.393 L131.997,95.439 L129.122,95.439 L128.662,98.59 L126.316,98.59 Z M129.421,93.254 L131.698,93.254 L130.571,85.296 L130.525,85.296 L129.421,93.254 Z M138.207,81.501 L136.988,80.765 C137.563,79.477 138.207,78.833 139.081,78.833 C139.702,78.833 140.116,79.063 140.461,79.27 C140.737,79.431 140.967,79.569 141.243,79.569 C141.611,79.569 141.864,79.316 142.163,78.672 L143.382,79.408 C142.807,80.696 142.163,81.34 141.289,81.34 C140.668,81.34 140.254,81.11 139.909,80.903 C139.633,80.742 139.403,80.604 139.127,80.604 C138.759,80.604 138.506,80.857 138.207,81.501 Z M136.206,98.59 L136.206,82.49 L139.38,82.49 L141.841,92.127 L141.887,92.127 L141.887,82.49 L144.141,82.49 L144.141,98.59 L141.542,98.59 L138.506,86.837 L138.46,86.837 L138.46,98.59 L136.206,98.59 Z M149.684,98.82 C147.2,98.82 145.843,97.348 145.843,94.772 L145.843,86.308 C145.843,83.732 147.2,82.26 149.684,82.26 C152.168,82.26 153.525,83.732 153.525,86.308 L153.525,94.772 C153.525,97.348 152.168,98.82 149.684,98.82 Z M149.684,96.52 C150.489,96.52 150.995,96.083 150.995,94.933 L150.995,86.147 C150.995,84.997 150.489,84.56 149.684,84.56 C148.879,84.56 148.373,84.997 148.373,86.147 L148.373,94.933 C148.373,96.083 148.879,96.52 149.684,96.52 Z M158.516,98.82 C156.032,98.82 154.79,97.348 154.79,94.772 L154.79,93.852 L157.182,93.852 L157.182,94.956 C157.182,96.106 157.688,96.52 158.493,96.52 C159.298,96.52 159.804,96.106 159.804,94.91 C159.804,93.576 159.298,92.725 157.642,91.276 C155.526,89.413 154.836,88.102 154.836,86.262 C154.836,83.732 156.147,82.26 158.608,82.26 C161.069,82.26 162.288,83.732 162.288,86.308 L162.288,86.975 L159.896,86.975 L159.896,86.147 C159.896,84.997 159.436,84.56 158.631,84.56 C157.826,84.56 157.366,84.997 157.366,86.101 C157.366,87.274 157.895,88.125 159.551,89.574 C161.667,91.437 162.334,92.725 162.334,94.726 C162.334,97.348 161,98.82 158.516,98.82 Z" id="de25a34años" fill="#000000" fill-rule="nonzero" opacity="0.6"></path>
                <path d="M203.553,98.59 L203.553,82.49 L207.417,82.49 C209.947,82.49 211.189,83.893 211.189,86.469 L211.189,94.611 C211.189,97.187 209.947,98.59 207.417,98.59 L203.553,98.59 Z M206.083,96.29 L207.371,96.29 C208.176,96.29 208.659,95.876 208.659,94.726 L208.659,86.354 C208.659,85.204 208.176,84.79 207.371,84.79 L206.083,84.79 L206.083,96.29 Z M212.891,98.59 L212.891,82.49 L219.791,82.49 L219.791,84.79 L215.421,84.79 L215.421,89.045 L218.894,89.045 L218.894,91.345 L215.421,91.345 L215.421,96.29 L219.791,96.29 L219.791,98.59 L212.891,98.59 Z M228.508,98.82 C226.024,98.82 224.736,97.394 224.736,94.818 L224.736,93.507 L227.128,93.507 L227.128,94.933 C227.128,96.083 227.634,96.52 228.439,96.52 C229.244,96.52 229.75,96.129 229.75,94.703 L229.75,93.392 C229.75,91.897 229.244,91.345 228.094,91.345 L227.243,91.345 L227.243,89.045 L228.163,89.045 C229.106,89.045 229.681,88.631 229.681,87.343 L229.681,86.17 C229.681,85.02 229.152,84.56 228.416,84.56 C227.68,84.56 227.197,84.997 227.197,86.055 L227.197,87.113 L224.805,87.113 L224.805,86.262 C224.805,83.686 226.093,82.26 228.508,82.26 C230.923,82.26 232.211,83.663 232.211,86.239 L232.211,86.814 C232.211,88.539 231.659,89.597 230.417,90.057 L230.417,90.103 C231.774,90.609 232.28,91.782 232.28,93.415 L232.28,94.841 C232.28,97.417 230.992,98.82 228.508,98.82 Z M237.823,98.82 C235.339,98.82 234.051,97.348 234.051,94.772 L234.051,93.507 L236.443,93.507 L236.443,94.956 C236.443,96.106 236.949,96.52 237.754,96.52 C238.559,96.52 239.065,96.106 239.065,94.956 L239.065,91.345 C239.065,90.195 238.559,89.758 237.754,89.758 C236.949,89.758 236.443,90.195 236.443,91.345 L236.443,91.483 L234.051,91.483 L234.511,82.49 L241.181,82.49 L241.181,84.79 L236.765,84.79 L236.558,88.631 L236.604,88.631 C237.064,87.872 237.777,87.458 238.789,87.458 C240.652,87.458 241.595,88.769 241.595,91.138 L241.595,94.772 C241.595,97.348 240.307,98.82 237.823,98.82 Z M246.333,98.59 L248.955,82.49 L252.382,82.49 L255.004,98.59 L252.474,98.59 L252.014,95.393 L252.014,95.439 L249.139,95.439 L248.679,98.59 L246.333,98.59 Z M249.438,93.254 L251.715,93.254 L250.588,85.296 L250.542,85.296 L249.438,93.254 Z M264.135,98.59 L264.135,95.669 L259.305,95.669 L259.305,93.369 L263.905,82.49 L266.665,82.49 L266.665,93.369 L267.861,93.369 L267.861,95.669 L266.665,95.669 L266.665,98.59 L264.135,98.59 Z M261.605,93.369 L264.135,93.369 L264.135,87.09 L264.089,87.09 L261.605,93.369 Z M273.335,98.59 L273.335,95.669 L268.505,95.669 L268.505,93.369 L273.105,82.49 L275.865,82.49 L275.865,93.369 L277.061,93.369 L277.061,95.669 L275.865,95.669 L275.865,98.59 L273.335,98.59 Z M270.805,93.369 L273.335,93.369 L273.335,87.09 L273.289,87.09 L270.805,93.369 Z M281.316,98.59 L283.938,82.49 L287.365,82.49 L289.987,98.59 L287.457,98.59 L286.997,95.393 L286.997,95.439 L284.122,95.439 L283.662,98.59 L281.316,98.59 Z M284.421,93.254 L286.698,93.254 L285.571,85.296 L285.525,85.296 L284.421,93.254 Z M293.207,81.501 L291.988,80.765 C292.563,79.477 293.207,78.833 294.081,78.833 C294.702,78.833 295.116,79.063 295.461,79.27 C295.737,79.431 295.967,79.569 296.243,79.569 C296.611,79.569 296.864,79.316 297.163,78.672 L298.382,79.408 C297.807,80.696 297.163,81.34 296.289,81.34 C295.668,81.34 295.254,81.11 294.909,80.903 C294.633,80.742 294.403,80.604 294.127,80.604 C293.759,80.604 293.506,80.857 293.207,81.501 Z M291.206,98.59 L291.206,82.49 L294.38,82.49 L296.841,92.127 L296.887,92.127 L296.887,82.49 L299.141,82.49 L299.141,98.59 L296.542,98.59 L293.506,86.837 L293.46,86.837 L293.46,98.59 L291.206,98.59 Z M304.684,98.82 C302.2,98.82 300.843,97.348 300.843,94.772 L300.843,86.308 C300.843,83.732 302.2,82.26 304.684,82.26 C307.168,82.26 308.525,83.732 308.525,86.308 L308.525,94.772 C308.525,97.348 307.168,98.82 304.684,98.82 Z M304.684,96.52 C305.489,96.52 305.995,96.083 305.995,94.933 L305.995,86.147 C305.995,84.997 305.489,84.56 304.684,84.56 C303.879,84.56 303.373,84.997 303.373,86.147 L303.373,94.933 C303.373,96.083 303.879,96.52 304.684,96.52 Z M313.516,98.82 C311.032,98.82 309.79,97.348 309.79,94.772 L309.79,93.852 L312.182,93.852 L312.182,94.956 C312.182,96.106 312.688,96.52 313.493,96.52 C314.298,96.52 314.804,96.106 314.804,94.91 C314.804,93.576 314.298,92.725 312.642,91.276 C310.526,89.413 309.836,88.102 309.836,86.262 C309.836,83.732 311.147,82.26 313.608,82.26 C316.069,82.26 317.288,83.732 317.288,86.308 L317.288,86.975 L314.896,86.975 L314.896,86.147 C314.896,84.997 314.436,84.56 313.631,84.56 C312.826,84.56 312.366,84.997 312.366,86.101 C312.366,87.274 312.895,88.125 314.551,89.574 C316.667,91.437 317.334,92.725 317.334,94.726 C317.334,97.348 316,98.82 313.516,98.82 Z" id="de35a44años" fill="#000000" fill-rule="nonzero" opacity="0.6"></path>
                <circle id="Oval-Copy-6" fill="#3B3B3B" cx="32.6099998" cy="90.59" r="8"></circle>
                <circle id="Oval-Copy-7" fill="#CECDCD" cx="187.61" cy="90.59" r="8"></circle>
                <path d="M149.506,132.59 L149.506,124.046 L147.666,124.046 L147.666,122.798 C149.154,122.798 149.682,122.478 150.082,121.39 L151.266,121.39 L151.266,132.59 L149.506,132.59 Z M155.986,132.75 C154.258,132.75 153.314,131.726 153.314,129.934 L153.314,124.046 C153.314,122.254 154.258,121.23 155.986,121.23 C157.714,121.23 158.658,122.254 158.658,124.046 L158.658,129.934 C158.658,131.726 157.714,132.75 155.986,132.75 Z M155.986,131.15 C156.546,131.15 156.898,130.846 156.898,130.046 L156.898,123.934 C156.898,123.134 156.546,122.83 155.986,122.83 C155.426,122.83 155.074,123.134 155.074,123.934 L155.074,130.046 C155.074,130.846 155.426,131.15 155.986,131.15 Z M161.442,127.614 C160.338,127.614 159.746,126.974 159.746,125.822 L159.746,123.022 C159.746,121.87 160.338,121.23 161.442,121.23 C162.546,121.23 163.138,121.87 163.138,123.022 L163.138,125.822 C163.138,126.974 162.546,127.614 161.442,127.614 Z M161.17,132.59 L165.506,121.39 L166.626,121.39 L162.29,132.59 L161.17,132.59 Z M161.442,126.606 C161.794,126.606 162.018,126.398 162.018,125.902 L162.018,122.942 C162.018,122.446 161.794,122.238 161.442,122.238 C161.074,122.238 160.866,122.446 160.866,122.942 L160.866,125.902 C160.866,126.398 161.074,126.606 161.442,126.606 Z M166.354,132.75 C165.25,132.75 164.658,132.11 164.658,130.958 L164.658,128.158 C164.658,127.006 165.25,126.366 166.354,126.366 C167.458,126.366 168.05,127.006 168.05,128.158 L168.05,130.958 C168.05,132.11 167.458,132.75 166.354,132.75 Z M166.354,131.742 C166.706,131.742 166.93,131.534 166.93,131.038 L166.93,128.078 C166.93,127.582 166.706,127.374 166.354,127.374 C165.986,127.374 165.778,127.582 165.778,128.078 L165.778,131.038 C165.778,131.534 165.986,131.742 166.354,131.742 Z" id="10%" fill="#9C9C9C" fill-rule="nonzero"></path>
                <path d="M221.01,132.59 L221.01,131.374 C221.01,129.774 221.458,128.798 222.77,127.422 C224.114,125.998 224.498,125.15 224.498,124.11 C224.498,123.102 224.146,122.83 223.586,122.83 C223.026,122.83 222.674,123.134 222.674,123.934 L222.674,125.134 L221.01,125.134 L221.01,124.046 C221.01,122.254 221.906,121.23 223.634,121.23 C225.362,121.23 226.258,122.254 226.258,124.046 C226.258,125.374 225.714,126.558 224.082,128.286 C223.026,129.406 222.754,129.966 222.754,130.75 L222.754,130.99 L226.098,130.99 L226.098,132.59 L221.01,132.59 Z M229.986,132.75 C228.258,132.75 227.314,131.726 227.314,129.934 L227.314,124.046 C227.314,122.254 228.258,121.23 229.986,121.23 C231.714,121.23 232.658,122.254 232.658,124.046 L232.658,129.934 C232.658,131.726 231.714,132.75 229.986,132.75 Z M229.986,131.15 C230.546,131.15 230.898,130.846 230.898,130.046 L230.898,123.934 C230.898,123.134 230.546,122.83 229.986,122.83 C229.426,122.83 229.074,123.134 229.074,123.934 L229.074,130.046 C229.074,130.846 229.426,131.15 229.986,131.15 Z M235.442,127.614 C234.338,127.614 233.746,126.974 233.746,125.822 L233.746,123.022 C233.746,121.87 234.338,121.23 235.442,121.23 C236.546,121.23 237.138,121.87 237.138,123.022 L237.138,125.822 C237.138,126.974 236.546,127.614 235.442,127.614 Z M235.17,132.59 L239.506,121.39 L240.626,121.39 L236.29,132.59 L235.17,132.59 Z M235.442,126.606 C235.794,126.606 236.018,126.398 236.018,125.902 L236.018,122.942 C236.018,122.446 235.794,122.238 235.442,122.238 C235.074,122.238 234.866,122.446 234.866,122.942 L234.866,125.902 C234.866,126.398 235.074,126.606 235.442,126.606 Z M240.354,132.75 C239.25,132.75 238.658,132.11 238.658,130.958 L238.658,128.158 C238.658,127.006 239.25,126.366 240.354,126.366 C241.458,126.366 242.05,127.006 242.05,128.158 L242.05,130.958 C242.05,132.11 241.458,132.75 240.354,132.75 Z M240.354,131.742 C240.706,131.742 240.93,131.534 240.93,131.038 L240.93,128.078 C240.93,127.582 240.706,127.374 240.354,127.374 C239.986,127.374 239.778,127.582 239.778,128.078 L239.778,131.038 C239.778,131.534 239.986,131.742 240.354,131.742 Z" id="20%" fill="#9C9C9C" fill-rule="nonzero"></path>
                <path d="M296.538,132.75 C294.81,132.75 293.914,131.758 293.914,129.966 L293.914,129.054 L295.578,129.054 L295.578,130.046 C295.578,130.846 295.93,131.15 296.49,131.15 C297.05,131.15 297.402,130.878 297.402,129.886 L297.402,128.974 C297.402,127.934 297.05,127.55 296.25,127.55 L295.658,127.55 L295.658,125.95 L296.298,125.95 C296.954,125.95 297.354,125.662 297.354,124.766 L297.354,123.95 C297.354,123.15 296.986,122.83 296.474,122.83 C295.962,122.83 295.626,123.134 295.626,123.87 L295.626,124.606 L293.962,124.606 L293.962,124.014 C293.962,122.222 294.858,121.23 296.538,121.23 C298.218,121.23 299.114,122.206 299.114,123.998 L299.114,124.398 C299.114,125.598 298.73,126.334 297.866,126.654 L297.866,126.686 C298.81,127.038 299.162,127.854 299.162,128.99 L299.162,129.982 C299.162,131.774 298.266,132.75 296.538,132.75 Z M302.986,132.75 C301.258,132.75 300.314,131.726 300.314,129.934 L300.314,124.046 C300.314,122.254 301.258,121.23 302.986,121.23 C304.714,121.23 305.658,122.254 305.658,124.046 L305.658,129.934 C305.658,131.726 304.714,132.75 302.986,132.75 Z M302.986,131.15 C303.546,131.15 303.898,130.846 303.898,130.046 L303.898,123.934 C303.898,123.134 303.546,122.83 302.986,122.83 C302.426,122.83 302.074,123.134 302.074,123.934 L302.074,130.046 C302.074,130.846 302.426,131.15 302.986,131.15 Z M308.442,127.614 C307.338,127.614 306.746,126.974 306.746,125.822 L306.746,123.022 C306.746,121.87 307.338,121.23 308.442,121.23 C309.546,121.23 310.138,121.87 310.138,123.022 L310.138,125.822 C310.138,126.974 309.546,127.614 308.442,127.614 Z M308.17,132.59 L312.506,121.39 L313.626,121.39 L309.29,132.59 L308.17,132.59 Z M308.442,126.606 C308.794,126.606 309.018,126.398 309.018,125.902 L309.018,122.942 C309.018,122.446 308.794,122.238 308.442,122.238 C308.074,122.238 307.866,122.446 307.866,122.942 L307.866,125.902 C307.866,126.398 308.074,126.606 308.442,126.606 Z M313.354,132.75 C312.25,132.75 311.658,132.11 311.658,130.958 L311.658,128.158 C311.658,127.006 312.25,126.366 313.354,126.366 C314.458,126.366 315.05,127.006 315.05,128.158 L315.05,130.958 C315.05,132.11 314.458,132.75 313.354,132.75 Z M313.354,131.742 C313.706,131.742 313.93,131.534 313.93,131.038 L313.93,128.078 C313.93,127.582 313.706,127.374 313.354,127.374 C312.986,127.374 312.778,127.582 312.778,128.078 L312.778,131.038 C312.778,131.534 312.986,131.742 313.354,131.742 Z" id="30%" fill="#9C9C9C" fill-rule="nonzero"></path>
                <path d="M87.9859998,132.75 C86.2579998,132.75 85.3139998,131.726 85.3139998,129.934 L85.3139998,124.046 C85.3139998,122.254 86.2579998,121.23 87.9859998,121.23 C89.7139998,121.23 90.6579998,122.254 90.6579998,124.046 L90.6579998,129.934 C90.6579998,131.726 89.7139998,132.75 87.9859998,132.75 Z M87.9859998,131.15 C88.5459998,131.15 88.8979998,130.846 88.8979998,130.046 L88.8979998,123.934 C88.8979998,123.134 88.5459998,122.83 87.9859998,122.83 C87.4259998,122.83 87.0739998,123.134 87.0739998,123.934 L87.0739998,130.046 C87.0739998,130.846 87.4259998,131.15 87.9859998,131.15 Z M93.4419998,127.614 C92.3379998,127.614 91.7459998,126.974 91.7459998,125.822 L91.7459998,123.022 C91.7459998,121.87 92.3379998,121.23 93.4419998,121.23 C94.5459998,121.23 95.1379998,121.87 95.1379998,123.022 L95.1379998,125.822 C95.1379998,126.974 94.5459998,127.614 93.4419998,127.614 Z M93.1699998,132.59 L97.5059998,121.39 L98.6259998,121.39 L94.2899998,132.59 L93.1699998,132.59 Z M93.4419998,126.606 C93.7939998,126.606 94.0179998,126.398 94.0179998,125.902 L94.0179998,122.942 C94.0179998,122.446 93.7939998,122.238 93.4419998,122.238 C93.0739998,122.238 92.8659998,122.446 92.8659998,122.942 L92.8659998,125.902 C92.8659998,126.398 93.0739998,126.606 93.4419998,126.606 Z M98.3539998,132.75 C97.2499998,132.75 96.6579998,132.11 96.6579998,130.958 L96.6579998,128.158 C96.6579998,127.006 97.2499998,126.366 98.3539998,126.366 C99.4579998,126.366 100.05,127.006 100.05,128.158 L100.05,130.958 C100.05,132.11 99.4579998,132.75 98.3539998,132.75 Z M98.3539998,131.742 C98.7059998,131.742 98.9299998,131.534 98.9299998,131.038 L98.9299998,128.078 C98.9299998,127.582 98.7059998,127.374 98.3539998,127.374 C97.9859998,127.374 97.7779998,127.582 97.7779998,128.078 L97.7779998,131.038 C97.7779998,131.534 97.9859998,131.742 98.3539998,131.742 Z" id="0%" fill="#9C9C9C" fill-rule="nonzero"></path>
                <path d="M158.11,137.887832 L158.11,604.510888" id="Line-Copy" stroke="#979797" stroke-width="0.5" stroke-linecap="square" stroke-dasharray="2,5"></path>
                <path d="M228.61,137.887832 L228.61,604.510888" id="Line-Copy-10" stroke="#979797" stroke-width="0.5" stroke-linecap="square" stroke-dasharray="2,5"></path>
                <path d="M301.61,137.885927 L301.61,604.510888" id="Line-Copy-11" stroke="#979797" stroke-width="0.5" stroke-linecap="square" stroke-dasharray="2,5"></path>
                <rect id="Rectangle" fill="#F34949" x="87.6099998" y="149.59" width="249" height="10"></rect>
                <rect id="Rectangle-Copy-34" fill="#F34949" x="87.6099998" y="187.59" width="134" height="10"></rect>
                <rect id="Rectangle-Copy-38" fill="#F34949" x="87.6099998" y="225.59" width="131" height="10"></rect>
                <rect id="Rectangle-Copy-41" fill="#F34949" x="87.6099998" y="263.59" width="98" height="10"></rect>
                <rect id="Rectangle-Copy-44" fill="#F34949" x="87.6099998" y="301.59" width="54" height="10"></rect>
                <rect id="Rectangle-Copy-47" fill="#F34949" x="87.6099998" y="339.59" width="46" height="10"></rect>
                <rect id="Rectangle-Copy-50" fill="#F34949" x="87.6099998" y="377.59" width="42" height="10"></rect>
                <rect id="Rectangle-Copy-53" fill="#F34949" x="87.6099998" y="415.59" width="26" height="10"></rect>
                <rect id="Rectangle-Copy-56" fill="#F34949" x="87.6099998" y="453.59" width="26" height="10"></rect>
                <rect id="Rectangle-Copy-59" fill="#F34949" x="87.6099998" y="491.59" width="12" height="10"></rect>
                <rect id="Rectangle-Copy-62" fill="#F34949" x="87.6099998" y="529.59" width="12" height="10"></rect>
                <rect id="Rectangle-Copy-65" fill="#F34949" x="87.6099998" y="567.59" width="8" height="10"></rect>
                <rect id="Rectangle-Copy" fill="#3B3B3B" x="87.6099998" y="159.59" width="253" height="10"></rect>
                <rect id="Rectangle-Copy-36" fill="#3B3B3B" x="87.6099998" y="197.59" width="166" height="10"></rect>
                <rect id="Rectangle-Copy-39" fill="#3B3B3B" x="87.6099998" y="235.59" width="80" height="10"></rect>
                <rect id="Rectangle-Copy-42" fill="#3B3B3B" x="87.6099998" y="273.59" width="124" height="10"></rect>
                <rect id="Rectangle-Copy-45" fill="#3B3B3B" x="87.6099998" y="311.59" width="61" height="10"></rect>
                <rect id="Rectangle-Copy-48" fill="#3B3B3B" x="87.6099998" y="349.59" width="85" height="10"></rect>
                <rect id="Rectangle-Copy-51" fill="#3B3B3B" x="87.6099998" y="387.59" width="38" height="10"></rect>
                <rect id="Rectangle-Copy-54" fill="#3B3B3B" x="87.6099998" y="425.59" width="41" height="10"></rect>
                <rect id="Rectangle-Copy-57" fill="#3B3B3B" x="87.6099998" y="463.59" width="65" height="10"></rect>
                <rect id="Rectangle-Copy-60" fill="#3B3B3B" x="87.6099998" y="501.59" width="8" height="10"></rect>
                <rect id="Rectangle-Copy-63" fill="#3B3B3B" x="87.6099998" y="539.59" width="11" height="10"></rect>
                <rect id="Rectangle-Copy-66" fill="#3B3B3B" x="87.6099998" y="577.59" width="11" height="10"></rect>
                <rect id="Rectangle-Copy-2" fill="#CECDCD" x="87.6099998" y="169.59" width="240" height="10"></rect>
                <rect id="Rectangle-Copy-37" fill="#CECDCD" x="87.6099998" y="207.59" width="169" height="10"></rect>
                <rect id="Rectangle-Copy-40" fill="#CECDCD" x="87.6099998" y="245.59" width="84" height="10"></rect>
                <rect id="Rectangle-Copy-43" fill="#CECDCD" x="87.6099998" y="283.59" width="115" height="10"></rect>
                <rect id="Rectangle-Copy-46" fill="#CECDCD" x="87.6099998" y="321.59" width="73" height="10"></rect>
                <rect id="Rectangle-Copy-49" fill="#CECDCD" x="87.6099998" y="359.59" width="80" height="10"></rect>
                <rect id="Rectangle-Copy-52" fill="#CECDCD" x="87.6099998" y="397.59" width="72" height="10"></rect>
                <rect id="Rectangle-Copy-55" fill="#CECDCD" x="87.6099998" y="435.59" width="38" height="10"></rect>
                <rect id="Rectangle-Copy-58" fill="#CECDCD" x="87.6099998" y="473.59" width="70" height="10"></rect>
                <rect id="Rectangle-Copy-61" fill="#CECDCD" x="87.6099998" y="511.59" width="12" height="10"></rect>
                <rect id="Rectangle-Copy-64" fill="#CECDCD" x="87.6099998" y="549.59" width="15" height="10"></rect>
                <rect id="Rectangle-Copy-67" fill="#CECDCD" x="87.6099998" y="587.59" width="13" height="10"></rect>
                <path d="M88.6099998,139.59 L88.6099998,604.59" id="Line" stroke="#000000" stroke-width="2" stroke-linecap="square"></path>
                <path d="M39.8519999,169.59 L39.8519999,156.99 L45.2519999,156.99 L45.2519999,158.79 L41.8319999,158.79 L41.8319999,162.12 L44.5499999,162.12 L44.5499999,163.92 L41.8319999,163.92 L41.8319999,167.79 L45.2519999,167.79 L45.2519999,169.59 L39.8519999,169.59 Z M46.0859999,169.59 L46.0859999,156.99 L48.0659999,156.99 L48.0659999,167.79 L51.3239999,167.79 L51.3239999,169.59 L46.0859999,169.59 Z M54.5579999,169.59 L54.5579999,156.99 L57.4739999,156.99 C59.4539999,156.99 60.4259999,158.088 60.4259999,160.104 L60.4259999,161.346 C60.4259999,163.362 59.4539999,164.46 57.4739999,164.46 L56.5379999,164.46 L56.5379999,169.59 L54.5579999,169.59 Z M56.5379999,162.66 L57.4739999,162.66 C58.1039999,162.66 58.4459999,162.372 58.4459999,161.472 L58.4459999,159.978 C58.4459999,159.078 58.1039999,158.79 57.4739999,158.79 L56.5379999,158.79 L56.5379999,162.66 Z M60.0539999,169.59 L62.1059999,156.99 L64.7879999,156.99 L66.8399999,169.59 L64.8599999,169.59 L64.4999999,167.088 L64.4999999,167.124 L62.2499999,167.124 L61.8899999,169.59 L60.0539999,169.59 Z M62.4839999,165.414 L64.2659999,165.414 L63.3839999,159.186 L63.3479999,159.186 L62.4839999,165.414 Z M67.4939999,169.59 L67.4939999,156.99 L70.4279999,156.99 C72.4799999,156.99 73.3619999,157.944 73.3619999,159.888 L73.3619999,160.662 C73.3619999,161.958 72.9479999,162.786 72.0659999,163.146 L72.0659999,163.182 C73.0559999,163.488 73.3799999,164.424 73.3799999,165.846 L73.3799999,168.06 C73.3799999,168.672 73.3979999,169.122 73.5959999,169.59 L71.5799999,169.59 C71.4719999,169.266 71.3999999,169.068 71.3999999,168.042 L71.3999999,165.738 C71.3999999,164.568 71.0579999,164.19 70.1579999,164.19 L69.4739999,164.19 L69.4739999,169.59 L67.4939999,169.59 Z M69.4739999,162.39 L70.1939999,162.39 C70.9319999,162.39 71.3819999,162.066 71.3819999,161.058 L71.3819999,160.086 C71.3819999,159.186 71.0759999,158.79 70.3739999,158.79 L69.4739999,158.79 L69.4739999,162.39 Z M77.3099999,169.77 C75.3659999,169.77 74.3039999,168.618 74.3039999,166.602 L74.3039999,159.978 C74.3039999,157.962 75.3659999,156.81 77.3099999,156.81 C79.2539999,156.81 80.3159999,157.962 80.3159999,159.978 L80.3159999,166.602 C80.3159999,168.618 79.2539999,169.77 77.3099999,169.77 Z M77.3099999,167.97 C77.9399999,167.97 78.3359999,167.628 78.3359999,166.728 L78.3359999,159.852 C78.3359999,158.952 77.9399999,158.61 77.3099999,158.61 C76.6799999,158.61 76.2839999,158.952 76.2839999,159.852 L76.2839999,166.728 C76.2839999,167.628 76.6799999,167.97 77.3099999,167.97 Z" id="elparo" fill="#666666" fill-rule="nonzero"></path>
                <path d="M23.658,248.59 L23.658,235.99 L29.058,235.99 L29.058,237.79 L25.638,237.79 L25.638,241.12 L28.356,241.12 L28.356,242.92 L25.638,242.92 L25.638,246.79 L29.058,246.79 L29.058,248.59 L23.658,248.59 Z M29.8919999,248.59 L29.8919999,235.99 L32.9159999,235.99 C34.8959999,235.99 35.8679999,237.088 35.8679999,239.104 L35.8679999,245.476 C35.8679999,247.492 34.8959999,248.59 32.9159999,248.59 L29.8919999,248.59 Z M31.8719999,246.79 L32.8799999,246.79 C33.5099999,246.79 33.8879999,246.466 33.8879999,245.566 L33.8879999,239.014 C33.8879999,238.114 33.5099999,237.79 32.8799999,237.79 L31.8719999,237.79 L31.8719999,246.79 Z M39.7799999,248.77 C37.8359999,248.77 36.8279999,247.618 36.8279999,245.602 L36.8279999,235.99 L38.8079999,235.99 L38.8079999,245.746 C38.8079999,246.646 39.1859999,246.97 39.8159999,246.97 C40.4459999,246.97 40.8239999,246.646 40.8239999,245.746 L40.8239999,235.99 L42.7319999,235.99 L42.7319999,245.602 C42.7319999,247.618 41.7239999,248.77 39.7799999,248.77 Z M46.6259999,248.77 C44.7179999,248.77 43.7099999,247.618 43.7099999,245.674 L43.7099999,238.906 C43.7099999,236.962 44.7179999,235.81 46.6259999,235.81 C48.5339999,235.81 49.5419999,236.962 49.5419999,238.906 L49.5419999,240.238 L47.6699999,240.238 L47.6699999,238.78 C47.6699999,237.952 47.2739999,237.61 46.6799999,237.61 C46.0859999,237.61 45.6899999,237.952 45.6899999,238.78 L45.6899999,245.818 C45.6899999,246.646 46.0859999,246.97 46.6799999,246.97 C47.2739999,246.97 47.6699999,246.646 47.6699999,245.818 L47.6699999,243.892 L49.5419999,243.892 L49.5419999,245.674 C49.5419999,247.618 48.5339999,248.77 46.6259999,248.77 Z M49.9079999,248.59 L51.9599999,235.99 L54.6419999,235.99 L56.6939999,248.59 L54.7139999,248.59 L54.3539999,246.088 L54.3539999,246.124 L52.1039999,246.124 L51.7439999,248.59 L49.9079999,248.59 Z M52.3379999,244.414 L54.1199999,244.414 L53.2379999,238.186 L53.2019999,238.186 L52.3379999,244.414 Z M60.1019999,248.77 C58.1939999,248.77 57.1859999,247.618 57.1859999,245.674 L57.1859999,238.906 C57.1859999,236.962 58.1939999,235.81 60.1019999,235.81 C62.0099999,235.81 63.0179999,236.962 63.0179999,238.906 L63.0179999,240.238 L61.1459999,240.238 L61.1459999,238.78 C61.1459999,237.952 60.7499999,237.61 60.1559999,237.61 C59.5619999,237.61 59.1659999,237.952 59.1659999,238.78 L59.1659999,245.818 C59.1659999,246.646 59.5619999,246.97 60.1559999,246.97 C60.7499999,246.97 61.1459999,246.646 61.1459999,245.818 L61.1459999,243.892 L63.0179999,243.892 L63.0179999,245.674 C63.0179999,247.618 62.0099999,248.77 60.1019999,248.77 Z M63.9059999,248.59 L63.9059999,235.99 L65.8859999,235.99 L65.8859999,248.59 L63.9059999,248.59 Z M68.8439999,235.144 L70.1039999,233.074 L72.2639999,233.074 L70.3379999,235.144 L68.8439999,235.144 Z M69.9239999,248.77 C67.9799999,248.77 66.9179999,247.618 66.9179999,245.602 L66.9179999,238.978 C66.9179999,236.962 67.9799999,235.81 69.9239999,235.81 C71.8679999,235.81 72.9299999,236.962 72.9299999,238.978 L72.9299999,245.602 C72.9299999,247.618 71.8679999,248.77 69.9239999,248.77 Z M69.9239999,246.97 C70.5539999,246.97 70.9499999,246.628 70.9499999,245.728 L70.9499999,238.852 C70.9499999,237.952 70.5539999,237.61 69.9239999,237.61 C69.2939999,237.61 68.8979999,237.952 68.8979999,238.852 L68.8979999,245.728 C68.8979999,246.628 69.2939999,246.97 69.9239999,246.97 Z M73.9619999,248.59 L73.9619999,235.99 L76.4459999,235.99 L78.3719999,243.532 L78.4079999,243.532 L78.4079999,235.99 L80.1719999,235.99 L80.1719999,248.59 L78.1379999,248.59 L75.7619999,239.392 L75.7259999,239.392 L75.7259999,248.59 L73.9619999,248.59 Z" id="educación" fill="#666666" fill-rule="nonzero"></path>
                <path d="M35.8319999,324.59 L35.8319999,311.99 L38.7479999,311.99 C40.7279999,311.99 41.6999999,313.088 41.6999999,315.104 L41.6999999,316.346 C41.6999999,318.362 40.7279999,319.46 38.7479999,319.46 L37.8119999,319.46 L37.8119999,324.59 L35.8319999,324.59 Z M37.8119999,317.66 L38.7479999,317.66 C39.3779999,317.66 39.7199999,317.372 39.7199999,316.472 L39.7199999,314.978 C39.7199999,314.078 39.3779999,313.79 38.7479999,313.79 L37.8119999,313.79 L37.8119999,317.66 Z M45.3419999,324.77 C43.3979999,324.77 42.3359999,323.618 42.3359999,321.602 L42.3359999,314.978 C42.3359999,312.962 43.3979999,311.81 45.3419999,311.81 C47.2859999,311.81 48.3479999,312.962 48.3479999,314.978 L48.3479999,321.602 C48.3479999,323.618 47.2859999,324.77 45.3419999,324.77 Z M45.3419999,322.97 C45.9719999,322.97 46.3679999,322.628 46.3679999,321.728 L46.3679999,314.852 C46.3679999,313.952 45.9719999,313.61 45.3419999,313.61 C44.7119999,313.61 44.3159999,313.952 44.3159999,314.852 L44.3159999,321.728 C44.3159999,322.628 44.7119999,322.97 45.3419999,322.97 Z M49.3799999,324.59 L49.3799999,311.99 L51.3599999,311.99 L51.3599999,322.79 L54.6179999,322.79 L54.6179999,324.59 L49.3799999,324.59 Z M55.1819999,311.144 L56.4419999,309.074 L58.6019999,309.074 L56.6759999,311.144 L55.1819999,311.144 Z M55.2719999,324.59 L55.2719999,311.99 L57.2519999,311.99 L57.2519999,324.59 L55.2719999,324.59 Z M59.9759999,324.59 L59.9759999,313.79 L57.9059999,313.79 L57.9059999,311.99 L64.0259999,311.99 L64.0259999,313.79 L61.9559999,313.79 L61.9559999,324.59 L59.9759999,324.59 Z M64.6799999,324.59 L64.6799999,311.99 L66.6599999,311.99 L66.6599999,324.59 L64.6799999,324.59 Z M70.6259999,324.77 C68.7179999,324.77 67.7099999,323.618 67.7099999,321.674 L67.7099999,314.906 C67.7099999,312.962 68.7179999,311.81 70.6259999,311.81 C72.5339999,311.81 73.5419999,312.962 73.5419999,314.906 L73.5419999,316.238 L71.6699999,316.238 L71.6699999,314.78 C71.6699999,313.952 71.2739999,313.61 70.6799999,313.61 C70.0859999,313.61 69.6899999,313.952 69.6899999,314.78 L69.6899999,321.818 C69.6899999,322.646 70.0859999,322.97 70.6799999,322.97 C71.2739999,322.97 71.6699999,322.646 71.6699999,321.818 L71.6699999,319.892 L73.5419999,319.892 L73.5419999,321.674 C73.5419999,323.618 72.5339999,324.77 70.6259999,324.77 Z M73.9079999,324.59 L75.9599999,311.99 L78.6419999,311.99 L80.6939999,324.59 L78.7139999,324.59 L78.3539999,322.088 L78.3539999,322.124 L76.1039999,322.124 L75.7439999,324.59 L73.9079999,324.59 Z M76.3379999,320.414 L78.1199999,320.414 L77.2379999,314.186 L77.2019999,314.186 L76.3379999,320.414 Z" id="política" fill="#666666" fill-rule="nonzero"></path>
                <path d="M39.2219999,362.77 C37.2779999,362.77 36.3059999,361.618 36.3059999,359.602 L36.3059999,358.882 L38.1779999,358.882 L38.1779999,359.746 C38.1779999,360.646 38.5739999,360.97 39.2039999,360.97 C39.8339999,360.97 40.2299999,360.646 40.2299999,359.71 C40.2299999,358.666 39.8339999,358 38.5379999,356.866 C36.8819999,355.408 36.3419999,354.382 36.3419999,352.942 C36.3419999,350.962 37.3679999,349.81 39.2939999,349.81 C41.2199999,349.81 42.1739999,350.962 42.1739999,352.978 L42.1739999,353.5 L40.3019999,353.5 L40.3019999,352.852 C40.3019999,351.952 39.9419999,351.61 39.3119999,351.61 C38.6819999,351.61 38.3219999,351.952 38.3219999,352.816 C38.3219999,353.734 38.7359999,354.4 40.0319999,355.534 C41.6879999,356.992 42.2099999,358 42.2099999,359.566 C42.2099999,361.618 41.1659999,362.77 39.2219999,362.77 Z M42.4679999,362.59 L44.5199999,349.99 L47.2019999,349.99 L49.2539999,362.59 L47.2739999,362.59 L46.9139999,360.088 L46.9139999,360.124 L44.6639999,360.124 L44.3039999,362.59 L42.4679999,362.59 Z M44.8979999,358.414 L46.6799999,358.414 L45.7979999,352.186 L45.7619999,352.186 L44.8979999,358.414 Z M49.9079999,362.59 L49.9079999,349.99 L52.3919999,349.99 L54.3179999,357.532 L54.3539999,357.532 L54.3539999,349.99 L56.1179999,349.99 L56.1179999,362.59 L54.0839999,362.59 L51.7079999,353.392 L51.6719999,353.392 L51.6719999,362.59 L49.9079999,362.59 Z M57.2939999,362.59 L57.2939999,349.99 L59.2739999,349.99 L59.2739999,362.59 L57.2939999,362.59 Z M60.4499999,362.59 L60.4499999,349.99 L63.4739999,349.99 C65.4539999,349.99 66.4259999,351.088 66.4259999,353.104 L66.4259999,359.476 C66.4259999,361.492 65.4539999,362.59 63.4739999,362.59 L60.4499999,362.59 Z M62.4299999,360.79 L63.4379999,360.79 C64.0679999,360.79 64.4459999,360.466 64.4459999,359.566 L64.4459999,353.014 C64.4459999,352.114 64.0679999,351.79 63.4379999,351.79 L62.4299999,351.79 L62.4299999,360.79 Z M66.8999999,362.59 L68.9519999,349.99 L71.6339999,349.99 L73.6859999,362.59 L71.7059999,362.59 L71.3459999,360.088 L71.3459999,360.124 L69.0959999,360.124 L68.7359999,362.59 L66.8999999,362.59 Z M69.3299999,358.414 L71.1119999,358.414 L70.2299999,352.186 L70.1939999,352.186 L69.3299999,358.414 Z M74.3399999,362.59 L74.3399999,349.99 L77.3639999,349.99 C79.3439999,349.99 80.3159999,351.088 80.3159999,353.104 L80.3159999,359.476 C80.3159999,361.492 79.3439999,362.59 77.3639999,362.59 L74.3399999,362.59 Z M76.3199999,360.79 L77.3279999,360.79 C77.9579999,360.79 78.3359999,360.466 78.3359999,359.566 L78.3359999,353.014 C78.3359999,352.114 77.9579999,351.79 77.3279999,351.79 L76.3199999,351.79 L76.3199999,360.79 Z" id="sanidad" fill="#666666" fill-rule="nonzero"></path>
                <path d="M33.7439999,399.77 C31.7999999,399.77 30.8279999,398.618 30.8279999,396.602 L30.8279999,395.882 L32.6999999,395.882 L32.6999999,396.746 C32.6999999,397.646 33.0959999,397.97 33.7259999,397.97 C34.3559999,397.97 34.7519999,397.646 34.7519999,396.71 C34.7519999,395.666 34.3559999,395 33.0599999,393.866 C31.4039999,392.408 30.8639999,391.382 30.8639999,389.942 C30.8639999,387.962 31.8899999,386.81 33.8159999,386.81 C35.7419999,386.81 36.6959999,387.962 36.6959999,389.978 L36.6959999,390.5 L34.8239999,390.5 L34.8239999,389.852 C34.8239999,388.952 34.4639999,388.61 33.8339999,388.61 C33.2039999,388.61 32.8439999,388.952 32.8439999,389.816 C32.8439999,390.734 33.2579999,391.4 34.5539999,392.534 C36.2099999,393.992 36.7319999,395 36.7319999,396.566 C36.7319999,398.618 35.6879999,399.77 33.7439999,399.77 Z M40.4279999,399.77 C38.4839999,399.77 37.4219999,398.618 37.4219999,396.602 L37.4219999,389.978 C37.4219999,387.962 38.4839999,386.81 40.4279999,386.81 C42.3719999,386.81 43.4339999,387.962 43.4339999,389.978 L43.4339999,396.602 C43.4339999,398.618 42.3719999,399.77 40.4279999,399.77 Z M40.4279999,397.97 C41.0579999,397.97 41.4539999,397.628 41.4539999,396.728 L41.4539999,389.852 C41.4539999,388.952 41.0579999,388.61 40.4279999,388.61 C39.7979999,388.61 39.4019999,388.952 39.4019999,389.852 L39.4019999,396.728 C39.4019999,397.628 39.7979999,397.97 40.4279999,397.97 Z M47.2559999,399.77 C45.3479999,399.77 44.3399999,398.618 44.3399999,396.674 L44.3399999,389.906 C44.3399999,387.962 45.3479999,386.81 47.2559999,386.81 C49.1639999,386.81 50.1719999,387.962 50.1719999,389.906 L50.1719999,391.238 L48.2999999,391.238 L48.2999999,389.78 C48.2999999,388.952 47.9039999,388.61 47.3099999,388.61 C46.7159999,388.61 46.3199999,388.952 46.3199999,389.78 L46.3199999,396.818 C46.3199999,397.646 46.7159999,397.97 47.3099999,397.97 C47.9039999,397.97 48.2999999,397.646 48.2999999,396.818 L48.2999999,394.892 L50.1719999,394.892 L50.1719999,396.674 C50.1719999,398.618 49.1639999,399.77 47.2559999,399.77 Z M51.0599999,399.59 L51.0599999,386.99 L53.0399999,386.99 L53.0399999,399.59 L51.0599999,399.59 Z M54.2159999,399.59 L54.2159999,386.99 L59.6159999,386.99 L59.6159999,388.79 L56.1959999,388.79 L56.1959999,392.12 L58.9139999,392.12 L58.9139999,393.92 L56.1959999,393.92 L56.1959999,397.79 L59.6159999,397.79 L59.6159999,399.59 L54.2159999,399.59 Z M60.4499999,399.59 L60.4499999,386.99 L63.4739999,386.99 C65.4539999,386.99 66.4259999,388.088 66.4259999,390.104 L66.4259999,396.476 C66.4259999,398.492 65.4539999,399.59 63.4739999,399.59 L60.4499999,399.59 Z M62.4299999,397.79 L63.4379999,397.79 C64.0679999,397.79 64.4459999,397.466 64.4459999,396.566 L64.4459999,390.014 C64.4459999,389.114 64.0679999,388.79 63.4379999,388.79 L62.4299999,388.79 L62.4299999,397.79 Z M66.8999999,399.59 L68.9519999,386.99 L71.6339999,386.99 L73.6859999,399.59 L71.7059999,399.59 L71.3459999,397.088 L71.3459999,397.124 L69.0959999,397.124 L68.7359999,399.59 L66.8999999,399.59 Z M69.3299999,395.414 L71.1119999,395.414 L70.2299999,389.186 L70.1939999,389.186 L69.3299999,395.414 Z M74.3399999,399.59 L74.3399999,386.99 L77.3639999,386.99 C79.3439999,386.99 80.3159999,388.088 80.3159999,390.104 L80.3159999,396.476 C80.3159999,398.492 79.3439999,399.59 77.3639999,399.59 L74.3399999,399.59 Z M76.3199999,397.79 L77.3279999,397.79 C77.9579999,397.79 78.3359999,397.466 78.3359999,396.566 L78.3359999,390.014 C78.3359999,389.114 77.9579999,388.79 77.3279999,388.79 L76.3199999,388.79 L76.3199999,397.79 Z" id="sociedad" fill="#666666" fill-rule="nonzero"></path>
                <path d="M35.7599999,438.59 L33.8519999,425.99 L35.8499999,425.99 L37.1459999,435.764 L37.1819999,435.764 L38.4779999,425.99 L40.2959999,425.99 L38.3879999,438.59 L35.7599999,438.59 Z M40.9499999,438.59 L40.9499999,425.99 L42.9299999,425.99 L42.9299999,438.59 L40.9499999,438.59 Z M45.4919999,438.59 L43.5839999,425.99 L45.5819999,425.99 L46.8779999,435.764 L46.9139999,435.764 L48.2099999,425.99 L50.0279999,425.99 L48.1199999,438.59 L45.4919999,438.59 Z M50.6819999,438.59 L50.6819999,425.99 L52.6619999,425.99 L52.6619999,438.59 L50.6819999,438.59 Z M53.8379999,438.59 L53.8379999,425.99 L59.2379999,425.99 L59.2379999,427.79 L55.8179999,427.79 L55.8179999,431.12 L58.5359999,431.12 L58.5359999,432.92 L55.8179999,432.92 L55.8179999,436.79 L59.2379999,436.79 L59.2379999,438.59 L53.8379999,438.59 Z M60.0719999,438.59 L60.0719999,425.99 L62.5559999,425.99 L64.4819999,433.532 L64.5179999,433.532 L64.5179999,425.99 L66.2819999,425.99 L66.2819999,438.59 L64.2479999,438.59 L61.8719999,429.392 L61.8359999,429.392 L61.8359999,438.59 L60.0719999,438.59 Z M67.4579999,438.59 L67.4579999,425.99 L70.4819999,425.99 C72.4619999,425.99 73.4339999,427.088 73.4339999,429.104 L73.4339999,435.476 C73.4339999,437.492 72.4619999,438.59 70.4819999,438.59 L67.4579999,438.59 Z M69.4379999,436.79 L70.4459999,436.79 C71.0759999,436.79 71.4539999,436.466 71.4539999,435.566 L71.4539999,429.014 C71.4539999,428.114 71.0759999,427.79 70.4459999,427.79 L69.4379999,427.79 L69.4379999,436.79 Z M73.9079999,438.59 L75.9599999,425.99 L78.6419999,425.99 L80.6939999,438.59 L78.7139999,438.59 L78.3539999,436.088 L78.3539999,436.124 L76.1039999,436.124 L75.7439999,438.59 L73.9079999,438.59 Z M76.3379999,434.414 L78.1199999,434.414 L77.2379999,428.186 L77.2019999,428.186 L76.3379999,434.414 Z" id="vivienda" fill="#666666" fill-rule="nonzero"></path>
                <path d="M19.08,477.77 C17.172,477.77 16.164,476.618 16.164,474.674 L16.164,467.906 C16.164,465.962 17.172,464.81 19.08,464.81 C20.988,464.81 21.996,465.962 21.996,467.906 L21.996,469.238 L20.124,469.238 L20.124,467.78 C20.124,466.952 19.728,466.61 19.134,466.61 C18.54,466.61 18.144,466.952 18.144,467.78 L18.144,474.818 C18.144,475.646 18.54,475.97 19.134,475.97 C19.728,475.97 20.124,475.646 20.124,474.818 L20.124,472.892 L21.996,472.892 L21.996,474.674 C21.996,476.618 20.988,477.77 19.08,477.77 Z M25.782,477.77 C23.838,477.77 22.776,476.618 22.776,474.602 L22.776,467.978 C22.776,465.962 23.838,464.81 25.782,464.81 C27.726,464.81 28.788,465.962 28.788,467.978 L28.788,474.602 C28.788,476.618 27.726,477.77 25.782,477.77 Z M25.782,475.97 C26.412,475.97 26.808,475.628 26.808,474.728 L26.808,467.852 C26.808,466.952 26.412,466.61 25.782,466.61 C25.152,466.61 24.756,466.952 24.756,467.852 L24.756,474.728 C24.756,475.628 25.152,475.97 25.782,475.97 Z M29.8199999,477.59 L29.8199999,464.99 L32.7539999,464.99 C34.8059999,464.99 35.6879999,465.944 35.6879999,467.888 L35.6879999,468.662 C35.6879999,469.958 35.2739999,470.786 34.3919999,471.146 L34.3919999,471.182 C35.3819999,471.488 35.7059999,472.424 35.7059999,473.846 L35.7059999,476.06 C35.7059999,476.672 35.7239999,477.122 35.9219999,477.59 L33.9059999,477.59 C33.7979999,477.266 33.7259999,477.068 33.7259999,476.042 L33.7259999,473.738 C33.7259999,472.568 33.3839999,472.19 32.4839999,472.19 L31.7999999,472.19 L31.7999999,477.59 L29.8199999,477.59 Z M31.7999999,470.39 L32.5199999,470.39 C33.2579999,470.39 33.7079999,470.066 33.7079999,469.058 L33.7079999,468.086 C33.7079999,467.186 33.4019999,466.79 32.6999999,466.79 L31.7999999,466.79 L31.7999999,470.39 Z M36.7739999,477.59 L36.7739999,464.99 L39.7079999,464.99 C41.7599999,464.99 42.6419999,465.944 42.6419999,467.888 L42.6419999,468.662 C42.6419999,469.958 42.2279999,470.786 41.3459999,471.146 L41.3459999,471.182 C42.3359999,471.488 42.6599999,472.424 42.6599999,473.846 L42.6599999,476.06 C42.6599999,476.672 42.6779999,477.122 42.8759999,477.59 L40.8599999,477.59 C40.7519999,477.266 40.6799999,477.068 40.6799999,476.042 L40.6799999,473.738 C40.6799999,472.568 40.3379999,472.19 39.4379999,472.19 L38.7539999,472.19 L38.7539999,477.59 L36.7739999,477.59 Z M38.7539999,470.39 L39.4739999,470.39 C40.2119999,470.39 40.6619999,470.066 40.6619999,469.058 L40.6619999,468.086 C40.6619999,467.186 40.3559999,466.79 39.6539999,466.79 L38.7539999,466.79 L38.7539999,470.39 Z M46.6079999,477.77 C44.6639999,477.77 43.6559999,476.618 43.6559999,474.602 L43.6559999,464.99 L45.6359999,464.99 L45.6359999,474.746 C45.6359999,475.646 46.0139999,475.97 46.6439999,475.97 C47.2739999,475.97 47.6519999,475.646 47.6519999,474.746 L47.6519999,464.99 L49.5599999,464.99 L49.5599999,474.602 C49.5599999,476.618 48.5519999,477.77 46.6079999,477.77 Z M50.6639999,477.59 L50.6639999,464.99 L53.5799999,464.99 C55.5599999,464.99 56.5319999,466.088 56.5319999,468.104 L56.5319999,469.346 C56.5319999,471.362 55.5599999,472.46 53.5799999,472.46 L52.6439999,472.46 L52.6439999,477.59 L50.6639999,477.59 Z M52.6439999,470.66 L53.5799999,470.66 C54.2099999,470.66 54.5519999,470.372 54.5519999,469.472 L54.5519999,467.978 C54.5519999,467.078 54.2099999,466.79 53.5799999,466.79 L52.6439999,466.79 L52.6439999,470.66 Z M60.1019999,477.77 C58.1939999,477.77 57.1859999,476.618 57.1859999,474.674 L57.1859999,467.906 C57.1859999,465.962 58.1939999,464.81 60.1019999,464.81 C62.0099999,464.81 63.0179999,465.962 63.0179999,467.906 L63.0179999,469.238 L61.1459999,469.238 L61.1459999,467.78 C61.1459999,466.952 60.7499999,466.61 60.1559999,466.61 C59.5619999,466.61 59.1659999,466.952 59.1659999,467.78 L59.1659999,474.818 C59.1659999,475.646 59.5619999,475.97 60.1559999,475.97 C60.7499999,475.97 61.1459999,475.646 61.1459999,474.818 L61.1459999,472.892 L63.0179999,472.892 L63.0179999,474.674 C63.0179999,476.618 62.0099999,477.77 60.1019999,477.77 Z M63.9059999,477.59 L63.9059999,464.99 L65.8859999,464.99 L65.8859999,477.59 L63.9059999,477.59 Z M68.8439999,464.144 L70.1039999,462.074 L72.2639999,462.074 L70.3379999,464.144 L68.8439999,464.144 Z M69.9239999,477.77 C67.9799999,477.77 66.9179999,476.618 66.9179999,474.602 L66.9179999,467.978 C66.9179999,465.962 67.9799999,464.81 69.9239999,464.81 C71.8679999,464.81 72.9299999,465.962 72.9299999,467.978 L72.9299999,474.602 C72.9299999,476.618 71.8679999,477.77 69.9239999,477.77 Z M69.9239999,475.97 C70.5539999,475.97 70.9499999,475.628 70.9499999,474.728 L70.9499999,467.852 C70.9499999,466.952 70.5539999,466.61 69.9239999,466.61 C69.2939999,466.61 68.8979999,466.952 68.8979999,467.852 L68.8979999,474.728 C68.8979999,475.628 69.2939999,475.97 69.9239999,475.97 Z M73.9619999,477.59 L73.9619999,464.99 L76.4459999,464.99 L78.3719999,472.532 L78.4079999,472.532 L78.4079999,464.99 L80.1719999,464.99 L80.1719999,477.59 L78.1379999,477.59 L75.7619999,468.392 L75.7259999,468.392 L75.7259999,477.59 L73.9619999,477.59 Z" id="corrupción" fill="#666666" fill-rule="nonzero"></path>
                <path d="M29.922,507.59 L28.014,494.99 L30.012,494.99 L31.308,504.764 L31.344,504.764 L32.64,494.99 L34.458,494.99 L32.55,507.59 L29.922,507.59 Z M35.1119999,507.59 L35.1119999,494.99 L37.0919999,494.99 L37.0919999,507.59 L35.1119999,507.59 Z M41.1299999,507.77 C39.1859999,507.77 38.1239999,506.618 38.1239999,504.602 L38.1239999,497.978 C38.1239999,495.962 39.1859999,494.81 41.1299999,494.81 C43.0739999,494.81 44.1359999,495.962 44.1359999,497.978 L44.1359999,504.602 C44.1359999,506.618 43.0739999,507.77 41.1299999,507.77 Z M41.1299999,505.97 C41.7599999,505.97 42.1559999,505.628 42.1559999,504.728 L42.1559999,497.852 C42.1559999,496.952 41.7599999,496.61 41.1299999,496.61 C40.4999999,496.61 40.1039999,496.952 40.1039999,497.852 L40.1039999,504.728 C40.1039999,505.628 40.4999999,505.97 41.1299999,505.97 Z M45.1679999,507.59 L45.1679999,494.99 L47.1479999,494.99 L47.1479999,505.79 L50.4059999,505.79 L50.4059999,507.59 L45.1679999,507.59 Z M51.0599999,507.59 L51.0599999,494.99 L56.4599999,494.99 L56.4599999,496.79 L53.0399999,496.79 L53.0399999,500.12 L55.7579999,500.12 L55.7579999,501.92 L53.0399999,501.92 L53.0399999,505.79 L56.4599999,505.79 L56.4599999,507.59 L51.0599999,507.59 Z M57.2939999,507.59 L57.2939999,494.99 L59.7779999,494.99 L61.7039999,502.532 L61.7399999,502.532 L61.7399999,494.99 L63.5039999,494.99 L63.5039999,507.59 L61.4699999,507.59 L59.0939999,498.392 L59.0579999,498.392 L59.0579999,507.59 L57.2939999,507.59 Z M67.4699999,507.77 C65.5619999,507.77 64.5539999,506.618 64.5539999,504.674 L64.5539999,497.906 C64.5539999,495.962 65.5619999,494.81 67.4699999,494.81 C69.3779999,494.81 70.3859999,495.962 70.3859999,497.906 L70.3859999,499.238 L68.5139999,499.238 L68.5139999,497.78 C68.5139999,496.952 68.1179999,496.61 67.5239999,496.61 C66.9299999,496.61 66.5339999,496.952 66.5339999,497.78 L66.5339999,504.818 C66.5339999,505.646 66.9299999,505.97 67.5239999,505.97 C68.1179999,505.97 68.5139999,505.646 68.5139999,504.818 L68.5139999,502.892 L70.3859999,502.892 L70.3859999,504.674 C70.3859999,506.618 69.3779999,507.77 67.4699999,507.77 Z M71.2739999,507.59 L71.2739999,494.99 L73.2539999,494.99 L73.2539999,507.59 L71.2739999,507.59 Z M73.9079999,507.59 L75.9599999,494.99 L78.6419999,494.99 L80.6939999,507.59 L78.7139999,507.59 L78.3539999,505.088 L78.3539999,505.124 L76.1039999,505.124 L75.7439999,507.59 L73.9079999,507.59 Z M76.3379999,503.414 L78.1199999,503.414 L77.2379999,497.186 L77.2019999,497.186 L76.3379999,503.414 Z M29.3339999,523.59 L29.3339999,510.99 L32.1599999,510.99 L33.4199999,520.008 L33.4559999,520.008 L34.7159999,510.99 L37.5419999,510.99 L37.5419999,523.59 L35.6699999,523.59 L35.6699999,514.05 L35.6339999,514.05 L34.1939999,523.59 L32.5379999,523.59 L31.0979999,514.05 L31.0619999,514.05 L31.0619999,523.59 L29.3339999,523.59 Z M38.1959999,523.59 L40.2479999,510.99 L42.9299999,510.99 L44.9819999,523.59 L43.0019999,523.59 L42.6419999,521.088 L42.6419999,521.124 L40.3919999,521.124 L40.0319999,523.59 L38.1959999,523.59 Z M40.6259999,519.414 L42.4079999,519.414 L41.5259999,513.186 L41.4899999,513.186 L40.6259999,519.414 Z M48.3899999,523.77 C46.4819999,523.77 45.4739999,522.618 45.4739999,520.674 L45.4739999,513.906 C45.4739999,511.962 46.4819999,510.81 48.3899999,510.81 C50.2979999,510.81 51.3059999,511.962 51.3059999,513.906 L51.3059999,515.238 L49.4339999,515.238 L49.4339999,513.78 C49.4339999,512.952 49.0379999,512.61 48.4439999,512.61 C47.8499999,512.61 47.4539999,512.952 47.4539999,513.78 L47.4539999,520.818 C47.4539999,521.646 47.8499999,521.97 48.4439999,521.97 C49.0379999,521.97 49.4339999,521.646 49.4339999,520.818 L49.4339999,518.892 L51.3059999,518.892 L51.3059999,520.674 C51.3059999,522.618 50.2979999,523.77 48.3899999,523.77 Z M52.1939999,523.59 L52.1939999,510.99 L54.1739999,510.99 L54.1739999,516.12 L56.2979999,516.12 L56.2979999,510.99 L58.2779999,510.99 L58.2779999,523.59 L56.2979999,523.59 L56.2979999,517.92 L54.1739999,517.92 L54.1739999,523.59 L52.1939999,523.59 Z M59.4539999,523.59 L59.4539999,510.99 L61.4339999,510.99 L61.4339999,523.59 L59.4539999,523.59 Z M65.1839999,523.77 C63.2399999,523.77 62.2679999,522.618 62.2679999,520.602 L62.2679999,519.882 L64.1399999,519.882 L64.1399999,520.746 C64.1399999,521.646 64.5359999,521.97 65.1659999,521.97 C65.7959999,521.97 66.1919999,521.646 66.1919999,520.71 C66.1919999,519.666 65.7959999,519 64.4999999,517.866 C62.8439999,516.408 62.3039999,515.382 62.3039999,513.942 C62.3039999,511.962 63.3299999,510.81 65.2559999,510.81 C67.1819999,510.81 68.1359999,511.962 68.1359999,513.978 L68.1359999,514.5 L66.2639999,514.5 L66.2639999,513.852 C66.2639999,512.952 65.9039999,512.61 65.2739999,512.61 C64.6439999,512.61 64.2839999,512.952 64.2839999,513.816 C64.2839999,514.734 64.6979999,515.4 65.9939999,516.534 C67.6499999,517.992 68.1719999,519 68.1719999,520.566 C68.1719999,522.618 67.1279999,523.77 65.1839999,523.77 Z M70.5539999,523.59 L70.5539999,512.79 L68.4839999,512.79 L68.4839999,510.99 L74.6039999,510.99 L74.6039999,512.79 L72.5339999,512.79 L72.5339999,523.59 L70.5539999,523.59 Z M73.9079999,523.59 L75.9599999,510.99 L78.6419999,510.99 L80.6939999,523.59 L78.7139999,523.59 L78.3539999,521.088 L78.3539999,521.124 L76.1039999,521.124 L75.7439999,523.59 L73.9079999,523.59 Z M76.3379999,519.414 L78.1199999,519.414 L77.2379999,513.186 L77.2019999,513.186 L76.3379999,519.414 Z" id="violenciamachista" fill="#666666" fill-rule="nonzero"></path>
                <path d="M-2.79953838e-12,546.59 L-2.79953838e-12,533.99 L1.98,533.99 L1.98,546.59 L-2.79953838e-12,546.59 Z M3.15599999,546.59 L3.15599999,533.99 L5.63999999,533.99 L7.56599999,541.532 L7.60199999,541.532 L7.60199999,533.99 L9.36599999,533.99 L9.36599999,546.59 L7.33199999,546.59 L4.95599999,537.392 L4.91999999,537.392 L4.91999999,546.59 L3.15599999,546.59 Z M10.542,546.59 L10.542,533.99 L13.566,533.99 C15.546,533.99 16.518,535.088 16.518,537.104 L16.518,543.476 C16.518,545.492 15.546,546.59 13.566,546.59 L10.542,546.59 Z M12.522,544.79 L13.53,544.79 C14.16,544.79 14.538,544.466 14.538,543.566 L14.538,537.014 C14.538,536.114 14.16,535.79 13.53,535.79 L12.522,535.79 L12.522,544.79 Z M17.55,546.59 L17.55,533.99 L22.95,533.99 L22.95,535.79 L19.53,535.79 L19.53,539.12 L22.248,539.12 L22.248,540.92 L19.53,540.92 L19.53,544.79 L22.95,544.79 L22.95,546.59 L17.55,546.59 Z M23.784,546.59 L23.784,533.99 L26.7,533.99 C28.68,533.99 29.652,535.088 29.652,537.104 L29.652,538.346 C29.652,540.362 28.68,541.46 26.7,541.46 L25.764,541.46 L25.764,546.59 L23.784,546.59 Z M25.764,539.66 L26.7,539.66 C27.33,539.66 27.672,539.372 27.672,538.472 L27.672,536.978 C27.672,536.078 27.33,535.79 26.7,535.79 L25.764,535.79 L25.764,539.66 Z M30.4319999,546.59 L30.4319999,533.99 L35.8319999,533.99 L35.8319999,535.79 L32.4119999,535.79 L32.4119999,539.12 L35.1299999,539.12 L35.1299999,540.92 L32.4119999,540.92 L32.4119999,544.79 L35.8319999,544.79 L35.8319999,546.59 L30.4319999,546.59 Z M36.6659999,546.59 L36.6659999,533.99 L39.1499999,533.99 L41.0759999,541.532 L41.1119999,541.532 L41.1119999,533.99 L42.8759999,533.99 L42.8759999,546.59 L40.8419999,546.59 L38.4659999,537.392 L38.4299999,537.392 L38.4299999,546.59 L36.6659999,546.59 Z M44.0519999,546.59 L44.0519999,533.99 L47.0759999,533.99 C49.0559999,533.99 50.0279999,535.088 50.0279999,537.104 L50.0279999,543.476 C50.0279999,545.492 49.0559999,546.59 47.0759999,546.59 L44.0519999,546.59 Z M46.0319999,544.79 L47.0399999,544.79 C47.6699999,544.79 48.0479999,544.466 48.0479999,543.566 L48.0479999,537.014 C48.0479999,536.114 47.6699999,535.79 47.0399999,535.79 L46.0319999,535.79 L46.0319999,544.79 Z M51.0599999,546.59 L51.0599999,533.99 L56.4599999,533.99 L56.4599999,535.79 L53.0399999,535.79 L53.0399999,539.12 L55.7579999,539.12 L55.7579999,540.92 L53.0399999,540.92 L53.0399999,544.79 L56.4599999,544.79 L56.4599999,546.59 L51.0599999,546.59 Z M57.2939999,546.59 L57.2939999,533.99 L59.7779999,533.99 L61.7039999,541.532 L61.7399999,541.532 L61.7399999,533.99 L63.5039999,533.99 L63.5039999,546.59 L61.4699999,546.59 L59.0939999,537.392 L59.0579999,537.392 L59.0579999,546.59 L57.2939999,546.59 Z M67.4699999,546.77 C65.5619999,546.77 64.5539999,545.618 64.5539999,543.674 L64.5539999,536.906 C64.5539999,534.962 65.5619999,533.81 67.4699999,533.81 C69.3779999,533.81 70.3859999,534.962 70.3859999,536.906 L70.3859999,538.238 L68.5139999,538.238 L68.5139999,536.78 C68.5139999,535.952 68.1179999,535.61 67.5239999,535.61 C66.9299999,535.61 66.5339999,535.952 66.5339999,536.78 L66.5339999,543.818 C66.5339999,544.646 66.9299999,544.97 67.5239999,544.97 C68.1179999,544.97 68.5139999,544.646 68.5139999,543.818 L68.5139999,541.892 L70.3859999,541.892 L70.3859999,543.674 C70.3859999,545.618 69.3779999,546.77 67.4699999,546.77 Z M71.2739999,546.59 L71.2739999,533.99 L73.2539999,533.99 L73.2539999,546.59 L71.2739999,546.59 Z M73.9079999,546.59 L75.9599999,533.99 L78.6419999,533.99 L80.6939999,546.59 L78.7139999,546.59 L78.3539999,544.088 L78.3539999,544.124 L76.1039999,544.124 L75.7439999,546.59 L73.9079999,546.59 Z M76.3379999,542.414 L78.1199999,542.414 L77.2379999,536.186 L77.2019999,536.186 L76.3379999,542.414 Z M13.368,562.59 L13.368,549.99 L16.392,549.99 C18.372,549.99 19.344,551.088 19.344,553.104 L19.344,559.476 C19.344,561.492 18.372,562.59 16.392,562.59 L13.368,562.59 Z M15.348,560.79 L16.356,560.79 C16.986,560.79 17.364,560.466 17.364,559.566 L17.364,553.014 C17.364,552.114 16.986,551.79 16.356,551.79 L15.348,551.79 L15.348,560.79 Z M20.376,562.59 L20.376,549.99 L25.776,549.99 L25.776,551.79 L22.356,551.79 L22.356,555.12 L25.074,555.12 L25.074,556.92 L22.356,556.92 L22.356,560.79 L25.776,560.79 L25.776,562.59 L20.376,562.59 Z M31.9799999,562.77 C30.0719999,562.77 29.0639999,561.618 29.0639999,559.674 L29.0639999,552.906 C29.0639999,550.962 30.0719999,549.81 31.9799999,549.81 C33.8879999,549.81 34.8959999,550.962 34.8959999,552.906 L34.8959999,554.238 L33.0239999,554.238 L33.0239999,552.78 C33.0239999,551.952 32.6279999,551.61 32.0339999,551.61 C31.4399999,551.61 31.0439999,551.952 31.0439999,552.78 L31.0439999,559.818 C31.0439999,560.646 31.4399999,560.97 32.0339999,560.97 C32.6279999,560.97 33.0239999,560.646 33.0239999,559.818 L33.0239999,557.892 L34.8959999,557.892 L34.8959999,559.674 C34.8959999,561.618 33.8879999,562.77 31.9799999,562.77 Z M35.2619999,562.59 L37.3139999,549.99 L39.9959999,549.99 L42.0479999,562.59 L40.0679999,562.59 L39.7079999,560.088 L39.7079999,560.124 L37.4579999,560.124 L37.0979999,562.59 L35.2619999,562.59 Z M37.6919999,558.414 L39.4739999,558.414 L38.5919999,552.186 L38.5559999,552.186 L37.6919999,558.414 Z M43.4219999,562.59 L43.4219999,551.79 L41.3519999,551.79 L41.3519999,549.99 L47.4719999,549.99 L47.4719999,551.79 L45.4019999,551.79 L45.4019999,562.59 L43.4219999,562.59 Z M46.7759999,562.59 L48.8279999,549.99 L51.5099999,549.99 L53.5619999,562.59 L51.5819999,562.59 L51.2219999,560.088 L51.2219999,560.124 L48.9719999,560.124 L48.6119999,562.59 L46.7759999,562.59 Z M49.2059999,558.414 L50.9879999,558.414 L50.1059999,552.186 L50.0699999,552.186 L49.2059999,558.414 Z M54.2159999,562.59 L54.2159999,549.99 L56.1959999,549.99 L56.1959999,560.79 L59.4539999,560.79 L59.4539999,562.59 L54.2159999,562.59 Z M62.9879999,562.77 C61.0439999,562.77 60.0359999,561.618 60.0359999,559.602 L60.0359999,549.99 L62.0159999,549.99 L62.0159999,559.746 C62.0159999,560.646 62.3939999,560.97 63.0239999,560.97 C63.6539999,560.97 64.0319999,560.646 64.0319999,559.746 L64.0319999,549.99 L65.9399999,549.99 L65.9399999,559.602 C65.9399999,561.618 64.9319999,562.77 62.9879999,562.77 Z M68.6099999,549.216 L67.6559999,548.64 C68.1059999,547.632 68.6099999,547.128 69.2939999,547.128 C69.7799999,547.128 70.1039999,547.308 70.3739999,547.47 C70.5899999,547.596 70.7699999,547.704 70.9859999,547.704 C71.2739999,547.704 71.4719999,547.506 71.7059999,547.002 L72.6599999,547.578 C72.2099999,548.586 71.7059999,549.09 71.0219999,549.09 C70.5359999,549.09 70.2119999,548.91 69.9419999,548.748 C69.7259999,548.622 69.5459999,548.514 69.3299999,548.514 C69.0419999,548.514 68.8439999,548.712 68.6099999,549.216 Z M67.0439999,562.59 L67.0439999,549.99 L69.5279999,549.99 L71.4539999,557.532 L71.4899999,557.532 L71.4899999,549.99 L73.2539999,549.99 L73.2539999,562.59 L71.2199999,562.59 L68.8439999,553.392 L68.8079999,553.392 L68.8079999,562.59 L67.0439999,562.59 Z M73.9079999,562.59 L75.9599999,549.99 L78.6419999,549.99 L80.6939999,562.59 L78.7139999,562.59 L78.3539999,560.088 L78.3539999,560.124 L76.1039999,560.124 L75.7439999,562.59 L73.9079999,562.59 Z M76.3379999,558.414 L78.1199999,558.414 L77.2379999,552.186 L77.2019999,552.186 L76.3379999,558.414 Z" id="independenciadecataluña" fill="#666666" fill-rule="nonzero"></path>
                <path d="M5.724,584.59 L5.724,571.99 L7.704,571.99 L7.704,584.59 L5.724,584.59 Z M8.87999999,584.59 L8.87999999,571.99 L11.364,571.99 L13.29,579.532 L13.326,579.532 L13.326,571.99 L15.09,571.99 L15.09,584.59 L13.056,584.59 L10.68,575.392 L10.644,575.392 L10.644,584.59 L8.87999999,584.59 Z M16.266,584.59 L16.266,571.99 L21.666,571.99 L21.666,573.79 L18.246,573.79 L18.246,577.12 L20.964,577.12 L20.964,578.92 L18.246,578.92 L18.246,582.79 L21.666,582.79 L21.666,584.59 L16.266,584.59 Z M25.11,584.77 C23.166,584.77 22.194,583.618 22.194,581.602 L22.194,580.882 L24.066,580.882 L24.066,581.746 C24.066,582.646 24.462,582.97 25.092,582.97 C25.722,582.97 26.118,582.646 26.118,581.71 C26.118,580.666 25.722,580 24.426,578.866 C22.77,577.408 22.23,576.382 22.23,574.942 C22.23,572.962 23.256,571.81 25.182,571.81 C27.108,571.81 28.062,572.962 28.062,574.978 L28.062,575.5 L26.19,575.5 L26.19,574.852 C26.19,573.952 25.83,573.61 25.2,573.61 C24.57,573.61 24.21,573.952 24.21,574.816 C24.21,575.734 24.624,576.4 25.92,577.534 C27.576,578.992 28.098,580 28.098,581.566 C28.098,583.618 27.054,584.77 25.11,584.77 Z M30.48,584.59 L30.48,573.79 L28.41,573.79 L28.41,571.99 L34.53,571.99 L34.53,573.79 L32.46,573.79 L32.46,584.59 L30.48,584.59 Z M33.8339999,584.59 L35.8859999,571.99 L38.5679999,571.99 L40.6199999,584.59 L38.6399999,584.59 L38.2799999,582.088 L38.2799999,582.124 L36.0299999,582.124 L35.6699999,584.59 L33.8339999,584.59 Z M36.2639999,580.414 L38.0459999,580.414 L37.1639999,574.186 L37.1279999,574.186 L36.2639999,580.414 Z M41.2739999,584.59 L41.2739999,571.99 L44.2619999,571.99 C46.3139999,571.99 47.1959999,572.944 47.1959999,574.888 L47.1959999,575.392 C47.1959999,576.688 46.7999999,577.498 45.9179999,577.858 L45.9179999,577.894 C46.9799999,578.254 47.3939999,579.19 47.3939999,580.522 L47.3939999,581.602 C47.3939999,583.546 46.3679999,584.59 44.3879999,584.59 L41.2739999,584.59 Z M43.2539999,577.12 L44.0279999,577.12 C44.7659999,577.12 45.2159999,576.796 45.2159999,575.788 L45.2159999,575.086 C45.2159999,574.186 44.9099999,573.79 44.2079999,573.79 L43.2539999,573.79 L43.2539999,577.12 Z M43.2539999,582.79 L44.3879999,582.79 C45.0539999,582.79 45.4139999,582.484 45.4139999,581.548 L45.4139999,580.45 C45.4139999,579.28 45.0359999,578.92 44.1359999,578.92 L43.2539999,578.92 L43.2539999,582.79 Z M48.2459999,584.59 L48.2459999,571.99 L50.2259999,571.99 L50.2259999,584.59 L48.2459999,584.59 Z M51.4019999,584.59 L51.4019999,571.99 L53.3819999,571.99 L53.3819999,582.79 L56.6399999,582.79 L56.6399999,584.59 L51.4019999,584.59 Z M57.2939999,584.59 L57.2939999,571.99 L59.2739999,571.99 L59.2739999,584.59 L57.2939999,584.59 Z M60.4499999,584.59 L60.4499999,571.99 L63.4739999,571.99 C65.4539999,571.99 66.4259999,573.088 66.4259999,575.104 L66.4259999,581.476 C66.4259999,583.492 65.4539999,584.59 63.4739999,584.59 L60.4499999,584.59 Z M62.4299999,582.79 L63.4379999,582.79 C64.0679999,582.79 64.4459999,582.466 64.4459999,581.566 L64.4459999,575.014 C64.4459999,574.114 64.0679999,573.79 63.4379999,573.79 L62.4299999,573.79 L62.4299999,582.79 Z M66.8999999,584.59 L68.9519999,571.99 L71.6339999,571.99 L73.6859999,584.59 L71.7059999,584.59 L71.3459999,582.088 L71.3459999,582.124 L69.0959999,582.124 L68.7359999,584.59 L66.8999999,584.59 Z M69.3299999,580.414 L71.1119999,580.414 L70.2299999,574.186 L70.1939999,574.186 L69.3299999,580.414 Z M74.3399999,584.59 L74.3399999,571.99 L77.3639999,571.99 C79.3439999,571.99 80.3159999,573.088 80.3159999,575.104 L80.3159999,581.476 C80.3159999,583.492 79.3439999,584.59 77.3639999,584.59 L74.3399999,584.59 Z M76.3199999,582.79 L77.3279999,582.79 C77.9579999,582.79 78.3359999,582.466 78.3359999,581.566 L78.3359999,575.014 C78.3359999,574.114 77.9579999,573.79 77.3279999,573.79 L76.3199999,573.79 L76.3199999,582.79 Z M35.8319999,600.59 L35.8319999,587.99 L38.7479999,587.99 C40.7279999,587.99 41.6999999,589.088 41.6999999,591.104 L41.6999999,592.346 C41.6999999,594.362 40.7279999,595.46 38.7479999,595.46 L37.8119999,595.46 L37.8119999,600.59 L35.8319999,600.59 Z M37.8119999,593.66 L38.7479999,593.66 C39.3779999,593.66 39.7199999,593.372 39.7199999,592.472 L39.7199999,590.978 C39.7199999,590.078 39.3779999,589.79 38.7479999,589.79 L37.8119999,589.79 L37.8119999,593.66 Z M45.3419999,600.77 C43.3979999,600.77 42.3359999,599.618 42.3359999,597.602 L42.3359999,590.978 C42.3359999,588.962 43.3979999,587.81 45.3419999,587.81 C47.2859999,587.81 48.3479999,588.962 48.3479999,590.978 L48.3479999,597.602 C48.3479999,599.618 47.2859999,600.77 45.3419999,600.77 Z M45.3419999,598.97 C45.9719999,598.97 46.3679999,598.628 46.3679999,597.728 L46.3679999,590.852 C46.3679999,589.952 45.9719999,589.61 45.3419999,589.61 C44.7119999,589.61 44.3159999,589.952 44.3159999,590.852 L44.3159999,597.728 C44.3159999,598.628 44.7119999,598.97 45.3419999,598.97 Z M49.3799999,600.59 L49.3799999,587.99 L51.3599999,587.99 L51.3599999,598.79 L54.6179999,598.79 L54.6179999,600.59 L49.3799999,600.59 Z M55.1819999,587.144 L56.4419999,585.074 L58.6019999,585.074 L56.6759999,587.144 L55.1819999,587.144 Z M55.2719999,600.59 L55.2719999,587.99 L57.2519999,587.99 L57.2519999,600.59 L55.2719999,600.59 Z M59.9759999,600.59 L59.9759999,589.79 L57.9059999,589.79 L57.9059999,587.99 L64.0259999,587.99 L64.0259999,589.79 L61.9559999,589.79 L61.9559999,600.59 L59.9759999,600.59 Z M64.6799999,600.59 L64.6799999,587.99 L66.6599999,587.99 L66.6599999,600.59 L64.6799999,600.59 Z M70.6259999,600.77 C68.7179999,600.77 67.7099999,599.618 67.7099999,597.674 L67.7099999,590.906 C67.7099999,588.962 68.7179999,587.81 70.6259999,587.81 C72.5339999,587.81 73.5419999,588.962 73.5419999,590.906 L73.5419999,592.238 L71.6699999,592.238 L71.6699999,590.78 C71.6699999,589.952 71.2739999,589.61 70.6799999,589.61 C70.0859999,589.61 69.6899999,589.952 69.6899999,590.78 L69.6899999,597.818 C69.6899999,598.646 70.0859999,598.97 70.6799999,598.97 C71.2739999,598.97 71.6699999,598.646 71.6699999,597.818 L71.6699999,595.892 L73.5419999,595.892 L73.5419999,597.674 C73.5419999,599.618 72.5339999,600.77 70.6259999,600.77 Z M73.9079999,600.59 L75.9599999,587.99 L78.6419999,587.99 L80.6939999,600.59 L78.7139999,600.59 L78.3539999,598.088 L78.3539999,598.124 L76.1039999,598.124 L75.7439999,600.59 L73.9079999,600.59 Z M76.3379999,596.414 L78.1199999,596.414 L77.2379999,590.186 L77.2019999,590.186 L76.3379999,596.414 Z" id="inestabilidadpolítica" fill="#666666" fill-rule="nonzero"></path>
                <path d="M27.8399999,207.59 L27.8399999,194.99 L33.2399999,194.99 L33.2399999,196.79 L29.8199999,196.79 L29.8199999,200.12 L32.5379999,200.12 L32.5379999,201.92 L29.8199999,201.92 L29.8199999,205.79 L33.2399999,205.79 L33.2399999,207.59 L27.8399999,207.59 Z M36.8639999,207.77 C34.9559999,207.77 33.9479999,206.618 33.9479999,204.674 L33.9479999,197.906 C33.9479999,195.962 34.9559999,194.81 36.8639999,194.81 C38.7719999,194.81 39.7799999,195.962 39.7799999,197.906 L39.7799999,199.238 L37.9079999,199.238 L37.9079999,197.78 C37.9079999,196.952 37.5119999,196.61 36.9179999,196.61 C36.3239999,196.61 35.9279999,196.952 35.9279999,197.78 L35.9279999,204.818 C35.9279999,205.646 36.3239999,205.97 36.9179999,205.97 C37.5119999,205.97 37.9079999,205.646 37.9079999,204.818 L37.9079999,202.892 L39.7799999,202.892 L39.7799999,204.674 C39.7799999,206.618 38.7719999,207.77 36.8639999,207.77 Z M43.5659999,207.77 C41.6219999,207.77 40.5599999,206.618 40.5599999,204.602 L40.5599999,197.978 C40.5599999,195.962 41.6219999,194.81 43.5659999,194.81 C45.5099999,194.81 46.5719999,195.962 46.5719999,197.978 L46.5719999,204.602 C46.5719999,206.618 45.5099999,207.77 43.5659999,207.77 Z M43.5659999,205.97 C44.1959999,205.97 44.5919999,205.628 44.5919999,204.728 L44.5919999,197.852 C44.5919999,196.952 44.1959999,196.61 43.5659999,196.61 C42.9359999,196.61 42.5399999,196.952 42.5399999,197.852 L42.5399999,204.728 C42.5399999,205.628 42.9359999,205.97 43.5659999,205.97 Z M47.6039999,207.59 L47.6039999,194.99 L50.0879999,194.99 L52.0139999,202.532 L52.0499999,202.532 L52.0499999,194.99 L53.8139999,194.99 L53.8139999,207.59 L51.7799999,207.59 L49.4039999,198.392 L49.3679999,198.392 L49.3679999,207.59 L47.6039999,207.59 Z M57.8519999,207.77 C55.9079999,207.77 54.8459999,206.618 54.8459999,204.602 L54.8459999,197.978 C54.8459999,195.962 55.9079999,194.81 57.8519999,194.81 C59.7959999,194.81 60.8579999,195.962 60.8579999,197.978 L60.8579999,204.602 C60.8579999,206.618 59.7959999,207.77 57.8519999,207.77 Z M57.8519999,205.97 C58.4819999,205.97 58.8779999,205.628 58.8779999,204.728 L58.8779999,197.852 C58.8779999,196.952 58.4819999,196.61 57.8519999,196.61 C57.2219999,196.61 56.8259999,196.952 56.8259999,197.852 L56.8259999,204.728 C56.8259999,205.628 57.2219999,205.97 57.8519999,205.97 Z M61.8899999,207.59 L61.8899999,194.99 L64.7159999,194.99 L65.9759999,204.008 L66.0119999,204.008 L67.2719999,194.99 L70.0979999,194.99 L70.0979999,207.59 L68.2259999,207.59 L68.2259999,198.05 L68.1899999,198.05 L66.7499999,207.59 L65.0939999,207.59 L63.6539999,198.05 L63.6179999,198.05 L63.6179999,207.59 L61.8899999,207.59 Z M71.1839999,194.144 L72.4439999,192.074 L74.6039999,192.074 L72.6779999,194.144 L71.1839999,194.144 Z M71.2739999,207.59 L71.2739999,194.99 L73.2539999,194.99 L73.2539999,207.59 L71.2739999,207.59 Z M73.9079999,207.59 L75.9599999,194.99 L78.6419999,194.99 L80.6939999,207.59 L78.7139999,207.59 L78.3539999,205.088 L78.3539999,205.124 L76.1039999,205.124 L75.7439999,207.59 L73.9079999,207.59 Z M76.3379999,203.414 L78.1199999,203.414 L77.2379999,197.186 L77.2019999,197.186 L76.3379999,203.414 Z" id="economía" fill="#666666" fill-rule="nonzero"></path>
                <path d="M40.6799999,277.77 C38.7719999,277.77 37.7639999,276.618 37.7639999,274.674 L37.7639999,267.906 C37.7639999,265.962 38.7719999,264.81 40.6799999,264.81 C42.5879999,264.81 43.5959999,265.962 43.5959999,267.906 L43.5959999,269.238 L41.7239999,269.238 L41.7239999,267.78 C41.7239999,266.952 41.3279999,266.61 40.7339999,266.61 C40.1399999,266.61 39.7439999,266.952 39.7439999,267.78 L39.7439999,274.818 C39.7439999,275.646 40.1399999,275.97 40.7339999,275.97 C41.3279999,275.97 41.7239999,275.646 41.7239999,274.818 L41.7239999,272.892 L43.5959999,272.892 L43.5959999,274.674 C43.5959999,276.618 42.5879999,277.77 40.6799999,277.77 Z M43.9619999,277.59 L46.0139999,264.99 L48.6959999,264.99 L50.7479999,277.59 L48.7679999,277.59 L48.4079999,275.088 L48.4079999,275.124 L46.1579999,275.124 L45.7979999,277.59 L43.9619999,277.59 Z M46.3919999,273.414 L48.1739999,273.414 L47.2919999,267.186 L47.2559999,267.186 L46.3919999,273.414 Z M51.4019999,277.59 L51.4019999,264.99 L53.3819999,264.99 L53.3819999,275.79 L56.6399999,275.79 L56.6399999,277.59 L51.4019999,277.59 Z M57.2939999,277.59 L57.2939999,264.99 L59.2739999,264.99 L59.2739999,277.59 L57.2939999,277.59 Z M60.4499999,277.59 L60.4499999,264.99 L63.4739999,264.99 C65.4539999,264.99 66.4259999,266.088 66.4259999,268.104 L66.4259999,274.476 C66.4259999,276.492 65.4539999,277.59 63.4739999,277.59 L60.4499999,277.59 Z M62.4299999,275.79 L63.4379999,275.79 C64.0679999,275.79 64.4459999,275.466 64.4459999,274.566 L64.4459999,268.014 C64.4459999,267.114 64.0679999,266.79 63.4379999,266.79 L62.4299999,266.79 L62.4299999,275.79 Z M66.8999999,277.59 L68.9519999,264.99 L71.6339999,264.99 L73.6859999,277.59 L71.7059999,277.59 L71.3459999,275.088 L71.3459999,275.124 L69.0959999,275.124 L68.7359999,277.59 L66.8999999,277.59 Z M69.3299999,273.414 L71.1119999,273.414 L70.2299999,267.186 L70.1939999,267.186 L69.3299999,273.414 Z M74.3399999,277.59 L74.3399999,264.99 L77.3639999,264.99 C79.3439999,264.99 80.3159999,266.088 80.3159999,268.104 L80.3159999,274.476 C80.3159999,276.492 79.3439999,277.59 77.3639999,277.59 L74.3399999,277.59 Z M76.3199999,275.79 L77.3279999,275.79 C77.9579999,275.79 78.3359999,275.466 78.3359999,274.566 L78.3359999,268.014 C78.3359999,267.114 77.9579999,266.79 77.3279999,266.79 L76.3199999,266.79 L76.3199999,275.79 Z M24.234,293.59 L24.234,280.99 L27.258,280.99 C29.238,280.99 30.21,282.088 30.21,284.104 L30.21,290.476 C30.21,292.492 29.238,293.59 27.258,293.59 L24.234,293.59 Z M26.214,291.79 L27.222,291.79 C27.852,291.79 28.23,291.466 28.23,290.566 L28.23,284.014 C28.23,283.114 27.852,282.79 27.222,282.79 L26.214,282.79 L26.214,291.79 Z M31.2419999,293.59 L31.2419999,280.99 L36.6419999,280.99 L36.6419999,282.79 L33.2219999,282.79 L33.2219999,286.12 L35.9399999,286.12 L35.9399999,287.92 L33.2219999,287.92 L33.2219999,291.79 L36.6419999,291.79 L36.6419999,293.59 L31.2419999,293.59 Z M40.0559999,293.59 L40.0559999,280.99 L45.4559999,280.99 L45.4559999,282.79 L42.0359999,282.79 L42.0359999,286.12 L44.7539999,286.12 L44.7539999,287.92 L42.0359999,287.92 L42.0359999,291.79 L45.4559999,291.79 L45.4559999,293.59 L40.0559999,293.59 Z M46.2899999,293.59 L46.2899999,280.99 L49.1159999,280.99 L50.3759999,290.008 L50.4119999,290.008 L51.6719999,280.99 L54.4979999,280.99 L54.4979999,293.59 L52.6259999,293.59 L52.6259999,284.05 L52.5899999,284.05 L51.1499999,293.59 L49.4939999,293.59 L48.0539999,284.05 L48.0179999,284.05 L48.0179999,293.59 L46.2899999,293.59 Z M55.6739999,293.59 L55.6739999,280.99 L58.5899999,280.99 C60.5699999,280.99 61.5419999,282.088 61.5419999,284.104 L61.5419999,285.346 C61.5419999,287.362 60.5699999,288.46 58.5899999,288.46 L57.6539999,288.46 L57.6539999,293.59 L55.6739999,293.59 Z M57.6539999,286.66 L58.5899999,286.66 C59.2199999,286.66 59.5619999,286.372 59.5619999,285.472 L59.5619999,283.978 C59.5619999,283.078 59.2199999,282.79 58.5899999,282.79 L57.6539999,282.79 L57.6539999,286.66 Z M62.3219999,293.59 L62.3219999,280.99 L64.3019999,280.99 L64.3019999,291.79 L67.5599999,291.79 L67.5599999,293.59 L62.3219999,293.59 Z M68.2139999,293.59 L68.2139999,280.99 L73.6139999,280.99 L73.6139999,282.79 L70.1939999,282.79 L70.1939999,286.12 L72.9119999,286.12 L72.9119999,287.92 L70.1939999,287.92 L70.1939999,291.79 L73.6139999,291.79 L73.6139999,293.59 L68.2139999,293.59 Z M77.3099999,293.77 C75.3659999,293.77 74.3039999,292.618 74.3039999,290.602 L74.3039999,283.978 C74.3039999,281.962 75.3659999,280.81 77.3099999,280.81 C79.2539999,280.81 80.3159999,281.962 80.3159999,283.978 L80.3159999,290.602 C80.3159999,292.618 79.2539999,293.77 77.3099999,293.77 Z M77.3099999,291.97 C77.9399999,291.97 78.3359999,291.628 78.3359999,290.728 L78.3359999,283.852 C78.3359999,282.952 77.9399999,282.61 77.3099999,282.61 C76.6799999,282.61 76.2839999,282.952 76.2839999,283.852 L76.2839999,290.728 C76.2839999,291.628 76.6799999,291.97 77.3099999,291.97 Z" id="calidaddeempleo" fill="#666666" fill-rule="nonzero"></path>
                <path d="M274.307,625.59 L274.307,613.69 L279.254,613.69 L279.254,615.39 L276.177,615.39 L276.177,618.705 L278.591,618.705 L278.591,620.405 L276.177,620.405 L276.177,625.59 L274.307,625.59 Z M282.875,625.76 C281.039,625.76 280.087,624.672 280.087,622.768 L280.087,613.69 L281.957,613.69 L281.957,622.904 C281.957,623.754 282.314,624.06 282.909,624.06 C283.504,624.06 283.861,623.754 283.861,622.904 L283.861,613.69 L285.663,613.69 L285.663,622.768 C285.663,624.672 284.711,625.76 282.875,625.76 Z M286.989,625.59 L286.989,613.69 L292.089,613.69 L292.089,615.39 L288.859,615.39 L288.859,618.535 L291.426,618.535 L291.426,620.235 L288.859,620.235 L288.859,623.89 L292.089,623.89 L292.089,625.59 L286.989,625.59 Z M293.16,625.59 L293.16,613.69 L295.506,613.69 L297.325,620.813 L297.359,620.813 L297.359,613.69 L299.025,613.69 L299.025,625.59 L297.104,625.59 L294.86,616.903 L294.826,616.903 L294.826,625.59 L293.16,625.59 Z M301.881,625.59 L301.881,615.39 L299.926,615.39 L299.926,613.69 L305.706,613.69 L305.706,615.39 L303.751,615.39 L303.751,625.59 L301.881,625.59 Z M306.607,625.59 L306.607,613.69 L311.707,613.69 L311.707,615.39 L308.477,615.39 L308.477,618.535 L311.044,618.535 L311.044,620.235 L308.477,620.235 L308.477,623.89 L311.707,623.89 L311.707,625.59 L306.607,625.59 Z M312.778,619.113 L312.778,617.311 L314.58,617.311 L314.58,619.113 L312.778,619.113 Z M312.778,625.59 L312.778,623.788 L314.58,623.788 L314.58,625.59 L312.778,625.59 Z M321.329,625.76 C319.527,625.76 318.575,624.672 318.575,622.836 L318.575,616.444 C318.575,614.608 319.527,613.52 321.329,613.52 C323.131,613.52 324.083,614.608 324.083,616.444 L324.083,617.702 L322.315,617.702 L322.315,616.325 C322.315,615.543 321.941,615.22 321.38,615.22 C320.819,615.22 320.445,615.543 320.445,616.325 L320.445,622.972 C320.445,623.754 320.819,624.06 321.38,624.06 C321.941,624.06 322.315,623.754 322.315,622.972 L322.315,621.153 L324.083,621.153 L324.083,622.836 C324.083,624.672 323.131,625.76 321.329,625.76 Z M325.205,625.59 L325.205,613.69 L327.075,613.69 L327.075,625.59 L325.205,625.59 Z M330.9,625.76 C329.064,625.76 328.146,624.672 328.146,622.768 L328.146,622.088 L329.914,622.088 L329.914,622.904 C329.914,623.754 330.288,624.06 330.883,624.06 C331.478,624.06 331.852,623.754 331.852,622.87 C331.852,621.884 331.478,621.255 330.254,620.184 C328.69,618.807 328.18,617.838 328.18,616.478 C328.18,614.608 329.149,613.52 330.968,613.52 C332.787,613.52 333.688,614.608 333.688,616.512 L333.688,617.005 L331.92,617.005 L331.92,616.393 C331.92,615.543 331.58,615.22 330.985,615.22 C330.39,615.22 330.05,615.543 330.05,616.359 C330.05,617.226 330.441,617.855 331.665,618.926 C333.229,620.303 333.722,621.255 333.722,622.734 C333.722,624.672 332.736,625.76 330.9,625.76 Z" id="fuente:cis" fill="#9C9C9C" fill-rule="nonzero"></path>
                <path d="M44.7989998,20.59 L44.7989998,0.29 L49.5259998,0.29 C52.8319998,0.29 54.2529998,1.827 54.2529998,4.959 L54.2529998,6.206 C54.2529998,8.294 53.5859998,9.628 52.1649998,10.208 L52.1649998,10.266 C53.7599998,10.759 54.2819998,12.267 54.2819998,14.558 L54.2819998,18.125 C54.2819998,19.111 54.3109998,19.836 54.6299998,20.59 L51.3819998,20.59 C51.2079998,20.068 51.0919998,19.749 51.0919998,18.096 L51.0919998,14.384 C51.0919998,12.499 50.5409998,11.89 49.0909998,11.89 L47.9889998,11.89 L47.9889998,20.59 L44.7989998,20.59 Z M47.9889998,8.99 L49.1489998,8.99 C50.3379998,8.99 51.0629998,8.468 51.0629998,6.844 L51.0629998,5.278 C51.0629998,3.828 50.5699998,3.19 49.4389998,3.19 L47.9889998,3.19 L47.9889998,8.99 Z M55.6449998,20.59 L58.9509998,0.29 L63.2719998,0.29 L66.5779998,20.59 L63.3879998,20.59 L62.8079998,16.559 L62.8079998,16.617 L59.1829998,16.617 L58.6029998,20.59 L55.6449998,20.59 Z M59.5599998,13.862 L62.4309998,13.862 L61.0099998,3.828 L60.9519998,3.828 L59.5599998,13.862 Z M68.1149998,20.59 L68.1149998,0.29 L72.1169998,0.29 L75.2199998,12.441 L75.2779998,12.441 L75.2779998,0.29 L78.1199998,0.29 L78.1199998,20.59 L74.8429998,20.59 L71.0149998,5.771 L70.9569998,5.771 L70.9569998,20.59 L68.1149998,20.59 Z M80.4979998,20.59 L80.4979998,0.29 L83.6879998,0.29 L83.6879998,8.845 L87.7479998,0.29 L90.9379998,0.29 L87.1389998,7.743 L90.9959998,20.59 L87.6609998,20.59 L84.9639998,11.542 L83.6879998,14.123 L83.6879998,20.59 L80.4979998,20.59 Z M92.5039998,20.59 L92.5039998,0.29 L95.6939998,0.29 L95.6939998,20.59 L92.5039998,20.59 Z M98.0719998,20.59 L98.0719998,0.29 L102.074,0.29 L105.177,12.441 L105.235,12.441 L105.235,0.29 L108.077,0.29 L108.077,20.59 L104.8,20.59 L100.972,5.771 L100.914,5.771 L100.914,20.59 L98.0719998,20.59 Z M114.979,20.88 C111.847,20.88 110.223,19.024 110.223,15.776 L110.223,5.104 C110.223,1.856 111.847,1.8189894e-12 114.979,1.8189894e-12 C118.111,1.8189894e-12 119.735,1.856 119.735,5.104 L119.735,6.844 L116.719,6.844 L116.719,4.901 C116.719,3.451 116.081,2.9 115.066,2.9 C114.051,2.9 113.413,3.451 113.413,4.901 L113.413,16.008 C113.413,17.458 114.051,17.98 115.066,17.98 C116.081,17.98 116.719,17.458 116.719,16.008 L116.719,12.035 L115.124,12.035 L115.124,9.135 L119.735,9.135 L119.735,15.776 C119.735,19.024 118.111,20.88 114.979,20.88 Z M126.434,20.59 L126.434,0.29 L131.306,0.29 C134.496,0.29 136.062,2.059 136.062,5.307 L136.062,15.573 C136.062,18.821 134.496,20.59 131.306,20.59 L126.434,20.59 Z M129.624,17.69 L131.248,17.69 C132.263,17.69 132.872,17.168 132.872,15.718 L132.872,5.162 C132.872,3.712 132.263,3.19 131.248,3.19 L129.624,3.19 L129.624,17.69 Z M138.208,20.59 L138.208,0.29 L146.908,0.29 L146.908,3.19 L141.398,3.19 L141.398,8.555 L145.777,8.555 L145.777,11.455 L141.398,11.455 L141.398,17.69 L146.908,17.69 L146.908,20.59 L138.208,20.59 Z M153.375,20.59 L153.375,0.29 L158.073,0.29 C161.263,0.29 162.829,2.059 162.829,5.307 L162.829,7.308 C162.829,10.556 161.263,12.325 158.073,12.325 L156.565,12.325 L156.565,20.59 L153.375,20.59 Z M156.565,9.425 L158.073,9.425 C159.088,9.425 159.639,8.961 159.639,7.511 L159.639,5.104 C159.639,3.654 159.088,3.19 158.073,3.19 L156.565,3.19 L156.565,9.425 Z M164.569,20.59 L164.569,0.29 L169.296,0.29 C172.602,0.29 174.023,1.827 174.023,4.959 L174.023,6.206 C174.023,8.294 173.356,9.628 171.935,10.208 L171.935,10.266 C173.53,10.759 174.052,12.267 174.052,14.558 L174.052,18.125 C174.052,19.111 174.081,19.836 174.4,20.59 L171.152,20.59 C170.978,20.068 170.862,19.749 170.862,18.096 L170.862,14.384 C170.862,12.499 170.311,11.89 168.861,11.89 L167.759,11.89 L167.759,20.59 L164.569,20.59 Z M167.759,8.99 L168.919,8.99 C170.108,8.99 170.833,8.468 170.833,6.844 L170.833,5.278 C170.833,3.828 170.34,3.19 169.209,3.19 L167.759,3.19 L167.759,8.99 Z M176.256,20.59 L176.256,0.29 L184.956,0.29 L184.956,3.19 L179.446,3.19 L179.446,8.555 L183.825,8.555 L183.825,11.455 L179.446,11.455 L179.446,17.69 L184.956,17.69 L184.956,20.59 L176.256,20.59 Z M191.394,20.88 C188.262,20.88 186.551,19.024 186.551,15.776 L186.551,5.104 C186.551,1.856 188.262,1.8189894e-12 191.394,1.8189894e-12 C194.526,1.8189894e-12 196.237,1.856 196.237,5.104 L196.237,15.776 C196.237,19.024 194.526,20.88 191.394,20.88 Z M191.394,17.98 C192.409,17.98 193.047,17.429 193.047,15.979 L193.047,4.901 C193.047,3.451 192.409,2.9 191.394,2.9 C190.379,2.9 189.741,3.451 189.741,4.901 L189.741,15.979 C189.741,17.429 190.379,17.98 191.394,17.98 Z M202.878,20.88 C199.804,20.88 198.18,19.024 198.18,15.892 L198.18,4.988 C198.18,1.856 199.804,1.8189894e-12 202.878,1.8189894e-12 C205.952,1.8189894e-12 207.576,1.856 207.576,4.988 L207.576,7.134 L204.56,7.134 L204.56,4.785 C204.56,3.451 203.922,2.9 202.965,2.9 C202.008,2.9 201.37,3.451 201.37,4.785 L201.37,16.124 C201.37,17.458 202.008,17.98 202.965,17.98 C203.922,17.98 204.56,17.458 204.56,16.124 L204.56,13.021 L207.576,13.021 L207.576,15.892 C207.576,19.024 205.952,20.88 202.878,20.88 Z M214.13,20.88 C210.998,20.88 209.374,19.024 209.374,15.776 L209.374,0.29 L212.564,0.29 L212.564,16.008 C212.564,17.458 213.173,17.98 214.188,17.98 C215.203,17.98 215.812,17.458 215.812,16.008 L215.812,0.29 L218.886,0.29 L218.886,15.776 C218.886,19.024 217.262,20.88 214.13,20.88 Z M221.148,20.59 L221.148,0.29 L225.846,0.29 C229.036,0.29 230.602,2.059 230.602,5.307 L230.602,7.308 C230.602,10.556 229.036,12.325 225.846,12.325 L224.338,12.325 L224.338,20.59 L221.148,20.59 Z M224.338,9.425 L225.846,9.425 C226.861,9.425 227.412,8.961 227.412,7.511 L227.412,5.104 C227.412,3.654 226.861,3.19 225.846,3.19 L224.338,3.19 L224.338,9.425 Z M231.501,20.59 L234.807,0.29 L239.128,0.29 L242.434,20.59 L239.244,20.59 L238.664,16.559 L238.664,16.617 L235.039,16.617 L234.459,20.59 L231.501,20.59 Z M235.416,13.862 L238.287,13.862 L236.866,3.828 L236.808,3.828 L235.416,13.862 Z M248.466,20.88 C245.392,20.88 243.768,19.024 243.768,15.892 L243.768,4.988 C243.768,1.856 245.392,1.8189894e-12 248.466,1.8189894e-12 C251.54,1.8189894e-12 253.164,1.856 253.164,4.988 L253.164,7.134 L250.148,7.134 L250.148,4.785 C250.148,3.451 249.51,2.9 248.553,2.9 C247.596,2.9 246.958,3.451 246.958,4.785 L246.958,16.124 C246.958,17.458 247.596,17.98 248.553,17.98 C249.51,17.98 250.148,17.458 250.148,16.124 L250.148,13.021 L253.164,13.021 L253.164,15.892 C253.164,19.024 251.54,20.88 248.466,20.88 Z M255.078,20.59 L255.078,0.29 L258.268,0.29 L258.268,20.59 L255.078,20.59 Z M265.257,20.88 C262.125,20.88 260.414,19.024 260.414,15.776 L260.414,5.104 C260.414,1.856 262.125,1.8189894e-12 265.257,1.8189894e-12 C268.389,1.8189894e-12 270.1,1.856 270.1,5.104 L270.1,15.776 C270.1,19.024 268.389,20.88 265.257,20.88 Z M265.257,17.98 C266.272,17.98 266.91,17.429 266.91,15.979 L266.91,4.901 C266.91,3.451 266.272,2.9 265.257,2.9 C264.242,2.9 263.604,3.451 263.604,4.901 L263.604,15.979 C263.604,17.429 264.242,17.98 265.257,17.98 Z M272.246,20.59 L272.246,0.29 L276.248,0.29 L279.351,12.441 L279.409,12.441 L279.409,0.29 L282.251,0.29 L282.251,20.59 L278.974,20.59 L275.146,5.771 L275.088,5.771 L275.088,20.59 L272.246,20.59 Z M284.629,20.59 L284.629,0.29 L293.329,0.29 L293.329,3.19 L287.819,3.19 L287.819,8.555 L292.198,8.555 L292.198,11.455 L287.819,11.455 L287.819,17.69 L293.329,17.69 L293.329,20.59 L284.629,20.59 Z M299.303,20.88 C296.171,20.88 294.605,19.024 294.605,15.776 L294.605,14.616 L297.621,14.616 L297.621,16.008 C297.621,17.458 298.259,17.98 299.274,17.98 C300.289,17.98 300.927,17.458 300.927,15.95 C300.927,14.268 300.289,13.195 298.201,11.368 C295.533,9.019 294.663,7.366 294.663,5.046 C294.663,1.856 296.316,1.8189894e-12 299.419,1.8189894e-12 C302.522,1.8189894e-12 304.059,1.856 304.059,5.104 L304.059,5.945 L301.043,5.945 L301.043,4.901 C301.043,3.451 300.463,2.9 299.448,2.9 C298.433,2.9 297.853,3.451 297.853,4.843 C297.853,6.322 298.52,7.395 300.608,9.222 C303.276,11.571 304.117,13.195 304.117,15.718 C304.117,19.024 302.435,20.88 299.303,20.88 Z" id="rankingdepreocupaciones" fill="#000000" fill-rule="nonzero"></path>
            </g>
        </g>
    </g>
</svg>