<?xml version="1.0" encoding="UTF-8"?>
<svg width="270px" height="643px" viewBox="0 0 270 643" version="1.1" xmlns="http://www.w3.org/2000/svg" xmlns:xlink="http://www.w3.org/1999/xlink">
    <!-- Generator: Sketch 53.1 (72631) - https://sketchapp.com -->
    <title>Group 5</title>
    <desc>Created with Sketch.</desc>
    <g id="Welcome" stroke="none" stroke-width="1" fill="none" fill-rule="evenodd">
        <g id="iPhone-8-Copy-12" transform="translate(-45.000000, -33349.000000)">
            <g id="Group-5" transform="translate(45.785500, 33349.000000)">
                <path d="M7.161,5.022 L7.161,8.308 L3.875,8.308 L3.875,5.022 L7.161,5.022 Z M7.006,10.757 L7.006,12.059 C7.006,13.485 6.665,14.756 5.332,16.647 C3.813,18.817 3.41,20.15 3.41,21.793 C3.41,23.343 4.03,23.932 5.115,23.932 C6.2,23.932 6.82,23.343 6.82,21.793 L6.82,19.437 L10.044,19.437 L10.044,21.576 C10.044,25.048 8.37,27.032 5.053,27.032 C1.736,27.032 -1.98951966e-12,25.048 -1.98951966e-12,21.576 C-1.98951966e-12,19.685 0.589,18.104 2.263,15.872 C3.596,14.074 4.03,13.02 4.03,11.935 L4.03,10.757 L7.006,10.757 Z M21.948,28.737 C20.677,28.737 19.499,28.272 19.096,26.66 C18.445,26.908 17.67,27.032 16.833,27.032 C13.485,27.032 11.656,25.048 11.656,21.576 L11.656,10.168 C11.656,6.696 13.485,4.712 16.833,4.712 C20.181,4.712 22.01,6.696 22.01,10.168 L22.01,21.576 C22.01,23.064 21.669,24.242 21.049,25.141 C21.297,25.575 21.7,25.637 22.32,25.637 L22.847,25.637 L22.847,28.737 L21.948,28.737 Z M16.833,23.932 C17.918,23.932 18.6,23.343 18.6,21.793 L18.6,9.951 C18.6,8.401 17.918,7.812 16.833,7.812 C15.748,7.812 15.066,8.401 15.066,9.951 L15.066,21.793 C15.066,23.343 15.748,23.932 16.833,23.932 Z M29.264,27.032 C25.916,27.032 24.18,25.048 24.18,21.576 L24.18,5.022 L27.59,5.022 L27.59,21.824 C27.59,23.374 28.241,23.932 29.326,23.932 C30.411,23.932 31.062,23.374 31.062,21.824 L31.062,5.022 L34.348,5.022 L34.348,21.576 C34.348,25.048 32.612,27.032 29.264,27.032 Z M36.766,26.722 L36.766,5.022 L40.176,5.022 L40.176,26.722 L36.766,26.722 Z M45.508,3.565 L47.678,3.63797881e-12 L51.398,3.63797881e-12 L48.081,3.565 L45.508,3.565 Z M42.718,26.722 L42.718,5.022 L52.018,5.022 L52.018,8.122 L46.128,8.122 L46.128,13.857 L50.809,13.857 L50.809,16.957 L46.128,16.957 L46.128,23.622 L52.018,23.622 L52.018,26.722 L42.718,26.722 Z M53.971,26.722 L53.971,5.022 L58.249,5.022 L61.566,18.011 L61.628,18.011 L61.628,5.022 L64.666,5.022 L64.666,26.722 L61.163,26.722 L57.071,10.881 L57.009,10.881 L57.009,26.722 L53.971,26.722 Z M77.004,27.032 C73.656,27.032 71.92,25.048 71.92,21.576 L71.92,10.168 C71.92,6.696 73.656,4.712 77.004,4.712 C80.352,4.712 82.088,6.696 82.088,10.168 L82.088,12.028 L78.864,12.028 L78.864,9.951 C78.864,8.401 78.182,7.812 77.097,7.812 C76.012,7.812 75.33,8.401 75.33,9.951 L75.33,21.824 C75.33,23.374 76.012,23.932 77.097,23.932 C78.182,23.932 78.864,23.374 78.864,21.824 L78.864,17.577 L77.159,17.577 L77.159,14.477 L82.088,14.477 L82.088,21.576 C82.088,25.048 80.352,27.032 77.004,27.032 Z M83.39,26.722 L86.924,5.022 L91.543,5.022 L95.077,26.722 L91.667,26.722 L91.047,22.413 L91.047,22.475 L87.172,22.475 L86.552,26.722 L83.39,26.722 Z M87.575,19.53 L90.644,19.53 L89.125,8.804 L89.063,8.804 L87.575,19.53 Z M96.72,26.722 L96.72,5.022 L100.998,5.022 L104.315,18.011 L104.377,18.011 L104.377,5.022 L107.415,5.022 L107.415,26.722 L103.912,26.722 L99.82,10.881 L99.758,10.881 L99.758,26.722 L96.72,26.722 Z M109.058,26.722 L112.592,5.022 L117.211,5.022 L120.745,26.722 L117.335,26.722 L116.715,22.413 L116.715,22.475 L112.84,22.475 L112.22,26.722 L109.058,26.722 Z M113.243,19.53 L116.312,19.53 L114.793,8.804 L114.731,8.804 L113.243,19.53 Z M127.348,26.722 L127.348,5.022 L136.648,5.022 L136.648,8.122 L130.758,8.122 L130.758,13.857 L135.439,13.857 L135.439,16.957 L130.758,16.957 L130.758,23.622 L136.648,23.622 L136.648,26.722 L127.348,26.722 Z M138.601,26.722 L138.601,5.022 L142.879,5.022 L146.196,18.011 L146.258,18.011 L146.258,5.022 L149.296,5.022 L149.296,26.722 L145.793,26.722 L141.701,10.881 L141.639,10.881 L141.639,26.722 L138.601,26.722 Z M156.798,26.722 L156.798,5.022 L160.208,5.022 L160.208,23.622 L165.819,23.622 L165.819,26.722 L156.798,26.722 Z M166.563,26.722 L170.097,5.022 L174.716,5.022 L178.25,26.722 L174.84,26.722 L174.22,22.413 L174.22,22.475 L170.345,22.475 L169.725,26.722 L166.563,26.722 Z M170.748,19.53 L173.817,19.53 L172.298,8.804 L172.236,8.804 L170.748,19.53 Z M189.658,27.032 C186.372,27.032 184.636,25.048 184.636,21.7 L184.636,10.044 C184.636,6.696 186.372,4.712 189.658,4.712 C192.944,4.712 194.68,6.696 194.68,10.044 L194.68,12.338 L191.456,12.338 L191.456,9.827 C191.456,8.401 190.774,7.812 189.751,7.812 C188.728,7.812 188.046,8.401 188.046,9.827 L188.046,21.948 C188.046,23.374 188.728,23.932 189.751,23.932 C190.774,23.932 191.456,23.374 191.456,21.948 L191.456,18.631 L194.68,18.631 L194.68,21.7 C194.68,25.048 192.944,27.032 189.658,27.032 Z M195.827,26.722 L199.361,5.022 L203.98,5.022 L207.514,26.722 L204.104,26.722 L203.484,22.413 L203.484,22.475 L199.609,22.475 L198.989,26.722 L195.827,26.722 Z M200.012,19.53 L203.081,19.53 L201.562,8.804 L201.5,8.804 L200.012,19.53 Z M209.157,26.722 L209.157,5.022 L214.21,5.022 C217.744,5.022 219.263,6.665 219.263,10.013 L219.263,11.346 C219.263,13.578 218.55,15.004 217.031,15.624 L217.031,15.686 C218.736,16.213 219.294,17.825 219.294,20.274 L219.294,24.087 C219.294,25.141 219.325,25.916 219.666,26.722 L216.194,26.722 C216.008,26.164 215.884,25.823 215.884,24.056 L215.884,20.088 C215.884,18.073 215.295,17.422 213.745,17.422 L212.567,17.422 L212.567,26.722 L209.157,26.722 Z M212.567,14.322 L213.807,14.322 C215.078,14.322 215.853,13.764 215.853,12.028 L215.853,10.354 C215.853,8.804 215.326,8.122 214.117,8.122 L212.567,8.122 L212.567,14.322 Z M221.65,26.722 L221.65,5.022 L226.703,5.022 C230.237,5.022 231.756,6.665 231.756,10.013 L231.756,11.346 C231.756,13.578 231.043,15.004 229.524,15.624 L229.524,15.686 C231.229,16.213 231.787,17.825 231.787,20.274 L231.787,24.087 C231.787,25.141 231.818,25.916 232.159,26.722 L228.687,26.722 C228.501,26.164 228.377,25.823 228.377,24.056 L228.377,20.088 C228.377,18.073 227.788,17.422 226.238,17.422 L225.06,17.422 L225.06,26.722 L221.65,26.722 Z M225.06,14.322 L226.3,14.322 C227.571,14.322 228.346,13.764 228.346,12.028 L228.346,10.354 C228.346,8.804 227.819,8.122 226.61,8.122 L225.06,8.122 L225.06,14.322 Z M234.143,26.722 L234.143,5.022 L243.443,5.022 L243.443,8.122 L237.553,8.122 L237.553,13.857 L242.234,13.857 L242.234,16.957 L237.553,16.957 L237.553,23.622 L243.443,23.622 L243.443,26.722 L234.143,26.722 Z M245.396,26.722 L245.396,5.022 L250.449,5.022 C253.983,5.022 255.502,6.665 255.502,10.013 L255.502,11.346 C255.502,13.578 254.789,15.004 253.27,15.624 L253.27,15.686 C254.975,16.213 255.533,17.825 255.533,20.274 L255.533,24.087 C255.533,25.141 255.564,25.916 255.905,26.722 L252.433,26.722 C252.247,26.164 252.123,25.823 252.123,24.056 L252.123,20.088 C252.123,18.073 251.534,17.422 249.984,17.422 L248.806,17.422 L248.806,26.722 L245.396,26.722 Z M248.806,14.322 L250.046,14.322 C251.317,14.322 252.092,13.764 252.092,12.028 L252.092,10.354 C252.092,8.804 251.565,8.122 250.356,8.122 L248.806,8.122 L248.806,14.322 Z M256.99,26.722 L260.524,5.022 L265.143,5.022 L268.677,26.722 L265.267,26.722 L264.647,22.413 L264.647,22.475 L260.772,22.475 L260.152,26.722 L256.99,26.722 Z M261.175,19.53 L264.244,19.53 L262.725,8.804 L262.663,8.804 L261.175,19.53 Z M58.6675,55.722 L58.6675,34.022 L63.8755,34.022 C67.2855,34.022 68.9595,35.913 68.9595,39.385 L68.9595,50.359 C68.9595,53.831 67.2855,55.722 63.8755,55.722 L58.6675,55.722 Z M62.0775,52.622 L63.8135,52.622 C64.8985,52.622 65.5495,52.064 65.5495,50.514 L65.5495,39.23 C65.5495,37.68 64.8985,37.122 63.8135,37.122 L62.0775,37.122 L62.0775,52.622 Z M71.2535,55.722 L71.2535,34.022 L80.5535,34.022 L80.5535,37.122 L74.6635,37.122 L74.6635,42.857 L79.3445,42.857 L79.3445,45.957 L74.6635,45.957 L74.6635,52.622 L80.5535,52.622 L80.5535,55.722 L71.2535,55.722 Z M91.8995,56.032 C88.5515,56.032 86.8775,54.048 86.8775,50.576 L86.8775,49.336 L90.1015,49.336 L90.1015,50.824 C90.1015,52.374 90.7835,52.932 91.8685,52.932 C92.9535,52.932 93.6355,52.374 93.6355,50.762 C93.6355,48.964 92.9535,47.817 90.7215,45.864 C87.8695,43.353 86.9395,41.586 86.9395,39.106 C86.9395,35.696 88.7065,33.712 92.0235,33.712 C95.3405,33.712 96.9835,35.696 96.9835,39.168 L96.9835,40.067 L93.7595,40.067 L93.7595,38.951 C93.7595,37.401 93.1395,36.812 92.0545,36.812 C90.9695,36.812 90.3495,37.401 90.3495,38.889 C90.3495,40.47 91.0625,41.617 93.2945,43.57 C96.1465,46.081 97.0455,47.817 97.0455,50.514 C97.0455,54.048 95.2475,56.032 91.8995,56.032 Z M98.9985,55.722 L98.9985,34.022 L108.2985,34.022 L108.2985,37.122 L102.4085,37.122 L102.4085,42.857 L107.0895,42.857 L107.0895,45.957 L102.4085,45.957 L102.4085,52.622 L108.2985,52.622 L108.2985,55.722 L98.9985,55.722 Z M115.0875,56.032 C111.7395,56.032 110.0035,54.048 110.0035,50.576 L110.0035,39.168 C110.0035,35.696 111.7395,33.712 115.0875,33.712 C118.4355,33.712 120.1715,35.696 120.1715,39.168 L120.1715,41.028 L116.9475,41.028 L116.9475,38.951 C116.9475,37.401 116.2655,36.812 115.1805,36.812 C114.0955,36.812 113.4135,37.401 113.4135,38.951 L113.4135,50.824 C113.4135,52.374 114.0955,52.932 115.1805,52.932 C116.2655,52.932 116.9475,52.374 116.9475,50.824 L116.9475,46.577 L115.2425,46.577 L115.2425,43.477 L120.1715,43.477 L120.1715,50.576 C120.1715,54.048 118.4355,56.032 115.0875,56.032 Z M127.3325,56.032 C123.9845,56.032 122.2485,54.048 122.2485,50.576 L122.2485,34.022 L125.6585,34.022 L125.6585,50.824 C125.6585,52.374 126.3095,52.932 127.3945,52.932 C128.4795,52.932 129.1305,52.374 129.1305,50.824 L129.1305,34.022 L132.4165,34.022 L132.4165,50.576 C132.4165,54.048 130.6805,56.032 127.3325,56.032 Z M134.8345,55.722 L134.8345,34.022 L138.2445,34.022 L138.2445,55.722 L134.8345,55.722 Z M140.7865,55.722 L140.7865,34.022 L145.9945,34.022 C149.4045,34.022 151.0785,35.913 151.0785,39.385 L151.0785,50.359 C151.0785,53.831 149.4045,55.722 145.9945,55.722 L140.7865,55.722 Z M144.1965,52.622 L145.9325,52.622 C147.0175,52.622 147.6685,52.064 147.6685,50.514 L147.6685,39.23 C147.6685,37.68 147.0175,37.122 145.9325,37.122 L144.1965,37.122 L144.1965,52.622 Z M158.3015,56.032 C154.9535,56.032 153.1245,54.048 153.1245,50.576 L153.1245,39.168 C153.1245,35.696 154.9535,33.712 158.3015,33.712 C161.6495,33.712 163.4785,35.696 163.4785,39.168 L163.4785,50.576 C163.4785,54.048 161.6495,56.032 158.3015,56.032 Z M158.3015,52.932 C159.3865,52.932 160.0685,52.343 160.0685,50.793 L160.0685,38.951 C160.0685,37.401 159.3865,36.812 158.3015,36.812 C157.2165,36.812 156.5345,37.401 156.5345,38.951 L156.5345,50.793 C156.5345,52.343 157.2165,52.932 158.3015,52.932 Z M165.7725,55.722 L165.7725,34.022 L170.8255,34.022 C174.3595,34.022 175.8785,35.665 175.8785,39.013 L175.8785,40.346 C175.8785,42.578 175.1655,44.004 173.6465,44.624 L173.6465,44.686 C175.3515,45.213 175.9095,46.825 175.9095,49.274 L175.9095,53.087 C175.9095,54.141 175.9405,54.916 176.2815,55.722 L172.8095,55.722 C172.6235,55.164 172.4995,54.823 172.4995,53.056 L172.4995,49.088 C172.4995,47.073 171.9105,46.422 170.3605,46.422 L169.1825,46.422 L169.1825,55.722 L165.7725,55.722 Z M169.1825,43.322 L170.4225,43.322 C171.6935,43.322 172.4685,42.764 172.4685,41.028 L172.4685,39.354 C172.4685,37.804 171.9415,37.122 170.7325,37.122 L169.1825,37.122 L169.1825,43.322 Z M178.2655,55.722 L178.2655,34.022 L187.5655,34.022 L187.5655,37.122 L181.6755,37.122 L181.6755,42.857 L186.3565,42.857 L186.3565,45.957 L181.6755,45.957 L181.6755,52.622 L187.5655,52.622 L187.5655,55.722 L178.2655,55.722 Z M193.9515,56.032 C190.6035,56.032 188.9295,54.048 188.9295,50.576 L188.9295,49.336 L192.1535,49.336 L192.1535,50.824 C192.1535,52.374 192.8355,52.932 193.9205,52.932 C195.0055,52.932 195.6875,52.374 195.6875,50.762 C195.6875,48.964 195.0055,47.817 192.7735,45.864 C189.9215,43.353 188.9915,41.586 188.9915,39.106 C188.9915,35.696 190.7585,33.712 194.0755,33.712 C197.3925,33.712 199.0355,35.696 199.0355,39.168 L199.0355,40.067 L195.8115,40.067 L195.8115,38.951 C195.8115,37.401 195.1915,36.812 194.1065,36.812 C193.0215,36.812 192.4015,37.401 192.4015,38.889 C192.4015,40.47 193.1145,41.617 195.3465,43.57 C198.1985,46.081 199.0975,47.817 199.0975,50.514 C199.0975,54.048 197.2995,56.032 193.9515,56.032 Z M203.4065,49.987 L203.4065,48.685 C203.4065,47.259 203.7475,45.988 205.0805,44.097 C206.5995,41.927 207.0025,40.594 207.0025,38.951 C207.0025,37.401 206.3825,36.812 205.2975,36.812 C204.2125,36.812 203.5925,37.401 203.5925,38.951 L203.5925,41.307 L200.3685,41.307 L200.3685,39.168 C200.3685,35.696 202.0425,33.712 205.3595,33.712 C208.6765,33.712 210.4125,35.696 210.4125,39.168 C210.4125,41.059 209.8235,42.64 208.1495,44.872 C206.8165,46.67 206.3825,47.724 206.3825,48.809 L206.3825,49.987 L203.4065,49.987 Z M203.2515,55.722 L203.2515,52.436 L206.5375,52.436 L206.5375,55.722 L203.2515,55.722 Z" id="¿quiénganaenlacarreradeseguidores?" fill="#000000" fill-rule="nonzero"></path>
                <circle id="Oval" fill="#76AB1F" cx="73.2145" cy="153" r="69"></circle>
                <circle id="Oval-Copy-8" fill="#8B1253" cx="74.2145" cy="290" r="48"></circle>
                <ellipse id="Oval-Copy-9" fill="#FF9F00" cx="73.2145" cy="397.5" rx="40" ry="39.5"></ellipse>
                <circle id="Oval-Copy-10" fill="#225283" cx="73.7145" cy="492.5" r="35.5"></circle>
                <circle id="Oval-Copy-11" fill="#F34949" cx="73.2145" cy="579" r="30"></circle>
                <path d="M59.5185,162 L56.5505,142.4 L59.6585,142.4 L61.6745,157.604 L61.7305,157.604 L63.7465,142.4 L66.5745,142.4 L63.6065,162 L59.5185,162 Z M72.5105,162.28 C69.4865,162.28 67.8345,160.488 67.8345,157.352 L67.8345,147.048 C67.8345,143.912 69.4865,142.12 72.5105,142.12 C75.5345,142.12 77.1865,143.912 77.1865,147.048 L77.1865,157.352 C77.1865,160.488 75.5345,162.28 72.5105,162.28 Z M72.5105,159.48 C73.4905,159.48 74.1065,158.948 74.1065,157.548 L74.1065,146.852 C74.1065,145.452 73.4905,144.92 72.5105,144.92 C71.5305,144.92 70.9145,145.452 70.9145,146.852 L70.9145,157.548 C70.9145,158.948 71.5305,159.48 72.5105,159.48 Z M78.4185,162 L81.9745,151.976 L78.5865,142.4 L81.8345,142.4 L83.9065,148.728 L83.9625,148.728 L86.0905,142.4 L89.0025,142.4 L85.6145,151.976 L89.1705,162 L85.9225,162 L83.6825,155.168 L83.6265,155.168 L81.3305,162 L78.4185,162 Z" id="vox" fill="#FFFFFF" fill-rule="nonzero"></path>
                <path d="M163.8135,152 L163.8135,148.884 C163.8135,144.784 164.9615,142.283 168.3235,138.757 C171.7675,135.108 172.7515,132.935 172.7515,130.27 C172.7515,127.687 171.8495,126.99 170.4145,126.99 C168.9795,126.99 168.0775,127.769 168.0775,129.819 L168.0775,132.894 L163.8135,132.894 L163.8135,130.106 C163.8135,125.514 166.1095,122.89 170.5375,122.89 C174.9655,122.89 177.2615,125.514 177.2615,130.106 C177.2615,133.509 175.8675,136.543 171.6855,140.971 C168.9795,143.841 168.2825,145.276 168.2825,147.285 L168.2825,147.9 L176.8515,147.9 L176.8515,152 L163.8135,152 Z M180.2135,152 L180.2135,148.884 C180.2135,144.784 181.3615,142.283 184.7235,138.757 C188.1675,135.108 189.1515,132.935 189.1515,130.27 C189.1515,127.687 188.2495,126.99 186.8145,126.99 C185.3795,126.99 184.4775,127.769 184.4775,129.819 L184.4775,132.894 L180.2135,132.894 L180.2135,130.106 C180.2135,125.514 182.5095,122.89 186.9375,122.89 C191.3655,122.89 193.6615,125.514 193.6615,130.106 C193.6615,133.509 192.2675,136.543 188.0855,140.971 C185.3795,143.841 184.6825,145.276 184.6825,147.285 L184.6825,147.9 L193.2515,147.9 L193.2515,152 L180.2135,152 Z M203.2145,152.41 C198.6635,152.41 196.1625,149.909 196.1625,145.317 L196.1625,142.775 C196.1625,140.028 196.9825,138.019 199.1145,136.912 L199.1145,136.83 C197.2285,135.805 196.3265,134.001 196.3265,131.172 L196.3265,129.983 C196.3265,125.391 198.8275,122.89 203.2145,122.89 C207.6015,122.89 210.1025,125.391 210.1025,129.983 L210.1025,131.172 C210.1025,134.001 209.1595,135.805 207.3145,136.83 L207.3145,136.912 C209.4465,138.019 210.2665,140.028 210.2665,142.775 L210.2665,145.317 C210.2665,149.909 207.7655,152.41 203.2145,152.41 Z M203.2145,134.985 C204.7725,134.985 205.5925,134.001 205.5925,132.115 L205.5925,129.86 C205.5925,127.974 204.7725,126.99 203.2145,126.99 C201.6565,126.99 200.8365,127.974 200.8365,129.86 L200.8365,132.115 C200.8365,134.001 201.6565,134.985 203.2145,134.985 Z M203.2145,148.31 C204.8955,148.31 205.7565,147.244 205.7565,145.071 L205.7565,142.324 C205.7565,140.151 204.8955,139.085 203.2145,139.085 C201.5335,139.085 200.6725,140.151 200.6725,142.324 L200.6725,145.071 C200.6725,147.244 201.5335,148.31 203.2145,148.31 Z M213.0955,152 L213.0955,147.654 L217.4415,147.654 L217.4415,152 L213.0955,152 Z M227.3225,152.41 C222.8945,152.41 220.4755,149.786 220.4755,145.194 L220.4755,130.106 C220.4755,125.514 222.8945,122.89 227.3225,122.89 C231.7505,122.89 234.1695,125.514 234.1695,130.106 L234.1695,145.194 C234.1695,149.786 231.7505,152.41 227.3225,152.41 Z M227.3225,148.31 C228.7575,148.31 229.6595,147.531 229.6595,145.481 L229.6595,129.819 C229.6595,127.769 228.7575,126.99 227.3225,126.99 C225.8875,126.99 224.9855,127.769 224.9855,129.819 L224.9855,145.481 C224.9855,147.531 225.8875,148.31 227.3225,148.31 Z M243.7225,152.41 C239.2945,152.41 236.8755,149.786 236.8755,145.194 L236.8755,130.106 C236.8755,125.514 239.2945,122.89 243.7225,122.89 C248.1505,122.89 250.5695,125.514 250.5695,130.106 L250.5695,145.194 C250.5695,149.786 248.1505,152.41 243.7225,152.41 Z M243.7225,148.31 C245.1575,148.31 246.0595,147.531 246.0595,145.481 L246.0595,129.819 C246.0595,127.769 245.1575,126.99 243.7225,126.99 C242.2875,126.99 241.3855,127.769 241.3855,129.819 L241.3855,145.481 C241.3855,147.531 242.2875,148.31 243.7225,148.31 Z M260.1225,152.41 C255.6945,152.41 253.2755,149.786 253.2755,145.194 L253.2755,130.106 C253.2755,125.514 255.6945,122.89 260.1225,122.89 C264.5505,122.89 266.9695,125.514 266.9695,130.106 L266.9695,145.194 C266.9695,149.786 264.5505,152.41 260.1225,152.41 Z M260.1225,148.31 C261.5575,148.31 262.4595,147.531 262.4595,145.481 L262.4595,129.819 C262.4595,127.769 261.5575,126.99 260.1225,126.99 C258.6875,126.99 257.7855,127.769 257.7855,129.819 L257.7855,145.481 C257.7855,147.531 258.6875,148.31 260.1225,148.31 Z" id="228.000" fill="#000000" fill-rule="nonzero"></path>
                <path d="M167.3665,183.28 C164.3425,183.28 162.8305,181.488 162.8305,178.352 L162.8305,177.232 L165.7425,177.232 L165.7425,178.576 C165.7425,179.976 166.3585,180.48 167.3385,180.48 C168.3185,180.48 168.9345,179.976 168.9345,178.52 C168.9345,176.896 168.3185,175.86 166.3025,174.096 C163.7265,171.828 162.8865,170.232 162.8865,167.992 C162.8865,164.912 164.4825,163.12 167.4785,163.12 C170.4745,163.12 171.9585,164.912 171.9585,168.048 L171.9585,168.86 L169.0465,168.86 L169.0465,167.852 C169.0465,166.452 168.4865,165.92 167.5065,165.92 C166.5265,165.92 165.9665,166.452 165.9665,167.796 C165.9665,169.224 166.6105,170.26 168.6265,172.024 C171.2025,174.292 172.0145,175.86 172.0145,178.296 C172.0145,181.488 170.3905,183.28 167.3665,183.28 Z M173.7785,183 L173.7785,163.4 L182.1785,163.4 L182.1785,166.2 L176.8585,166.2 L176.8585,171.38 L181.0865,171.38 L181.0865,174.18 L176.8585,174.18 L176.8585,180.2 L182.1785,180.2 L182.1785,183 L173.7785,183 Z M188.3105,183.28 C185.2865,183.28 183.7185,181.488 183.7185,178.352 L183.7185,168.048 C183.7185,164.912 185.2865,163.12 188.3105,163.12 C191.3345,163.12 192.9025,164.912 192.9025,168.048 L192.9025,169.728 L189.9905,169.728 L189.9905,167.852 C189.9905,166.452 189.3745,165.92 188.3945,165.92 C187.4145,165.92 186.7985,166.452 186.7985,167.852 L186.7985,178.576 C186.7985,179.976 187.4145,180.48 188.3945,180.48 C189.3745,180.48 189.9905,179.976 189.9905,178.576 L189.9905,174.74 L188.4505,174.74 L188.4505,171.94 L192.9025,171.94 L192.9025,178.352 C192.9025,181.488 191.3345,183.28 188.3105,183.28 Z M199.3705,183.28 C196.3465,183.28 194.7785,181.488 194.7785,178.352 L194.7785,163.4 L197.8585,163.4 L197.8585,178.576 C197.8585,179.976 198.4465,180.48 199.4265,180.48 C200.4065,180.48 200.9945,179.976 200.9945,178.576 L200.9945,163.4 L203.9625,163.4 L203.9625,178.352 C203.9625,181.488 202.3945,183.28 199.3705,183.28 Z M206.1465,183 L206.1465,163.4 L209.2265,163.4 L209.2265,183 L206.1465,183 Z M211.5225,183 L211.5225,163.4 L216.2265,163.4 C219.3065,163.4 220.8185,165.108 220.8185,168.244 L220.8185,178.156 C220.8185,181.292 219.3065,183 216.2265,183 L211.5225,183 Z M214.6025,180.2 L216.1705,180.2 C217.1505,180.2 217.7385,179.696 217.7385,178.296 L217.7385,168.104 C217.7385,166.704 217.1505,166.2 216.1705,166.2 L214.6025,166.2 L214.6025,180.2 Z M227.3425,183.28 C224.3185,183.28 222.6665,181.488 222.6665,178.352 L222.6665,168.048 C222.6665,164.912 224.3185,163.12 227.3425,163.12 C230.3665,163.12 232.0185,164.912 232.0185,168.048 L232.0185,178.352 C232.0185,181.488 230.3665,183.28 227.3425,183.28 Z M227.3425,180.48 C228.3225,180.48 228.9385,179.948 228.9385,178.548 L228.9385,167.852 C228.9385,166.452 228.3225,165.92 227.3425,165.92 C226.3625,165.92 225.7465,166.452 225.7465,167.852 L225.7465,178.548 C225.7465,179.948 226.3625,180.48 227.3425,180.48 Z M234.0905,183 L234.0905,163.4 L238.6545,163.4 C241.8465,163.4 243.2185,164.884 243.2185,167.908 L243.2185,169.112 C243.2185,171.128 242.5745,172.416 241.2025,172.976 L241.2025,173.032 C242.7425,173.508 243.2465,174.964 243.2465,177.176 L243.2465,180.62 C243.2465,181.572 243.2745,182.272 243.5825,183 L240.4465,183 C240.2785,182.496 240.1665,182.188 240.1665,180.592 L240.1665,177.008 C240.1665,175.188 239.6345,174.6 238.2345,174.6 L237.1705,174.6 L237.1705,183 L234.0905,183 Z M237.1705,171.8 L238.2905,171.8 C239.4385,171.8 240.1385,171.296 240.1385,169.728 L240.1385,168.216 C240.1385,166.816 239.6625,166.2 238.5705,166.2 L237.1705,166.2 L237.1705,171.8 Z M245.3745,183 L245.3745,163.4 L253.7745,163.4 L253.7745,166.2 L248.4545,166.2 L248.4545,171.38 L252.6825,171.38 L252.6825,174.18 L248.4545,174.18 L248.4545,180.2 L253.7745,180.2 L253.7745,183 L245.3745,183 Z M259.5425,183.28 C256.5185,183.28 255.0065,181.488 255.0065,178.352 L255.0065,177.232 L257.9185,177.232 L257.9185,178.576 C257.9185,179.976 258.5345,180.48 259.5145,180.48 C260.4945,180.48 261.1105,179.976 261.1105,178.52 C261.1105,176.896 260.4945,175.86 258.4785,174.096 C255.9025,171.828 255.0625,170.232 255.0625,167.992 C255.0625,164.912 256.6585,163.12 259.6545,163.12 C262.6505,163.12 264.1345,164.912 264.1345,168.048 L264.1345,168.86 L261.2225,168.86 L261.2225,167.852 C261.2225,166.452 260.6625,165.92 259.6825,165.92 C258.7025,165.92 258.1425,166.452 258.1425,167.796 C258.1425,169.224 258.7865,170.26 260.8025,172.024 C263.3785,174.292 264.1905,175.86 264.1905,178.296 C264.1905,181.488 262.5665,183.28 259.5425,183.28 Z" id="seguidores" fill="#797979" fill-rule="nonzero"></path>
                <path d="M170.2095,290 L170.2095,268.106 L165.4945,268.106 L165.4945,264.908 C169.3075,264.908 170.6605,264.088 171.6855,261.3 L174.7195,261.3 L174.7195,290 L170.2095,290 Z M186.6095,290 L186.6095,268.106 L181.8945,268.106 L181.8945,264.908 C185.7075,264.908 187.0605,264.088 188.0855,261.3 L191.1195,261.3 L191.1195,290 L186.6095,290 Z M203.2145,290.41 C198.7865,290.41 196.3675,287.786 196.3675,283.194 L196.3675,268.106 C196.3675,263.514 198.7865,260.89 203.2145,260.89 C207.6425,260.89 210.0615,263.514 210.0615,268.106 L210.0615,283.194 C210.0615,287.786 207.6425,290.41 203.2145,290.41 Z M203.2145,286.31 C204.6495,286.31 205.5515,285.531 205.5515,283.481 L205.5515,267.819 C205.5515,265.769 204.6495,264.99 203.2145,264.99 C201.7795,264.99 200.8775,265.769 200.8775,267.819 L200.8775,283.481 C200.8775,285.531 201.7795,286.31 203.2145,286.31 Z M213.0955,290 L213.0955,285.654 L217.4415,285.654 L217.4415,290 L213.0955,290 Z M227.3225,290.41 C222.8945,290.41 220.4755,287.786 220.4755,283.194 L220.4755,268.106 C220.4755,263.514 222.8945,260.89 227.3225,260.89 C231.7505,260.89 234.1695,263.514 234.1695,268.106 L234.1695,283.194 C234.1695,287.786 231.7505,290.41 227.3225,290.41 Z M227.3225,286.31 C228.7575,286.31 229.6595,285.531 229.6595,283.481 L229.6595,267.819 C229.6595,265.769 228.7575,264.99 227.3225,264.99 C225.8875,264.99 224.9855,265.769 224.9855,267.819 L224.9855,283.481 C224.9855,285.531 225.8875,286.31 227.3225,286.31 Z M243.7225,290.41 C239.2945,290.41 236.8755,287.786 236.8755,283.194 L236.8755,268.106 C236.8755,263.514 239.2945,260.89 243.7225,260.89 C248.1505,260.89 250.5695,263.514 250.5695,268.106 L250.5695,283.194 C250.5695,287.786 248.1505,290.41 243.7225,290.41 Z M243.7225,286.31 C245.1575,286.31 246.0595,285.531 246.0595,283.481 L246.0595,267.819 C246.0595,265.769 245.1575,264.99 243.7225,264.99 C242.2875,264.99 241.3855,265.769 241.3855,267.819 L241.3855,283.481 C241.3855,285.531 242.2875,286.31 243.7225,286.31 Z M260.1225,290.41 C255.6945,290.41 253.2755,287.786 253.2755,283.194 L253.2755,268.106 C253.2755,263.514 255.6945,260.89 260.1225,260.89 C264.5505,260.89 266.9695,263.514 266.9695,268.106 L266.9695,283.194 C266.9695,287.786 264.5505,290.41 260.1225,290.41 Z M260.1225,286.31 C261.5575,286.31 262.4595,285.531 262.4595,283.481 L262.4595,267.819 C262.4595,265.769 261.5575,264.99 260.1225,264.99 C258.6875,264.99 257.7855,265.769 257.7855,267.819 L257.7855,283.481 C257.7855,285.531 258.6875,286.31 260.1225,286.31 Z" id="110.000" fill="#000000" fill-rule="nonzero"></path>
                <path d="M165.4945,399 L172.7105,374.4 L163.6085,374.4 L163.6085,370.3 L177.1385,370.3 L177.1385,374.236 L170.0865,399 L165.4945,399 Z M186.8965,399.41 C182.4685,399.41 180.1725,396.786 180.1725,392.194 L180.1725,389.939 L184.4365,389.939 L184.4365,392.522 C184.4365,394.572 185.3385,395.31 186.7735,395.31 C188.2085,395.31 189.1105,394.572 189.1105,392.522 L189.1105,386.085 C189.1105,384.035 188.2085,383.256 186.7735,383.256 C185.3385,383.256 184.4365,384.035 184.4365,386.085 L184.4365,386.331 L180.1725,386.331 L180.9925,370.3 L192.8825,370.3 L192.8825,374.4 L185.0105,374.4 L184.6415,381.247 L184.7235,381.247 C185.5435,379.894 186.8145,379.156 188.6185,379.156 C191.9395,379.156 193.6205,381.493 193.6205,385.716 L193.6205,392.194 C193.6205,396.786 191.3245,399.41 186.8965,399.41 Z M196.6955,399 L196.6955,394.654 L201.0415,394.654 L201.0415,399 L196.6955,399 Z M210.9225,399.41 C206.4945,399.41 204.0755,396.786 204.0755,392.194 L204.0755,377.106 C204.0755,372.514 206.4945,369.89 210.9225,369.89 C215.3505,369.89 217.7695,372.514 217.7695,377.106 L217.7695,392.194 C217.7695,396.786 215.3505,399.41 210.9225,399.41 Z M210.9225,395.31 C212.3575,395.31 213.2595,394.531 213.2595,392.481 L213.2595,376.819 C213.2595,374.769 212.3575,373.99 210.9225,373.99 C209.4875,373.99 208.5855,374.769 208.5855,376.819 L208.5855,392.481 C208.5855,394.531 209.4875,395.31 210.9225,395.31 Z M227.3225,399.41 C222.8945,399.41 220.4755,396.786 220.4755,392.194 L220.4755,377.106 C220.4755,372.514 222.8945,369.89 227.3225,369.89 C231.7505,369.89 234.1695,372.514 234.1695,377.106 L234.1695,392.194 C234.1695,396.786 231.7505,399.41 227.3225,399.41 Z M227.3225,395.31 C228.7575,395.31 229.6595,394.531 229.6595,392.481 L229.6595,376.819 C229.6595,374.769 228.7575,373.99 227.3225,373.99 C225.8875,373.99 224.9855,374.769 224.9855,376.819 L224.9855,392.481 C224.9855,394.531 225.8875,395.31 227.3225,395.31 Z M243.7225,399.41 C239.2945,399.41 236.8755,396.786 236.8755,392.194 L236.8755,377.106 C236.8755,372.514 239.2945,369.89 243.7225,369.89 C248.1505,369.89 250.5695,372.514 250.5695,377.106 L250.5695,392.194 C250.5695,396.786 248.1505,399.41 243.7225,399.41 Z M243.7225,395.31 C245.1575,395.31 246.0595,394.531 246.0595,392.481 L246.0595,376.819 C246.0595,374.769 245.1575,373.99 243.7225,373.99 C242.2875,373.99 241.3855,374.769 241.3855,376.819 L241.3855,392.481 C241.3855,394.531 242.2875,395.31 243.7225,395.31 Z" id="75.000" fill="#000000" fill-rule="nonzero"></path>
                <path d="M170.4965,494.41 C166.0685,494.41 163.7725,491.786 163.7725,487.194 L163.7725,484.939 L168.0365,484.939 L168.0365,487.522 C168.0365,489.572 168.9385,490.31 170.3735,490.31 C171.8085,490.31 172.7105,489.572 172.7105,487.522 L172.7105,481.085 C172.7105,479.035 171.8085,478.256 170.3735,478.256 C168.9385,478.256 168.0365,479.035 168.0365,481.085 L168.0365,481.331 L163.7725,481.331 L164.5925,465.3 L176.4825,465.3 L176.4825,469.4 L168.6105,469.4 L168.2415,476.247 L168.3235,476.247 C169.1435,474.894 170.4145,474.156 172.2185,474.156 C175.5395,474.156 177.2205,476.493 177.2205,480.716 L177.2205,487.194 C177.2205,491.786 174.9245,494.41 170.4965,494.41 Z M186.8145,494.41 C182.2635,494.41 179.7625,491.909 179.7625,487.317 L179.7625,484.775 C179.7625,482.028 180.5825,480.019 182.7145,478.912 L182.7145,478.83 C180.8285,477.805 179.9265,476.001 179.9265,473.172 L179.9265,471.983 C179.9265,467.391 182.4275,464.89 186.8145,464.89 C191.2015,464.89 193.7025,467.391 193.7025,471.983 L193.7025,473.172 C193.7025,476.001 192.7595,477.805 190.9145,478.83 L190.9145,478.912 C193.0465,480.019 193.8665,482.028 193.8665,484.775 L193.8665,487.317 C193.8665,491.909 191.3655,494.41 186.8145,494.41 Z M186.8145,476.985 C188.3725,476.985 189.1925,476.001 189.1925,474.115 L189.1925,471.86 C189.1925,469.974 188.3725,468.99 186.8145,468.99 C185.2565,468.99 184.4365,469.974 184.4365,471.86 L184.4365,474.115 C184.4365,476.001 185.2565,476.985 186.8145,476.985 Z M186.8145,490.31 C188.4955,490.31 189.3565,489.244 189.3565,487.071 L189.3565,484.324 C189.3565,482.151 188.4955,481.085 186.8145,481.085 C185.1335,481.085 184.2725,482.151 184.2725,484.324 L184.2725,487.071 C184.2725,489.244 185.1335,490.31 186.8145,490.31 Z M196.6955,494 L196.6955,489.654 L201.0415,489.654 L201.0415,494 L196.6955,494 Z M210.7585,494.41 C206.3305,494.41 204.0345,491.786 204.0345,487.194 L204.0345,486.661 L208.2985,486.661 L208.2985,487.481 C208.2985,489.531 209.2005,490.31 210.6355,490.31 C212.2345,490.31 213.1365,489.531 213.1365,486.784 L213.1365,481.29 L213.0545,481.29 C212.2755,482.93 210.9635,483.791 208.9545,483.791 C205.6335,483.791 203.9525,481.454 203.9525,477.231 L203.9525,472.106 C203.9525,467.514 206.3715,464.89 210.7995,464.89 C215.2275,464.89 217.6465,467.514 217.6465,472.106 L217.6465,486.948 C217.6465,491.786 215.4325,494.41 210.7585,494.41 Z M210.7995,479.691 C212.3575,479.691 213.1365,478.789 213.1365,476.862 L213.1365,471.778 C213.1365,469.892 212.3575,468.99 210.7995,468.99 C209.2415,468.99 208.4625,469.892 208.4625,471.778 L208.4625,476.862 C208.4625,478.789 209.2415,479.691 210.7995,479.691 Z M227.3225,494.41 C222.8945,494.41 220.4755,491.786 220.4755,487.194 L220.4755,472.106 C220.4755,467.514 222.8945,464.89 227.3225,464.89 C231.7505,464.89 234.1695,467.514 234.1695,472.106 L234.1695,487.194 C234.1695,491.786 231.7505,494.41 227.3225,494.41 Z M227.3225,490.31 C228.7575,490.31 229.6595,489.531 229.6595,487.481 L229.6595,471.819 C229.6595,469.769 228.7575,468.99 227.3225,468.99 C225.8875,468.99 224.9855,469.769 224.9855,471.819 L224.9855,487.481 C224.9855,489.531 225.8875,490.31 227.3225,490.31 Z M243.7225,494.41 C239.2945,494.41 236.8755,491.786 236.8755,487.194 L236.8755,472.106 C236.8755,467.514 239.2945,464.89 243.7225,464.89 C248.1505,464.89 250.5695,467.514 250.5695,472.106 L250.5695,487.194 C250.5695,491.786 248.1505,494.41 243.7225,494.41 Z M243.7225,490.31 C245.1575,490.31 246.0595,489.531 246.0595,487.481 L246.0595,471.819 C246.0595,469.769 245.1575,468.99 243.7225,468.99 C242.2875,468.99 241.3855,469.769 241.3855,471.819 L241.3855,487.481 C241.3855,489.531 242.2875,490.31 243.7225,490.31 Z" id="58.900" fill="#000000" fill-rule="nonzero"></path>
                <path d="M171.4395,580 L171.4395,574.793 L162.8295,574.793 L162.8295,570.693 L171.0295,551.3 L175.9495,551.3 L175.9495,570.693 L178.0815,570.693 L178.0815,574.793 L175.9495,574.793 L175.9495,580 L171.4395,580 Z M166.9295,570.693 L171.4395,570.693 L171.4395,559.5 L171.3575,559.5 L166.9295,570.693 Z M186.6915,580.41 C182.2635,580.41 179.9675,577.868 179.9675,573.276 L179.9675,570.939 L184.2315,570.939 L184.2315,573.481 C184.2315,575.531 185.1335,576.31 186.5685,576.31 C188.0035,576.31 188.9055,575.613 188.9055,573.071 L188.9055,570.734 C188.9055,568.069 188.0035,567.085 185.9535,567.085 L184.4365,567.085 L184.4365,562.985 L186.0765,562.985 C187.7575,562.985 188.7825,562.247 188.7825,559.951 L188.7825,557.86 C188.7825,555.81 187.8395,554.99 186.5275,554.99 C185.2155,554.99 184.3545,555.769 184.3545,557.655 L184.3545,559.541 L180.0905,559.541 L180.0905,558.024 C180.0905,553.432 182.3865,550.89 186.6915,550.89 C190.9965,550.89 193.2925,553.391 193.2925,557.983 L193.2925,559.008 C193.2925,562.083 192.3085,563.969 190.0945,564.789 L190.0945,564.871 C192.5135,565.773 193.4155,567.864 193.4155,570.775 L193.4155,573.317 C193.4155,577.909 191.1195,580.41 186.6915,580.41 Z M196.6955,580 L196.6955,575.654 L201.0415,575.654 L201.0415,580 L196.6955,580 Z M210.9225,580.41 C206.4945,580.41 204.0755,577.786 204.0755,573.194 L204.0755,558.106 C204.0755,553.514 206.4945,550.89 210.9225,550.89 C215.3505,550.89 217.7695,553.514 217.7695,558.106 L217.7695,573.194 C217.7695,577.786 215.3505,580.41 210.9225,580.41 Z M210.9225,576.31 C212.3575,576.31 213.2595,575.531 213.2595,573.481 L213.2595,557.819 C213.2595,555.769 212.3575,554.99 210.9225,554.99 C209.4875,554.99 208.5855,555.769 208.5855,557.819 L208.5855,573.481 C208.5855,575.531 209.4875,576.31 210.9225,576.31 Z M227.3225,580.41 C222.8945,580.41 220.4755,577.786 220.4755,573.194 L220.4755,558.106 C220.4755,553.514 222.8945,550.89 227.3225,550.89 C231.7505,550.89 234.1695,553.514 234.1695,558.106 L234.1695,573.194 C234.1695,577.786 231.7505,580.41 227.3225,580.41 Z M227.3225,576.31 C228.7575,576.31 229.6595,575.531 229.6595,573.481 L229.6595,557.819 C229.6595,555.769 228.7575,554.99 227.3225,554.99 C225.8875,554.99 224.9855,555.769 224.9855,557.819 L224.9855,573.481 C224.9855,575.531 225.8875,576.31 227.3225,576.31 Z M243.7225,580.41 C239.2945,580.41 236.8755,577.786 236.8755,573.194 L236.8755,558.106 C236.8755,553.514 239.2945,550.89 243.7225,550.89 C248.1505,550.89 250.5695,553.514 250.5695,558.106 L250.5695,573.194 C250.5695,577.786 248.1505,580.41 243.7225,580.41 Z M243.7225,576.31 C245.1575,576.31 246.0595,575.531 246.0595,573.481 L246.0595,557.819 C246.0595,555.769 245.1575,554.99 243.7225,554.99 C242.2875,554.99 241.3855,555.769 241.3855,557.819 L241.3855,573.481 C241.3855,575.531 242.2875,576.31 243.7225,576.31 Z" id="43.000" fill="#000000" fill-rule="nonzero"></path>
                <path d="M167.3665,321.28 C164.3425,321.28 162.8305,319.488 162.8305,316.352 L162.8305,315.232 L165.7425,315.232 L165.7425,316.576 C165.7425,317.976 166.3585,318.48 167.3385,318.48 C168.3185,318.48 168.9345,317.976 168.9345,316.52 C168.9345,314.896 168.3185,313.86 166.3025,312.096 C163.7265,309.828 162.8865,308.232 162.8865,305.992 C162.8865,302.912 164.4825,301.12 167.4785,301.12 C170.4745,301.12 171.9585,302.912 171.9585,306.048 L171.9585,306.86 L169.0465,306.86 L169.0465,305.852 C169.0465,304.452 168.4865,303.92 167.5065,303.92 C166.5265,303.92 165.9665,304.452 165.9665,305.796 C165.9665,307.224 166.6105,308.26 168.6265,310.024 C171.2025,312.292 172.0145,313.86 172.0145,316.296 C172.0145,319.488 170.3905,321.28 167.3665,321.28 Z M173.7785,321 L173.7785,301.4 L182.1785,301.4 L182.1785,304.2 L176.8585,304.2 L176.8585,309.38 L181.0865,309.38 L181.0865,312.18 L176.8585,312.18 L176.8585,318.2 L182.1785,318.2 L182.1785,321 L173.7785,321 Z M188.3105,321.28 C185.2865,321.28 183.7185,319.488 183.7185,316.352 L183.7185,306.048 C183.7185,302.912 185.2865,301.12 188.3105,301.12 C191.3345,301.12 192.9025,302.912 192.9025,306.048 L192.9025,307.728 L189.9905,307.728 L189.9905,305.852 C189.9905,304.452 189.3745,303.92 188.3945,303.92 C187.4145,303.92 186.7985,304.452 186.7985,305.852 L186.7985,316.576 C186.7985,317.976 187.4145,318.48 188.3945,318.48 C189.3745,318.48 189.9905,317.976 189.9905,316.576 L189.9905,312.74 L188.4505,312.74 L188.4505,309.94 L192.9025,309.94 L192.9025,316.352 C192.9025,319.488 191.3345,321.28 188.3105,321.28 Z M199.3705,321.28 C196.3465,321.28 194.7785,319.488 194.7785,316.352 L194.7785,301.4 L197.8585,301.4 L197.8585,316.576 C197.8585,317.976 198.4465,318.48 199.4265,318.48 C200.4065,318.48 200.9945,317.976 200.9945,316.576 L200.9945,301.4 L203.9625,301.4 L203.9625,316.352 C203.9625,319.488 202.3945,321.28 199.3705,321.28 Z M206.1465,321 L206.1465,301.4 L209.2265,301.4 L209.2265,321 L206.1465,321 Z M211.5225,321 L211.5225,301.4 L216.2265,301.4 C219.3065,301.4 220.8185,303.108 220.8185,306.244 L220.8185,316.156 C220.8185,319.292 219.3065,321 216.2265,321 L211.5225,321 Z M214.6025,318.2 L216.1705,318.2 C217.1505,318.2 217.7385,317.696 217.7385,316.296 L217.7385,306.104 C217.7385,304.704 217.1505,304.2 216.1705,304.2 L214.6025,304.2 L214.6025,318.2 Z M227.3425,321.28 C224.3185,321.28 222.6665,319.488 222.6665,316.352 L222.6665,306.048 C222.6665,302.912 224.3185,301.12 227.3425,301.12 C230.3665,301.12 232.0185,302.912 232.0185,306.048 L232.0185,316.352 C232.0185,319.488 230.3665,321.28 227.3425,321.28 Z M227.3425,318.48 C228.3225,318.48 228.9385,317.948 228.9385,316.548 L228.9385,305.852 C228.9385,304.452 228.3225,303.92 227.3425,303.92 C226.3625,303.92 225.7465,304.452 225.7465,305.852 L225.7465,316.548 C225.7465,317.948 226.3625,318.48 227.3425,318.48 Z M234.0905,321 L234.0905,301.4 L238.6545,301.4 C241.8465,301.4 243.2185,302.884 243.2185,305.908 L243.2185,307.112 C243.2185,309.128 242.5745,310.416 241.2025,310.976 L241.2025,311.032 C242.7425,311.508 243.2465,312.964 243.2465,315.176 L243.2465,318.62 C243.2465,319.572 243.2745,320.272 243.5825,321 L240.4465,321 C240.2785,320.496 240.1665,320.188 240.1665,318.592 L240.1665,315.008 C240.1665,313.188 239.6345,312.6 238.2345,312.6 L237.1705,312.6 L237.1705,321 L234.0905,321 Z M237.1705,309.8 L238.2905,309.8 C239.4385,309.8 240.1385,309.296 240.1385,307.728 L240.1385,306.216 C240.1385,304.816 239.6625,304.2 238.5705,304.2 L237.1705,304.2 L237.1705,309.8 Z M245.3745,321 L245.3745,301.4 L253.7745,301.4 L253.7745,304.2 L248.4545,304.2 L248.4545,309.38 L252.6825,309.38 L252.6825,312.18 L248.4545,312.18 L248.4545,318.2 L253.7745,318.2 L253.7745,321 L245.3745,321 Z M259.5425,321.28 C256.5185,321.28 255.0065,319.488 255.0065,316.352 L255.0065,315.232 L257.9185,315.232 L257.9185,316.576 C257.9185,317.976 258.5345,318.48 259.5145,318.48 C260.4945,318.48 261.1105,317.976 261.1105,316.52 C261.1105,314.896 260.4945,313.86 258.4785,312.096 C255.9025,309.828 255.0625,308.232 255.0625,305.992 C255.0625,302.912 256.6585,301.12 259.6545,301.12 C262.6505,301.12 264.1345,302.912 264.1345,306.048 L264.1345,306.86 L261.2225,306.86 L261.2225,305.852 C261.2225,304.452 260.6625,303.92 259.6825,303.92 C258.7025,303.92 258.1425,304.452 258.1425,305.796 C258.1425,307.224 258.7865,308.26 260.8025,310.024 C263.3785,312.292 264.1905,313.86 264.1905,316.296 C264.1905,319.488 262.5665,321.28 259.5425,321.28 Z" id="seguidores" fill="#797979" fill-rule="nonzero"></path>
                <path d="M167.3665,430.28 C164.3425,430.28 162.8305,428.488 162.8305,425.352 L162.8305,424.232 L165.7425,424.232 L165.7425,425.576 C165.7425,426.976 166.3585,427.48 167.3385,427.48 C168.3185,427.48 168.9345,426.976 168.9345,425.52 C168.9345,423.896 168.3185,422.86 166.3025,421.096 C163.7265,418.828 162.8865,417.232 162.8865,414.992 C162.8865,411.912 164.4825,410.12 167.4785,410.12 C170.4745,410.12 171.9585,411.912 171.9585,415.048 L171.9585,415.86 L169.0465,415.86 L169.0465,414.852 C169.0465,413.452 168.4865,412.92 167.5065,412.92 C166.5265,412.92 165.9665,413.452 165.9665,414.796 C165.9665,416.224 166.6105,417.26 168.6265,419.024 C171.2025,421.292 172.0145,422.86 172.0145,425.296 C172.0145,428.488 170.3905,430.28 167.3665,430.28 Z M173.7785,430 L173.7785,410.4 L182.1785,410.4 L182.1785,413.2 L176.8585,413.2 L176.8585,418.38 L181.0865,418.38 L181.0865,421.18 L176.8585,421.18 L176.8585,427.2 L182.1785,427.2 L182.1785,430 L173.7785,430 Z M188.3105,430.28 C185.2865,430.28 183.7185,428.488 183.7185,425.352 L183.7185,415.048 C183.7185,411.912 185.2865,410.12 188.3105,410.12 C191.3345,410.12 192.9025,411.912 192.9025,415.048 L192.9025,416.728 L189.9905,416.728 L189.9905,414.852 C189.9905,413.452 189.3745,412.92 188.3945,412.92 C187.4145,412.92 186.7985,413.452 186.7985,414.852 L186.7985,425.576 C186.7985,426.976 187.4145,427.48 188.3945,427.48 C189.3745,427.48 189.9905,426.976 189.9905,425.576 L189.9905,421.74 L188.4505,421.74 L188.4505,418.94 L192.9025,418.94 L192.9025,425.352 C192.9025,428.488 191.3345,430.28 188.3105,430.28 Z M199.3705,430.28 C196.3465,430.28 194.7785,428.488 194.7785,425.352 L194.7785,410.4 L197.8585,410.4 L197.8585,425.576 C197.8585,426.976 198.4465,427.48 199.4265,427.48 C200.4065,427.48 200.9945,426.976 200.9945,425.576 L200.9945,410.4 L203.9625,410.4 L203.9625,425.352 C203.9625,428.488 202.3945,430.28 199.3705,430.28 Z M206.1465,430 L206.1465,410.4 L209.2265,410.4 L209.2265,430 L206.1465,430 Z M211.5225,430 L211.5225,410.4 L216.2265,410.4 C219.3065,410.4 220.8185,412.108 220.8185,415.244 L220.8185,425.156 C220.8185,428.292 219.3065,430 216.2265,430 L211.5225,430 Z M214.6025,427.2 L216.1705,427.2 C217.1505,427.2 217.7385,426.696 217.7385,425.296 L217.7385,415.104 C217.7385,413.704 217.1505,413.2 216.1705,413.2 L214.6025,413.2 L214.6025,427.2 Z M227.3425,430.28 C224.3185,430.28 222.6665,428.488 222.6665,425.352 L222.6665,415.048 C222.6665,411.912 224.3185,410.12 227.3425,410.12 C230.3665,410.12 232.0185,411.912 232.0185,415.048 L232.0185,425.352 C232.0185,428.488 230.3665,430.28 227.3425,430.28 Z M227.3425,427.48 C228.3225,427.48 228.9385,426.948 228.9385,425.548 L228.9385,414.852 C228.9385,413.452 228.3225,412.92 227.3425,412.92 C226.3625,412.92 225.7465,413.452 225.7465,414.852 L225.7465,425.548 C225.7465,426.948 226.3625,427.48 227.3425,427.48 Z M234.0905,430 L234.0905,410.4 L238.6545,410.4 C241.8465,410.4 243.2185,411.884 243.2185,414.908 L243.2185,416.112 C243.2185,418.128 242.5745,419.416 241.2025,419.976 L241.2025,420.032 C242.7425,420.508 243.2465,421.964 243.2465,424.176 L243.2465,427.62 C243.2465,428.572 243.2745,429.272 243.5825,430 L240.4465,430 C240.2785,429.496 240.1665,429.188 240.1665,427.592 L240.1665,424.008 C240.1665,422.188 239.6345,421.6 238.2345,421.6 L237.1705,421.6 L237.1705,430 L234.0905,430 Z M237.1705,418.8 L238.2905,418.8 C239.4385,418.8 240.1385,418.296 240.1385,416.728 L240.1385,415.216 C240.1385,413.816 239.6625,413.2 238.5705,413.2 L237.1705,413.2 L237.1705,418.8 Z M245.3745,430 L245.3745,410.4 L253.7745,410.4 L253.7745,413.2 L248.4545,413.2 L248.4545,418.38 L252.6825,418.38 L252.6825,421.18 L248.4545,421.18 L248.4545,427.2 L253.7745,427.2 L253.7745,430 L245.3745,430 Z M259.5425,430.28 C256.5185,430.28 255.0065,428.488 255.0065,425.352 L255.0065,424.232 L257.9185,424.232 L257.9185,425.576 C257.9185,426.976 258.5345,427.48 259.5145,427.48 C260.4945,427.48 261.1105,426.976 261.1105,425.52 C261.1105,423.896 260.4945,422.86 258.4785,421.096 C255.9025,418.828 255.0625,417.232 255.0625,414.992 C255.0625,411.912 256.6585,410.12 259.6545,410.12 C262.6505,410.12 264.1345,411.912 264.1345,415.048 L264.1345,415.86 L261.2225,415.86 L261.2225,414.852 C261.2225,413.452 260.6625,412.92 259.6825,412.92 C258.7025,412.92 258.1425,413.452 258.1425,414.796 C258.1425,416.224 258.7865,417.26 260.8025,419.024 C263.3785,421.292 264.1905,422.86 264.1905,425.296 C264.1905,428.488 262.5665,430.28 259.5425,430.28 Z" id="seguidores" fill="#797979" fill-rule="nonzero"></path>
                <path d="M167.3665,525.28 C164.3425,525.28 162.8305,523.488 162.8305,520.352 L162.8305,519.232 L165.7425,519.232 L165.7425,520.576 C165.7425,521.976 166.3585,522.48 167.3385,522.48 C168.3185,522.48 168.9345,521.976 168.9345,520.52 C168.9345,518.896 168.3185,517.86 166.3025,516.096 C163.7265,513.828 162.8865,512.232 162.8865,509.992 C162.8865,506.912 164.4825,505.12 167.4785,505.12 C170.4745,505.12 171.9585,506.912 171.9585,510.048 L171.9585,510.86 L169.0465,510.86 L169.0465,509.852 C169.0465,508.452 168.4865,507.92 167.5065,507.92 C166.5265,507.92 165.9665,508.452 165.9665,509.796 C165.9665,511.224 166.6105,512.26 168.6265,514.024 C171.2025,516.292 172.0145,517.86 172.0145,520.296 C172.0145,523.488 170.3905,525.28 167.3665,525.28 Z M173.7785,525 L173.7785,505.4 L182.1785,505.4 L182.1785,508.2 L176.8585,508.2 L176.8585,513.38 L181.0865,513.38 L181.0865,516.18 L176.8585,516.18 L176.8585,522.2 L182.1785,522.2 L182.1785,525 L173.7785,525 Z M188.3105,525.28 C185.2865,525.28 183.7185,523.488 183.7185,520.352 L183.7185,510.048 C183.7185,506.912 185.2865,505.12 188.3105,505.12 C191.3345,505.12 192.9025,506.912 192.9025,510.048 L192.9025,511.728 L189.9905,511.728 L189.9905,509.852 C189.9905,508.452 189.3745,507.92 188.3945,507.92 C187.4145,507.92 186.7985,508.452 186.7985,509.852 L186.7985,520.576 C186.7985,521.976 187.4145,522.48 188.3945,522.48 C189.3745,522.48 189.9905,521.976 189.9905,520.576 L189.9905,516.74 L188.4505,516.74 L188.4505,513.94 L192.9025,513.94 L192.9025,520.352 C192.9025,523.488 191.3345,525.28 188.3105,525.28 Z M199.3705,525.28 C196.3465,525.28 194.7785,523.488 194.7785,520.352 L194.7785,505.4 L197.8585,505.4 L197.8585,520.576 C197.8585,521.976 198.4465,522.48 199.4265,522.48 C200.4065,522.48 200.9945,521.976 200.9945,520.576 L200.9945,505.4 L203.9625,505.4 L203.9625,520.352 C203.9625,523.488 202.3945,525.28 199.3705,525.28 Z M206.1465,525 L206.1465,505.4 L209.2265,505.4 L209.2265,525 L206.1465,525 Z M211.5225,525 L211.5225,505.4 L216.2265,505.4 C219.3065,505.4 220.8185,507.108 220.8185,510.244 L220.8185,520.156 C220.8185,523.292 219.3065,525 216.2265,525 L211.5225,525 Z M214.6025,522.2 L216.1705,522.2 C217.1505,522.2 217.7385,521.696 217.7385,520.296 L217.7385,510.104 C217.7385,508.704 217.1505,508.2 216.1705,508.2 L214.6025,508.2 L214.6025,522.2 Z M227.3425,525.28 C224.3185,525.28 222.6665,523.488 222.6665,520.352 L222.6665,510.048 C222.6665,506.912 224.3185,505.12 227.3425,505.12 C230.3665,505.12 232.0185,506.912 232.0185,510.048 L232.0185,520.352 C232.0185,523.488 230.3665,525.28 227.3425,525.28 Z M227.3425,522.48 C228.3225,522.48 228.9385,521.948 228.9385,520.548 L228.9385,509.852 C228.9385,508.452 228.3225,507.92 227.3425,507.92 C226.3625,507.92 225.7465,508.452 225.7465,509.852 L225.7465,520.548 C225.7465,521.948 226.3625,522.48 227.3425,522.48 Z M234.0905,525 L234.0905,505.4 L238.6545,505.4 C241.8465,505.4 243.2185,506.884 243.2185,509.908 L243.2185,511.112 C243.2185,513.128 242.5745,514.416 241.2025,514.976 L241.2025,515.032 C242.7425,515.508 243.2465,516.964 243.2465,519.176 L243.2465,522.62 C243.2465,523.572 243.2745,524.272 243.5825,525 L240.4465,525 C240.2785,524.496 240.1665,524.188 240.1665,522.592 L240.1665,519.008 C240.1665,517.188 239.6345,516.6 238.2345,516.6 L237.1705,516.6 L237.1705,525 L234.0905,525 Z M237.1705,513.8 L238.2905,513.8 C239.4385,513.8 240.1385,513.296 240.1385,511.728 L240.1385,510.216 C240.1385,508.816 239.6625,508.2 238.5705,508.2 L237.1705,508.2 L237.1705,513.8 Z M245.3745,525 L245.3745,505.4 L253.7745,505.4 L253.7745,508.2 L248.4545,508.2 L248.4545,513.38 L252.6825,513.38 L252.6825,516.18 L248.4545,516.18 L248.4545,522.2 L253.7745,522.2 L253.7745,525 L245.3745,525 Z M259.5425,525.28 C256.5185,525.28 255.0065,523.488 255.0065,520.352 L255.0065,519.232 L257.9185,519.232 L257.9185,520.576 C257.9185,521.976 258.5345,522.48 259.5145,522.48 C260.4945,522.48 261.1105,521.976 261.1105,520.52 C261.1105,518.896 260.4945,517.86 258.4785,516.096 C255.9025,513.828 255.0625,512.232 255.0625,509.992 C255.0625,506.912 256.6585,505.12 259.6545,505.12 C262.6505,505.12 264.1345,506.912 264.1345,510.048 L264.1345,510.86 L261.2225,510.86 L261.2225,509.852 C261.2225,508.452 260.6625,507.92 259.6825,507.92 C258.7025,507.92 258.1425,508.452 258.1425,509.796 C258.1425,511.224 258.7865,512.26 260.8025,514.024 C263.3785,516.292 264.1905,517.86 264.1905,520.296 C264.1905,523.488 262.5665,525.28 259.5425,525.28 Z" id="seguidores" fill="#797979" fill-rule="nonzero"></path>
                <path d="M68.8425,299.28 C65.8185,299.28 64.2505,297.488 64.2505,294.352 L64.2505,279.4 L67.3305,279.4 L67.3305,294.576 C67.3305,295.976 67.9185,296.48 68.8985,296.48 C69.8785,296.48 70.4665,295.976 70.4665,294.576 L70.4665,279.4 L73.4345,279.4 L73.4345,294.352 C73.4345,297.488 71.8665,299.28 68.8425,299.28 Z M75.6185,299 L75.6185,279.4 L80.1545,279.4 C83.2345,279.4 84.7465,281.108 84.7465,284.244 L84.7465,286.176 C84.7465,289.312 83.2345,291.02 80.1545,291.02 L78.6985,291.02 L78.6985,299 L75.6185,299 Z M78.6985,288.22 L80.1545,288.22 C81.1345,288.22 81.6665,287.772 81.6665,286.372 L81.6665,284.048 C81.6665,282.648 81.1345,282.2 80.1545,282.2 L78.6985,282.2 L78.6985,288.22 Z" id="up" fill="#FFFFFF" fill-rule="nonzero"></path>
                <path d="M67.7025,406.28 C64.7345,406.28 63.1665,404.488 63.1665,401.464 L63.1665,390.936 C63.1665,387.912 64.7345,386.12 67.7025,386.12 C70.6705,386.12 72.2385,387.912 72.2385,390.936 L72.2385,393.008 L69.3265,393.008 L69.3265,390.74 C69.3265,389.452 68.7105,388.92 67.7865,388.92 C66.8625,388.92 66.2465,389.452 66.2465,390.74 L66.2465,401.688 C66.2465,402.976 66.8625,403.48 67.7865,403.48 C68.7105,403.48 69.3265,402.976 69.3265,401.688 L69.3265,398.692 L72.2385,398.692 L72.2385,401.464 C72.2385,404.488 70.6705,406.28 67.7025,406.28 Z M78.0905,406.28 C75.0665,406.28 73.5545,404.488 73.5545,401.352 L73.5545,400.232 L76.4665,400.232 L76.4665,401.576 C76.4665,402.976 77.0825,403.48 78.0625,403.48 C79.0425,403.48 79.6585,402.976 79.6585,401.52 C79.6585,399.896 79.0425,398.86 77.0265,397.096 C74.4505,394.828 73.6105,393.232 73.6105,390.992 C73.6105,387.912 75.2065,386.12 78.2025,386.12 C81.1985,386.12 82.6825,387.912 82.6825,391.048 L82.6825,391.86 L79.7705,391.86 L79.7705,390.852 C79.7705,389.452 79.2105,388.92 78.2305,388.92 C77.2505,388.92 76.6905,389.452 76.6905,390.796 C76.6905,392.224 77.3345,393.26 79.3505,395.024 C81.9265,397.292 82.7385,398.86 82.7385,401.296 C82.7385,404.488 81.1145,406.28 78.0905,406.28 Z" id="cs" fill="#FFFFFF" fill-rule="nonzero"></path>
                <path d="M64.3625,501 L64.3625,481.4 L68.8985,481.4 C71.9785,481.4 73.4905,483.108 73.4905,486.244 L73.4905,488.176 C73.4905,491.312 71.9785,493.02 68.8985,493.02 L67.4425,493.02 L67.4425,501 L64.3625,501 Z M67.4425,490.22 L68.8985,490.22 C69.8785,490.22 70.4105,489.772 70.4105,488.372 L70.4105,486.048 C70.4105,484.648 69.8785,484.2 68.8985,484.2 L67.4425,484.2 L67.4425,490.22 Z M75.1705,501 L75.1705,481.4 L79.7065,481.4 C82.7865,481.4 84.2985,483.108 84.2985,486.244 L84.2985,488.176 C84.2985,491.312 82.7865,493.02 79.7065,493.02 L78.2505,493.02 L78.2505,501 L75.1705,501 Z M78.2505,490.22 L79.7065,490.22 C80.6865,490.22 81.2185,489.772 81.2185,488.372 L81.2185,486.048 C81.2185,484.648 80.6865,484.2 79.7065,484.2 L78.2505,484.2 L78.2505,490.22 Z" id="PP" fill="#FFFFFF" fill-rule="nonzero"></path>
                <path d="M53.3625,588 L53.3625,568.4 L57.8985,568.4 C60.9785,568.4 62.4905,570.108 62.4905,573.244 L62.4905,575.176 C62.4905,578.312 60.9785,580.02 57.8985,580.02 L56.4425,580.02 L56.4425,588 L53.3625,588 Z M56.4425,577.22 L57.8985,577.22 C58.8785,577.22 59.4105,576.772 59.4105,575.372 L59.4105,573.048 C59.4105,571.648 58.8785,571.2 57.8985,571.2 L56.4425,571.2 L56.4425,577.22 Z M68.1745,588.28 C65.1505,588.28 63.6385,586.488 63.6385,583.352 L63.6385,582.232 L66.5505,582.232 L66.5505,583.576 C66.5505,584.976 67.1665,585.48 68.1465,585.48 C69.1265,585.48 69.7425,584.976 69.7425,583.52 C69.7425,581.896 69.1265,580.86 67.1105,579.096 C64.5345,576.828 63.6945,575.232 63.6945,572.992 C63.6945,569.912 65.2905,568.12 68.2865,568.12 C71.2825,568.12 72.7665,569.912 72.7665,573.048 L72.7665,573.86 L69.8545,573.86 L69.8545,572.852 C69.8545,571.452 69.2945,570.92 68.3145,570.92 C67.3345,570.92 66.7745,571.452 66.7745,572.796 C66.7745,574.224 67.4185,575.26 69.4345,577.024 C72.0105,579.292 72.8225,580.86 72.8225,583.296 C72.8225,586.488 71.1985,588.28 68.1745,588.28 Z M79.0385,588.28 C76.0145,588.28 74.3625,586.488 74.3625,583.352 L74.3625,573.048 C74.3625,569.912 76.0145,568.12 79.0385,568.12 C82.0625,568.12 83.7145,569.912 83.7145,573.048 L83.7145,583.352 C83.7145,586.488 82.0625,588.28 79.0385,588.28 Z M79.0385,585.48 C80.0185,585.48 80.6345,584.948 80.6345,583.548 L80.6345,572.852 C80.6345,571.452 80.0185,570.92 79.0385,570.92 C78.0585,570.92 77.4425,571.452 77.4425,572.852 L77.4425,583.548 C77.4425,584.948 78.0585,585.48 79.0385,585.48 Z M85.7865,588 L85.7865,568.4 L94.1865,568.4 L94.1865,571.2 L88.8665,571.2 L88.8665,576.38 L93.0945,576.38 L93.0945,579.18 L88.8665,579.18 L88.8665,585.2 L94.1865,585.2 L94.1865,588 L85.7865,588 Z" id="Psoe" fill="#FFFFFF" fill-rule="nonzero"></path>
                <path d="M167.3665,611.28 C164.3425,611.28 162.8305,609.488 162.8305,606.352 L162.8305,605.232 L165.7425,605.232 L165.7425,606.576 C165.7425,607.976 166.3585,608.48 167.3385,608.48 C168.3185,608.48 168.9345,607.976 168.9345,606.52 C168.9345,604.896 168.3185,603.86 166.3025,602.096 C163.7265,599.828 162.8865,598.232 162.8865,595.992 C162.8865,592.912 164.4825,591.12 167.4785,591.12 C170.4745,591.12 171.9585,592.912 171.9585,596.048 L171.9585,596.86 L169.0465,596.86 L169.0465,595.852 C169.0465,594.452 168.4865,593.92 167.5065,593.92 C166.5265,593.92 165.9665,594.452 165.9665,595.796 C165.9665,597.224 166.6105,598.26 168.6265,600.024 C171.2025,602.292 172.0145,603.86 172.0145,606.296 C172.0145,609.488 170.3905,611.28 167.3665,611.28 Z M173.7785,611 L173.7785,591.4 L182.1785,591.4 L182.1785,594.2 L176.8585,594.2 L176.8585,599.38 L181.0865,599.38 L181.0865,602.18 L176.8585,602.18 L176.8585,608.2 L182.1785,608.2 L182.1785,611 L173.7785,611 Z M188.3105,611.28 C185.2865,611.28 183.7185,609.488 183.7185,606.352 L183.7185,596.048 C183.7185,592.912 185.2865,591.12 188.3105,591.12 C191.3345,591.12 192.9025,592.912 192.9025,596.048 L192.9025,597.728 L189.9905,597.728 L189.9905,595.852 C189.9905,594.452 189.3745,593.92 188.3945,593.92 C187.4145,593.92 186.7985,594.452 186.7985,595.852 L186.7985,606.576 C186.7985,607.976 187.4145,608.48 188.3945,608.48 C189.3745,608.48 189.9905,607.976 189.9905,606.576 L189.9905,602.74 L188.4505,602.74 L188.4505,599.94 L192.9025,599.94 L192.9025,606.352 C192.9025,609.488 191.3345,611.28 188.3105,611.28 Z M199.3705,611.28 C196.3465,611.28 194.7785,609.488 194.7785,606.352 L194.7785,591.4 L197.8585,591.4 L197.8585,606.576 C197.8585,607.976 198.4465,608.48 199.4265,608.48 C200.4065,608.48 200.9945,607.976 200.9945,606.576 L200.9945,591.4 L203.9625,591.4 L203.9625,606.352 C203.9625,609.488 202.3945,611.28 199.3705,611.28 Z M206.1465,611 L206.1465,591.4 L209.2265,591.4 L209.2265,611 L206.1465,611 Z M211.5225,611 L211.5225,591.4 L216.2265,591.4 C219.3065,591.4 220.8185,593.108 220.8185,596.244 L220.8185,606.156 C220.8185,609.292 219.3065,611 216.2265,611 L211.5225,611 Z M214.6025,608.2 L216.1705,608.2 C217.1505,608.2 217.7385,607.696 217.7385,606.296 L217.7385,596.104 C217.7385,594.704 217.1505,594.2 216.1705,594.2 L214.6025,594.2 L214.6025,608.2 Z M227.3425,611.28 C224.3185,611.28 222.6665,609.488 222.6665,606.352 L222.6665,596.048 C222.6665,592.912 224.3185,591.12 227.3425,591.12 C230.3665,591.12 232.0185,592.912 232.0185,596.048 L232.0185,606.352 C232.0185,609.488 230.3665,611.28 227.3425,611.28 Z M227.3425,608.48 C228.3225,608.48 228.9385,607.948 228.9385,606.548 L228.9385,595.852 C228.9385,594.452 228.3225,593.92 227.3425,593.92 C226.3625,593.92 225.7465,594.452 225.7465,595.852 L225.7465,606.548 C225.7465,607.948 226.3625,608.48 227.3425,608.48 Z M234.0905,611 L234.0905,591.4 L238.6545,591.4 C241.8465,591.4 243.2185,592.884 243.2185,595.908 L243.2185,597.112 C243.2185,599.128 242.5745,600.416 241.2025,600.976 L241.2025,601.032 C242.7425,601.508 243.2465,602.964 243.2465,605.176 L243.2465,608.62 C243.2465,609.572 243.2745,610.272 243.5825,611 L240.4465,611 C240.2785,610.496 240.1665,610.188 240.1665,608.592 L240.1665,605.008 C240.1665,603.188 239.6345,602.6 238.2345,602.6 L237.1705,602.6 L237.1705,611 L234.0905,611 Z M237.1705,599.8 L238.2905,599.8 C239.4385,599.8 240.1385,599.296 240.1385,597.728 L240.1385,596.216 C240.1385,594.816 239.6625,594.2 238.5705,594.2 L237.1705,594.2 L237.1705,599.8 Z M245.3745,611 L245.3745,591.4 L253.7745,591.4 L253.7745,594.2 L248.4545,594.2 L248.4545,599.38 L252.6825,599.38 L252.6825,602.18 L248.4545,602.18 L248.4545,608.2 L253.7745,608.2 L253.7745,611 L245.3745,611 Z M259.5425,611.28 C256.5185,611.28 255.0065,609.488 255.0065,606.352 L255.0065,605.232 L257.9185,605.232 L257.9185,606.576 C257.9185,607.976 258.5345,608.48 259.5145,608.48 C260.4945,608.48 261.1105,607.976 261.1105,606.52 C261.1105,604.896 260.4945,603.86 258.4785,602.096 C255.9025,599.828 255.0625,598.232 255.0625,595.992 C255.0625,592.912 256.6585,591.12 259.6545,591.12 C262.6505,591.12 264.1345,592.912 264.1345,596.048 L264.1345,596.86 L261.2225,596.86 L261.2225,595.852 C261.2225,594.452 260.6625,593.92 259.6825,593.92 C258.7025,593.92 258.1425,594.452 258.1425,595.796 C258.1425,597.224 258.7865,598.26 260.8025,600.024 C263.3785,602.292 264.1905,603.86 264.1905,606.296 C264.1905,609.488 262.5665,611.28 259.5425,611.28 Z" id="seguidores" fill="#797979" fill-rule="nonzero"></path>
                <path d="M152.9525,642 L152.9525,629.4 L158.1905,629.4 L158.1905,631.2 L154.9325,631.2 L154.9325,634.71 L157.4885,634.71 L157.4885,636.51 L154.9325,636.51 L154.9325,642 L152.9525,642 Z M162.0245,642.18 C160.0805,642.18 159.0725,641.028 159.0725,639.012 L159.0725,629.4 L161.0525,629.4 L161.0525,639.156 C161.0525,640.056 161.4305,640.38 162.0605,640.38 C162.6905,640.38 163.0685,640.056 163.0685,639.156 L163.0685,629.4 L164.9765,629.4 L164.9765,639.012 C164.9765,641.028 163.9685,642.18 162.0245,642.18 Z M166.3805,642 L166.3805,629.4 L171.7805,629.4 L171.7805,631.2 L168.3605,631.2 L168.3605,634.53 L171.0785,634.53 L171.0785,636.33 L168.3605,636.33 L168.3605,640.2 L171.7805,640.2 L171.7805,642 L166.3805,642 Z M172.9145,642 L172.9145,629.4 L175.3985,629.4 L177.3245,636.942 L177.3605,636.942 L177.3605,629.4 L179.1245,629.4 L179.1245,642 L177.0905,642 L174.7145,632.802 L174.6785,632.802 L174.6785,642 L172.9145,642 Z M182.1485,642 L182.1485,631.2 L180.0785,631.2 L180.0785,629.4 L186.1985,629.4 L186.1985,631.2 L184.1285,631.2 L184.1285,642 L182.1485,642 Z M187.1525,642 L187.1525,629.4 L192.5525,629.4 L192.5525,631.2 L189.1325,631.2 L189.1325,634.53 L191.8505,634.53 L191.8505,636.33 L189.1325,636.33 L189.1325,640.2 L192.5525,640.2 L192.5525,642 L187.1525,642 Z M193.6865,635.142 L193.6865,633.234 L195.5945,633.234 L195.5945,635.142 L193.6865,635.142 Z M193.6865,642 L193.6865,640.092 L195.5945,640.092 L195.5945,642 L193.6865,642 Z M199.9505,642 L199.9505,629.4 L201.9305,629.4 L201.9305,642 L199.9505,642 Z M203.4065,642 L203.4065,629.4 L205.8905,629.4 L207.8165,636.942 L207.8525,636.942 L207.8525,629.4 L209.6165,629.4 L209.6165,642 L207.5825,642 L205.2065,632.802 L205.1705,632.802 L205.1705,642 L203.4065,642 Z M213.6665,642.18 C211.7225,642.18 210.7505,641.028 210.7505,639.012 L210.7505,638.292 L212.6225,638.292 L212.6225,639.156 C212.6225,640.056 213.0185,640.38 213.6485,640.38 C214.2785,640.38 214.6745,640.056 214.6745,639.12 C214.6745,638.076 214.2785,637.41 212.9825,636.276 C211.3265,634.818 210.7865,633.792 210.7865,632.352 C210.7865,630.372 211.8125,629.22 213.7385,629.22 C215.6645,629.22 216.6185,630.372 216.6185,632.388 L216.6185,632.91 L214.7465,632.91 L214.7465,632.262 C214.7465,631.362 214.3865,631.02 213.7565,631.02 C213.1265,631.02 212.7665,631.362 212.7665,632.226 C212.7665,633.144 213.1805,633.81 214.4765,634.944 C216.1325,636.402 216.6545,637.41 216.6545,638.976 C216.6545,641.028 215.6105,642.18 213.6665,642.18 Z M219.3365,642 L219.3365,631.2 L217.2665,631.2 L217.2665,629.4 L223.3865,629.4 L223.3865,631.2 L221.3165,631.2 L221.3165,642 L219.3365,642 Z M223.8185,642 L225.8705,629.4 L228.5525,629.4 L230.6045,642 L228.6245,642 L228.2645,639.498 L228.2645,639.534 L226.0145,639.534 L225.6545,642 L223.8185,642 Z M226.2485,637.824 L228.0305,637.824 L227.1485,631.596 L227.1125,631.596 L226.2485,637.824 Z M234.3665,642.18 C232.4225,642.18 231.4145,641.028 231.4145,639.012 L231.4145,632.388 C231.4145,630.372 232.4225,629.22 234.3665,629.22 C236.3105,629.22 237.3185,630.372 237.3185,632.388 L237.3185,633.468 L235.4465,633.468 L235.4465,632.262 C235.4465,631.362 235.0505,631.02 234.4205,631.02 C233.7905,631.02 233.3945,631.362 233.3945,632.262 L233.3945,639.156 C233.3945,640.056 233.7905,640.38 234.4205,640.38 C235.0505,640.38 235.4465,640.056 235.4465,639.156 L235.4465,636.69 L234.4565,636.69 L234.4565,634.89 L237.3185,634.89 L237.3185,639.012 C237.3185,641.028 236.3105,642.18 234.3665,642.18 Z M238.5965,642 L238.5965,629.4 L241.5305,629.4 C243.5825,629.4 244.4645,630.354 244.4645,632.298 L244.4645,633.072 C244.4645,634.368 244.0505,635.196 243.1685,635.556 L243.1685,635.592 C244.1585,635.898 244.4825,636.834 244.4825,638.256 L244.4825,640.47 C244.4825,641.082 244.5005,641.532 244.6985,642 L242.6825,642 C242.5745,641.676 242.5025,641.478 242.5025,640.452 L242.5025,638.148 C242.5025,636.978 242.1605,636.6 241.2605,636.6 L240.5765,636.6 L240.5765,642 L238.5965,642 Z M240.5765,634.8 L241.2965,634.8 C242.0345,634.8 242.4845,634.476 242.4845,633.468 L242.4845,632.496 C242.4845,631.596 242.1785,631.2 241.4765,631.2 L240.5765,631.2 L240.5765,634.8 Z M245.3285,642 L247.3805,629.4 L250.0625,629.4 L252.1145,642 L250.1345,642 L249.7745,639.498 L249.7745,639.534 L247.5245,639.534 L247.1645,642 L245.3285,642 Z M247.7585,637.824 L249.5405,637.824 L248.6585,631.596 L248.6225,631.596 L247.7585,637.824 Z M253.0685,642 L253.0685,629.4 L255.8945,629.4 L257.1545,638.418 L257.1905,638.418 L258.4505,629.4 L261.2765,629.4 L261.2765,642 L259.4045,642 L259.4045,632.46 L259.3685,632.46 L257.9285,642 L256.2725,642 L254.8325,632.46 L254.7965,632.46 L254.7965,642 L253.0685,642 Z" id="fuente:instagram" fill="#BABABA" fill-rule="nonzero"></path>
            </g>
        </g>
    </g>
</svg>