<?xml version="1.0" encoding="UTF-8"?>
<svg width="328px" height="628px" viewBox="0 0 328 628" version="1.1" xmlns="http://www.w3.org/2000/svg" xmlns:xlink="http://www.w3.org/1999/xlink">
    <!-- Generator: Sketch 53.1 (72631) - https://sketchapp.com -->
    <title>Group 7</title>
    <desc>Created with Sketch.</desc>
    <g id="Welcome" stroke="none" stroke-width="1" fill="none" fill-rule="evenodd">
        <g id="iPhone-8-Copy-12" transform="translate(-16.000000, -20234.000000)">
            <g id="Group-7" transform="translate(16.151059, 20234.864000)">
                <g id="Group-3" transform="translate(30.848941, 127.136000)" stroke-dasharray="1,5" stroke-linecap="square">
                    <path d="M142.5,97.3879781 L142.5,381.387978" id="Line-Copy-3" stroke="#979797" stroke-width="0.5" transform="translate(142.500000, 239.387978) rotate(-270.000000) translate(-142.500000, -239.387978) "></path>
                    <path d="M142.5,233.256831 L142.5,517.256831" id="Line-Copy-7" stroke="#979797" stroke-width="0.5" transform="translate(142.500000, 375.256831) rotate(-270.000000) translate(-142.500000, -375.256831) "></path>
                    <path d="M142.5,-38.4808743 L142.5,245.519126" id="Line-Copy-12" stroke="#979797" stroke-width="0.5" transform="translate(142.500000, 103.519126) rotate(-270.000000) translate(-142.500000, -103.519126) "></path>
                    <path d="M142.5,165.322404 L142.5,449.322404" id="Line-Copy-5" stroke="#979797" stroke-width="0.5" transform="translate(142.500000, 307.322404) rotate(-270.000000) translate(-142.500000, -307.322404) "></path>
                    <path d="M142.5,-107.224044 L142.5,176.775956" id="Line-Copy-13" stroke="#979797" stroke-width="0.5" transform="translate(142.500000, 34.775956) rotate(-270.000000) translate(-142.500000, -34.775956) "></path>
                    <path d="M142.5,301.191257 L142.5,585.191257" id="Line-Copy-8" stroke="#000000" opacity="0.7" transform="translate(142.500000, 443.191257) rotate(-270.000000) translate(-142.500000, -443.191257) "></path>
                    <path d="M142.5,28.6448087 L142.5,312.644809" id="Line-Copy-14" stroke="#979797" stroke-width="0.5" transform="translate(142.500000, 170.644809) rotate(-270.000000) translate(-142.500000, -170.644809) "></path>
                    <path d="M142.5,131.355191 L142.5,415.355191" id="Line-Copy-4" stroke="#979797" stroke-width="0.5" transform="translate(142.500000, 273.355191) rotate(-270.000000) translate(-142.500000, -273.355191) "></path>
                    <path d="M142.5,-141.191257 L142.5,142.808743" id="Line-Copy-15" stroke="#979797" stroke-width="0.5" transform="translate(142.500000, 0.808743) rotate(-270.000000) translate(-142.500000, -0.808743) "></path>
                    <path d="M142.5,267.224044 L142.5,551.224044" id="Line-Copy-9" stroke="#979797" stroke-width="0.5" transform="translate(142.500000, 409.224044) rotate(-270.000000) translate(-142.500000, -409.224044) "></path>
                    <path d="M142.5,-4.5136612 L142.5,279.486339" id="Line-Copy-16" stroke="#979797" stroke-width="0.5" transform="translate(142.500000, 137.486339) rotate(-270.000000) translate(-142.500000, -137.486339) "></path>
                    <path d="M142.5,199.289617 L142.5,483.289617" id="Line-Copy-6" stroke="#979797" stroke-width="0.5" transform="translate(142.500000, 341.289617) rotate(-270.000000) translate(-142.500000, -341.289617) "></path>
                    <path d="M142.5,-73.2568306 L142.5,210.743169" id="Line-Copy-17" stroke="#979797" stroke-width="0.5" transform="translate(142.500000, 68.743169) rotate(-270.000000) translate(-142.500000, -68.743169) "></path>
                    <path d="M142.5,63.420765 L142.5,347.420765" id="Line-Copy-18" stroke="#979797" stroke-width="0.5" transform="translate(142.500000, 205.420765) rotate(-270.000000) translate(-142.500000, -205.420765) "></path>
                </g>
                <path d="" id="Path" stroke="#979797"></path>
                <polyline id="Path-2" stroke="#CECDCD" stroke-width="4" stroke-linecap="round" stroke-linejoin="round" points="31.848941 235.399302 63.960895 163.267477 94.7377492 166.530815 126.899295 221.083207 158.809761 232.030849 189.964486 239.136 221.623038 122.136 254.539491 166.530815 284.687395 163.267477 316.848941 190.583346"></polyline>
                <polyline id="Path-3" stroke="#F34949" stroke-width="4" stroke-linecap="round" stroke-linejoin="round" points="31.848941 531.136 63.9306166 524.801134 95.4470278 419.274012 126.963439 388.330319 158.549049 286.128495 190.06546 323.276174 221.50767 207.04387 253.212503 153.011312 285.357542 139.136 316.848941 177.121581"></polyline>
                <polyline id="Path-4" stroke="#3B3B3B" stroke-width="4" stroke-linecap="round" stroke-linejoin="round" points="31.848941 548.136 63.8614176 517.51983 95.6287795 507.331763 126.4532 476.558335 159.479485 425.72329 190.429798 442.537143 222.260522 367.136 253.7761 404.483246 285.040727 421.506328 316.848941 476.558335"></polyline>
                <path d="M2.592,573.136 L2.592,564.592 L0.752,564.592 L0.752,563.344 C2.24,563.344 2.768,563.024 3.168,561.936 L4.352,561.936 L4.352,573.136 L2.592,573.136 Z M6.869647,573.136 L9.685647,563.536 L6.133647,563.536 L6.133647,561.936 L11.413647,561.936 L11.413647,563.472 L8.661647,573.136 L6.869647,573.136 Z M13.963294,568.16 C12.859294,568.16 12.267294,567.52 12.267294,566.368 L12.267294,563.568 C12.267294,562.416 12.859294,561.776 13.963294,561.776 C15.067294,561.776 15.659294,562.416 15.659294,563.568 L15.659294,566.368 C15.659294,567.52 15.067294,568.16 13.963294,568.16 Z M13.691294,573.136 L18.027294,561.936 L19.147294,561.936 L14.811294,573.136 L13.691294,573.136 Z M13.963294,567.152 C14.315294,567.152 14.539294,566.944 14.539294,566.448 L14.539294,563.488 C14.539294,562.992 14.315294,562.784 13.963294,562.784 C13.595294,562.784 13.387294,562.992 13.387294,563.488 L13.387294,566.448 C13.387294,566.944 13.595294,567.152 13.963294,567.152 Z M18.875294,573.296 C17.771294,573.296 17.179294,572.656 17.179294,571.504 L17.179294,568.704 C17.179294,567.552 17.771294,566.912 18.875294,566.912 C19.979294,566.912 20.571294,567.552 20.571294,568.704 L20.571294,571.504 C20.571294,572.656 19.979294,573.296 18.875294,573.296 Z M18.875294,572.288 C19.227294,572.288 19.451294,572.08 19.451294,571.584 L19.451294,568.624 C19.451294,568.128 19.227294,567.92 18.875294,567.92 C18.507294,567.92 18.299294,568.128 18.299294,568.624 L18.299294,571.584 C18.299294,572.08 18.507294,572.288 18.875294,572.288 Z" id="17%" fill="#9C9C9C" fill-rule="nonzero"></path>
                <path d="M20.3429414,598.136 L20.3429414,596.768 C20.3429414,594.968 20.8469414,593.87 22.3229414,592.322 C23.8349414,590.72 24.2669414,589.766 24.2669414,588.596 C24.2669414,587.462 23.8709414,587.156 23.2409414,587.156 C22.6109414,587.156 22.2149414,587.498 22.2149414,588.398 L22.2149414,589.748 L20.3429414,589.748 L20.3429414,588.524 C20.3429414,586.508 21.3509414,585.356 23.2949414,585.356 C25.2389414,585.356 26.2469414,586.508 26.2469414,588.524 C26.2469414,590.018 25.6349414,591.35 23.7989414,593.294 C22.6109414,594.554 22.3049414,595.184 22.3049414,596.066 L22.3049414,596.336 L26.0669414,596.336 L26.0669414,598.136 L20.3429414,598.136 Z M29.7929413,598.316 C27.8489413,598.316 26.7869413,597.164 26.7869413,595.148 L26.7869413,588.524 C26.7869413,586.508 27.8489413,585.356 29.7929413,585.356 C31.7369413,585.356 32.7989413,586.508 32.7989413,588.524 L32.7989413,595.148 C32.7989413,597.164 31.7369413,598.316 29.7929413,598.316 Z M29.7929413,596.516 C30.4229413,596.516 30.8189413,596.174 30.8189413,595.274 L30.8189413,588.398 C30.8189413,587.498 30.4229413,587.156 29.7929413,587.156 C29.1629413,587.156 28.7669413,587.498 28.7669413,588.398 L28.7669413,595.274 C28.7669413,596.174 29.1629413,596.516 29.7929413,596.516 Z M36.3449412,598.316 C34.4009412,598.316 33.3389412,597.164 33.3389412,595.148 L33.3389412,588.524 C33.3389412,586.508 34.4009412,585.356 36.3449412,585.356 C38.2889412,585.356 39.3509412,586.508 39.3509412,588.524 L39.3509412,595.148 C39.3509412,597.164 38.2889412,598.316 36.3449412,598.316 Z M36.3449412,596.516 C36.9749412,596.516 37.3709412,596.174 37.3709412,595.274 L37.3709412,588.398 C37.3709412,587.498 36.9749412,587.156 36.3449412,587.156 C35.7149412,587.156 35.3189412,587.498 35.3189412,588.398 L35.3189412,595.274 C35.3189412,596.174 35.7149412,596.516 36.3449412,596.516 Z M42.8969411,598.316 C40.8989411,598.316 39.8009411,597.218 39.8009411,595.202 L39.8009411,594.086 C39.8009411,592.88 40.1609411,591.998 41.0969411,591.512 L41.0969411,591.476 C40.2689411,591.026 39.8729411,590.234 39.8729411,588.992 L39.8729411,588.47 C39.8729411,586.454 40.9709411,585.356 42.8969411,585.356 C44.8229411,585.356 45.9209411,586.454 45.9209411,588.47 L45.9209411,588.992 C45.9209411,590.234 45.5069411,591.026 44.6969411,591.476 L44.6969411,591.512 C45.6329411,591.998 45.9929411,592.88 45.9929411,594.086 L45.9929411,595.202 C45.9929411,597.218 44.8949411,598.316 42.8969411,598.316 Z M42.8969411,590.666 C43.5809411,590.666 43.9409411,590.234 43.9409411,589.406 L43.9409411,588.416 C43.9409411,587.588 43.5809411,587.156 42.8969411,587.156 C42.2129411,587.156 41.8529411,587.588 41.8529411,588.416 L41.8529411,589.406 C41.8529411,590.234 42.2129411,590.666 42.8969411,590.666 Z M42.8969411,596.516 C43.6349411,596.516 44.0129411,596.048 44.0129411,595.094 L44.0129411,593.888 C44.0129411,592.934 43.6349411,592.466 42.8969411,592.466 C42.1589411,592.466 41.7809411,592.934 41.7809411,593.888 L41.7809411,595.094 C41.7809411,596.048 42.1589411,596.516 42.8969411,596.516 Z" id="2008" fill="#666666" fill-rule="nonzero" transform="translate(33.167941, 591.836000) rotate(90.000000) translate(-33.167941, -591.836000) "></path>
                <path d="M51.3429414,598.136 L51.3429414,596.768 C51.3429414,594.968 51.8469414,593.87 53.3229414,592.322 C54.8349414,590.72 55.2669414,589.766 55.2669414,588.596 C55.2669414,587.462 54.8709414,587.156 54.2409414,587.156 C53.6109414,587.156 53.2149414,587.498 53.2149414,588.398 L53.2149414,589.748 L51.3429414,589.748 L51.3429414,588.524 C51.3429414,586.508 52.3509414,585.356 54.2949414,585.356 C56.2389414,585.356 57.2469414,586.508 57.2469414,588.524 C57.2469414,590.018 56.6349414,591.35 54.7989414,593.294 C53.6109414,594.554 53.3049414,595.184 53.3049414,596.066 L53.3049414,596.336 L57.0669414,596.336 L57.0669414,598.136 L51.3429414,598.136 Z M60.7929413,598.316 C58.8489413,598.316 57.7869413,597.164 57.7869413,595.148 L57.7869413,588.524 C57.7869413,586.508 58.8489413,585.356 60.7929413,585.356 C62.7369413,585.356 63.7989413,586.508 63.7989413,588.524 L63.7989413,595.148 C63.7989413,597.164 62.7369413,598.316 60.7929413,598.316 Z M60.7929413,596.516 C61.4229413,596.516 61.8189413,596.174 61.8189413,595.274 L61.8189413,588.398 C61.8189413,587.498 61.4229413,587.156 60.7929413,587.156 C60.1629413,587.156 59.7669413,587.498 59.7669413,588.398 L59.7669413,595.274 C59.7669413,596.174 60.1629413,596.516 60.7929413,596.516 Z M67.3449412,598.316 C65.4009412,598.316 64.3389412,597.164 64.3389412,595.148 L64.3389412,588.524 C64.3389412,586.508 65.4009412,585.356 67.3449412,585.356 C69.2889412,585.356 70.3509412,586.508 70.3509412,588.524 L70.3509412,595.148 C70.3509412,597.164 69.2889412,598.316 67.3449412,598.316 Z M67.3449412,596.516 C67.9749412,596.516 68.3709412,596.174 68.3709412,595.274 L68.3709412,588.398 C68.3709412,587.498 67.9749412,587.156 67.3449412,587.156 C66.7149412,587.156 66.3189412,587.498 66.3189412,588.398 L66.3189412,595.274 C66.3189412,596.174 66.7149412,596.516 67.3449412,596.516 Z M73.8249411,598.316 C71.8809411,598.316 70.8729411,597.164 70.8729411,595.148 L70.8729411,594.914 L72.7449411,594.914 L72.7449411,595.274 C72.7449411,596.174 73.1409411,596.516 73.7709411,596.516 C74.4729411,596.516 74.8689411,596.174 74.8689411,594.968 L74.8689411,592.556 L74.8329411,592.556 C74.4909411,593.276 73.9149411,593.654 73.0329411,593.654 C71.5749411,593.654 70.8369411,592.628 70.8369411,590.774 L70.8369411,588.524 C70.8369411,586.508 71.8989411,585.356 73.8429411,585.356 C75.7869411,585.356 76.8489411,586.508 76.8489411,588.524 L76.8489411,595.04 C76.8489411,597.164 75.8769411,598.316 73.8249411,598.316 Z M73.8429411,591.854 C74.5269411,591.854 74.8689411,591.458 74.8689411,590.612 L74.8689411,588.38 C74.8689411,587.552 74.5269411,587.156 73.8429411,587.156 C73.1589411,587.156 72.8169411,587.552 72.8169411,588.38 L72.8169411,590.612 C72.8169411,591.458 73.1589411,591.854 73.8429411,591.854 Z" id="2009" fill="#666666" fill-rule="nonzero" transform="translate(64.095941, 591.836000) rotate(90.000000) translate(-64.095941, -591.836000) "></path>
                <path d="M114.342941,598.136 L114.342941,596.768 C114.342941,594.968 114.846941,593.87 116.322941,592.322 C117.834941,590.72 118.266941,589.766 118.266941,588.596 C118.266941,587.462 117.870941,587.156 117.240941,587.156 C116.610941,587.156 116.214941,587.498 116.214941,588.398 L116.214941,589.748 L114.342941,589.748 L114.342941,588.524 C114.342941,586.508 115.350941,585.356 117.294941,585.356 C119.238941,585.356 120.246941,586.508 120.246941,588.524 C120.246941,590.018 119.634941,591.35 117.798941,593.294 C116.610941,594.554 116.304941,595.184 116.304941,596.066 L116.304941,596.336 L120.066941,596.336 L120.066941,598.136 L114.342941,598.136 Z M123.792941,598.316 C121.848941,598.316 120.786941,597.164 120.786941,595.148 L120.786941,588.524 C120.786941,586.508 121.848941,585.356 123.792941,585.356 C125.736941,585.356 126.798941,586.508 126.798941,588.524 L126.798941,595.148 C126.798941,597.164 125.736941,598.316 123.792941,598.316 Z M123.792941,596.516 C124.422941,596.516 124.818941,596.174 124.818941,595.274 L124.818941,588.398 C124.818941,587.498 124.422941,587.156 123.792941,587.156 C123.162941,587.156 122.766941,587.498 122.766941,588.398 L122.766941,595.274 C122.766941,596.174 123.162941,596.516 123.792941,596.516 Z M130.254941,598.136 L130.254941,588.524 L128.184941,588.524 L128.184941,587.12 C129.858941,587.12 130.452941,586.76 130.902941,585.536 L132.234941,585.536 L132.234941,598.136 L130.254941,598.136 Z M136.806941,598.136 L136.806941,588.524 L134.736941,588.524 L134.736941,587.12 C136.410941,587.12 137.004941,586.76 137.454941,585.536 L138.786941,585.536 L138.786941,598.136 L136.806941,598.136 Z" id="2011" fill="#666666" fill-rule="nonzero" transform="translate(126.564941, 591.836000) rotate(90.000000) translate(-126.564941, -591.836000) "></path>
                <path d="M83.3429414,598.136 L83.3429414,596.768 C83.3429414,594.968 83.8469414,593.87 85.3229414,592.322 C86.8349414,590.72 87.2669414,589.766 87.2669414,588.596 C87.2669414,587.462 86.8709414,587.156 86.2409414,587.156 C85.6109414,587.156 85.2149414,587.498 85.2149414,588.398 L85.2149414,589.748 L83.3429414,589.748 L83.3429414,588.524 C83.3429414,586.508 84.3509414,585.356 86.2949414,585.356 C88.2389414,585.356 89.2469414,586.508 89.2469414,588.524 C89.2469414,590.018 88.6349414,591.35 86.7989414,593.294 C85.6109414,594.554 85.3049414,595.184 85.3049414,596.066 L85.3049414,596.336 L89.0669414,596.336 L89.0669414,598.136 L83.3429414,598.136 Z M92.7929413,598.316 C90.8489413,598.316 89.7869413,597.164 89.7869413,595.148 L89.7869413,588.524 C89.7869413,586.508 90.8489413,585.356 92.7929413,585.356 C94.7369413,585.356 95.7989413,586.508 95.7989413,588.524 L95.7989413,595.148 C95.7989413,597.164 94.7369413,598.316 92.7929413,598.316 Z M92.7929413,596.516 C93.4229413,596.516 93.8189413,596.174 93.8189413,595.274 L93.8189413,588.398 C93.8189413,587.498 93.4229413,587.156 92.7929413,587.156 C92.1629413,587.156 91.7669413,587.498 91.7669413,588.398 L91.7669413,595.274 C91.7669413,596.174 92.1629413,596.516 92.7929413,596.516 Z M99.2549412,598.136 L99.2549412,588.524 L97.1849412,588.524 L97.1849412,587.12 C98.8589412,587.12 99.4529412,586.76 99.9029412,585.536 L101.234941,585.536 L101.234941,598.136 L99.2549412,598.136 Z M105.896941,598.316 C103.952941,598.316 102.890941,597.164 102.890941,595.148 L102.890941,588.524 C102.890941,586.508 103.952941,585.356 105.896941,585.356 C107.840941,585.356 108.902941,586.508 108.902941,588.524 L108.902941,595.148 C108.902941,597.164 107.840941,598.316 105.896941,598.316 Z M105.896941,596.516 C106.526941,596.516 106.922941,596.174 106.922941,595.274 L106.922941,588.398 C106.922941,587.498 106.526941,587.156 105.896941,587.156 C105.266941,587.156 104.870941,587.498 104.870941,588.398 L104.870941,595.274 C104.870941,596.174 105.266941,596.516 105.896941,596.516 Z" id="2010" fill="#666666" fill-rule="nonzero" transform="translate(96.122941, 591.836000) rotate(90.000000) translate(-96.122941, -591.836000) "></path>
                <path d="M146.342941,598.136 L146.342941,596.768 C146.342941,594.968 146.846941,593.87 148.322941,592.322 C149.834941,590.72 150.266941,589.766 150.266941,588.596 C150.266941,587.462 149.870941,587.156 149.240941,587.156 C148.610941,587.156 148.214941,587.498 148.214941,588.398 L148.214941,589.748 L146.342941,589.748 L146.342941,588.524 C146.342941,586.508 147.350941,585.356 149.294941,585.356 C151.238941,585.356 152.246941,586.508 152.246941,588.524 C152.246941,590.018 151.634941,591.35 149.798941,593.294 C148.610941,594.554 148.304941,595.184 148.304941,596.066 L148.304941,596.336 L152.066941,596.336 L152.066941,598.136 L146.342941,598.136 Z M155.792941,598.316 C153.848941,598.316 152.786941,597.164 152.786941,595.148 L152.786941,588.524 C152.786941,586.508 153.848941,585.356 155.792941,585.356 C157.736941,585.356 158.798941,586.508 158.798941,588.524 L158.798941,595.148 C158.798941,597.164 157.736941,598.316 155.792941,598.316 Z M155.792941,596.516 C156.422941,596.516 156.818941,596.174 156.818941,595.274 L156.818941,588.398 C156.818941,587.498 156.422941,587.156 155.792941,587.156 C155.162941,587.156 154.766941,587.498 154.766941,588.398 L154.766941,595.274 C154.766941,596.174 155.162941,596.516 155.792941,596.516 Z M162.254941,598.136 L162.254941,588.524 L160.184941,588.524 L160.184941,587.12 C161.858941,587.12 162.452941,586.76 162.902941,585.536 L164.234941,585.536 L164.234941,598.136 L162.254941,598.136 Z M165.998941,598.136 L165.998941,596.768 C165.998941,594.968 166.502941,593.87 167.978941,592.322 C169.490941,590.72 169.922941,589.766 169.922941,588.596 C169.922941,587.462 169.526941,587.156 168.896941,587.156 C168.266941,587.156 167.870941,587.498 167.870941,588.398 L167.870941,589.748 L165.998941,589.748 L165.998941,588.524 C165.998941,586.508 167.006941,585.356 168.950941,585.356 C170.894941,585.356 171.902941,586.508 171.902941,588.524 C171.902941,590.018 171.290941,591.35 169.454941,593.294 C168.266941,594.554 167.960941,595.184 167.960941,596.066 L167.960941,596.336 L171.722941,596.336 L171.722941,598.136 L165.998941,598.136 Z" id="2012" fill="#666666" fill-rule="nonzero" transform="translate(159.122941, 591.836000) rotate(90.000000) translate(-159.122941, -591.836000) "></path>
                <path d="M2.592,542.136 L2.592,533.592 L0.752,533.592 L0.752,532.344 C2.24,532.344 2.768,532.024 3.168,530.936 L4.352,530.936 L4.352,542.136 L2.592,542.136 Z M8.789647,542.296 C7.013647,542.296 6.037647,541.32 6.037647,539.528 L6.037647,538.536 C6.037647,537.464 6.357647,536.68 7.189647,536.248 L7.189647,536.216 C6.453647,535.816 6.101647,535.112 6.101647,534.008 L6.101647,533.544 C6.101647,531.752 7.077647,530.776 8.789647,530.776 C10.501647,530.776 11.477647,531.752 11.477647,533.544 L11.477647,534.008 C11.477647,535.112 11.109647,535.816 10.389647,536.216 L10.389647,536.248 C11.221647,536.68 11.541647,537.464 11.541647,538.536 L11.541647,539.528 C11.541647,541.32 10.565647,542.296 8.789647,542.296 Z M8.789647,535.496 C9.397647,535.496 9.717647,535.112 9.717647,534.376 L9.717647,533.496 C9.717647,532.76 9.397647,532.376 8.789647,532.376 C8.181647,532.376 7.861647,532.76 7.861647,533.496 L7.861647,534.376 C7.861647,535.112 8.181647,535.496 8.789647,535.496 Z M8.789647,540.696 C9.445647,540.696 9.781647,540.28 9.781647,539.432 L9.781647,538.36 C9.781647,537.512 9.445647,537.096 8.789647,537.096 C8.133647,537.096 7.797647,537.512 7.797647,538.36 L7.797647,539.432 C7.797647,540.28 8.133647,540.696 8.789647,540.696 Z M13.963294,537.16 C12.859294,537.16 12.267294,536.52 12.267294,535.368 L12.267294,532.568 C12.267294,531.416 12.859294,530.776 13.963294,530.776 C15.067294,530.776 15.659294,531.416 15.659294,532.568 L15.659294,535.368 C15.659294,536.52 15.067294,537.16 13.963294,537.16 Z M13.691294,542.136 L18.027294,530.936 L19.147294,530.936 L14.811294,542.136 L13.691294,542.136 Z M13.963294,536.152 C14.315294,536.152 14.539294,535.944 14.539294,535.448 L14.539294,532.488 C14.539294,531.992 14.315294,531.784 13.963294,531.784 C13.595294,531.784 13.387294,531.992 13.387294,532.488 L13.387294,535.448 C13.387294,535.944 13.595294,536.152 13.963294,536.152 Z M18.875294,542.296 C17.771294,542.296 17.179294,541.656 17.179294,540.504 L17.179294,537.704 C17.179294,536.552 17.771294,535.912 18.875294,535.912 C19.979294,535.912 20.571294,536.552 20.571294,537.704 L20.571294,540.504 C20.571294,541.656 19.979294,542.296 18.875294,542.296 Z M18.875294,541.288 C19.227294,541.288 19.451294,541.08 19.451294,540.584 L19.451294,537.624 C19.451294,537.128 19.227294,536.92 18.875294,536.92 C18.507294,536.92 18.299294,537.128 18.299294,537.624 L18.299294,540.584 C18.299294,541.08 18.507294,541.288 18.875294,541.288 Z" id="18%" fill="#9C9C9C" fill-rule="nonzero"></path>
                <path d="M2.592,507.136 L2.592,498.592 L0.752,498.592 L0.752,497.344 C2.24,497.344 2.768,497.024 3.168,495.936 L4.352,495.936 L4.352,507.136 L2.592,507.136 Z M8.725647,507.296 C6.997647,507.296 6.101647,506.272 6.101647,504.48 L6.101647,504.272 L7.765647,504.272 L7.765647,504.592 C7.765647,505.392 8.117647,505.696 8.677647,505.696 C9.301647,505.696 9.653647,505.392 9.653647,504.32 L9.653647,502.176 L9.621647,502.176 C9.317647,502.816 8.805647,503.152 8.021647,503.152 C6.725647,503.152 6.069647,502.24 6.069647,500.592 L6.069647,498.592 C6.069647,496.8 7.013647,495.776 8.741647,495.776 C10.469647,495.776 11.413647,496.8 11.413647,498.592 L11.413647,504.384 C11.413647,506.272 10.549647,507.296 8.725647,507.296 Z M8.741647,501.552 C9.349647,501.552 9.653647,501.2 9.653647,500.448 L9.653647,498.464 C9.653647,497.728 9.349647,497.376 8.741647,497.376 C8.133647,497.376 7.829647,497.728 7.829647,498.464 L7.829647,500.448 C7.829647,501.2 8.133647,501.552 8.741647,501.552 Z M13.963294,502.16 C12.859294,502.16 12.267294,501.52 12.267294,500.368 L12.267294,497.568 C12.267294,496.416 12.859294,495.776 13.963294,495.776 C15.067294,495.776 15.659294,496.416 15.659294,497.568 L15.659294,500.368 C15.659294,501.52 15.067294,502.16 13.963294,502.16 Z M13.691294,507.136 L18.027294,495.936 L19.147294,495.936 L14.811294,507.136 L13.691294,507.136 Z M13.963294,501.152 C14.315294,501.152 14.539294,500.944 14.539294,500.448 L14.539294,497.488 C14.539294,496.992 14.315294,496.784 13.963294,496.784 C13.595294,496.784 13.387294,496.992 13.387294,497.488 L13.387294,500.448 C13.387294,500.944 13.595294,501.152 13.963294,501.152 Z M18.875294,507.296 C17.771294,507.296 17.179294,506.656 17.179294,505.504 L17.179294,502.704 C17.179294,501.552 17.771294,500.912 18.875294,500.912 C19.979294,500.912 20.571294,501.552 20.571294,502.704 L20.571294,505.504 C20.571294,506.656 19.979294,507.296 18.875294,507.296 Z M18.875294,506.288 C19.227294,506.288 19.451294,506.08 19.451294,505.584 L19.451294,502.624 C19.451294,502.128 19.227294,501.92 18.875294,501.92 C18.507294,501.92 18.299294,502.128 18.299294,502.624 L18.299294,505.584 C18.299294,506.08 18.507294,506.288 18.875294,506.288 Z" id="19%" fill="#9C9C9C" fill-rule="nonzero"></path>
                <path d="M0.096,473.136 L0.096,471.92 C0.096,470.32 0.544,469.344 1.856,467.968 C3.2,466.544 3.584,465.696 3.584,464.656 C3.584,463.648 3.232,463.376 2.672,463.376 C2.112,463.376 1.76,463.68 1.76,464.48 L1.76,465.68 L0.096,465.68 L0.096,464.592 C0.096,462.8 0.992,461.776 2.72,461.776 C4.448,461.776 5.344,462.8 5.344,464.592 C5.344,465.92 4.8,467.104 3.168,468.832 C2.112,469.952 1.84,470.512 1.84,471.296 L1.84,471.536 L5.184,471.536 L5.184,473.136 L0.096,473.136 Z M8.789647,473.296 C7.061647,473.296 6.117647,472.272 6.117647,470.48 L6.117647,464.592 C6.117647,462.8 7.061647,461.776 8.789647,461.776 C10.517647,461.776 11.461647,462.8 11.461647,464.592 L11.461647,470.48 C11.461647,472.272 10.517647,473.296 8.789647,473.296 Z M8.789647,471.696 C9.349647,471.696 9.701647,471.392 9.701647,470.592 L9.701647,464.48 C9.701647,463.68 9.349647,463.376 8.789647,463.376 C8.229647,463.376 7.877647,463.68 7.877647,464.48 L7.877647,470.592 C7.877647,471.392 8.229647,471.696 8.789647,471.696 Z M13.963294,468.16 C12.859294,468.16 12.267294,467.52 12.267294,466.368 L12.267294,463.568 C12.267294,462.416 12.859294,461.776 13.963294,461.776 C15.067294,461.776 15.659294,462.416 15.659294,463.568 L15.659294,466.368 C15.659294,467.52 15.067294,468.16 13.963294,468.16 Z M13.691294,473.136 L18.027294,461.936 L19.147294,461.936 L14.811294,473.136 L13.691294,473.136 Z M13.963294,467.152 C14.315294,467.152 14.539294,466.944 14.539294,466.448 L14.539294,463.488 C14.539294,462.992 14.315294,462.784 13.963294,462.784 C13.595294,462.784 13.387294,462.992 13.387294,463.488 L13.387294,466.448 C13.387294,466.944 13.595294,467.152 13.963294,467.152 Z M18.875294,473.296 C17.771294,473.296 17.179294,472.656 17.179294,471.504 L17.179294,468.704 C17.179294,467.552 17.771294,466.912 18.875294,466.912 C19.979294,466.912 20.571294,467.552 20.571294,468.704 L20.571294,471.504 C20.571294,472.656 19.979294,473.296 18.875294,473.296 Z M18.875294,472.288 C19.227294,472.288 19.451294,472.08 19.451294,471.584 L19.451294,468.624 C19.451294,468.128 19.227294,467.92 18.875294,467.92 C18.507294,467.92 18.299294,468.128 18.299294,468.624 L18.299294,471.584 C18.299294,472.08 18.507294,472.288 18.875294,472.288 Z" id="20%" fill="#9C9C9C" fill-rule="nonzero"></path>
                <path d="M0.096,440.136 L0.096,438.92 C0.096,437.32 0.544,436.344 1.856,434.968 C3.2,433.544 3.584,432.696 3.584,431.656 C3.584,430.648 3.232,430.376 2.672,430.376 C2.112,430.376 1.76,430.68 1.76,431.48 L1.76,432.68 L0.096,432.68 L0.096,431.592 C0.096,429.8 0.992,428.776 2.72,428.776 C4.448,428.776 5.344,429.8 5.344,431.592 C5.344,432.92 4.8,434.104 3.168,435.832 C2.112,436.952 1.84,437.512 1.84,438.296 L1.84,438.536 L5.184,438.536 L5.184,440.136 L0.096,440.136 Z M8.709647,440.136 L8.709647,431.592 L6.869647,431.592 L6.869647,430.344 C8.357647,430.344 8.885647,430.024 9.285647,428.936 L10.469647,428.936 L10.469647,440.136 L8.709647,440.136 Z M13.963294,435.16 C12.859294,435.16 12.267294,434.52 12.267294,433.368 L12.267294,430.568 C12.267294,429.416 12.859294,428.776 13.963294,428.776 C15.067294,428.776 15.659294,429.416 15.659294,430.568 L15.659294,433.368 C15.659294,434.52 15.067294,435.16 13.963294,435.16 Z M13.691294,440.136 L18.027294,428.936 L19.147294,428.936 L14.811294,440.136 L13.691294,440.136 Z M13.963294,434.152 C14.315294,434.152 14.539294,433.944 14.539294,433.448 L14.539294,430.488 C14.539294,429.992 14.315294,429.784 13.963294,429.784 C13.595294,429.784 13.387294,429.992 13.387294,430.488 L13.387294,433.448 C13.387294,433.944 13.595294,434.152 13.963294,434.152 Z M18.875294,440.296 C17.771294,440.296 17.179294,439.656 17.179294,438.504 L17.179294,435.704 C17.179294,434.552 17.771294,433.912 18.875294,433.912 C19.979294,433.912 20.571294,434.552 20.571294,435.704 L20.571294,438.504 C20.571294,439.656 19.979294,440.296 18.875294,440.296 Z M18.875294,439.288 C19.227294,439.288 19.451294,439.08 19.451294,438.584 L19.451294,435.624 C19.451294,435.128 19.227294,434.92 18.875294,434.92 C18.507294,434.92 18.299294,435.128 18.299294,435.624 L18.299294,438.584 C18.299294,439.08 18.507294,439.288 18.875294,439.288 Z" id="21%" fill="#9C9C9C" fill-rule="nonzero"></path>
                <path d="M0.096,405.136 L0.096,403.92 C0.096,402.32 0.544,401.344 1.856,399.968 C3.2,398.544 3.584,397.696 3.584,396.656 C3.584,395.648 3.232,395.376 2.672,395.376 C2.112,395.376 1.76,395.68 1.76,396.48 L1.76,397.68 L0.096,397.68 L0.096,396.592 C0.096,394.8 0.992,393.776 2.72,393.776 C4.448,393.776 5.344,394.8 5.344,396.592 C5.344,397.92 4.8,399.104 3.168,400.832 C2.112,401.952 1.84,402.512 1.84,403.296 L1.84,403.536 L5.184,403.536 L5.184,405.136 L0.096,405.136 Z M6.213647,405.136 L6.213647,403.92 C6.213647,402.32 6.661647,401.344 7.973647,399.968 C9.317647,398.544 9.701647,397.696 9.701647,396.656 C9.701647,395.648 9.349647,395.376 8.789647,395.376 C8.229647,395.376 7.877647,395.68 7.877647,396.48 L7.877647,397.68 L6.213647,397.68 L6.213647,396.592 C6.213647,394.8 7.109647,393.776 8.837647,393.776 C10.565647,393.776 11.461647,394.8 11.461647,396.592 C11.461647,397.92 10.917647,399.104 9.285647,400.832 C8.229647,401.952 7.957647,402.512 7.957647,403.296 L7.957647,403.536 L11.301647,403.536 L11.301647,405.136 L6.213647,405.136 Z M13.963294,400.16 C12.859294,400.16 12.267294,399.52 12.267294,398.368 L12.267294,395.568 C12.267294,394.416 12.859294,393.776 13.963294,393.776 C15.067294,393.776 15.659294,394.416 15.659294,395.568 L15.659294,398.368 C15.659294,399.52 15.067294,400.16 13.963294,400.16 Z M13.691294,405.136 L18.027294,393.936 L19.147294,393.936 L14.811294,405.136 L13.691294,405.136 Z M13.963294,399.152 C14.315294,399.152 14.539294,398.944 14.539294,398.448 L14.539294,395.488 C14.539294,394.992 14.315294,394.784 13.963294,394.784 C13.595294,394.784 13.387294,394.992 13.387294,395.488 L13.387294,398.448 C13.387294,398.944 13.595294,399.152 13.963294,399.152 Z M18.875294,405.296 C17.771294,405.296 17.179294,404.656 17.179294,403.504 L17.179294,400.704 C17.179294,399.552 17.771294,398.912 18.875294,398.912 C19.979294,398.912 20.571294,399.552 20.571294,400.704 L20.571294,403.504 C20.571294,404.656 19.979294,405.296 18.875294,405.296 Z M18.875294,404.288 C19.227294,404.288 19.451294,404.08 19.451294,403.584 L19.451294,400.624 C19.451294,400.128 19.227294,399.92 18.875294,399.92 C18.507294,399.92 18.299294,400.128 18.299294,400.624 L18.299294,403.584 C18.299294,404.08 18.507294,404.288 18.875294,404.288 Z" id="22%" fill="#9C9C9C" fill-rule="nonzero"></path>
                <path d="M0.096,371.136 L0.096,369.92 C0.096,368.32 0.544,367.344 1.856,365.968 C3.2,364.544 3.584,363.696 3.584,362.656 C3.584,361.648 3.232,361.376 2.672,361.376 C2.112,361.376 1.76,361.68 1.76,362.48 L1.76,363.68 L0.096,363.68 L0.096,362.592 C0.096,360.8 0.992,359.776 2.72,359.776 C4.448,359.776 5.344,360.8 5.344,362.592 C5.344,363.92 4.8,365.104 3.168,366.832 C2.112,367.952 1.84,368.512 1.84,369.296 L1.84,369.536 L5.184,369.536 L5.184,371.136 L0.096,371.136 Z M8.741647,371.296 C7.013647,371.296 6.117647,370.304 6.117647,368.512 L6.117647,367.6 L7.781647,367.6 L7.781647,368.592 C7.781647,369.392 8.133647,369.696 8.693647,369.696 C9.253647,369.696 9.605647,369.424 9.605647,368.432 L9.605647,367.52 C9.605647,366.48 9.253647,366.096 8.453647,366.096 L7.861647,366.096 L7.861647,364.496 L8.501647,364.496 C9.157647,364.496 9.557647,364.208 9.557647,363.312 L9.557647,362.496 C9.557647,361.696 9.189647,361.376 8.677647,361.376 C8.165647,361.376 7.829647,361.68 7.829647,362.416 L7.829647,363.152 L6.165647,363.152 L6.165647,362.56 C6.165647,360.768 7.061647,359.776 8.741647,359.776 C10.421647,359.776 11.317647,360.752 11.317647,362.544 L11.317647,362.944 C11.317647,364.144 10.933647,364.88 10.069647,365.2 L10.069647,365.232 C11.013647,365.584 11.365647,366.4 11.365647,367.536 L11.365647,368.528 C11.365647,370.32 10.469647,371.296 8.741647,371.296 Z M13.963294,366.16 C12.859294,366.16 12.267294,365.52 12.267294,364.368 L12.267294,361.568 C12.267294,360.416 12.859294,359.776 13.963294,359.776 C15.067294,359.776 15.659294,360.416 15.659294,361.568 L15.659294,364.368 C15.659294,365.52 15.067294,366.16 13.963294,366.16 Z M13.691294,371.136 L18.027294,359.936 L19.147294,359.936 L14.811294,371.136 L13.691294,371.136 Z M13.963294,365.152 C14.315294,365.152 14.539294,364.944 14.539294,364.448 L14.539294,361.488 C14.539294,360.992 14.315294,360.784 13.963294,360.784 C13.595294,360.784 13.387294,360.992 13.387294,361.488 L13.387294,364.448 C13.387294,364.944 13.595294,365.152 13.963294,365.152 Z M18.875294,371.296 C17.771294,371.296 17.179294,370.656 17.179294,369.504 L17.179294,366.704 C17.179294,365.552 17.771294,364.912 18.875294,364.912 C19.979294,364.912 20.571294,365.552 20.571294,366.704 L20.571294,369.504 C20.571294,370.656 19.979294,371.296 18.875294,371.296 Z M18.875294,370.288 C19.227294,370.288 19.451294,370.08 19.451294,369.584 L19.451294,366.624 C19.451294,366.128 19.227294,365.92 18.875294,365.92 C18.507294,365.92 18.299294,366.128 18.299294,366.624 L18.299294,369.584 C18.299294,370.08 18.507294,370.288 18.875294,370.288 Z" id="23%" fill="#9C9C9C" fill-rule="nonzero"></path>
                <path d="M0.096,336.136 L0.096,334.92 C0.096,333.32 0.544,332.344 1.856,330.968 C3.2,329.544 3.584,328.696 3.584,327.656 C3.584,326.648 3.232,326.376 2.672,326.376 C2.112,326.376 1.76,326.68 1.76,327.48 L1.76,328.68 L0.096,328.68 L0.096,327.592 C0.096,325.8 0.992,324.776 2.72,324.776 C4.448,324.776 5.344,325.8 5.344,327.592 C5.344,328.92 4.8,330.104 3.168,331.832 C2.112,332.952 1.84,333.512 1.84,334.296 L1.84,334.536 L5.184,334.536 L5.184,336.136 L0.096,336.136 Z M9.189647,336.136 L9.189647,334.104 L5.829647,334.104 L5.829647,332.504 L9.029647,324.936 L10.949647,324.936 L10.949647,332.504 L11.781647,332.504 L11.781647,334.104 L10.949647,334.104 L10.949647,336.136 L9.189647,336.136 Z M7.429647,332.504 L9.189647,332.504 L9.189647,328.136 L9.157647,328.136 L7.429647,332.504 Z M13.963294,331.16 C12.859294,331.16 12.267294,330.52 12.267294,329.368 L12.267294,326.568 C12.267294,325.416 12.859294,324.776 13.963294,324.776 C15.067294,324.776 15.659294,325.416 15.659294,326.568 L15.659294,329.368 C15.659294,330.52 15.067294,331.16 13.963294,331.16 Z M13.691294,336.136 L18.027294,324.936 L19.147294,324.936 L14.811294,336.136 L13.691294,336.136 Z M13.963294,330.152 C14.315294,330.152 14.539294,329.944 14.539294,329.448 L14.539294,326.488 C14.539294,325.992 14.315294,325.784 13.963294,325.784 C13.595294,325.784 13.387294,325.992 13.387294,326.488 L13.387294,329.448 C13.387294,329.944 13.595294,330.152 13.963294,330.152 Z M18.875294,336.296 C17.771294,336.296 17.179294,335.656 17.179294,334.504 L17.179294,331.704 C17.179294,330.552 17.771294,329.912 18.875294,329.912 C19.979294,329.912 20.571294,330.552 20.571294,331.704 L20.571294,334.504 C20.571294,335.656 19.979294,336.296 18.875294,336.296 Z M18.875294,335.288 C19.227294,335.288 19.451294,335.08 19.451294,334.584 L19.451294,331.624 C19.451294,331.128 19.227294,330.92 18.875294,330.92 C18.507294,330.92 18.299294,331.128 18.299294,331.624 L18.299294,334.584 C18.299294,335.08 18.507294,335.288 18.875294,335.288 Z" id="24%" fill="#9C9C9C" fill-rule="nonzero"></path>
                <path d="M0.096,304.136 L0.096,302.92 C0.096,301.32 0.544,300.344 1.856,298.968 C3.2,297.544 3.584,296.696 3.584,295.656 C3.584,294.648 3.232,294.376 2.672,294.376 C2.112,294.376 1.76,294.68 1.76,295.48 L1.76,296.68 L0.096,296.68 L0.096,295.592 C0.096,293.8 0.992,292.776 2.72,292.776 C4.448,292.776 5.344,293.8 5.344,295.592 C5.344,296.92 4.8,298.104 3.168,299.832 C2.112,300.952 1.84,301.512 1.84,302.296 L1.84,302.536 L5.184,302.536 L5.184,304.136 L0.096,304.136 Z M8.821647,304.296 C7.093647,304.296 6.197647,303.272 6.197647,301.48 L6.197647,300.6 L7.861647,300.6 L7.861647,301.608 C7.861647,302.408 8.213647,302.696 8.773647,302.696 C9.333647,302.696 9.685647,302.408 9.685647,301.608 L9.685647,299.096 C9.685647,298.296 9.333647,297.992 8.773647,297.992 C8.213647,297.992 7.861647,298.296 7.861647,299.096 L7.861647,299.192 L6.197647,299.192 L6.517647,292.936 L11.157647,292.936 L11.157647,294.536 L8.085647,294.536 L7.941647,297.208 L7.973647,297.208 C8.293647,296.68 8.789647,296.392 9.493647,296.392 C10.789647,296.392 11.445647,297.304 11.445647,298.952 L11.445647,301.48 C11.445647,303.272 10.549647,304.296 8.821647,304.296 Z M13.963294,299.16 C12.859294,299.16 12.267294,298.52 12.267294,297.368 L12.267294,294.568 C12.267294,293.416 12.859294,292.776 13.963294,292.776 C15.067294,292.776 15.659294,293.416 15.659294,294.568 L15.659294,297.368 C15.659294,298.52 15.067294,299.16 13.963294,299.16 Z M13.691294,304.136 L18.027294,292.936 L19.147294,292.936 L14.811294,304.136 L13.691294,304.136 Z M13.963294,298.152 C14.315294,298.152 14.539294,297.944 14.539294,297.448 L14.539294,294.488 C14.539294,293.992 14.315294,293.784 13.963294,293.784 C13.595294,293.784 13.387294,293.992 13.387294,294.488 L13.387294,297.448 C13.387294,297.944 13.595294,298.152 13.963294,298.152 Z M18.875294,304.296 C17.771294,304.296 17.179294,303.656 17.179294,302.504 L17.179294,299.704 C17.179294,298.552 17.771294,297.912 18.875294,297.912 C19.979294,297.912 20.571294,298.552 20.571294,299.704 L20.571294,302.504 C20.571294,303.656 19.979294,304.296 18.875294,304.296 Z M18.875294,303.288 C19.227294,303.288 19.451294,303.08 19.451294,302.584 L19.451294,299.624 C19.451294,299.128 19.227294,298.92 18.875294,298.92 C18.507294,298.92 18.299294,299.128 18.299294,299.624 L18.299294,302.584 C18.299294,303.08 18.507294,303.288 18.875294,303.288 Z" id="25%" fill="#9C9C9C" fill-rule="nonzero"></path>
                <path d="M0.096,269.136 L0.096,267.92 C0.096,266.32 0.544,265.344 1.856,263.968 C3.2,262.544 3.584,261.696 3.584,260.656 C3.584,259.648 3.232,259.376 2.672,259.376 C2.112,259.376 1.76,259.68 1.76,260.48 L1.76,261.68 L0.096,261.68 L0.096,260.592 C0.096,258.8 0.992,257.776 2.72,257.776 C4.448,257.776 5.344,258.8 5.344,260.592 C5.344,261.92 4.8,263.104 3.168,264.832 C2.112,265.952 1.84,266.512 1.84,267.296 L1.84,267.536 L5.184,267.536 L5.184,269.136 L0.096,269.136 Z M8.837647,269.296 C7.109647,269.296 6.165647,268.272 6.165647,266.48 L6.165647,260.688 C6.165647,258.8 7.029647,257.776 8.853647,257.776 C10.581647,257.776 11.477647,258.8 11.477647,260.592 L11.477647,260.8 L9.813647,260.8 L9.813647,260.48 C9.813647,259.68 9.461647,259.376 8.901647,259.376 C8.277647,259.376 7.925647,259.68 7.925647,260.752 L7.925647,262.896 L7.957647,262.896 C8.261647,262.256 8.773647,261.92 9.557647,261.92 C10.853647,261.92 11.509647,262.832 11.509647,264.48 L11.509647,266.48 C11.509647,268.272 10.565647,269.296 8.837647,269.296 Z M8.837647,267.696 C9.445647,267.696 9.749647,267.344 9.749647,266.608 L9.749647,264.624 C9.749647,263.872 9.445647,263.52 8.837647,263.52 C8.229647,263.52 7.925647,263.872 7.925647,264.624 L7.925647,266.608 C7.925647,267.344 8.229647,267.696 8.837647,267.696 Z M13.963294,264.16 C12.859294,264.16 12.267294,263.52 12.267294,262.368 L12.267294,259.568 C12.267294,258.416 12.859294,257.776 13.963294,257.776 C15.067294,257.776 15.659294,258.416 15.659294,259.568 L15.659294,262.368 C15.659294,263.52 15.067294,264.16 13.963294,264.16 Z M13.691294,269.136 L18.027294,257.936 L19.147294,257.936 L14.811294,269.136 L13.691294,269.136 Z M13.963294,263.152 C14.315294,263.152 14.539294,262.944 14.539294,262.448 L14.539294,259.488 C14.539294,258.992 14.315294,258.784 13.963294,258.784 C13.595294,258.784 13.387294,258.992 13.387294,259.488 L13.387294,262.448 C13.387294,262.944 13.595294,263.152 13.963294,263.152 Z M18.875294,269.296 C17.771294,269.296 17.179294,268.656 17.179294,267.504 L17.179294,264.704 C17.179294,263.552 17.771294,262.912 18.875294,262.912 C19.979294,262.912 20.571294,263.552 20.571294,264.704 L20.571294,267.504 C20.571294,268.656 19.979294,269.296 18.875294,269.296 Z M18.875294,268.288 C19.227294,268.288 19.451294,268.08 19.451294,267.584 L19.451294,264.624 C19.451294,264.128 19.227294,263.92 18.875294,263.92 C18.507294,263.92 18.299294,264.128 18.299294,264.624 L18.299294,267.584 C18.299294,268.08 18.507294,268.288 18.875294,268.288 Z" id="26%" fill="#9C9C9C" fill-rule="nonzero"></path>
                <path d="M0.096,234.136 L0.096,232.92 C0.096,231.32 0.544,230.344 1.856,228.968 C3.2,227.544 3.584,226.696 3.584,225.656 C3.584,224.648 3.232,224.376 2.672,224.376 C2.112,224.376 1.76,224.68 1.76,225.48 L1.76,226.68 L0.096,226.68 L0.096,225.592 C0.096,223.8 0.992,222.776 2.72,222.776 C4.448,222.776 5.344,223.8 5.344,225.592 C5.344,226.92 4.8,228.104 3.168,229.832 C2.112,230.952 1.84,231.512 1.84,232.296 L1.84,232.536 L5.184,232.536 L5.184,234.136 L0.096,234.136 Z M6.869647,234.136 L9.685647,224.536 L6.133647,224.536 L6.133647,222.936 L11.413647,222.936 L11.413647,224.472 L8.661647,234.136 L6.869647,234.136 Z M13.963294,229.16 C12.859294,229.16 12.267294,228.52 12.267294,227.368 L12.267294,224.568 C12.267294,223.416 12.859294,222.776 13.963294,222.776 C15.067294,222.776 15.659294,223.416 15.659294,224.568 L15.659294,227.368 C15.659294,228.52 15.067294,229.16 13.963294,229.16 Z M13.691294,234.136 L18.027294,222.936 L19.147294,222.936 L14.811294,234.136 L13.691294,234.136 Z M13.963294,228.152 C14.315294,228.152 14.539294,227.944 14.539294,227.448 L14.539294,224.488 C14.539294,223.992 14.315294,223.784 13.963294,223.784 C13.595294,223.784 13.387294,223.992 13.387294,224.488 L13.387294,227.448 C13.387294,227.944 13.595294,228.152 13.963294,228.152 Z M18.875294,234.296 C17.771294,234.296 17.179294,233.656 17.179294,232.504 L17.179294,229.704 C17.179294,228.552 17.771294,227.912 18.875294,227.912 C19.979294,227.912 20.571294,228.552 20.571294,229.704 L20.571294,232.504 C20.571294,233.656 19.979294,234.296 18.875294,234.296 Z M18.875294,233.288 C19.227294,233.288 19.451294,233.08 19.451294,232.584 L19.451294,229.624 C19.451294,229.128 19.227294,228.92 18.875294,228.92 C18.507294,228.92 18.299294,229.128 18.299294,229.624 L18.299294,232.584 C18.299294,233.08 18.507294,233.288 18.875294,233.288 Z" id="27%" fill="#9C9C9C" fill-rule="nonzero"></path>
                <path d="M0.096,201.136 L0.096,199.92 C0.096,198.32 0.544,197.344 1.856,195.968 C3.2,194.544 3.584,193.696 3.584,192.656 C3.584,191.648 3.232,191.376 2.672,191.376 C2.112,191.376 1.76,191.68 1.76,192.48 L1.76,193.68 L0.096,193.68 L0.096,192.592 C0.096,190.8 0.992,189.776 2.72,189.776 C4.448,189.776 5.344,190.8 5.344,192.592 C5.344,193.92 4.8,195.104 3.168,196.832 C2.112,197.952 1.84,198.512 1.84,199.296 L1.84,199.536 L5.184,199.536 L5.184,201.136 L0.096,201.136 Z M8.789647,201.296 C7.013647,201.296 6.037647,200.32 6.037647,198.528 L6.037647,197.536 C6.037647,196.464 6.357647,195.68 7.189647,195.248 L7.189647,195.216 C6.453647,194.816 6.101647,194.112 6.101647,193.008 L6.101647,192.544 C6.101647,190.752 7.077647,189.776 8.789647,189.776 C10.501647,189.776 11.477647,190.752 11.477647,192.544 L11.477647,193.008 C11.477647,194.112 11.109647,194.816 10.389647,195.216 L10.389647,195.248 C11.221647,195.68 11.541647,196.464 11.541647,197.536 L11.541647,198.528 C11.541647,200.32 10.565647,201.296 8.789647,201.296 Z M8.789647,194.496 C9.397647,194.496 9.717647,194.112 9.717647,193.376 L9.717647,192.496 C9.717647,191.76 9.397647,191.376 8.789647,191.376 C8.181647,191.376 7.861647,191.76 7.861647,192.496 L7.861647,193.376 C7.861647,194.112 8.181647,194.496 8.789647,194.496 Z M8.789647,199.696 C9.445647,199.696 9.781647,199.28 9.781647,198.432 L9.781647,197.36 C9.781647,196.512 9.445647,196.096 8.789647,196.096 C8.133647,196.096 7.797647,196.512 7.797647,197.36 L7.797647,198.432 C7.797647,199.28 8.133647,199.696 8.789647,199.696 Z M13.963294,196.16 C12.859294,196.16 12.267294,195.52 12.267294,194.368 L12.267294,191.568 C12.267294,190.416 12.859294,189.776 13.963294,189.776 C15.067294,189.776 15.659294,190.416 15.659294,191.568 L15.659294,194.368 C15.659294,195.52 15.067294,196.16 13.963294,196.16 Z M13.691294,201.136 L18.027294,189.936 L19.147294,189.936 L14.811294,201.136 L13.691294,201.136 Z M13.963294,195.152 C14.315294,195.152 14.539294,194.944 14.539294,194.448 L14.539294,191.488 C14.539294,190.992 14.315294,190.784 13.963294,190.784 C13.595294,190.784 13.387294,190.992 13.387294,191.488 L13.387294,194.448 C13.387294,194.944 13.595294,195.152 13.963294,195.152 Z M18.875294,201.296 C17.771294,201.296 17.179294,200.656 17.179294,199.504 L17.179294,196.704 C17.179294,195.552 17.771294,194.912 18.875294,194.912 C19.979294,194.912 20.571294,195.552 20.571294,196.704 L20.571294,199.504 C20.571294,200.656 19.979294,201.296 18.875294,201.296 Z M18.875294,200.288 C19.227294,200.288 19.451294,200.08 19.451294,199.584 L19.451294,196.624 C19.451294,196.128 19.227294,195.92 18.875294,195.92 C18.507294,195.92 18.299294,196.128 18.299294,196.624 L18.299294,199.584 C18.299294,200.08 18.507294,200.288 18.875294,200.288 Z" id="28%" fill="#9C9C9C" fill-rule="nonzero"></path>
                <path d="M0.096,167.136 L0.096,165.92 C0.096,164.32 0.544,163.344 1.856,161.968 C3.2,160.544 3.584,159.696 3.584,158.656 C3.584,157.648 3.232,157.376 2.672,157.376 C2.112,157.376 1.76,157.68 1.76,158.48 L1.76,159.68 L0.096,159.68 L0.096,158.592 C0.096,156.8 0.992,155.776 2.72,155.776 C4.448,155.776 5.344,156.8 5.344,158.592 C5.344,159.92 4.8,161.104 3.168,162.832 C2.112,163.952 1.84,164.512 1.84,165.296 L1.84,165.536 L5.184,165.536 L5.184,167.136 L0.096,167.136 Z M8.725647,167.296 C6.997647,167.296 6.101647,166.272 6.101647,164.48 L6.101647,164.272 L7.765647,164.272 L7.765647,164.592 C7.765647,165.392 8.117647,165.696 8.677647,165.696 C9.301647,165.696 9.653647,165.392 9.653647,164.32 L9.653647,162.176 L9.621647,162.176 C9.317647,162.816 8.805647,163.152 8.021647,163.152 C6.725647,163.152 6.069647,162.24 6.069647,160.592 L6.069647,158.592 C6.069647,156.8 7.013647,155.776 8.741647,155.776 C10.469647,155.776 11.413647,156.8 11.413647,158.592 L11.413647,164.384 C11.413647,166.272 10.549647,167.296 8.725647,167.296 Z M8.741647,161.552 C9.349647,161.552 9.653647,161.2 9.653647,160.448 L9.653647,158.464 C9.653647,157.728 9.349647,157.376 8.741647,157.376 C8.133647,157.376 7.829647,157.728 7.829647,158.464 L7.829647,160.448 C7.829647,161.2 8.133647,161.552 8.741647,161.552 Z M13.963294,162.16 C12.859294,162.16 12.267294,161.52 12.267294,160.368 L12.267294,157.568 C12.267294,156.416 12.859294,155.776 13.963294,155.776 C15.067294,155.776 15.659294,156.416 15.659294,157.568 L15.659294,160.368 C15.659294,161.52 15.067294,162.16 13.963294,162.16 Z M13.691294,167.136 L18.027294,155.936 L19.147294,155.936 L14.811294,167.136 L13.691294,167.136 Z M13.963294,161.152 C14.315294,161.152 14.539294,160.944 14.539294,160.448 L14.539294,157.488 C14.539294,156.992 14.315294,156.784 13.963294,156.784 C13.595294,156.784 13.387294,156.992 13.387294,157.488 L13.387294,160.448 C13.387294,160.944 13.595294,161.152 13.963294,161.152 Z M18.875294,167.296 C17.771294,167.296 17.179294,166.656 17.179294,165.504 L17.179294,162.704 C17.179294,161.552 17.771294,160.912 18.875294,160.912 C19.979294,160.912 20.571294,161.552 20.571294,162.704 L20.571294,165.504 C20.571294,166.656 19.979294,167.296 18.875294,167.296 Z M18.875294,166.288 C19.227294,166.288 19.451294,166.08 19.451294,165.584 L19.451294,162.624 C19.451294,162.128 19.227294,161.92 18.875294,161.92 C18.507294,161.92 18.299294,162.128 18.299294,162.624 L18.299294,165.584 C18.299294,166.08 18.507294,166.288 18.875294,166.288 Z" id="29%" fill="#9C9C9C" fill-rule="nonzero"></path>
                <path d="M2.624,132.296 C0.896,132.296 4.24549285e-12,131.304 4.24549285e-12,129.512 L4.24549285e-12,128.6 L1.664,128.6 L1.664,129.592 C1.664,130.392 2.016,130.696 2.576,130.696 C3.136,130.696 3.488,130.424 3.488,129.432 L3.488,128.52 C3.488,127.48 3.136,127.096 2.336,127.096 L1.744,127.096 L1.744,125.496 L2.384,125.496 C3.04,125.496 3.44,125.208 3.44,124.312 L3.44,123.496 C3.44,122.696 3.072,122.376 2.56,122.376 C2.048,122.376 1.712,122.68 1.712,123.416 L1.712,124.152 L0.048,124.152 L0.048,123.56 C0.048,121.768 0.944,120.776 2.624,120.776 C4.304,120.776 5.2,121.752 5.2,123.544 L5.2,123.944 C5.2,125.144 4.816,125.88 3.952,126.2 L3.952,126.232 C4.896,126.584 5.248,127.4 5.248,128.536 L5.248,129.528 C5.248,131.32 4.352,132.296 2.624,132.296 Z M8.789647,132.296 C7.061647,132.296 6.117647,131.272 6.117647,129.48 L6.117647,123.592 C6.117647,121.8 7.061647,120.776 8.789647,120.776 C10.517647,120.776 11.461647,121.8 11.461647,123.592 L11.461647,129.48 C11.461647,131.272 10.517647,132.296 8.789647,132.296 Z M8.789647,130.696 C9.349647,130.696 9.701647,130.392 9.701647,129.592 L9.701647,123.48 C9.701647,122.68 9.349647,122.376 8.789647,122.376 C8.229647,122.376 7.877647,122.68 7.877647,123.48 L7.877647,129.592 C7.877647,130.392 8.229647,130.696 8.789647,130.696 Z M13.963294,127.16 C12.859294,127.16 12.267294,126.52 12.267294,125.368 L12.267294,122.568 C12.267294,121.416 12.859294,120.776 13.963294,120.776 C15.067294,120.776 15.659294,121.416 15.659294,122.568 L15.659294,125.368 C15.659294,126.52 15.067294,127.16 13.963294,127.16 Z M13.691294,132.136 L18.027294,120.936 L19.147294,120.936 L14.811294,132.136 L13.691294,132.136 Z M13.963294,126.152 C14.315294,126.152 14.539294,125.944 14.539294,125.448 L14.539294,122.488 C14.539294,121.992 14.315294,121.784 13.963294,121.784 C13.595294,121.784 13.387294,121.992 13.387294,122.488 L13.387294,125.448 C13.387294,125.944 13.595294,126.152 13.963294,126.152 Z M18.875294,132.296 C17.771294,132.296 17.179294,131.656 17.179294,130.504 L17.179294,127.704 C17.179294,126.552 17.771294,125.912 18.875294,125.912 C19.979294,125.912 20.571294,126.552 20.571294,127.704 L20.571294,130.504 C20.571294,131.656 19.979294,132.296 18.875294,132.296 Z M18.875294,131.288 C19.227294,131.288 19.451294,131.08 19.451294,130.584 L19.451294,127.624 C19.451294,127.128 19.227294,126.92 18.875294,126.92 C18.507294,126.92 18.299294,127.128 18.299294,127.624 L18.299294,130.584 C18.299294,131.08 18.507294,131.288 18.875294,131.288 Z" id="30%" fill="#9C9C9C" fill-rule="nonzero"></path>
                <path d="M31.848941,570.410168 L31.848941,113.232158" id="Line-2" stroke="#000000" opacity="0.7" stroke-linecap="square" stroke-dasharray="1,5"></path>
                <path d="M63.848941,570.410168 L63.848941,113.232158" id="Line-2-Copy" stroke="#979797" stroke-width="0.5" stroke-linecap="square" stroke-dasharray="1,5"></path>
                <path d="M94.848941,570.410168 L94.848941,113.232158" id="Line-2-Copy-2" stroke="#979797" stroke-width="0.5" stroke-linecap="square" stroke-dasharray="1,5"></path>
                <path d="M126.848941,570.410168 L126.848941,113.232158" id="Line-2-Copy-3" stroke="#979797" stroke-width="0.5" stroke-linecap="square" stroke-dasharray="1,5"></path>
                <path d="M157.848941,570.410168 L157.848941,113.232158" id="Line-2-Copy-4" stroke="#979797" stroke-width="0.5" stroke-linecap="square" stroke-dasharray="1,5"></path>
                <path d="M189.848941,570.410168 L189.848941,113.232158" id="Line-2-Copy-5" stroke="#979797" stroke-width="0.5" stroke-linecap="square" stroke-dasharray="1,5"></path>
                <path d="M220.848941,570.410168 L220.848941,113.232158" id="Line-2-Copy-6" stroke="#979797" stroke-width="0.5" stroke-linecap="square" stroke-dasharray="1,5"></path>
                <path d="M252.848941,570.410168 L252.848941,113.232158" id="Line-2-Copy-7" stroke="#979797" stroke-width="0.5" stroke-linecap="square" stroke-dasharray="1,5"></path>
                <path d="M283.848941,570.410168 L283.848941,113.232158" id="Line-2-Copy-8" stroke="#979797" stroke-width="0.5" stroke-linecap="square" stroke-dasharray="1,5"></path>
                <path d="M315.848941,570.410168 L315.848941,113.232158" id="Line-2-Copy-9" stroke="#979797" stroke-width="0.5" stroke-linecap="square" stroke-dasharray="1,5"></path>
                <path d="M177.342941,598.136 L177.342941,596.768 C177.342941,594.968 177.846941,593.87 179.322941,592.322 C180.834941,590.72 181.266941,589.766 181.266941,588.596 C181.266941,587.462 180.870941,587.156 180.240941,587.156 C179.610941,587.156 179.214941,587.498 179.214941,588.398 L179.214941,589.748 L177.342941,589.748 L177.342941,588.524 C177.342941,586.508 178.350941,585.356 180.294941,585.356 C182.238941,585.356 183.246941,586.508 183.246941,588.524 C183.246941,590.018 182.634941,591.35 180.798941,593.294 C179.610941,594.554 179.304941,595.184 179.304941,596.066 L179.304941,596.336 L183.066941,596.336 L183.066941,598.136 L177.342941,598.136 Z M186.792941,598.316 C184.848941,598.316 183.786941,597.164 183.786941,595.148 L183.786941,588.524 C183.786941,586.508 184.848941,585.356 186.792941,585.356 C188.736941,585.356 189.798941,586.508 189.798941,588.524 L189.798941,595.148 C189.798941,597.164 188.736941,598.316 186.792941,598.316 Z M186.792941,596.516 C187.422941,596.516 187.818941,596.174 187.818941,595.274 L187.818941,588.398 C187.818941,587.498 187.422941,587.156 186.792941,587.156 C186.162941,587.156 185.766941,587.498 185.766941,588.398 L185.766941,595.274 C185.766941,596.174 186.162941,596.516 186.792941,596.516 Z M193.254941,598.136 L193.254941,588.524 L191.184941,588.524 L191.184941,587.12 C192.858941,587.12 193.452941,586.76 193.902941,585.536 L195.234941,585.536 L195.234941,598.136 L193.254941,598.136 Z M199.842941,598.316 C197.898941,598.316 196.890941,597.2 196.890941,595.184 L196.890941,594.158 L198.762941,594.158 L198.762941,595.274 C198.762941,596.174 199.158941,596.516 199.788941,596.516 C200.418941,596.516 200.814941,596.21 200.814941,595.094 L200.814941,594.068 C200.814941,592.898 200.418941,592.466 199.518941,592.466 L198.852941,592.466 L198.852941,590.666 L199.572941,590.666 C200.310941,590.666 200.760941,590.342 200.760941,589.334 L200.760941,588.416 C200.760941,587.516 200.346941,587.156 199.770941,587.156 C199.194941,587.156 198.816941,587.498 198.816941,588.326 L198.816941,589.154 L196.944941,589.154 L196.944941,588.488 C196.944941,586.472 197.952941,585.356 199.842941,585.356 C201.732941,585.356 202.740941,586.454 202.740941,588.47 L202.740941,588.92 C202.740941,590.27 202.308941,591.098 201.336941,591.458 L201.336941,591.494 C202.398941,591.89 202.794941,592.808 202.794941,594.086 L202.794941,595.202 C202.794941,597.218 201.786941,598.316 199.842941,598.316 Z" id="2013" fill="#666666" fill-rule="nonzero" transform="translate(190.068941, 591.836000) rotate(90.000000) translate(-190.068941, -591.836000) "></path>
                <path d="M209.342941,598.136 L209.342941,596.768 C209.342941,594.968 209.846941,593.87 211.322941,592.322 C212.834941,590.72 213.266941,589.766 213.266941,588.596 C213.266941,587.462 212.870941,587.156 212.240941,587.156 C211.610941,587.156 211.214941,587.498 211.214941,588.398 L211.214941,589.748 L209.342941,589.748 L209.342941,588.524 C209.342941,586.508 210.350941,585.356 212.294941,585.356 C214.238941,585.356 215.246941,586.508 215.246941,588.524 C215.246941,590.018 214.634941,591.35 212.798941,593.294 C211.610941,594.554 211.304941,595.184 211.304941,596.066 L211.304941,596.336 L215.066941,596.336 L215.066941,598.136 L209.342941,598.136 Z M218.792941,598.316 C216.848941,598.316 215.786941,597.164 215.786941,595.148 L215.786941,588.524 C215.786941,586.508 216.848941,585.356 218.792941,585.356 C220.736941,585.356 221.798941,586.508 221.798941,588.524 L221.798941,595.148 C221.798941,597.164 220.736941,598.316 218.792941,598.316 Z M218.792941,596.516 C219.422941,596.516 219.818941,596.174 219.818941,595.274 L219.818941,588.398 C219.818941,587.498 219.422941,587.156 218.792941,587.156 C218.162941,587.156 217.766941,587.498 217.766941,588.398 L217.766941,595.274 C217.766941,596.174 218.162941,596.516 218.792941,596.516 Z M225.254941,598.136 L225.254941,588.524 L223.184941,588.524 L223.184941,587.12 C224.858941,587.12 225.452941,586.76 225.902941,585.536 L227.234941,585.536 L227.234941,598.136 L225.254941,598.136 Z M232.346941,598.136 L232.346941,595.85 L228.566941,595.85 L228.566941,594.05 L232.166941,585.536 L234.326941,585.536 L234.326941,594.05 L235.262941,594.05 L235.262941,595.85 L234.326941,595.85 L234.326941,598.136 L232.346941,598.136 Z M230.366941,594.05 L232.346941,594.05 L232.346941,589.136 L232.310941,589.136 L230.366941,594.05 Z" id="2014" fill="#666666" fill-rule="nonzero" transform="translate(222.302941, 591.836000) rotate(90.000000) translate(-222.302941, -591.836000) "></path>
                <path d="M240.342941,598.136 L240.342941,596.768 C240.342941,594.968 240.846941,593.87 242.322941,592.322 C243.834941,590.72 244.266941,589.766 244.266941,588.596 C244.266941,587.462 243.870941,587.156 243.240941,587.156 C242.610941,587.156 242.214941,587.498 242.214941,588.398 L242.214941,589.748 L240.342941,589.748 L240.342941,588.524 C240.342941,586.508 241.350941,585.356 243.294941,585.356 C245.238941,585.356 246.246941,586.508 246.246941,588.524 C246.246941,590.018 245.634941,591.35 243.798941,593.294 C242.610941,594.554 242.304941,595.184 242.304941,596.066 L242.304941,596.336 L246.066941,596.336 L246.066941,598.136 L240.342941,598.136 Z M249.792941,598.316 C247.848941,598.316 246.786941,597.164 246.786941,595.148 L246.786941,588.524 C246.786941,586.508 247.848941,585.356 249.792941,585.356 C251.736941,585.356 252.798941,586.508 252.798941,588.524 L252.798941,595.148 C252.798941,597.164 251.736941,598.316 249.792941,598.316 Z M249.792941,596.516 C250.422941,596.516 250.818941,596.174 250.818941,595.274 L250.818941,588.398 C250.818941,587.498 250.422941,587.156 249.792941,587.156 C249.162941,587.156 248.766941,587.498 248.766941,588.398 L248.766941,595.274 C248.766941,596.174 249.162941,596.516 249.792941,596.516 Z M256.254941,598.136 L256.254941,588.524 L254.184941,588.524 L254.184941,587.12 C255.858941,587.12 256.452941,586.76 256.902941,585.536 L258.234941,585.536 L258.234941,598.136 L256.254941,598.136 Z M262.932941,598.316 C260.988941,598.316 259.980941,597.164 259.980941,595.148 L259.980941,594.158 L261.852941,594.158 L261.852941,595.292 C261.852941,596.192 262.248941,596.516 262.878941,596.516 C263.508941,596.516 263.904941,596.192 263.904941,595.292 L263.904941,592.466 C263.904941,591.566 263.508941,591.224 262.878941,591.224 C262.248941,591.224 261.852941,591.566 261.852941,592.466 L261.852941,592.574 L259.980941,592.574 L260.340941,585.536 L265.560941,585.536 L265.560941,587.336 L262.104941,587.336 L261.942941,590.342 L261.978941,590.342 C262.338941,589.748 262.896941,589.424 263.688941,589.424 C265.146941,589.424 265.884941,590.45 265.884941,592.304 L265.884941,595.148 C265.884941,597.164 264.876941,598.316 262.932941,598.316 Z" id="2015" fill="#666666" fill-rule="nonzero" transform="translate(253.113941, 591.836000) rotate(90.000000) translate(-253.113941, -591.836000) "></path>
                <path d="M272.342941,598.136 L272.342941,596.768 C272.342941,594.968 272.846941,593.87 274.322941,592.322 C275.834941,590.72 276.266941,589.766 276.266941,588.596 C276.266941,587.462 275.870941,587.156 275.240941,587.156 C274.610941,587.156 274.214941,587.498 274.214941,588.398 L274.214941,589.748 L272.342941,589.748 L272.342941,588.524 C272.342941,586.508 273.350941,585.356 275.294941,585.356 C277.238941,585.356 278.246941,586.508 278.246941,588.524 C278.246941,590.018 277.634941,591.35 275.798941,593.294 C274.610941,594.554 274.304941,595.184 274.304941,596.066 L274.304941,596.336 L278.066941,596.336 L278.066941,598.136 L272.342941,598.136 Z M281.792941,598.316 C279.848941,598.316 278.786941,597.164 278.786941,595.148 L278.786941,588.524 C278.786941,586.508 279.848941,585.356 281.792941,585.356 C283.736941,585.356 284.798941,586.508 284.798941,588.524 L284.798941,595.148 C284.798941,597.164 283.736941,598.316 281.792941,598.316 Z M281.792941,596.516 C282.422941,596.516 282.818941,596.174 282.818941,595.274 L282.818941,588.398 C282.818941,587.498 282.422941,587.156 281.792941,587.156 C281.162941,587.156 280.766941,587.498 280.766941,588.398 L280.766941,595.274 C280.766941,596.174 281.162941,596.516 281.792941,596.516 Z M288.254941,598.136 L288.254941,588.524 L286.184941,588.524 L286.184941,587.12 C287.858941,587.12 288.452941,586.76 288.902941,585.536 L290.234941,585.536 L290.234941,598.136 L288.254941,598.136 Z M294.950941,598.316 C293.006941,598.316 291.944941,597.164 291.944941,595.148 L291.944941,588.632 C291.944941,586.508 292.916941,585.356 294.968941,585.356 C296.912941,585.356 297.920941,586.508 297.920941,588.524 L297.920941,588.758 L296.048941,588.758 L296.048941,588.398 C296.048941,587.498 295.652941,587.156 295.022941,587.156 C294.320941,587.156 293.924941,587.498 293.924941,588.704 L293.924941,591.116 L293.960941,591.116 C294.302941,590.396 294.878941,590.018 295.760941,590.018 C297.218941,590.018 297.956941,591.044 297.956941,592.898 L297.956941,595.148 C297.956941,597.164 296.894941,598.316 294.950941,598.316 Z M294.950941,596.516 C295.634941,596.516 295.976941,596.12 295.976941,595.292 L295.976941,593.06 C295.976941,592.214 295.634941,591.818 294.950941,591.818 C294.266941,591.818 293.924941,592.214 293.924941,593.06 L293.924941,595.292 C293.924941,596.12 294.266941,596.516 294.950941,596.516 Z" id="2016" fill="#666666" fill-rule="nonzero" transform="translate(285.149941, 591.836000) rotate(90.000000) translate(-285.149941, -591.836000) "></path>
                <path d="M303.342941,598.136 L303.342941,596.768 C303.342941,594.968 303.846941,593.87 305.322941,592.322 C306.834941,590.72 307.266941,589.766 307.266941,588.596 C307.266941,587.462 306.870941,587.156 306.240941,587.156 C305.610941,587.156 305.214941,587.498 305.214941,588.398 L305.214941,589.748 L303.342941,589.748 L303.342941,588.524 C303.342941,586.508 304.350941,585.356 306.294941,585.356 C308.238941,585.356 309.246941,586.508 309.246941,588.524 C309.246941,590.018 308.634941,591.35 306.798941,593.294 C305.610941,594.554 305.304941,595.184 305.304941,596.066 L305.304941,596.336 L309.066941,596.336 L309.066941,598.136 L303.342941,598.136 Z M312.792941,598.316 C310.848941,598.316 309.786941,597.164 309.786941,595.148 L309.786941,588.524 C309.786941,586.508 310.848941,585.356 312.792941,585.356 C314.736941,585.356 315.798941,586.508 315.798941,588.524 L315.798941,595.148 C315.798941,597.164 314.736941,598.316 312.792941,598.316 Z M312.792941,596.516 C313.422941,596.516 313.818941,596.174 313.818941,595.274 L313.818941,588.398 C313.818941,587.498 313.422941,587.156 312.792941,587.156 C312.162941,587.156 311.766941,587.498 311.766941,588.398 L311.766941,595.274 C311.766941,596.174 312.162941,596.516 312.792941,596.516 Z M319.254941,598.136 L319.254941,588.524 L317.184941,588.524 L317.184941,587.12 C318.858941,587.12 319.452941,586.76 319.902941,585.536 L321.234941,585.536 L321.234941,598.136 L319.254941,598.136 Z M323.736941,598.136 L326.904941,587.336 L322.908941,587.336 L322.908941,585.536 L328.848941,585.536 L328.848941,587.264 L325.752941,598.136 L323.736941,598.136 Z" id="2017" fill="#666666" fill-rule="nonzero" transform="translate(316.095941, 591.836000) rotate(90.000000) translate(-316.095941, -591.836000) "></path>
                <path d="M99.791941,59.136 L99.791941,43.036 L103.402941,43.036 L105.012941,54.559 L105.058941,54.559 L106.668941,43.036 L110.279941,43.036 L110.279941,59.136 L107.887941,59.136 L107.887941,46.946 L107.841941,46.946 L106.001941,59.136 L103.885941,59.136 L102.045941,46.946 L101.999941,46.946 L101.999941,59.136 L99.791941,59.136 Z M112.165941,59.136 L112.165941,43.036 L119.065941,43.036 L119.065941,45.336 L114.695941,45.336 L114.695941,49.591 L118.168941,49.591 L118.168941,51.891 L114.695941,51.891 L114.695941,56.836 L119.065941,56.836 L119.065941,59.136 L112.165941,59.136 Z M120.514941,59.136 L120.514941,43.036 L123.688941,43.036 L126.149941,52.673 L126.195941,52.673 L126.195941,43.036 L128.449941,43.036 L128.449941,59.136 L125.850941,59.136 L122.814941,47.383 L122.768941,47.383 L122.768941,59.136 L120.514941,59.136 Z M133.992941,59.366 C131.508941,59.366 130.151941,57.894 130.151941,55.318 L130.151941,46.854 C130.151941,44.278 131.508941,42.806 133.992941,42.806 C136.476941,42.806 137.833941,44.278 137.833941,46.854 L137.833941,55.318 C137.833941,57.894 136.476941,59.366 133.992941,59.366 Z M133.992941,57.066 C134.797941,57.066 135.303941,56.629 135.303941,55.479 L135.303941,46.693 C135.303941,45.543 134.797941,45.106 133.992941,45.106 C133.187941,45.106 132.681941,45.543 132.681941,46.693 L132.681941,55.479 C132.681941,56.629 133.187941,57.066 133.992941,57.066 Z M139.535941,59.136 L139.535941,43.036 L143.284941,43.036 C145.906941,43.036 147.033941,44.255 147.033941,46.739 L147.033941,47.728 C147.033941,49.384 146.504941,50.442 145.377941,50.902 L145.377941,50.948 C146.642941,51.339 147.056941,52.535 147.056941,54.352 L147.056941,57.181 C147.056941,57.963 147.079941,58.538 147.332941,59.136 L144.756941,59.136 C144.618941,58.722 144.526941,58.469 144.526941,57.158 L144.526941,54.214 C144.526941,52.719 144.089941,52.236 142.939941,52.236 L142.065941,52.236 L142.065941,59.136 L139.535941,59.136 Z M142.065941,49.936 L142.985941,49.936 C143.928941,49.936 144.503941,49.522 144.503941,48.234 L144.503941,46.992 C144.503941,45.842 144.112941,45.336 143.215941,45.336 L142.065941,45.336 L142.065941,49.936 Z M148.804941,59.136 L148.804941,43.036 L155.704941,43.036 L155.704941,45.336 L151.334941,45.336 L151.334941,49.591 L154.807941,49.591 L154.807941,51.891 L151.334941,51.891 L151.334941,56.836 L155.704941,56.836 L155.704941,59.136 L148.804941,59.136 Z M160.442941,59.366 C157.958941,59.366 156.716941,57.894 156.716941,55.318 L156.716941,54.398 L159.108941,54.398 L159.108941,55.502 C159.108941,56.652 159.614941,57.066 160.419941,57.066 C161.224941,57.066 161.730941,56.652 161.730941,55.456 C161.730941,54.122 161.224941,53.271 159.568941,51.822 C157.452941,49.959 156.762941,48.648 156.762941,46.808 C156.762941,44.278 158.073941,42.806 160.534941,42.806 C162.995941,42.806 164.214941,44.278 164.214941,46.854 L164.214941,47.521 L161.822941,47.521 L161.822941,46.693 C161.822941,45.543 161.362941,45.106 160.557941,45.106 C159.752941,45.106 159.292941,45.543 159.292941,46.647 C159.292941,47.82 159.821941,48.671 161.477941,50.12 C163.593941,51.983 164.260941,53.271 164.260941,55.272 C164.260941,57.894 162.926941,59.366 160.442941,59.366 Z M169.389941,59.136 L169.389941,43.036 L173.253941,43.036 C175.783941,43.036 177.025941,44.439 177.025941,47.015 L177.025941,55.157 C177.025941,57.733 175.783941,59.136 173.253941,59.136 L169.389941,59.136 Z M171.919941,56.836 L173.207941,56.836 C174.012941,56.836 174.495941,56.422 174.495941,55.272 L174.495941,46.9 C174.495941,45.75 174.012941,45.336 173.207941,45.336 L171.919941,45.336 L171.919941,56.836 Z M178.727941,59.136 L178.727941,43.036 L185.627941,43.036 L185.627941,45.336 L181.257941,45.336 L181.257941,49.591 L184.730941,49.591 L184.730941,51.891 L181.257941,51.891 L181.257941,56.836 L185.627941,56.836 L185.627941,59.136 L178.727941,59.136 Z M194.298941,59.136 L194.298941,46.854 L191.653941,46.854 L191.653941,45.06 C193.792941,45.06 194.551941,44.6 195.126941,43.036 L196.828941,43.036 L196.828941,59.136 L194.298941,59.136 Z M203.682941,59.366 C201.198941,59.366 199.841941,57.894 199.841941,55.318 L199.841941,46.992 C199.841941,44.278 201.083941,42.806 203.705941,42.806 C206.189941,42.806 207.477941,44.278 207.477941,46.854 L207.477941,47.153 L205.085941,47.153 L205.085941,46.693 C205.085941,45.543 204.579941,45.106 203.774941,45.106 C202.877941,45.106 202.371941,45.543 202.371941,47.084 L202.371941,50.166 L202.417941,50.166 C202.854941,49.246 203.590941,48.763 204.717941,48.763 C206.580941,48.763 207.523941,50.074 207.523941,52.443 L207.523941,55.318 C207.523941,57.894 206.166941,59.366 203.682941,59.366 Z M203.682941,57.066 C204.556941,57.066 204.993941,56.56 204.993941,55.502 L204.993941,52.65 C204.993941,51.569 204.556941,51.063 203.682941,51.063 C202.808941,51.063 202.371941,51.569 202.371941,52.65 L202.371941,55.502 C202.371941,56.56 202.808941,57.066 203.682941,57.066 Z M212.169941,59.136 L214.791941,43.036 L218.218941,43.036 L220.840941,59.136 L218.310941,59.136 L217.850941,55.939 L217.850941,55.985 L214.975941,55.985 L214.515941,59.136 L212.169941,59.136 Z M215.274941,53.8 L217.551941,53.8 L216.424941,45.842 L216.378941,45.842 L215.274941,53.8 Z M224.060941,42.047 L222.841941,41.311 C223.416941,40.023 224.060941,39.379 224.934941,39.379 C225.555941,39.379 225.969941,39.609 226.314941,39.816 C226.590941,39.977 226.820941,40.115 227.096941,40.115 C227.464941,40.115 227.717941,39.862 228.016941,39.218 L229.235941,39.954 C228.660941,41.242 228.016941,41.886 227.142941,41.886 C226.521941,41.886 226.107941,41.656 225.762941,41.449 C225.486941,41.288 225.256941,41.15 224.980941,41.15 C224.612941,41.15 224.359941,41.403 224.060941,42.047 Z M222.059941,59.136 L222.059941,43.036 L225.233941,43.036 L227.694941,52.673 L227.740941,52.673 L227.740941,43.036 L229.994941,43.036 L229.994941,59.136 L227.395941,59.136 L224.359941,47.383 L224.313941,47.383 L224.313941,59.136 L222.059941,59.136 Z M235.537941,59.366 C233.053941,59.366 231.696941,57.894 231.696941,55.318 L231.696941,46.854 C231.696941,44.278 233.053941,42.806 235.537941,42.806 C238.021941,42.806 239.378941,44.278 239.378941,46.854 L239.378941,55.318 C239.378941,57.894 238.021941,59.366 235.537941,59.366 Z M235.537941,57.066 C236.342941,57.066 236.848941,56.629 236.848941,55.479 L236.848941,46.693 C236.848941,45.543 236.342941,45.106 235.537941,45.106 C234.732941,45.106 234.226941,45.543 234.226941,46.693 L234.226941,55.479 C234.226941,56.629 234.732941,57.066 235.537941,57.066 Z M244.369941,59.366 C241.885941,59.366 240.643941,57.894 240.643941,55.318 L240.643941,54.398 L243.035941,54.398 L243.035941,55.502 C243.035941,56.652 243.541941,57.066 244.346941,57.066 C245.151941,57.066 245.657941,56.652 245.657941,55.456 C245.657941,54.122 245.151941,53.271 243.495941,51.822 C241.379941,49.959 240.689941,48.648 240.689941,46.808 C240.689941,44.278 242.000941,42.806 244.461941,42.806 C246.922941,42.806 248.141941,44.278 248.141941,46.854 L248.141941,47.521 L245.749941,47.521 L245.749941,46.693 C245.749941,45.543 245.289941,45.106 244.484941,45.106 C243.679941,45.106 243.219941,45.543 243.219941,46.647 C243.219941,47.82 243.748941,48.671 245.404941,50.12 C247.520941,51.983 248.187941,53.271 248.187941,55.272 C248.187941,57.894 246.853941,59.366 244.369941,59.366 Z" id="menoresde16aos" fill="#000000" fill-rule="nonzero" opacity="0.6"></path>
                <path d="M18.996941,24.136 L18.996941,4.536 L27.396941,4.536 L27.396941,7.336 L22.076941,7.336 L22.076941,12.516 L26.304941,12.516 L26.304941,15.316 L22.076941,15.316 L22.076941,21.336 L27.396941,21.336 L27.396941,24.136 L18.996941,24.136 Z M31.316941,24.136 L28.348941,4.536 L31.456941,4.536 L33.472941,19.74 L33.528941,19.74 L35.544941,4.536 L38.372941,4.536 L35.404941,24.136 L31.316941,24.136 Z M44.308941,24.416 C41.284941,24.416 39.632941,22.624 39.632941,19.488 L39.632941,9.184 C39.632941,6.048 41.284941,4.256 44.308941,4.256 C47.332941,4.256 48.984941,6.048 48.984941,9.184 L48.984941,19.488 C48.984941,22.624 47.332941,24.416 44.308941,24.416 Z M44.308941,21.616 C45.288941,21.616 45.904941,21.084 45.904941,19.684 L45.904941,8.988 C45.904941,7.588 45.288941,7.056 44.308941,7.056 C43.328941,7.056 42.712941,7.588 42.712941,8.988 L42.712941,19.684 C42.712941,21.084 43.328941,21.616 44.308941,21.616 Z M51.056941,24.136 L51.056941,4.536 L54.136941,4.536 L54.136941,21.336 L59.204941,21.336 L59.204941,24.136 L51.056941,24.136 Z M65.168941,24.416 C62.144941,24.416 60.576941,22.624 60.576941,19.488 L60.576941,4.536 L63.656941,4.536 L63.656941,19.712 C63.656941,21.112 64.244941,21.616 65.224941,21.616 C66.204941,21.616 66.792941,21.112 66.792941,19.712 L66.792941,4.536 L69.760941,4.536 L69.760941,19.488 C69.760941,22.624 68.192941,24.416 65.168941,24.416 Z M76.284941,24.416 C73.316941,24.416 71.748941,22.624 71.748941,19.6 L71.748941,9.072 C71.748941,6.048 73.316941,4.256 76.284941,4.256 C79.252941,4.256 80.820941,6.048 80.820941,9.072 L80.820941,11.144 L77.908941,11.144 L77.908941,8.876 C77.908941,7.588 77.292941,7.056 76.368941,7.056 C75.444941,7.056 74.828941,7.588 74.828941,8.876 L74.828941,19.824 C74.828941,21.112 75.444941,21.616 76.368941,21.616 C77.292941,21.616 77.908941,21.112 77.908941,19.824 L77.908941,16.828 L80.820941,16.828 L80.820941,19.6 C80.820941,22.624 79.252941,24.416 76.284941,24.416 Z M82.668941,24.136 L82.668941,4.536 L85.748941,4.536 L85.748941,24.136 L82.668941,24.136 Z M90.816941,3.22 L92.776941,0 L96.136941,0 L93.140941,3.22 L90.816941,3.22 Z M92.496941,24.416 C89.472941,24.416 87.820941,22.624 87.820941,19.488 L87.820941,9.184 C87.820941,6.048 89.472941,4.256 92.496941,4.256 C95.520941,4.256 97.172941,6.048 97.172941,9.184 L97.172941,19.488 C97.172941,22.624 95.520941,24.416 92.496941,24.416 Z M92.496941,21.616 C93.476941,21.616 94.092941,21.084 94.092941,19.684 L94.092941,8.988 C94.092941,7.588 93.476941,7.056 92.496941,7.056 C91.516941,7.056 90.900941,7.588 90.900941,8.988 L90.900941,19.684 C90.900941,21.084 91.516941,21.616 92.496941,21.616 Z M99.244941,24.136 L99.244941,4.536 L103.108941,4.536 L106.104941,16.268 L106.160941,16.268 L106.160941,4.536 L108.904941,4.536 L108.904941,24.136 L105.740941,24.136 L102.044941,9.828 L101.988941,9.828 L101.988941,24.136 L99.244941,24.136 Z M115.680941,24.136 L115.680941,4.536 L120.384941,4.536 C123.464941,4.536 124.976941,6.244 124.976941,9.38 L124.976941,19.292 C124.976941,22.428 123.464941,24.136 120.384941,24.136 L115.680941,24.136 Z M118.760941,21.336 L120.328941,21.336 C121.308941,21.336 121.896941,20.832 121.896941,19.432 L121.896941,9.24 C121.896941,7.84 121.308941,7.336 120.328941,7.336 L118.760941,7.336 L118.760941,21.336 Z M127.048941,24.136 L127.048941,4.536 L135.448941,4.536 L135.448941,7.336 L130.128941,7.336 L130.128941,12.516 L134.356941,12.516 L134.356941,15.316 L130.128941,15.316 L130.128941,21.336 L135.448941,21.336 L135.448941,24.136 L127.048941,24.136 Z M141.692941,24.136 L141.692941,4.536 L144.772941,4.536 L144.772941,21.336 L149.840941,21.336 L149.840941,24.136 L141.692941,24.136 Z M150.512941,24.136 L153.704941,4.536 L157.876941,4.536 L161.068941,24.136 L157.988941,24.136 L157.428941,20.244 L157.428941,20.3 L153.928941,20.3 L153.368941,24.136 L150.512941,24.136 Z M154.292941,17.64 L157.064941,17.64 L155.692941,7.952 L155.636941,7.952 L154.292941,17.64 Z M169.440941,24.136 L169.440941,7.336 L166.220941,7.336 L166.220941,4.536 L175.740941,4.536 L175.740941,7.336 L172.520941,7.336 L172.520941,24.136 L169.440941,24.136 Z M176.412941,24.136 L179.604941,4.536 L183.776941,4.536 L186.968941,24.136 L183.888941,24.136 L183.328941,20.244 L183.328941,20.3 L179.828941,20.3 L179.268941,24.136 L176.412941,24.136 Z M180.192941,17.64 L182.964941,17.64 L181.592941,7.952 L181.536941,7.952 L180.192941,17.64 Z M192.456941,24.416 C189.432941,24.416 187.920941,22.624 187.920941,19.488 L187.920941,18.368 L190.832941,18.368 L190.832941,19.712 C190.832941,21.112 191.448941,21.616 192.428941,21.616 C193.408941,21.616 194.024941,21.112 194.024941,19.656 C194.024941,18.032 193.408941,16.996 191.392941,15.232 C188.816941,12.964 187.976941,11.368 187.976941,9.128 C187.976941,6.048 189.572941,4.256 192.568941,4.256 C195.564941,4.256 197.048941,6.048 197.048941,9.184 L197.048941,9.996 L194.136941,9.996 L194.136941,8.988 C194.136941,7.588 193.576941,7.056 192.596941,7.056 C191.616941,7.056 191.056941,7.588 191.056941,8.932 C191.056941,10.36 191.700941,11.396 193.716941,13.16 C196.292941,15.428 197.104941,16.996 197.104941,19.432 C197.104941,22.624 195.480941,24.416 192.456941,24.416 Z M198.056941,24.136 L201.248941,4.536 L205.420941,4.536 L208.612941,24.136 L205.532941,24.136 L204.972941,20.244 L204.972941,20.3 L201.472941,20.3 L200.912941,24.136 L198.056941,24.136 Z M201.836941,17.64 L204.608941,17.64 L203.236941,7.952 L203.180941,7.952 L201.836941,17.64 Z M214.576941,24.136 L214.576941,4.536 L219.280941,4.536 C222.360941,4.536 223.872941,6.244 223.872941,9.38 L223.872941,19.292 C223.872941,22.428 222.360941,24.136 219.280941,24.136 L214.576941,24.136 Z M217.656941,21.336 L219.224941,21.336 C220.204941,21.336 220.792941,20.832 220.792941,19.432 L220.792941,9.24 C220.792941,7.84 220.204941,7.336 219.224941,7.336 L217.656941,7.336 L217.656941,21.336 Z M225.944941,24.136 L225.944941,4.536 L234.344941,4.536 L234.344941,7.336 L229.024941,7.336 L229.024941,12.516 L233.252941,12.516 L233.252941,15.316 L229.024941,15.316 L229.024941,21.336 L234.344941,21.336 L234.344941,24.136 L225.944941,24.136 Z M240.588941,24.136 L240.588941,4.536 L245.124941,4.536 C248.204941,4.536 249.716941,6.244 249.716941,9.38 L249.716941,11.312 C249.716941,14.448 248.204941,16.156 245.124941,16.156 L243.668941,16.156 L243.668941,24.136 L240.588941,24.136 Z M243.668941,13.356 L245.124941,13.356 C246.104941,13.356 246.636941,12.908 246.636941,11.508 L246.636941,9.184 C246.636941,7.784 246.104941,7.336 245.124941,7.336 L243.668941,7.336 L243.668941,13.356 Z M255.848941,24.416 C252.824941,24.416 251.172941,22.624 251.172941,19.488 L251.172941,9.184 C251.172941,6.048 252.824941,4.256 255.848941,4.256 C258.872941,4.256 260.524941,6.048 260.524941,9.184 L260.524941,19.488 C260.524941,22.624 258.872941,24.416 255.848941,24.416 Z M255.848941,21.616 C256.828941,21.616 257.444941,21.084 257.444941,19.684 L257.444941,8.988 C257.444941,7.588 256.828941,7.056 255.848941,7.056 C254.868941,7.056 254.252941,7.588 254.252941,8.988 L254.252941,19.684 C254.252941,21.084 254.868941,21.616 255.848941,21.616 Z M262.596941,24.136 L262.596941,4.536 L267.244941,4.536 C270.436941,4.536 271.808941,6.02 271.808941,9.044 L271.808941,9.828 C271.808941,11.844 271.192941,13.104 269.820941,13.664 L269.820941,13.72 C271.472941,14.28 272.116941,15.736 272.116941,17.808 L272.116941,19.488 C272.116941,22.512 270.520941,24.136 267.440941,24.136 L262.596941,24.136 Z M265.676941,12.516 L266.880941,12.516 C268.028941,12.516 268.728941,12.012 268.728941,10.444 L268.728941,9.352 C268.728941,7.952 268.252941,7.336 267.160941,7.336 L265.676941,7.336 L265.676941,12.516 Z M265.676941,21.336 L267.440941,21.336 C268.476941,21.336 269.036941,20.86 269.036941,19.404 L269.036941,17.696 C269.036941,15.876 268.448941,15.316 267.048941,15.316 L265.676941,15.316 L265.676941,21.336 Z M273.908941,24.136 L273.908941,4.536 L278.472941,4.536 C281.664941,4.536 283.036941,6.02 283.036941,9.044 L283.036941,10.248 C283.036941,12.264 282.392941,13.552 281.020941,14.112 L281.020941,14.168 C282.560941,14.644 283.064941,16.1 283.064941,18.312 L283.064941,21.756 C283.064941,22.708 283.092941,23.408 283.400941,24.136 L280.264941,24.136 C280.096941,23.632 279.984941,23.324 279.984941,21.728 L279.984941,18.144 C279.984941,16.324 279.452941,15.736 278.052941,15.736 L276.988941,15.736 L276.988941,24.136 L273.908941,24.136 Z M276.988941,12.936 L278.108941,12.936 C279.256941,12.936 279.956941,12.432 279.956941,10.864 L279.956941,9.352 C279.956941,7.952 279.480941,7.336 278.388941,7.336 L276.988941,7.336 L276.988941,12.936 Z M285.192941,24.136 L285.192941,4.536 L293.592941,4.536 L293.592941,7.336 L288.272941,7.336 L288.272941,12.516 L292.500941,12.516 L292.500941,15.316 L288.272941,15.316 L288.272941,21.336 L293.592941,21.336 L293.592941,24.136 L285.192941,24.136 Z M294.740941,24.136 L294.740941,21.392 L300.452941,7.336 L295.020941,7.336 L295.020941,4.536 L303.756941,4.536 L303.756941,7.28 L298.044941,21.336 L303.756941,21.336 L303.756941,24.136 L294.740941,24.136 Z M304.680941,24.136 L307.872941,4.536 L312.044941,4.536 L315.236941,24.136 L312.156941,24.136 L311.596941,20.244 L311.596941,20.3 L308.096941,20.3 L307.536941,24.136 L304.680941,24.136 Z M308.460941,17.64 L311.232941,17.64 L309.860941,7.952 L309.804941,7.952 L308.460941,17.64 Z" id="evolucindelatasadepobreza" fill="#000000" fill-rule="nonzero"></path>
                <path d="M38.791941,90.136 L38.791941,74.036 L42.655941,74.036 C45.185941,74.036 46.427941,75.439 46.427941,78.015 L46.427941,86.157 C46.427941,88.733 45.185941,90.136 42.655941,90.136 L38.791941,90.136 Z M41.321941,87.836 L42.609941,87.836 C43.414941,87.836 43.897941,87.422 43.897941,86.272 L43.897941,77.9 C43.897941,76.75 43.414941,76.336 42.609941,76.336 L41.321941,76.336 L41.321941,87.836 Z M48.129941,90.136 L48.129941,74.036 L55.029941,74.036 L55.029941,76.336 L50.659941,76.336 L50.659941,80.591 L54.132941,80.591 L54.132941,82.891 L50.659941,82.891 L50.659941,87.836 L55.029941,87.836 L55.029941,90.136 L48.129941,90.136 Z M63.700941,90.136 L63.700941,77.854 L61.055941,77.854 L61.055941,76.06 C63.194941,76.06 63.953941,75.6 64.528941,74.036 L66.230941,74.036 L66.230941,90.136 L63.700941,90.136 Z M73.084941,90.366 C70.600941,90.366 69.243941,88.894 69.243941,86.318 L69.243941,77.992 C69.243941,75.278 70.485941,73.806 73.107941,73.806 C75.591941,73.806 76.879941,75.278 76.879941,77.854 L76.879941,78.153 L74.487941,78.153 L74.487941,77.693 C74.487941,76.543 73.981941,76.106 73.176941,76.106 C72.279941,76.106 71.773941,76.543 71.773941,78.084 L71.773941,81.166 L71.819941,81.166 C72.256941,80.246 72.992941,79.763 74.119941,79.763 C75.982941,79.763 76.925941,81.074 76.925941,83.443 L76.925941,86.318 C76.925941,88.894 75.568941,90.366 73.084941,90.366 Z M73.084941,88.066 C73.958941,88.066 74.395941,87.56 74.395941,86.502 L74.395941,83.65 C74.395941,82.569 73.958941,82.063 73.084941,82.063 C72.210941,82.063 71.773941,82.569 71.773941,83.65 L71.773941,86.502 C71.773941,87.56 72.210941,88.066 73.084941,88.066 Z M81.571941,90.136 L84.193941,74.036 L87.620941,74.036 L90.242941,90.136 L87.712941,90.136 L87.252941,86.939 L87.252941,86.985 L84.377941,86.985 L83.917941,90.136 L81.571941,90.136 Z M84.676941,84.8 L86.953941,84.8 L85.826941,76.842 L85.780941,76.842 L84.676941,84.8 Z M95.095941,90.136 L95.095941,88.388 C95.095941,86.088 95.739941,84.685 97.625941,82.707 C99.557941,80.66 100.109941,79.441 100.109941,77.946 C100.109941,76.497 99.603941,76.106 98.798941,76.106 C97.993941,76.106 97.487941,76.543 97.487941,77.693 L97.487941,79.418 L95.095941,79.418 L95.095941,77.854 C95.095941,75.278 96.383941,73.806 98.867941,73.806 C101.351941,73.806 102.639941,75.278 102.639941,77.854 C102.639941,79.763 101.857941,81.465 99.511941,83.949 C97.993941,85.559 97.602941,86.364 97.602941,87.491 L97.602941,87.836 L102.409941,87.836 L102.409941,90.136 L95.095941,90.136 Z M107.906941,90.366 C105.422941,90.366 104.134941,88.894 104.134941,86.318 L104.134941,86.019 L106.526941,86.019 L106.526941,86.479 C106.526941,87.629 107.032941,88.066 107.837941,88.066 C108.734941,88.066 109.240941,87.629 109.240941,86.088 L109.240941,83.006 L109.194941,83.006 C108.757941,83.926 108.021941,84.409 106.894941,84.409 C105.031941,84.409 104.088941,83.098 104.088941,80.729 L104.088941,77.854 C104.088941,75.278 105.445941,73.806 107.929941,73.806 C110.413941,73.806 111.770941,75.278 111.770941,77.854 L111.770941,86.18 C111.770941,88.894 110.528941,90.366 107.906941,90.366 Z M107.929941,82.109 C108.803941,82.109 109.240941,81.603 109.240941,80.522 L109.240941,77.67 C109.240941,76.612 108.803941,76.106 107.929941,76.106 C107.055941,76.106 106.618941,76.612 106.618941,77.67 L106.618941,80.522 C106.618941,81.603 107.055941,82.109 107.929941,82.109 Z M116.554941,90.136 L119.176941,74.036 L122.603941,74.036 L125.225941,90.136 L122.695941,90.136 L122.235941,86.939 L122.235941,86.985 L119.360941,86.985 L118.900941,90.136 L116.554941,90.136 Z M119.659941,84.8 L121.936941,84.8 L120.809941,76.842 L120.763941,76.842 L119.659941,84.8 Z M128.445941,73.047 L127.226941,72.311 C127.801941,71.023 128.445941,70.379 129.319941,70.379 C129.940941,70.379 130.354941,70.609 130.699941,70.816 C130.975941,70.977 131.205941,71.115 131.481941,71.115 C131.849941,71.115 132.102941,70.862 132.401941,70.218 L133.620941,70.954 C133.045941,72.242 132.401941,72.886 131.527941,72.886 C130.906941,72.886 130.492941,72.656 130.147941,72.449 C129.871941,72.288 129.641941,72.15 129.365941,72.15 C128.997941,72.15 128.744941,72.403 128.445941,73.047 Z M126.444941,90.136 L126.444941,74.036 L129.618941,74.036 L132.079941,83.673 L132.125941,83.673 L132.125941,74.036 L134.379941,74.036 L134.379941,90.136 L131.780941,90.136 L128.744941,78.383 L128.698941,78.383 L128.698941,90.136 L126.444941,90.136 Z M139.922941,90.366 C137.438941,90.366 136.081941,88.894 136.081941,86.318 L136.081941,77.854 C136.081941,75.278 137.438941,73.806 139.922941,73.806 C142.406941,73.806 143.763941,75.278 143.763941,77.854 L143.763941,86.318 C143.763941,88.894 142.406941,90.366 139.922941,90.366 Z M139.922941,88.066 C140.727941,88.066 141.233941,87.629 141.233941,86.479 L141.233941,77.693 C141.233941,76.543 140.727941,76.106 139.922941,76.106 C139.117941,76.106 138.611941,76.543 138.611941,77.693 L138.611941,86.479 C138.611941,87.629 139.117941,88.066 139.922941,88.066 Z M148.754941,90.366 C146.270941,90.366 145.028941,88.894 145.028941,86.318 L145.028941,85.398 L147.420941,85.398 L147.420941,86.502 C147.420941,87.652 147.926941,88.066 148.731941,88.066 C149.536941,88.066 150.042941,87.652 150.042941,86.456 C150.042941,85.122 149.536941,84.271 147.880941,82.822 C145.764941,80.959 145.074941,79.648 145.074941,77.808 C145.074941,75.278 146.385941,73.806 148.846941,73.806 C151.307941,73.806 152.526941,75.278 152.526941,77.854 L152.526941,78.521 L150.134941,78.521 L150.134941,77.693 C150.134941,76.543 149.674941,76.106 148.869941,76.106 C148.064941,76.106 147.604941,76.543 147.604941,77.647 C147.604941,78.82 148.133941,79.671 149.789941,81.12 C151.905941,82.983 152.572941,84.271 152.572941,86.272 C152.572941,88.894 151.238941,90.366 148.754941,90.366 Z" id="de16a29aos" fill="#000000" fill-rule="nonzero" opacity="0.6"></path>
                <path d="M193.791941,90.136 L193.791941,74.036 L197.655941,74.036 C200.185941,74.036 201.427941,75.439 201.427941,78.015 L201.427941,86.157 C201.427941,88.733 200.185941,90.136 197.655941,90.136 L193.791941,90.136 Z M196.321941,87.836 L197.609941,87.836 C198.414941,87.836 198.897941,87.422 198.897941,86.272 L198.897941,77.9 C198.897941,76.75 198.414941,76.336 197.609941,76.336 L196.321941,76.336 L196.321941,87.836 Z M203.129941,90.136 L203.129941,74.036 L210.029941,74.036 L210.029941,76.336 L205.659941,76.336 L205.659941,80.591 L209.132941,80.591 L209.132941,82.891 L205.659941,82.891 L205.659941,87.836 L210.029941,87.836 L210.029941,90.136 L203.129941,90.136 Z M218.746941,90.366 C216.262941,90.366 214.974941,88.94 214.974941,86.364 L214.974941,85.053 L217.366941,85.053 L217.366941,86.479 C217.366941,87.629 217.872941,88.066 218.677941,88.066 C219.482941,88.066 219.988941,87.675 219.988941,86.249 L219.988941,84.938 C219.988941,83.443 219.482941,82.891 218.332941,82.891 L217.481941,82.891 L217.481941,80.591 L218.401941,80.591 C219.344941,80.591 219.919941,80.177 219.919941,78.889 L219.919941,77.716 C219.919941,76.566 219.390941,76.106 218.654941,76.106 C217.918941,76.106 217.435941,76.543 217.435941,77.601 L217.435941,78.659 L215.043941,78.659 L215.043941,77.808 C215.043941,75.232 216.331941,73.806 218.746941,73.806 C221.161941,73.806 222.449941,75.209 222.449941,77.785 L222.449941,78.36 C222.449941,80.085 221.897941,81.143 220.655941,81.603 L220.655941,81.649 C222.012941,82.155 222.518941,83.328 222.518941,84.961 L222.518941,86.387 C222.518941,88.963 221.230941,90.366 218.746941,90.366 Z M228.015941,90.366 C225.531941,90.366 224.174941,88.894 224.174941,86.318 L224.174941,77.854 C224.174941,75.278 225.531941,73.806 228.015941,73.806 C230.499941,73.806 231.856941,75.278 231.856941,77.854 L231.856941,86.318 C231.856941,88.894 230.499941,90.366 228.015941,90.366 Z M228.015941,88.066 C228.820941,88.066 229.326941,87.629 229.326941,86.479 L229.326941,77.693 C229.326941,76.543 228.820941,76.106 228.015941,76.106 C227.210941,76.106 226.704941,76.543 226.704941,77.693 L226.704941,86.479 C226.704941,87.629 227.210941,88.066 228.015941,88.066 Z M236.571941,90.136 L239.193941,74.036 L242.620941,74.036 L245.242941,90.136 L242.712941,90.136 L242.252941,86.939 L242.252941,86.985 L239.377941,86.985 L238.917941,90.136 L236.571941,90.136 Z M239.676941,84.8 L241.953941,84.8 L240.826941,76.842 L240.780941,76.842 L239.676941,84.8 Z M253.729941,90.366 C251.245941,90.366 249.957941,88.94 249.957941,86.364 L249.957941,85.053 L252.349941,85.053 L252.349941,86.479 C252.349941,87.629 252.855941,88.066 253.660941,88.066 C254.465941,88.066 254.971941,87.675 254.971941,86.249 L254.971941,84.938 C254.971941,83.443 254.465941,82.891 253.315941,82.891 L252.464941,82.891 L252.464941,80.591 L253.384941,80.591 C254.327941,80.591 254.902941,80.177 254.902941,78.889 L254.902941,77.716 C254.902941,76.566 254.373941,76.106 253.637941,76.106 C252.901941,76.106 252.418941,76.543 252.418941,77.601 L252.418941,78.659 L250.026941,78.659 L250.026941,77.808 C250.026941,75.232 251.314941,73.806 253.729941,73.806 C256.144941,73.806 257.432941,75.209 257.432941,77.785 L257.432941,78.36 C257.432941,80.085 256.880941,81.143 255.638941,81.603 L255.638941,81.649 C256.995941,82.155 257.501941,83.328 257.501941,84.961 L257.501941,86.387 C257.501941,88.963 256.213941,90.366 253.729941,90.366 Z M263.573941,90.136 L263.573941,87.215 L258.743941,87.215 L258.743941,84.915 L263.343941,74.036 L266.103941,74.036 L266.103941,84.915 L267.299941,84.915 L267.299941,87.215 L266.103941,87.215 L266.103941,90.136 L263.573941,90.136 Z M261.043941,84.915 L263.573941,84.915 L263.573941,78.636 L263.527941,78.636 L261.043941,84.915 Z M271.554941,90.136 L274.176941,74.036 L277.603941,74.036 L280.225941,90.136 L277.695941,90.136 L277.235941,86.939 L277.235941,86.985 L274.360941,86.985 L273.900941,90.136 L271.554941,90.136 Z M274.659941,84.8 L276.936941,84.8 L275.809941,76.842 L275.763941,76.842 L274.659941,84.8 Z M283.445941,73.047 L282.226941,72.311 C282.801941,71.023 283.445941,70.379 284.319941,70.379 C284.940941,70.379 285.354941,70.609 285.699941,70.816 C285.975941,70.977 286.205941,71.115 286.481941,71.115 C286.849941,71.115 287.102941,70.862 287.401941,70.218 L288.620941,70.954 C288.045941,72.242 287.401941,72.886 286.527941,72.886 C285.906941,72.886 285.492941,72.656 285.147941,72.449 C284.871941,72.288 284.641941,72.15 284.365941,72.15 C283.997941,72.15 283.744941,72.403 283.445941,73.047 Z M281.444941,90.136 L281.444941,74.036 L284.618941,74.036 L287.079941,83.673 L287.125941,83.673 L287.125941,74.036 L289.379941,74.036 L289.379941,90.136 L286.780941,90.136 L283.744941,78.383 L283.698941,78.383 L283.698941,90.136 L281.444941,90.136 Z M294.922941,90.366 C292.438941,90.366 291.081941,88.894 291.081941,86.318 L291.081941,77.854 C291.081941,75.278 292.438941,73.806 294.922941,73.806 C297.406941,73.806 298.763941,75.278 298.763941,77.854 L298.763941,86.318 C298.763941,88.894 297.406941,90.366 294.922941,90.366 Z M294.922941,88.066 C295.727941,88.066 296.233941,87.629 296.233941,86.479 L296.233941,77.693 C296.233941,76.543 295.727941,76.106 294.922941,76.106 C294.117941,76.106 293.611941,76.543 293.611941,77.693 L293.611941,86.479 C293.611941,87.629 294.117941,88.066 294.922941,88.066 Z M303.754941,90.366 C301.270941,90.366 300.028941,88.894 300.028941,86.318 L300.028941,85.398 L302.420941,85.398 L302.420941,86.502 C302.420941,87.652 302.926941,88.066 303.731941,88.066 C304.536941,88.066 305.042941,87.652 305.042941,86.456 C305.042941,85.122 304.536941,84.271 302.880941,82.822 C300.764941,80.959 300.074941,79.648 300.074941,77.808 C300.074941,75.278 301.385941,73.806 303.846941,73.806 C306.307941,73.806 307.526941,75.278 307.526941,77.854 L307.526941,78.521 L305.134941,78.521 L305.134941,77.693 C305.134941,76.543 304.674941,76.106 303.869941,76.106 C303.064941,76.106 302.604941,76.543 302.604941,77.647 C302.604941,78.82 303.133941,79.671 304.789941,81.12 C306.905941,82.983 307.572941,84.271 307.572941,86.272 C307.572941,88.894 306.238941,90.366 303.754941,90.366 Z" id="de30a34aos" fill="#000000" fill-rule="nonzero" opacity="0.6"></path>
                <path d="M267.545941,626.136 L267.545941,614.236 L272.492941,614.236 L272.492941,615.936 L269.415941,615.936 L269.415941,619.251 L271.829941,619.251 L271.829941,620.951 L269.415941,620.951 L269.415941,626.136 L267.545941,626.136 Z M276.113941,626.306 C274.277941,626.306 273.325941,625.218 273.325941,623.314 L273.325941,614.236 L275.195941,614.236 L275.195941,623.45 C275.195941,624.3 275.552941,624.606 276.147941,624.606 C276.742941,624.606 277.099941,624.3 277.099941,623.45 L277.099941,614.236 L278.901941,614.236 L278.901941,623.314 C278.901941,625.218 277.949941,626.306 276.113941,626.306 Z M280.227941,626.136 L280.227941,614.236 L285.327941,614.236 L285.327941,615.936 L282.097941,615.936 L282.097941,619.081 L284.664941,619.081 L284.664941,620.781 L282.097941,620.781 L282.097941,624.436 L285.327941,624.436 L285.327941,626.136 L280.227941,626.136 Z M286.398941,626.136 L286.398941,614.236 L288.744941,614.236 L290.563941,621.359 L290.597941,621.359 L290.597941,614.236 L292.263941,614.236 L292.263941,626.136 L290.342941,626.136 L288.098941,617.449 L288.064941,617.449 L288.064941,626.136 L286.398941,626.136 Z M295.119941,626.136 L295.119941,615.936 L293.164941,615.936 L293.164941,614.236 L298.944941,614.236 L298.944941,615.936 L296.989941,615.936 L296.989941,626.136 L295.119941,626.136 Z M299.845941,626.136 L299.845941,614.236 L304.945941,614.236 L304.945941,615.936 L301.715941,615.936 L301.715941,619.081 L304.282941,619.081 L304.282941,620.781 L301.715941,620.781 L301.715941,624.436 L304.945941,624.436 L304.945941,626.136 L299.845941,626.136 Z M306.016941,619.659 L306.016941,617.857 L307.818941,617.857 L307.818941,619.659 L306.016941,619.659 Z M306.016941,626.136 L306.016941,624.334 L307.818941,624.334 L307.818941,626.136 L306.016941,626.136 Z M314.567941,626.306 C312.765941,626.306 311.813941,625.218 311.813941,623.382 L311.813941,616.99 C311.813941,615.154 312.765941,614.066 314.567941,614.066 C316.369941,614.066 317.321941,615.154 317.321941,616.99 L317.321941,618.248 L315.553941,618.248 L315.553941,616.871 C315.553941,616.089 315.179941,615.766 314.618941,615.766 C314.057941,615.766 313.683941,616.089 313.683941,616.871 L313.683941,623.518 C313.683941,624.3 314.057941,624.606 314.618941,624.606 C315.179941,624.606 315.553941,624.3 315.553941,623.518 L315.553941,621.699 L317.321941,621.699 L317.321941,623.382 C317.321941,625.218 316.369941,626.306 314.567941,626.306 Z M318.443941,626.136 L318.443941,614.236 L320.313941,614.236 L320.313941,626.136 L318.443941,626.136 Z M324.138941,626.306 C322.302941,626.306 321.384941,625.218 321.384941,623.314 L321.384941,622.634 L323.152941,622.634 L323.152941,623.45 C323.152941,624.3 323.526941,624.606 324.121941,624.606 C324.716941,624.606 325.090941,624.3 325.090941,623.416 C325.090941,622.43 324.716941,621.801 323.492941,620.73 C321.928941,619.353 321.418941,618.384 321.418941,617.024 C321.418941,615.154 322.387941,614.066 324.206941,614.066 C326.025941,614.066 326.926941,615.154 326.926941,617.058 L326.926941,617.551 L325.158941,617.551 L325.158941,616.939 C325.158941,616.089 324.818941,615.766 324.223941,615.766 C323.628941,615.766 323.288941,616.089 323.288941,616.905 C323.288941,617.772 323.679941,618.401 324.903941,619.472 C326.467941,620.849 326.960941,621.801 326.960941,623.28 C326.960941,625.218 325.974941,626.306 324.138941,626.306 Z" id="fuente:cis" fill="#9C9C9C" fill-rule="nonzero"></path>
                <circle id="Oval-Copy-5" fill="#CECDCD" cx="83.848941" cy="52.136" r="8"></circle>
                <circle id="Oval-Copy-6" fill="#F34949" cx="22.848941" cy="82.136" r="8"></circle>
                <circle id="Oval-Copy-7" fill="#3B3B3B" cx="177.848941" cy="82.136" r="8"></circle>
            </g>
        </g>
    </g>
</svg>