<?xml version="1.0" encoding="UTF-8"?>
<svg width="428px" height="671px" viewBox="0 0 428 671" version="1.1" xmlns="http://www.w3.org/2000/svg" xmlns:xlink="http://www.w3.org/1999/xlink">
    <!-- Generator: Sketch 53.1 (72631) - https://sketchapp.com -->
    <title>Group 7</title>
    <desc>Created with Sketch.</desc>
    <g id="Welcome" stroke="none" stroke-width="1" fill="none" fill-rule="evenodd">
        <g id="Desktop-HD-Copy-10" transform="translate(-506.000000, -25733.000000)">
            <g id="Group-7" transform="translate(506.000000, 25732.000000)">
                <circle id="Oval" fill="#76AB1F" cx="151" cy="130" r="69"></circle>
                <circle id="Oval-Copy-8" fill="#8B1253" cx="152" cy="277" r="48"></circle>
                <ellipse id="Oval-Copy-9" fill="#FF9F00" cx="151" cy="394.5" rx="40" ry="39.5"></ellipse>
                <circle id="Oval-Copy-10" fill="#225283" cx="151.5" cy="499.5" r="35.5"></circle>
                <circle id="Oval-Copy-11" fill="#F34949" cx="151" cy="596" r="30"></circle>
                <path d="M137.304,139 L134.336,119.4 L137.444,119.4 L139.46,134.604 L139.516,134.604 L141.532,119.4 L144.36,119.4 L141.392,139 L137.304,139 Z M150.296,139.28 C147.272,139.28 145.62,137.488 145.62,134.352 L145.62,124.048 C145.62,120.912 147.272,119.12 150.296,119.12 C153.32,119.12 154.972,120.912 154.972,124.048 L154.972,134.352 C154.972,137.488 153.32,139.28 150.296,139.28 Z M150.296,136.48 C151.276,136.48 151.892,135.948 151.892,134.548 L151.892,123.852 C151.892,122.452 151.276,121.92 150.296,121.92 C149.316,121.92 148.7,122.452 148.7,123.852 L148.7,134.548 C148.7,135.948 149.316,136.48 150.296,136.48 Z M156.204,139 L159.76,128.976 L156.372,119.4 L159.62,119.4 L161.692,125.728 L161.748,125.728 L163.876,119.4 L166.788,119.4 L163.4,128.976 L166.956,139 L163.708,139 L161.468,132.168 L161.412,132.168 L159.116,139 L156.204,139 Z" id="vox" fill="#FFFFFF" fill-rule="nonzero"></path>
                <path d="M241.599,129 L241.599,125.884 C241.599,121.784 242.747,119.283 246.109,115.757 C249.553,112.108 250.537,109.935 250.537,107.27 C250.537,104.687 249.635,103.99 248.2,103.99 C246.765,103.99 245.863,104.769 245.863,106.819 L245.863,109.894 L241.599,109.894 L241.599,107.106 C241.599,102.514 243.895,99.89 248.323,99.89 C252.751,99.89 255.047,102.514 255.047,107.106 C255.047,110.509 253.653,113.543 249.471,117.971 C246.765,120.841 246.068,122.276 246.068,124.285 L246.068,124.9 L254.637,124.9 L254.637,129 L241.599,129 Z M257.999,129 L257.999,125.884 C257.999,121.784 259.147,119.283 262.509,115.757 C265.953,112.108 266.937,109.935 266.937,107.27 C266.937,104.687 266.035,103.99 264.6,103.99 C263.165,103.99 262.263,104.769 262.263,106.819 L262.263,109.894 L257.999,109.894 L257.999,107.106 C257.999,102.514 260.295,99.89 264.723,99.89 C269.151,99.89 271.447,102.514 271.447,107.106 C271.447,110.509 270.053,113.543 265.871,117.971 C263.165,120.841 262.468,122.276 262.468,124.285 L262.468,124.9 L271.037,124.9 L271.037,129 L257.999,129 Z M281,129.41 C276.449,129.41 273.948,126.909 273.948,122.317 L273.948,119.775 C273.948,117.028 274.768,115.019 276.9,113.912 L276.9,113.83 C275.014,112.805 274.112,111.001 274.112,108.172 L274.112,106.983 C274.112,102.391 276.613,99.89 281,99.89 C285.387,99.89 287.888,102.391 287.888,106.983 L287.888,108.172 C287.888,111.001 286.945,112.805 285.1,113.83 L285.1,113.912 C287.232,115.019 288.052,117.028 288.052,119.775 L288.052,122.317 C288.052,126.909 285.551,129.41 281,129.41 Z M281,111.985 C282.558,111.985 283.378,111.001 283.378,109.115 L283.378,106.86 C283.378,104.974 282.558,103.99 281,103.99 C279.442,103.99 278.622,104.974 278.622,106.86 L278.622,109.115 C278.622,111.001 279.442,111.985 281,111.985 Z M281,125.31 C282.681,125.31 283.542,124.244 283.542,122.071 L283.542,119.324 C283.542,117.151 282.681,116.085 281,116.085 C279.319,116.085 278.458,117.151 278.458,119.324 L278.458,122.071 C278.458,124.244 279.319,125.31 281,125.31 Z M290.881,129 L290.881,124.654 L295.227,124.654 L295.227,129 L290.881,129 Z M305.108,129.41 C300.68,129.41 298.261,126.786 298.261,122.194 L298.261,107.106 C298.261,102.514 300.68,99.89 305.108,99.89 C309.536,99.89 311.955,102.514 311.955,107.106 L311.955,122.194 C311.955,126.786 309.536,129.41 305.108,129.41 Z M305.108,125.31 C306.543,125.31 307.445,124.531 307.445,122.481 L307.445,106.819 C307.445,104.769 306.543,103.99 305.108,103.99 C303.673,103.99 302.771,104.769 302.771,106.819 L302.771,122.481 C302.771,124.531 303.673,125.31 305.108,125.31 Z M321.508,129.41 C317.08,129.41 314.661,126.786 314.661,122.194 L314.661,107.106 C314.661,102.514 317.08,99.89 321.508,99.89 C325.936,99.89 328.355,102.514 328.355,107.106 L328.355,122.194 C328.355,126.786 325.936,129.41 321.508,129.41 Z M321.508,125.31 C322.943,125.31 323.845,124.531 323.845,122.481 L323.845,106.819 C323.845,104.769 322.943,103.99 321.508,103.99 C320.073,103.99 319.171,104.769 319.171,106.819 L319.171,122.481 C319.171,124.531 320.073,125.31 321.508,125.31 Z M337.908,129.41 C333.48,129.41 331.061,126.786 331.061,122.194 L331.061,107.106 C331.061,102.514 333.48,99.89 337.908,99.89 C342.336,99.89 344.755,102.514 344.755,107.106 L344.755,122.194 C344.755,126.786 342.336,129.41 337.908,129.41 Z M337.908,125.31 C339.343,125.31 340.245,124.531 340.245,122.481 L340.245,106.819 C340.245,104.769 339.343,103.99 337.908,103.99 C336.473,103.99 335.571,104.769 335.571,106.819 L335.571,122.481 C335.571,124.531 336.473,125.31 337.908,125.31 Z" id="228.000" fill="#000000" fill-rule="nonzero"></path>
                <path d="M245.152,160.28 C242.128,160.28 240.616,158.488 240.616,155.352 L240.616,154.232 L243.528,154.232 L243.528,155.576 C243.528,156.976 244.144,157.48 245.124,157.48 C246.104,157.48 246.72,156.976 246.72,155.52 C246.72,153.896 246.104,152.86 244.088,151.096 C241.512,148.828 240.672,147.232 240.672,144.992 C240.672,141.912 242.268,140.12 245.264,140.12 C248.26,140.12 249.744,141.912 249.744,145.048 L249.744,145.86 L246.832,145.86 L246.832,144.852 C246.832,143.452 246.272,142.92 245.292,142.92 C244.312,142.92 243.752,143.452 243.752,144.796 C243.752,146.224 244.396,147.26 246.412,149.024 C248.988,151.292 249.8,152.86 249.8,155.296 C249.8,158.488 248.176,160.28 245.152,160.28 Z M251.564,160 L251.564,140.4 L259.964,140.4 L259.964,143.2 L254.644,143.2 L254.644,148.38 L258.872,148.38 L258.872,151.18 L254.644,151.18 L254.644,157.2 L259.964,157.2 L259.964,160 L251.564,160 Z M266.096,160.28 C263.072,160.28 261.504,158.488 261.504,155.352 L261.504,145.048 C261.504,141.912 263.072,140.12 266.096,140.12 C269.12,140.12 270.688,141.912 270.688,145.048 L270.688,146.728 L267.776,146.728 L267.776,144.852 C267.776,143.452 267.16,142.92 266.18,142.92 C265.2,142.92 264.584,143.452 264.584,144.852 L264.584,155.576 C264.584,156.976 265.2,157.48 266.18,157.48 C267.16,157.48 267.776,156.976 267.776,155.576 L267.776,151.74 L266.236,151.74 L266.236,148.94 L270.688,148.94 L270.688,155.352 C270.688,158.488 269.12,160.28 266.096,160.28 Z M277.156,160.28 C274.132,160.28 272.564,158.488 272.564,155.352 L272.564,140.4 L275.644,140.4 L275.644,155.576 C275.644,156.976 276.232,157.48 277.212,157.48 C278.192,157.48 278.78,156.976 278.78,155.576 L278.78,140.4 L281.748,140.4 L281.748,155.352 C281.748,158.488 280.18,160.28 277.156,160.28 Z M283.932,160 L283.932,140.4 L287.012,140.4 L287.012,160 L283.932,160 Z M289.308,160 L289.308,140.4 L294.012,140.4 C297.092,140.4 298.604,142.108 298.604,145.244 L298.604,155.156 C298.604,158.292 297.092,160 294.012,160 L289.308,160 Z M292.388,157.2 L293.956,157.2 C294.936,157.2 295.524,156.696 295.524,155.296 L295.524,145.104 C295.524,143.704 294.936,143.2 293.956,143.2 L292.388,143.2 L292.388,157.2 Z M305.128,160.28 C302.104,160.28 300.452,158.488 300.452,155.352 L300.452,145.048 C300.452,141.912 302.104,140.12 305.128,140.12 C308.152,140.12 309.804,141.912 309.804,145.048 L309.804,155.352 C309.804,158.488 308.152,160.28 305.128,160.28 Z M305.128,157.48 C306.108,157.48 306.724,156.948 306.724,155.548 L306.724,144.852 C306.724,143.452 306.108,142.92 305.128,142.92 C304.148,142.92 303.532,143.452 303.532,144.852 L303.532,155.548 C303.532,156.948 304.148,157.48 305.128,157.48 Z M311.876,160 L311.876,140.4 L316.44,140.4 C319.632,140.4 321.004,141.884 321.004,144.908 L321.004,146.112 C321.004,148.128 320.36,149.416 318.988,149.976 L318.988,150.032 C320.528,150.508 321.032,151.964 321.032,154.176 L321.032,157.62 C321.032,158.572 321.06,159.272 321.368,160 L318.232,160 C318.064,159.496 317.952,159.188 317.952,157.592 L317.952,154.008 C317.952,152.188 317.42,151.6 316.02,151.6 L314.956,151.6 L314.956,160 L311.876,160 Z M314.956,148.8 L316.076,148.8 C317.224,148.8 317.924,148.296 317.924,146.728 L317.924,145.216 C317.924,143.816 317.448,143.2 316.356,143.2 L314.956,143.2 L314.956,148.8 Z M323.16,160 L323.16,140.4 L331.56,140.4 L331.56,143.2 L326.24,143.2 L326.24,148.38 L330.468,148.38 L330.468,151.18 L326.24,151.18 L326.24,157.2 L331.56,157.2 L331.56,160 L323.16,160 Z M337.328,160.28 C334.304,160.28 332.792,158.488 332.792,155.352 L332.792,154.232 L335.704,154.232 L335.704,155.576 C335.704,156.976 336.32,157.48 337.3,157.48 C338.28,157.48 338.896,156.976 338.896,155.52 C338.896,153.896 338.28,152.86 336.264,151.096 C333.688,148.828 332.848,147.232 332.848,144.992 C332.848,141.912 334.444,140.12 337.44,140.12 C340.436,140.12 341.92,141.912 341.92,145.048 L341.92,145.86 L339.008,145.86 L339.008,144.852 C339.008,143.452 338.448,142.92 337.468,142.92 C336.488,142.92 335.928,143.452 335.928,144.796 C335.928,146.224 336.572,147.26 338.588,149.024 C341.164,151.292 341.976,152.86 341.976,155.296 C341.976,158.488 340.352,160.28 337.328,160.28 Z" id="seguidores" fill="#797979" fill-rule="nonzero"></path>
                <path d="M247.995,277 L247.995,255.106 L243.28,255.106 L243.28,251.908 C247.093,251.908 248.446,251.088 249.471,248.3 L252.505,248.3 L252.505,277 L247.995,277 Z M264.395,277 L264.395,255.106 L259.68,255.106 L259.68,251.908 C263.493,251.908 264.846,251.088 265.871,248.3 L268.905,248.3 L268.905,277 L264.395,277 Z M281,277.41 C276.572,277.41 274.153,274.786 274.153,270.194 L274.153,255.106 C274.153,250.514 276.572,247.89 281,247.89 C285.428,247.89 287.847,250.514 287.847,255.106 L287.847,270.194 C287.847,274.786 285.428,277.41 281,277.41 Z M281,273.31 C282.435,273.31 283.337,272.531 283.337,270.481 L283.337,254.819 C283.337,252.769 282.435,251.99 281,251.99 C279.565,251.99 278.663,252.769 278.663,254.819 L278.663,270.481 C278.663,272.531 279.565,273.31 281,273.31 Z M290.881,277 L290.881,272.654 L295.227,272.654 L295.227,277 L290.881,277 Z M305.108,277.41 C300.68,277.41 298.261,274.786 298.261,270.194 L298.261,255.106 C298.261,250.514 300.68,247.89 305.108,247.89 C309.536,247.89 311.955,250.514 311.955,255.106 L311.955,270.194 C311.955,274.786 309.536,277.41 305.108,277.41 Z M305.108,273.31 C306.543,273.31 307.445,272.531 307.445,270.481 L307.445,254.819 C307.445,252.769 306.543,251.99 305.108,251.99 C303.673,251.99 302.771,252.769 302.771,254.819 L302.771,270.481 C302.771,272.531 303.673,273.31 305.108,273.31 Z M321.508,277.41 C317.08,277.41 314.661,274.786 314.661,270.194 L314.661,255.106 C314.661,250.514 317.08,247.89 321.508,247.89 C325.936,247.89 328.355,250.514 328.355,255.106 L328.355,270.194 C328.355,274.786 325.936,277.41 321.508,277.41 Z M321.508,273.31 C322.943,273.31 323.845,272.531 323.845,270.481 L323.845,254.819 C323.845,252.769 322.943,251.99 321.508,251.99 C320.073,251.99 319.171,252.769 319.171,254.819 L319.171,270.481 C319.171,272.531 320.073,273.31 321.508,273.31 Z M337.908,277.41 C333.48,277.41 331.061,274.786 331.061,270.194 L331.061,255.106 C331.061,250.514 333.48,247.89 337.908,247.89 C342.336,247.89 344.755,250.514 344.755,255.106 L344.755,270.194 C344.755,274.786 342.336,277.41 337.908,277.41 Z M337.908,273.31 C339.343,273.31 340.245,272.531 340.245,270.481 L340.245,254.819 C340.245,252.769 339.343,251.99 337.908,251.99 C336.473,251.99 335.571,252.769 335.571,254.819 L335.571,270.481 C335.571,272.531 336.473,273.31 337.908,273.31 Z" id="110.000" fill="#000000" fill-rule="nonzero"></path>
                <path d="M243.28,396 L250.496,371.4 L241.394,371.4 L241.394,367.3 L254.924,367.3 L254.924,371.236 L247.872,396 L243.28,396 Z M264.682,396.41 C260.254,396.41 257.958,393.786 257.958,389.194 L257.958,386.939 L262.222,386.939 L262.222,389.522 C262.222,391.572 263.124,392.31 264.559,392.31 C265.994,392.31 266.896,391.572 266.896,389.522 L266.896,383.085 C266.896,381.035 265.994,380.256 264.559,380.256 C263.124,380.256 262.222,381.035 262.222,383.085 L262.222,383.331 L257.958,383.331 L258.778,367.3 L270.668,367.3 L270.668,371.4 L262.796,371.4 L262.427,378.247 L262.509,378.247 C263.329,376.894 264.6,376.156 266.404,376.156 C269.725,376.156 271.406,378.493 271.406,382.716 L271.406,389.194 C271.406,393.786 269.11,396.41 264.682,396.41 Z M274.481,396 L274.481,391.654 L278.827,391.654 L278.827,396 L274.481,396 Z M288.708,396.41 C284.28,396.41 281.861,393.786 281.861,389.194 L281.861,374.106 C281.861,369.514 284.28,366.89 288.708,366.89 C293.136,366.89 295.555,369.514 295.555,374.106 L295.555,389.194 C295.555,393.786 293.136,396.41 288.708,396.41 Z M288.708,392.31 C290.143,392.31 291.045,391.531 291.045,389.481 L291.045,373.819 C291.045,371.769 290.143,370.99 288.708,370.99 C287.273,370.99 286.371,371.769 286.371,373.819 L286.371,389.481 C286.371,391.531 287.273,392.31 288.708,392.31 Z M305.108,396.41 C300.68,396.41 298.261,393.786 298.261,389.194 L298.261,374.106 C298.261,369.514 300.68,366.89 305.108,366.89 C309.536,366.89 311.955,369.514 311.955,374.106 L311.955,389.194 C311.955,393.786 309.536,396.41 305.108,396.41 Z M305.108,392.31 C306.543,392.31 307.445,391.531 307.445,389.481 L307.445,373.819 C307.445,371.769 306.543,370.99 305.108,370.99 C303.673,370.99 302.771,371.769 302.771,373.819 L302.771,389.481 C302.771,391.531 303.673,392.31 305.108,392.31 Z M321.508,396.41 C317.08,396.41 314.661,393.786 314.661,389.194 L314.661,374.106 C314.661,369.514 317.08,366.89 321.508,366.89 C325.936,366.89 328.355,369.514 328.355,374.106 L328.355,389.194 C328.355,393.786 325.936,396.41 321.508,396.41 Z M321.508,392.31 C322.943,392.31 323.845,391.531 323.845,389.481 L323.845,373.819 C323.845,371.769 322.943,370.99 321.508,370.99 C320.073,370.99 319.171,371.769 319.171,373.819 L319.171,389.481 C319.171,391.531 320.073,392.31 321.508,392.31 Z" id="75.000" fill="#000000" fill-rule="nonzero"></path>
                <path d="M248.282,501.41 C243.854,501.41 241.558,498.786 241.558,494.194 L241.558,491.939 L245.822,491.939 L245.822,494.522 C245.822,496.572 246.724,497.31 248.159,497.31 C249.594,497.31 250.496,496.572 250.496,494.522 L250.496,488.085 C250.496,486.035 249.594,485.256 248.159,485.256 C246.724,485.256 245.822,486.035 245.822,488.085 L245.822,488.331 L241.558,488.331 L242.378,472.3 L254.268,472.3 L254.268,476.4 L246.396,476.4 L246.027,483.247 L246.109,483.247 C246.929,481.894 248.2,481.156 250.004,481.156 C253.325,481.156 255.006,483.493 255.006,487.716 L255.006,494.194 C255.006,498.786 252.71,501.41 248.282,501.41 Z M264.6,501.41 C260.049,501.41 257.548,498.909 257.548,494.317 L257.548,491.775 C257.548,489.028 258.368,487.019 260.5,485.912 L260.5,485.83 C258.614,484.805 257.712,483.001 257.712,480.172 L257.712,478.983 C257.712,474.391 260.213,471.89 264.6,471.89 C268.987,471.89 271.488,474.391 271.488,478.983 L271.488,480.172 C271.488,483.001 270.545,484.805 268.7,485.83 L268.7,485.912 C270.832,487.019 271.652,489.028 271.652,491.775 L271.652,494.317 C271.652,498.909 269.151,501.41 264.6,501.41 Z M264.6,483.985 C266.158,483.985 266.978,483.001 266.978,481.115 L266.978,478.86 C266.978,476.974 266.158,475.99 264.6,475.99 C263.042,475.99 262.222,476.974 262.222,478.86 L262.222,481.115 C262.222,483.001 263.042,483.985 264.6,483.985 Z M264.6,497.31 C266.281,497.31 267.142,496.244 267.142,494.071 L267.142,491.324 C267.142,489.151 266.281,488.085 264.6,488.085 C262.919,488.085 262.058,489.151 262.058,491.324 L262.058,494.071 C262.058,496.244 262.919,497.31 264.6,497.31 Z M274.481,501 L274.481,496.654 L278.827,496.654 L278.827,501 L274.481,501 Z M288.544,501.41 C284.116,501.41 281.82,498.786 281.82,494.194 L281.82,493.661 L286.084,493.661 L286.084,494.481 C286.084,496.531 286.986,497.31 288.421,497.31 C290.02,497.31 290.922,496.531 290.922,493.784 L290.922,488.29 L290.84,488.29 C290.061,489.93 288.749,490.791 286.74,490.791 C283.419,490.791 281.738,488.454 281.738,484.231 L281.738,479.106 C281.738,474.514 284.157,471.89 288.585,471.89 C293.013,471.89 295.432,474.514 295.432,479.106 L295.432,493.948 C295.432,498.786 293.218,501.41 288.544,501.41 Z M288.585,486.691 C290.143,486.691 290.922,485.789 290.922,483.862 L290.922,478.778 C290.922,476.892 290.143,475.99 288.585,475.99 C287.027,475.99 286.248,476.892 286.248,478.778 L286.248,483.862 C286.248,485.789 287.027,486.691 288.585,486.691 Z M305.108,501.41 C300.68,501.41 298.261,498.786 298.261,494.194 L298.261,479.106 C298.261,474.514 300.68,471.89 305.108,471.89 C309.536,471.89 311.955,474.514 311.955,479.106 L311.955,494.194 C311.955,498.786 309.536,501.41 305.108,501.41 Z M305.108,497.31 C306.543,497.31 307.445,496.531 307.445,494.481 L307.445,478.819 C307.445,476.769 306.543,475.99 305.108,475.99 C303.673,475.99 302.771,476.769 302.771,478.819 L302.771,494.481 C302.771,496.531 303.673,497.31 305.108,497.31 Z M321.508,501.41 C317.08,501.41 314.661,498.786 314.661,494.194 L314.661,479.106 C314.661,474.514 317.08,471.89 321.508,471.89 C325.936,471.89 328.355,474.514 328.355,479.106 L328.355,494.194 C328.355,498.786 325.936,501.41 321.508,501.41 Z M321.508,497.31 C322.943,497.31 323.845,496.531 323.845,494.481 L323.845,478.819 C323.845,476.769 322.943,475.99 321.508,475.99 C320.073,475.99 319.171,476.769 319.171,478.819 L319.171,494.481 C319.171,496.531 320.073,497.31 321.508,497.31 Z" id="58.900" fill="#000000" fill-rule="nonzero"></path>
                <path d="M249.225,597 L249.225,591.793 L240.615,591.793 L240.615,587.693 L248.815,568.3 L253.735,568.3 L253.735,587.693 L255.867,587.693 L255.867,591.793 L253.735,591.793 L253.735,597 L249.225,597 Z M244.715,587.693 L249.225,587.693 L249.225,576.5 L249.143,576.5 L244.715,587.693 Z M264.477,597.41 C260.049,597.41 257.753,594.868 257.753,590.276 L257.753,587.939 L262.017,587.939 L262.017,590.481 C262.017,592.531 262.919,593.31 264.354,593.31 C265.789,593.31 266.691,592.613 266.691,590.071 L266.691,587.734 C266.691,585.069 265.789,584.085 263.739,584.085 L262.222,584.085 L262.222,579.985 L263.862,579.985 C265.543,579.985 266.568,579.247 266.568,576.951 L266.568,574.86 C266.568,572.81 265.625,571.99 264.313,571.99 C263.001,571.99 262.14,572.769 262.14,574.655 L262.14,576.541 L257.876,576.541 L257.876,575.024 C257.876,570.432 260.172,567.89 264.477,567.89 C268.782,567.89 271.078,570.391 271.078,574.983 L271.078,576.008 C271.078,579.083 270.094,580.969 267.88,581.789 L267.88,581.871 C270.299,582.773 271.201,584.864 271.201,587.775 L271.201,590.317 C271.201,594.909 268.905,597.41 264.477,597.41 Z M274.481,597 L274.481,592.654 L278.827,592.654 L278.827,597 L274.481,597 Z M288.708,597.41 C284.28,597.41 281.861,594.786 281.861,590.194 L281.861,575.106 C281.861,570.514 284.28,567.89 288.708,567.89 C293.136,567.89 295.555,570.514 295.555,575.106 L295.555,590.194 C295.555,594.786 293.136,597.41 288.708,597.41 Z M288.708,593.31 C290.143,593.31 291.045,592.531 291.045,590.481 L291.045,574.819 C291.045,572.769 290.143,571.99 288.708,571.99 C287.273,571.99 286.371,572.769 286.371,574.819 L286.371,590.481 C286.371,592.531 287.273,593.31 288.708,593.31 Z M305.108,597.41 C300.68,597.41 298.261,594.786 298.261,590.194 L298.261,575.106 C298.261,570.514 300.68,567.89 305.108,567.89 C309.536,567.89 311.955,570.514 311.955,575.106 L311.955,590.194 C311.955,594.786 309.536,597.41 305.108,597.41 Z M305.108,593.31 C306.543,593.31 307.445,592.531 307.445,590.481 L307.445,574.819 C307.445,572.769 306.543,571.99 305.108,571.99 C303.673,571.99 302.771,572.769 302.771,574.819 L302.771,590.481 C302.771,592.531 303.673,593.31 305.108,593.31 Z M321.508,597.41 C317.08,597.41 314.661,594.786 314.661,590.194 L314.661,575.106 C314.661,570.514 317.08,567.89 321.508,567.89 C325.936,567.89 328.355,570.514 328.355,575.106 L328.355,590.194 C328.355,594.786 325.936,597.41 321.508,597.41 Z M321.508,593.31 C322.943,593.31 323.845,592.531 323.845,590.481 L323.845,574.819 C323.845,572.769 322.943,571.99 321.508,571.99 C320.073,571.99 319.171,572.769 319.171,574.819 L319.171,590.481 C319.171,592.531 320.073,593.31 321.508,593.31 Z" id="43.000" fill="#000000" fill-rule="nonzero"></path>
                <path d="M245.152,308.28 C242.128,308.28 240.616,306.488 240.616,303.352 L240.616,302.232 L243.528,302.232 L243.528,303.576 C243.528,304.976 244.144,305.48 245.124,305.48 C246.104,305.48 246.72,304.976 246.72,303.52 C246.72,301.896 246.104,300.86 244.088,299.096 C241.512,296.828 240.672,295.232 240.672,292.992 C240.672,289.912 242.268,288.12 245.264,288.12 C248.26,288.12 249.744,289.912 249.744,293.048 L249.744,293.86 L246.832,293.86 L246.832,292.852 C246.832,291.452 246.272,290.92 245.292,290.92 C244.312,290.92 243.752,291.452 243.752,292.796 C243.752,294.224 244.396,295.26 246.412,297.024 C248.988,299.292 249.8,300.86 249.8,303.296 C249.8,306.488 248.176,308.28 245.152,308.28 Z M251.564,308 L251.564,288.4 L259.964,288.4 L259.964,291.2 L254.644,291.2 L254.644,296.38 L258.872,296.38 L258.872,299.18 L254.644,299.18 L254.644,305.2 L259.964,305.2 L259.964,308 L251.564,308 Z M266.096,308.28 C263.072,308.28 261.504,306.488 261.504,303.352 L261.504,293.048 C261.504,289.912 263.072,288.12 266.096,288.12 C269.12,288.12 270.688,289.912 270.688,293.048 L270.688,294.728 L267.776,294.728 L267.776,292.852 C267.776,291.452 267.16,290.92 266.18,290.92 C265.2,290.92 264.584,291.452 264.584,292.852 L264.584,303.576 C264.584,304.976 265.2,305.48 266.18,305.48 C267.16,305.48 267.776,304.976 267.776,303.576 L267.776,299.74 L266.236,299.74 L266.236,296.94 L270.688,296.94 L270.688,303.352 C270.688,306.488 269.12,308.28 266.096,308.28 Z M277.156,308.28 C274.132,308.28 272.564,306.488 272.564,303.352 L272.564,288.4 L275.644,288.4 L275.644,303.576 C275.644,304.976 276.232,305.48 277.212,305.48 C278.192,305.48 278.78,304.976 278.78,303.576 L278.78,288.4 L281.748,288.4 L281.748,303.352 C281.748,306.488 280.18,308.28 277.156,308.28 Z M283.932,308 L283.932,288.4 L287.012,288.4 L287.012,308 L283.932,308 Z M289.308,308 L289.308,288.4 L294.012,288.4 C297.092,288.4 298.604,290.108 298.604,293.244 L298.604,303.156 C298.604,306.292 297.092,308 294.012,308 L289.308,308 Z M292.388,305.2 L293.956,305.2 C294.936,305.2 295.524,304.696 295.524,303.296 L295.524,293.104 C295.524,291.704 294.936,291.2 293.956,291.2 L292.388,291.2 L292.388,305.2 Z M305.128,308.28 C302.104,308.28 300.452,306.488 300.452,303.352 L300.452,293.048 C300.452,289.912 302.104,288.12 305.128,288.12 C308.152,288.12 309.804,289.912 309.804,293.048 L309.804,303.352 C309.804,306.488 308.152,308.28 305.128,308.28 Z M305.128,305.48 C306.108,305.48 306.724,304.948 306.724,303.548 L306.724,292.852 C306.724,291.452 306.108,290.92 305.128,290.92 C304.148,290.92 303.532,291.452 303.532,292.852 L303.532,303.548 C303.532,304.948 304.148,305.48 305.128,305.48 Z M311.876,308 L311.876,288.4 L316.44,288.4 C319.632,288.4 321.004,289.884 321.004,292.908 L321.004,294.112 C321.004,296.128 320.36,297.416 318.988,297.976 L318.988,298.032 C320.528,298.508 321.032,299.964 321.032,302.176 L321.032,305.62 C321.032,306.572 321.06,307.272 321.368,308 L318.232,308 C318.064,307.496 317.952,307.188 317.952,305.592 L317.952,302.008 C317.952,300.188 317.42,299.6 316.02,299.6 L314.956,299.6 L314.956,308 L311.876,308 Z M314.956,296.8 L316.076,296.8 C317.224,296.8 317.924,296.296 317.924,294.728 L317.924,293.216 C317.924,291.816 317.448,291.2 316.356,291.2 L314.956,291.2 L314.956,296.8 Z M323.16,308 L323.16,288.4 L331.56,288.4 L331.56,291.2 L326.24,291.2 L326.24,296.38 L330.468,296.38 L330.468,299.18 L326.24,299.18 L326.24,305.2 L331.56,305.2 L331.56,308 L323.16,308 Z M337.328,308.28 C334.304,308.28 332.792,306.488 332.792,303.352 L332.792,302.232 L335.704,302.232 L335.704,303.576 C335.704,304.976 336.32,305.48 337.3,305.48 C338.28,305.48 338.896,304.976 338.896,303.52 C338.896,301.896 338.28,300.86 336.264,299.096 C333.688,296.828 332.848,295.232 332.848,292.992 C332.848,289.912 334.444,288.12 337.44,288.12 C340.436,288.12 341.92,289.912 341.92,293.048 L341.92,293.86 L339.008,293.86 L339.008,292.852 C339.008,291.452 338.448,290.92 337.468,290.92 C336.488,290.92 335.928,291.452 335.928,292.796 C335.928,294.224 336.572,295.26 338.588,297.024 C341.164,299.292 341.976,300.86 341.976,303.296 C341.976,306.488 340.352,308.28 337.328,308.28 Z" id="seguidores" fill="#797979" fill-rule="nonzero"></path>
                <path d="M245.152,427.28 C242.128,427.28 240.616,425.488 240.616,422.352 L240.616,421.232 L243.528,421.232 L243.528,422.576 C243.528,423.976 244.144,424.48 245.124,424.48 C246.104,424.48 246.72,423.976 246.72,422.52 C246.72,420.896 246.104,419.86 244.088,418.096 C241.512,415.828 240.672,414.232 240.672,411.992 C240.672,408.912 242.268,407.12 245.264,407.12 C248.26,407.12 249.744,408.912 249.744,412.048 L249.744,412.86 L246.832,412.86 L246.832,411.852 C246.832,410.452 246.272,409.92 245.292,409.92 C244.312,409.92 243.752,410.452 243.752,411.796 C243.752,413.224 244.396,414.26 246.412,416.024 C248.988,418.292 249.8,419.86 249.8,422.296 C249.8,425.488 248.176,427.28 245.152,427.28 Z M251.564,427 L251.564,407.4 L259.964,407.4 L259.964,410.2 L254.644,410.2 L254.644,415.38 L258.872,415.38 L258.872,418.18 L254.644,418.18 L254.644,424.2 L259.964,424.2 L259.964,427 L251.564,427 Z M266.096,427.28 C263.072,427.28 261.504,425.488 261.504,422.352 L261.504,412.048 C261.504,408.912 263.072,407.12 266.096,407.12 C269.12,407.12 270.688,408.912 270.688,412.048 L270.688,413.728 L267.776,413.728 L267.776,411.852 C267.776,410.452 267.16,409.92 266.18,409.92 C265.2,409.92 264.584,410.452 264.584,411.852 L264.584,422.576 C264.584,423.976 265.2,424.48 266.18,424.48 C267.16,424.48 267.776,423.976 267.776,422.576 L267.776,418.74 L266.236,418.74 L266.236,415.94 L270.688,415.94 L270.688,422.352 C270.688,425.488 269.12,427.28 266.096,427.28 Z M277.156,427.28 C274.132,427.28 272.564,425.488 272.564,422.352 L272.564,407.4 L275.644,407.4 L275.644,422.576 C275.644,423.976 276.232,424.48 277.212,424.48 C278.192,424.48 278.78,423.976 278.78,422.576 L278.78,407.4 L281.748,407.4 L281.748,422.352 C281.748,425.488 280.18,427.28 277.156,427.28 Z M283.932,427 L283.932,407.4 L287.012,407.4 L287.012,427 L283.932,427 Z M289.308,427 L289.308,407.4 L294.012,407.4 C297.092,407.4 298.604,409.108 298.604,412.244 L298.604,422.156 C298.604,425.292 297.092,427 294.012,427 L289.308,427 Z M292.388,424.2 L293.956,424.2 C294.936,424.2 295.524,423.696 295.524,422.296 L295.524,412.104 C295.524,410.704 294.936,410.2 293.956,410.2 L292.388,410.2 L292.388,424.2 Z M305.128,427.28 C302.104,427.28 300.452,425.488 300.452,422.352 L300.452,412.048 C300.452,408.912 302.104,407.12 305.128,407.12 C308.152,407.12 309.804,408.912 309.804,412.048 L309.804,422.352 C309.804,425.488 308.152,427.28 305.128,427.28 Z M305.128,424.48 C306.108,424.48 306.724,423.948 306.724,422.548 L306.724,411.852 C306.724,410.452 306.108,409.92 305.128,409.92 C304.148,409.92 303.532,410.452 303.532,411.852 L303.532,422.548 C303.532,423.948 304.148,424.48 305.128,424.48 Z M311.876,427 L311.876,407.4 L316.44,407.4 C319.632,407.4 321.004,408.884 321.004,411.908 L321.004,413.112 C321.004,415.128 320.36,416.416 318.988,416.976 L318.988,417.032 C320.528,417.508 321.032,418.964 321.032,421.176 L321.032,424.62 C321.032,425.572 321.06,426.272 321.368,427 L318.232,427 C318.064,426.496 317.952,426.188 317.952,424.592 L317.952,421.008 C317.952,419.188 317.42,418.6 316.02,418.6 L314.956,418.6 L314.956,427 L311.876,427 Z M314.956,415.8 L316.076,415.8 C317.224,415.8 317.924,415.296 317.924,413.728 L317.924,412.216 C317.924,410.816 317.448,410.2 316.356,410.2 L314.956,410.2 L314.956,415.8 Z M323.16,427 L323.16,407.4 L331.56,407.4 L331.56,410.2 L326.24,410.2 L326.24,415.38 L330.468,415.38 L330.468,418.18 L326.24,418.18 L326.24,424.2 L331.56,424.2 L331.56,427 L323.16,427 Z M337.328,427.28 C334.304,427.28 332.792,425.488 332.792,422.352 L332.792,421.232 L335.704,421.232 L335.704,422.576 C335.704,423.976 336.32,424.48 337.3,424.48 C338.28,424.48 338.896,423.976 338.896,422.52 C338.896,420.896 338.28,419.86 336.264,418.096 C333.688,415.828 332.848,414.232 332.848,411.992 C332.848,408.912 334.444,407.12 337.44,407.12 C340.436,407.12 341.92,408.912 341.92,412.048 L341.92,412.86 L339.008,412.86 L339.008,411.852 C339.008,410.452 338.448,409.92 337.468,409.92 C336.488,409.92 335.928,410.452 335.928,411.796 C335.928,413.224 336.572,414.26 338.588,416.024 C341.164,418.292 341.976,419.86 341.976,422.296 C341.976,425.488 340.352,427.28 337.328,427.28 Z" id="seguidores" fill="#797979" fill-rule="nonzero"></path>
                <path d="M245.152,532.28 C242.128,532.28 240.616,530.488 240.616,527.352 L240.616,526.232 L243.528,526.232 L243.528,527.576 C243.528,528.976 244.144,529.48 245.124,529.48 C246.104,529.48 246.72,528.976 246.72,527.52 C246.72,525.896 246.104,524.86 244.088,523.096 C241.512,520.828 240.672,519.232 240.672,516.992 C240.672,513.912 242.268,512.12 245.264,512.12 C248.26,512.12 249.744,513.912 249.744,517.048 L249.744,517.86 L246.832,517.86 L246.832,516.852 C246.832,515.452 246.272,514.92 245.292,514.92 C244.312,514.92 243.752,515.452 243.752,516.796 C243.752,518.224 244.396,519.26 246.412,521.024 C248.988,523.292 249.8,524.86 249.8,527.296 C249.8,530.488 248.176,532.28 245.152,532.28 Z M251.564,532 L251.564,512.4 L259.964,512.4 L259.964,515.2 L254.644,515.2 L254.644,520.38 L258.872,520.38 L258.872,523.18 L254.644,523.18 L254.644,529.2 L259.964,529.2 L259.964,532 L251.564,532 Z M266.096,532.28 C263.072,532.28 261.504,530.488 261.504,527.352 L261.504,517.048 C261.504,513.912 263.072,512.12 266.096,512.12 C269.12,512.12 270.688,513.912 270.688,517.048 L270.688,518.728 L267.776,518.728 L267.776,516.852 C267.776,515.452 267.16,514.92 266.18,514.92 C265.2,514.92 264.584,515.452 264.584,516.852 L264.584,527.576 C264.584,528.976 265.2,529.48 266.18,529.48 C267.16,529.48 267.776,528.976 267.776,527.576 L267.776,523.74 L266.236,523.74 L266.236,520.94 L270.688,520.94 L270.688,527.352 C270.688,530.488 269.12,532.28 266.096,532.28 Z M277.156,532.28 C274.132,532.28 272.564,530.488 272.564,527.352 L272.564,512.4 L275.644,512.4 L275.644,527.576 C275.644,528.976 276.232,529.48 277.212,529.48 C278.192,529.48 278.78,528.976 278.78,527.576 L278.78,512.4 L281.748,512.4 L281.748,527.352 C281.748,530.488 280.18,532.28 277.156,532.28 Z M283.932,532 L283.932,512.4 L287.012,512.4 L287.012,532 L283.932,532 Z M289.308,532 L289.308,512.4 L294.012,512.4 C297.092,512.4 298.604,514.108 298.604,517.244 L298.604,527.156 C298.604,530.292 297.092,532 294.012,532 L289.308,532 Z M292.388,529.2 L293.956,529.2 C294.936,529.2 295.524,528.696 295.524,527.296 L295.524,517.104 C295.524,515.704 294.936,515.2 293.956,515.2 L292.388,515.2 L292.388,529.2 Z M305.128,532.28 C302.104,532.28 300.452,530.488 300.452,527.352 L300.452,517.048 C300.452,513.912 302.104,512.12 305.128,512.12 C308.152,512.12 309.804,513.912 309.804,517.048 L309.804,527.352 C309.804,530.488 308.152,532.28 305.128,532.28 Z M305.128,529.48 C306.108,529.48 306.724,528.948 306.724,527.548 L306.724,516.852 C306.724,515.452 306.108,514.92 305.128,514.92 C304.148,514.92 303.532,515.452 303.532,516.852 L303.532,527.548 C303.532,528.948 304.148,529.48 305.128,529.48 Z M311.876,532 L311.876,512.4 L316.44,512.4 C319.632,512.4 321.004,513.884 321.004,516.908 L321.004,518.112 C321.004,520.128 320.36,521.416 318.988,521.976 L318.988,522.032 C320.528,522.508 321.032,523.964 321.032,526.176 L321.032,529.62 C321.032,530.572 321.06,531.272 321.368,532 L318.232,532 C318.064,531.496 317.952,531.188 317.952,529.592 L317.952,526.008 C317.952,524.188 317.42,523.6 316.02,523.6 L314.956,523.6 L314.956,532 L311.876,532 Z M314.956,520.8 L316.076,520.8 C317.224,520.8 317.924,520.296 317.924,518.728 L317.924,517.216 C317.924,515.816 317.448,515.2 316.356,515.2 L314.956,515.2 L314.956,520.8 Z M323.16,532 L323.16,512.4 L331.56,512.4 L331.56,515.2 L326.24,515.2 L326.24,520.38 L330.468,520.38 L330.468,523.18 L326.24,523.18 L326.24,529.2 L331.56,529.2 L331.56,532 L323.16,532 Z M337.328,532.28 C334.304,532.28 332.792,530.488 332.792,527.352 L332.792,526.232 L335.704,526.232 L335.704,527.576 C335.704,528.976 336.32,529.48 337.3,529.48 C338.28,529.48 338.896,528.976 338.896,527.52 C338.896,525.896 338.28,524.86 336.264,523.096 C333.688,520.828 332.848,519.232 332.848,516.992 C332.848,513.912 334.444,512.12 337.44,512.12 C340.436,512.12 341.92,513.912 341.92,517.048 L341.92,517.86 L339.008,517.86 L339.008,516.852 C339.008,515.452 338.448,514.92 337.468,514.92 C336.488,514.92 335.928,515.452 335.928,516.796 C335.928,518.224 336.572,519.26 338.588,521.024 C341.164,523.292 341.976,524.86 341.976,527.296 C341.976,530.488 340.352,532.28 337.328,532.28 Z" id="seguidores" fill="#797979" fill-rule="nonzero"></path>
                <path d="M146.628,286.28 C143.604,286.28 142.036,284.488 142.036,281.352 L142.036,266.4 L145.116,266.4 L145.116,281.576 C145.116,282.976 145.704,283.48 146.684,283.48 C147.664,283.48 148.252,282.976 148.252,281.576 L148.252,266.4 L151.22,266.4 L151.22,281.352 C151.22,284.488 149.652,286.28 146.628,286.28 Z M153.404,286 L153.404,266.4 L157.94,266.4 C161.02,266.4 162.532,268.108 162.532,271.244 L162.532,273.176 C162.532,276.312 161.02,278.02 157.94,278.02 L156.484,278.02 L156.484,286 L153.404,286 Z M156.484,275.22 L157.94,275.22 C158.92,275.22 159.452,274.772 159.452,273.372 L159.452,271.048 C159.452,269.648 158.92,269.2 157.94,269.2 L156.484,269.2 L156.484,275.22 Z" id="up" fill="#FFFFFF" fill-rule="nonzero"></path>
                <path d="M145.488,403.28 C142.52,403.28 140.952,401.488 140.952,398.464 L140.952,387.936 C140.952,384.912 142.52,383.12 145.488,383.12 C148.456,383.12 150.024,384.912 150.024,387.936 L150.024,390.008 L147.112,390.008 L147.112,387.74 C147.112,386.452 146.496,385.92 145.572,385.92 C144.648,385.92 144.032,386.452 144.032,387.74 L144.032,398.688 C144.032,399.976 144.648,400.48 145.572,400.48 C146.496,400.48 147.112,399.976 147.112,398.688 L147.112,395.692 L150.024,395.692 L150.024,398.464 C150.024,401.488 148.456,403.28 145.488,403.28 Z M155.876,403.28 C152.852,403.28 151.34,401.488 151.34,398.352 L151.34,397.232 L154.252,397.232 L154.252,398.576 C154.252,399.976 154.868,400.48 155.848,400.48 C156.828,400.48 157.444,399.976 157.444,398.52 C157.444,396.896 156.828,395.86 154.812,394.096 C152.236,391.828 151.396,390.232 151.396,387.992 C151.396,384.912 152.992,383.12 155.988,383.12 C158.984,383.12 160.468,384.912 160.468,388.048 L160.468,388.86 L157.556,388.86 L157.556,387.852 C157.556,386.452 156.996,385.92 156.016,385.92 C155.036,385.92 154.476,386.452 154.476,387.796 C154.476,389.224 155.12,390.26 157.136,392.024 C159.712,394.292 160.524,395.86 160.524,398.296 C160.524,401.488 158.9,403.28 155.876,403.28 Z" id="cs" fill="#FFFFFF" fill-rule="nonzero"></path>
                <path d="M142.148,508 L142.148,488.4 L146.684,488.4 C149.764,488.4 151.276,490.108 151.276,493.244 L151.276,495.176 C151.276,498.312 149.764,500.02 146.684,500.02 L145.228,500.02 L145.228,508 L142.148,508 Z M145.228,497.22 L146.684,497.22 C147.664,497.22 148.196,496.772 148.196,495.372 L148.196,493.048 C148.196,491.648 147.664,491.2 146.684,491.2 L145.228,491.2 L145.228,497.22 Z M152.956,508 L152.956,488.4 L157.492,488.4 C160.572,488.4 162.084,490.108 162.084,493.244 L162.084,495.176 C162.084,498.312 160.572,500.02 157.492,500.02 L156.036,500.02 L156.036,508 L152.956,508 Z M156.036,497.22 L157.492,497.22 C158.472,497.22 159.004,496.772 159.004,495.372 L159.004,493.048 C159.004,491.648 158.472,491.2 157.492,491.2 L156.036,491.2 L156.036,497.22 Z" id="PP" fill="#FFFFFF" fill-rule="nonzero"></path>
                <path d="M131.148,605 L131.148,585.4 L135.684,585.4 C138.764,585.4 140.276,587.108 140.276,590.244 L140.276,592.176 C140.276,595.312 138.764,597.02 135.684,597.02 L134.228,597.02 L134.228,605 L131.148,605 Z M134.228,594.22 L135.684,594.22 C136.664,594.22 137.196,593.772 137.196,592.372 L137.196,590.048 C137.196,588.648 136.664,588.2 135.684,588.2 L134.228,588.2 L134.228,594.22 Z M145.96,605.28 C142.936,605.28 141.424,603.488 141.424,600.352 L141.424,599.232 L144.336,599.232 L144.336,600.576 C144.336,601.976 144.952,602.48 145.932,602.48 C146.912,602.48 147.528,601.976 147.528,600.52 C147.528,598.896 146.912,597.86 144.896,596.096 C142.32,593.828 141.48,592.232 141.48,589.992 C141.48,586.912 143.076,585.12 146.072,585.12 C149.068,585.12 150.552,586.912 150.552,590.048 L150.552,590.86 L147.64,590.86 L147.64,589.852 C147.64,588.452 147.08,587.92 146.1,587.92 C145.12,587.92 144.56,588.452 144.56,589.796 C144.56,591.224 145.204,592.26 147.22,594.024 C149.796,596.292 150.608,597.86 150.608,600.296 C150.608,603.488 148.984,605.28 145.96,605.28 Z M156.824,605.28 C153.8,605.28 152.148,603.488 152.148,600.352 L152.148,590.048 C152.148,586.912 153.8,585.12 156.824,585.12 C159.848,585.12 161.5,586.912 161.5,590.048 L161.5,600.352 C161.5,603.488 159.848,605.28 156.824,605.28 Z M156.824,602.48 C157.804,602.48 158.42,601.948 158.42,600.548 L158.42,589.852 C158.42,588.452 157.804,587.92 156.824,587.92 C155.844,587.92 155.228,588.452 155.228,589.852 L155.228,600.548 C155.228,601.948 155.844,602.48 156.824,602.48 Z M163.572,605 L163.572,585.4 L171.972,585.4 L171.972,588.2 L166.652,588.2 L166.652,593.38 L170.88,593.38 L170.88,596.18 L166.652,596.18 L166.652,602.2 L171.972,602.2 L171.972,605 L163.572,605 Z" id="Psoe" fill="#FFFFFF" fill-rule="nonzero"></path>
                <path d="M245.152,628.28 C242.128,628.28 240.616,626.488 240.616,623.352 L240.616,622.232 L243.528,622.232 L243.528,623.576 C243.528,624.976 244.144,625.48 245.124,625.48 C246.104,625.48 246.72,624.976 246.72,623.52 C246.72,621.896 246.104,620.86 244.088,619.096 C241.512,616.828 240.672,615.232 240.672,612.992 C240.672,609.912 242.268,608.12 245.264,608.12 C248.26,608.12 249.744,609.912 249.744,613.048 L249.744,613.86 L246.832,613.86 L246.832,612.852 C246.832,611.452 246.272,610.92 245.292,610.92 C244.312,610.92 243.752,611.452 243.752,612.796 C243.752,614.224 244.396,615.26 246.412,617.024 C248.988,619.292 249.8,620.86 249.8,623.296 C249.8,626.488 248.176,628.28 245.152,628.28 Z M251.564,628 L251.564,608.4 L259.964,608.4 L259.964,611.2 L254.644,611.2 L254.644,616.38 L258.872,616.38 L258.872,619.18 L254.644,619.18 L254.644,625.2 L259.964,625.2 L259.964,628 L251.564,628 Z M266.096,628.28 C263.072,628.28 261.504,626.488 261.504,623.352 L261.504,613.048 C261.504,609.912 263.072,608.12 266.096,608.12 C269.12,608.12 270.688,609.912 270.688,613.048 L270.688,614.728 L267.776,614.728 L267.776,612.852 C267.776,611.452 267.16,610.92 266.18,610.92 C265.2,610.92 264.584,611.452 264.584,612.852 L264.584,623.576 C264.584,624.976 265.2,625.48 266.18,625.48 C267.16,625.48 267.776,624.976 267.776,623.576 L267.776,619.74 L266.236,619.74 L266.236,616.94 L270.688,616.94 L270.688,623.352 C270.688,626.488 269.12,628.28 266.096,628.28 Z M277.156,628.28 C274.132,628.28 272.564,626.488 272.564,623.352 L272.564,608.4 L275.644,608.4 L275.644,623.576 C275.644,624.976 276.232,625.48 277.212,625.48 C278.192,625.48 278.78,624.976 278.78,623.576 L278.78,608.4 L281.748,608.4 L281.748,623.352 C281.748,626.488 280.18,628.28 277.156,628.28 Z M283.932,628 L283.932,608.4 L287.012,608.4 L287.012,628 L283.932,628 Z M289.308,628 L289.308,608.4 L294.012,608.4 C297.092,608.4 298.604,610.108 298.604,613.244 L298.604,623.156 C298.604,626.292 297.092,628 294.012,628 L289.308,628 Z M292.388,625.2 L293.956,625.2 C294.936,625.2 295.524,624.696 295.524,623.296 L295.524,613.104 C295.524,611.704 294.936,611.2 293.956,611.2 L292.388,611.2 L292.388,625.2 Z M305.128,628.28 C302.104,628.28 300.452,626.488 300.452,623.352 L300.452,613.048 C300.452,609.912 302.104,608.12 305.128,608.12 C308.152,608.12 309.804,609.912 309.804,613.048 L309.804,623.352 C309.804,626.488 308.152,628.28 305.128,628.28 Z M305.128,625.48 C306.108,625.48 306.724,624.948 306.724,623.548 L306.724,612.852 C306.724,611.452 306.108,610.92 305.128,610.92 C304.148,610.92 303.532,611.452 303.532,612.852 L303.532,623.548 C303.532,624.948 304.148,625.48 305.128,625.48 Z M311.876,628 L311.876,608.4 L316.44,608.4 C319.632,608.4 321.004,609.884 321.004,612.908 L321.004,614.112 C321.004,616.128 320.36,617.416 318.988,617.976 L318.988,618.032 C320.528,618.508 321.032,619.964 321.032,622.176 L321.032,625.62 C321.032,626.572 321.06,627.272 321.368,628 L318.232,628 C318.064,627.496 317.952,627.188 317.952,625.592 L317.952,622.008 C317.952,620.188 317.42,619.6 316.02,619.6 L314.956,619.6 L314.956,628 L311.876,628 Z M314.956,616.8 L316.076,616.8 C317.224,616.8 317.924,616.296 317.924,614.728 L317.924,613.216 C317.924,611.816 317.448,611.2 316.356,611.2 L314.956,611.2 L314.956,616.8 Z M323.16,628 L323.16,608.4 L331.56,608.4 L331.56,611.2 L326.24,611.2 L326.24,616.38 L330.468,616.38 L330.468,619.18 L326.24,619.18 L326.24,625.2 L331.56,625.2 L331.56,628 L323.16,628 Z M337.328,628.28 C334.304,628.28 332.792,626.488 332.792,623.352 L332.792,622.232 L335.704,622.232 L335.704,623.576 C335.704,624.976 336.32,625.48 337.3,625.48 C338.28,625.48 338.896,624.976 338.896,623.52 C338.896,621.896 338.28,620.86 336.264,619.096 C333.688,616.828 332.848,615.232 332.848,612.992 C332.848,609.912 334.444,608.12 337.44,608.12 C340.436,608.12 341.92,609.912 341.92,613.048 L341.92,613.86 L339.008,613.86 L339.008,612.852 C339.008,611.452 338.448,610.92 337.468,610.92 C336.488,610.92 335.928,611.452 335.928,612.796 C335.928,614.224 336.572,615.26 338.588,617.024 C341.164,619.292 341.976,620.86 341.976,623.296 C341.976,626.488 340.352,628.28 337.328,628.28 Z" id="seguidores" fill="#797979" fill-rule="nonzero"></path>
                <path d="M239.697,671 L239.697,659.1 L244.644,659.1 L244.644,660.8 L241.567,660.8 L241.567,664.115 L243.981,664.115 L243.981,665.815 L241.567,665.815 L241.567,671 L239.697,671 Z M248.265,671.17 C246.429,671.17 245.477,670.082 245.477,668.178 L245.477,659.1 L247.347,659.1 L247.347,668.314 C247.347,669.164 247.704,669.47 248.299,669.47 C248.894,669.47 249.251,669.164 249.251,668.314 L249.251,659.1 L251.053,659.1 L251.053,668.178 C251.053,670.082 250.101,671.17 248.265,671.17 Z M252.379,671 L252.379,659.1 L257.479,659.1 L257.479,660.8 L254.249,660.8 L254.249,663.945 L256.816,663.945 L256.816,665.645 L254.249,665.645 L254.249,669.3 L257.479,669.3 L257.479,671 L252.379,671 Z M258.55,671 L258.55,659.1 L260.896,659.1 L262.715,666.223 L262.749,666.223 L262.749,659.1 L264.415,659.1 L264.415,671 L262.494,671 L260.25,662.313 L260.216,662.313 L260.216,671 L258.55,671 Z M267.271,671 L267.271,660.8 L265.316,660.8 L265.316,659.1 L271.096,659.1 L271.096,660.8 L269.141,660.8 L269.141,671 L267.271,671 Z M271.997,671 L271.997,659.1 L277.097,659.1 L277.097,660.8 L273.867,660.8 L273.867,663.945 L276.434,663.945 L276.434,665.645 L273.867,665.645 L273.867,669.3 L277.097,669.3 L277.097,671 L271.997,671 Z M278.168,664.523 L278.168,662.721 L279.97,662.721 L279.97,664.523 L278.168,664.523 Z M278.168,671 L278.168,669.198 L279.97,669.198 L279.97,671 L278.168,671 Z M284.084,671 L284.084,659.1 L285.954,659.1 L285.954,671 L284.084,671 Z M287.348,671 L287.348,659.1 L289.694,659.1 L291.513,666.223 L291.547,666.223 L291.547,659.1 L293.213,659.1 L293.213,671 L291.292,671 L289.048,662.313 L289.014,662.313 L289.014,671 L287.348,671 Z M297.038,671.17 C295.202,671.17 294.284,670.082 294.284,668.178 L294.284,667.498 L296.052,667.498 L296.052,668.314 C296.052,669.164 296.426,669.47 297.021,669.47 C297.616,669.47 297.99,669.164 297.99,668.28 C297.99,667.294 297.616,666.665 296.392,665.594 C294.828,664.217 294.318,663.248 294.318,661.888 C294.318,660.018 295.287,658.93 297.106,658.93 C298.925,658.93 299.826,660.018 299.826,661.922 L299.826,662.415 L298.058,662.415 L298.058,661.803 C298.058,660.953 297.718,660.63 297.123,660.63 C296.528,660.63 296.188,660.953 296.188,661.769 C296.188,662.636 296.579,663.265 297.803,664.336 C299.367,665.713 299.86,666.665 299.86,668.144 C299.86,670.082 298.874,671.17 297.038,671.17 Z M302.393,671 L302.393,660.8 L300.438,660.8 L300.438,659.1 L306.218,659.1 L306.218,660.8 L304.263,660.8 L304.263,671 L302.393,671 Z M306.626,671 L308.564,659.1 L311.097,659.1 L313.035,671 L311.165,671 L310.825,668.637 L310.825,668.671 L308.7,668.671 L308.36,671 L306.626,671 Z M308.921,667.056 L310.604,667.056 L309.771,661.174 L309.737,661.174 L308.921,667.056 Z M316.588,671.17 C314.752,671.17 313.8,670.082 313.8,668.178 L313.8,661.922 C313.8,660.018 314.752,658.93 316.588,658.93 C318.424,658.93 319.376,660.018 319.376,661.922 L319.376,662.942 L317.608,662.942 L317.608,661.803 C317.608,660.953 317.234,660.63 316.639,660.63 C316.044,660.63 315.67,660.953 315.67,661.803 L315.67,668.314 C315.67,669.164 316.044,669.47 316.639,669.47 C317.234,669.47 317.608,669.164 317.608,668.314 L317.608,665.985 L316.673,665.985 L316.673,664.285 L319.376,664.285 L319.376,668.178 C319.376,670.082 318.424,671.17 316.588,671.17 Z M320.583,671 L320.583,659.1 L323.354,659.1 C325.292,659.1 326.125,660.001 326.125,661.837 L326.125,662.568 C326.125,663.792 325.734,664.574 324.901,664.914 L324.901,664.948 C325.836,665.237 326.142,666.121 326.142,667.464 L326.142,669.555 C326.142,670.133 326.159,670.558 326.346,671 L324.442,671 C324.34,670.694 324.272,670.507 324.272,669.538 L324.272,667.362 C324.272,666.257 323.949,665.9 323.099,665.9 L322.453,665.9 L322.453,671 L320.583,671 Z M322.453,664.2 L323.133,664.2 C323.83,664.2 324.255,663.894 324.255,662.942 L324.255,662.024 C324.255,661.174 323.966,660.8 323.303,660.8 L322.453,660.8 L322.453,664.2 Z M326.941,671 L328.879,659.1 L331.412,659.1 L333.35,671 L331.48,671 L331.14,668.637 L331.14,668.671 L329.015,668.671 L328.675,671 L326.941,671 Z M329.236,667.056 L330.919,667.056 L330.086,661.174 L330.052,661.174 L329.236,667.056 Z M334.251,671 L334.251,659.1 L336.92,659.1 L338.11,667.617 L338.144,667.617 L339.334,659.1 L342.003,659.1 L342.003,671 L340.235,671 L340.235,661.99 L340.201,661.99 L338.841,671 L337.277,671 L335.917,661.99 L335.883,661.99 L335.883,671 L334.251,671 Z" id="FUENTE:INSTAGRAM" fill="#BABABA" fill-rule="nonzero"></path>
                <path d="M7.781,6.3 L7.781,9.586 L4.495,9.586 L4.495,6.3 L7.781,6.3 Z M7.626,12.035 L7.626,13.337 C7.626,14.763 7.285,16.034 5.952,17.925 C4.433,20.095 4.03,21.428 4.03,23.071 C4.03,24.621 4.65,25.21 5.735,25.21 C6.82,25.21 7.44,24.621 7.44,23.071 L7.44,20.715 L10.664,20.715 L10.664,22.854 C10.664,26.326 8.99,28.31 5.673,28.31 C2.356,28.31 0.62,26.326 0.62,22.854 C0.62,20.963 1.209,19.382 2.883,17.15 C4.216,15.352 4.65,14.298 4.65,13.213 L4.65,12.035 L7.626,12.035 Z M22.568,30.015 C21.297,30.015 20.119,29.55 19.716,27.938 C19.065,28.186 18.29,28.31 17.453,28.31 C14.105,28.31 12.276,26.326 12.276,22.854 L12.276,11.446 C12.276,7.974 14.105,5.99 17.453,5.99 C20.801,5.99 22.63,7.974 22.63,11.446 L22.63,22.854 C22.63,24.342 22.289,25.52 21.669,26.419 C21.917,26.853 22.32,26.915 22.94,26.915 L23.467,26.915 L23.467,30.015 L22.568,30.015 Z M17.453,25.21 C18.538,25.21 19.22,24.621 19.22,23.071 L19.22,11.229 C19.22,9.679 18.538,9.09 17.453,9.09 C16.368,9.09 15.686,9.679 15.686,11.229 L15.686,23.071 C15.686,24.621 16.368,25.21 17.453,25.21 Z M29.884,28.31 C26.536,28.31 24.8,26.326 24.8,22.854 L24.8,6.3 L28.21,6.3 L28.21,23.102 C28.21,24.652 28.861,25.21 29.946,25.21 C31.031,25.21 31.682,24.652 31.682,23.102 L31.682,6.3 L34.968,6.3 L34.968,22.854 C34.968,26.326 33.232,28.31 29.884,28.31 Z M37.386,28 L37.386,6.3 L40.796,6.3 L40.796,28 L37.386,28 Z M46.128,4.843 L48.298,1.278 L52.018,1.278 L48.701,4.843 L46.128,4.843 Z M43.338,28 L43.338,6.3 L52.638,6.3 L52.638,9.4 L46.748,9.4 L46.748,15.135 L51.429,15.135 L51.429,18.235 L46.748,18.235 L46.748,24.9 L52.638,24.9 L52.638,28 L43.338,28 Z M54.591,28 L54.591,6.3 L58.869,6.3 L62.186,19.289 L62.248,19.289 L62.248,6.3 L65.286,6.3 L65.286,28 L61.783,28 L57.691,12.159 L57.629,12.159 L57.629,28 L54.591,28 Z M77.624,28.31 C74.276,28.31 72.54,26.326 72.54,22.854 L72.54,11.446 C72.54,7.974 74.276,5.99 77.624,5.99 C80.972,5.99 82.708,7.974 82.708,11.446 L82.708,13.306 L79.484,13.306 L79.484,11.229 C79.484,9.679 78.802,9.09 77.717,9.09 C76.632,9.09 75.95,9.679 75.95,11.229 L75.95,23.102 C75.95,24.652 76.632,25.21 77.717,25.21 C78.802,25.21 79.484,24.652 79.484,23.102 L79.484,18.855 L77.779,18.855 L77.779,15.755 L82.708,15.755 L82.708,22.854 C82.708,26.326 80.972,28.31 77.624,28.31 Z M84.01,28 L87.544,6.3 L92.163,6.3 L95.697,28 L92.287,28 L91.667,23.691 L91.667,23.753 L87.792,23.753 L87.172,28 L84.01,28 Z M88.195,20.808 L91.264,20.808 L89.745,10.082 L89.683,10.082 L88.195,20.808 Z M97.34,28 L97.34,6.3 L101.618,6.3 L104.935,19.289 L104.997,19.289 L104.997,6.3 L108.035,6.3 L108.035,28 L104.532,28 L100.44,12.159 L100.378,12.159 L100.378,28 L97.34,28 Z M109.678,28 L113.212,6.3 L117.831,6.3 L121.365,28 L117.955,28 L117.335,23.691 L117.335,23.753 L113.46,23.753 L112.84,28 L109.678,28 Z M113.863,20.808 L116.932,20.808 L115.413,10.082 L115.351,10.082 L113.863,20.808 Z M127.968,28 L127.968,6.3 L137.268,6.3 L137.268,9.4 L131.378,9.4 L131.378,15.135 L136.059,15.135 L136.059,18.235 L131.378,18.235 L131.378,24.9 L137.268,24.9 L137.268,28 L127.968,28 Z M139.221,28 L139.221,6.3 L143.499,6.3 L146.816,19.289 L146.878,19.289 L146.878,6.3 L149.916,6.3 L149.916,28 L146.413,28 L142.321,12.159 L142.259,12.159 L142.259,28 L139.221,28 Z M157.418,28 L157.418,6.3 L160.828,6.3 L160.828,24.9 L166.439,24.9 L166.439,28 L157.418,28 Z M167.183,28 L170.717,6.3 L175.336,6.3 L178.87,28 L175.46,28 L174.84,23.691 L174.84,23.753 L170.965,23.753 L170.345,28 L167.183,28 Z M171.368,20.808 L174.437,20.808 L172.918,10.082 L172.856,10.082 L171.368,20.808 Z M190.278,28.31 C186.992,28.31 185.256,26.326 185.256,22.978 L185.256,11.322 C185.256,7.974 186.992,5.99 190.278,5.99 C193.564,5.99 195.3,7.974 195.3,11.322 L195.3,13.616 L192.076,13.616 L192.076,11.105 C192.076,9.679 191.394,9.09 190.371,9.09 C189.348,9.09 188.666,9.679 188.666,11.105 L188.666,23.226 C188.666,24.652 189.348,25.21 190.371,25.21 C191.394,25.21 192.076,24.652 192.076,23.226 L192.076,19.909 L195.3,19.909 L195.3,22.978 C195.3,26.326 193.564,28.31 190.278,28.31 Z M196.447,28 L199.981,6.3 L204.6,6.3 L208.134,28 L204.724,28 L204.104,23.691 L204.104,23.753 L200.229,23.753 L199.609,28 L196.447,28 Z M200.632,20.808 L203.701,20.808 L202.182,10.082 L202.12,10.082 L200.632,20.808 Z M209.777,28 L209.777,6.3 L214.83,6.3 C218.364,6.3 219.883,7.943 219.883,11.291 L219.883,12.624 C219.883,14.856 219.17,16.282 217.651,16.902 L217.651,16.964 C219.356,17.491 219.914,19.103 219.914,21.552 L219.914,25.365 C219.914,26.419 219.945,27.194 220.286,28 L216.814,28 C216.628,27.442 216.504,27.101 216.504,25.334 L216.504,21.366 C216.504,19.351 215.915,18.7 214.365,18.7 L213.187,18.7 L213.187,28 L209.777,28 Z M213.187,15.6 L214.427,15.6 C215.698,15.6 216.473,15.042 216.473,13.306 L216.473,11.632 C216.473,10.082 215.946,9.4 214.737,9.4 L213.187,9.4 L213.187,15.6 Z M222.27,28 L222.27,6.3 L227.323,6.3 C230.857,6.3 232.376,7.943 232.376,11.291 L232.376,12.624 C232.376,14.856 231.663,16.282 230.144,16.902 L230.144,16.964 C231.849,17.491 232.407,19.103 232.407,21.552 L232.407,25.365 C232.407,26.419 232.438,27.194 232.779,28 L229.307,28 C229.121,27.442 228.997,27.101 228.997,25.334 L228.997,21.366 C228.997,19.351 228.408,18.7 226.858,18.7 L225.68,18.7 L225.68,28 L222.27,28 Z M225.68,15.6 L226.92,15.6 C228.191,15.6 228.966,15.042 228.966,13.306 L228.966,11.632 C228.966,10.082 228.439,9.4 227.23,9.4 L225.68,9.4 L225.68,15.6 Z M234.763,28 L234.763,6.3 L244.063,6.3 L244.063,9.4 L238.173,9.4 L238.173,15.135 L242.854,15.135 L242.854,18.235 L238.173,18.235 L238.173,24.9 L244.063,24.9 L244.063,28 L234.763,28 Z M246.016,28 L246.016,6.3 L251.069,6.3 C254.603,6.3 256.122,7.943 256.122,11.291 L256.122,12.624 C256.122,14.856 255.409,16.282 253.89,16.902 L253.89,16.964 C255.595,17.491 256.153,19.103 256.153,21.552 L256.153,25.365 C256.153,26.419 256.184,27.194 256.525,28 L253.053,28 C252.867,27.442 252.743,27.101 252.743,25.334 L252.743,21.366 C252.743,19.351 252.154,18.7 250.604,18.7 L249.426,18.7 L249.426,28 L246.016,28 Z M249.426,15.6 L250.666,15.6 C251.937,15.6 252.712,15.042 252.712,13.306 L252.712,11.632 C252.712,10.082 252.185,9.4 250.976,9.4 L249.426,9.4 L249.426,15.6 Z M257.61,28 L261.144,6.3 L265.763,6.3 L269.297,28 L265.887,28 L265.267,23.691 L265.267,23.753 L261.392,23.753 L260.772,28 L257.61,28 Z M261.795,20.808 L264.864,20.808 L263.345,10.082 L263.283,10.082 L261.795,20.808 Z M275.9,28 L275.9,6.3 L281.108,6.3 C284.518,6.3 286.192,8.191 286.192,11.663 L286.192,22.637 C286.192,26.109 284.518,28 281.108,28 L275.9,28 Z M279.31,24.9 L281.046,24.9 C282.131,24.9 282.782,24.342 282.782,22.792 L282.782,11.508 C282.782,9.958 282.131,9.4 281.046,9.4 L279.31,9.4 L279.31,24.9 Z M288.486,28 L288.486,6.3 L297.786,6.3 L297.786,9.4 L291.896,9.4 L291.896,15.135 L296.577,15.135 L296.577,18.235 L291.896,18.235 L291.896,24.9 L297.786,24.9 L297.786,28 L288.486,28 Z M309.132,28.31 C305.784,28.31 304.11,26.326 304.11,22.854 L304.11,21.614 L307.334,21.614 L307.334,23.102 C307.334,24.652 308.016,25.21 309.101,25.21 C310.186,25.21 310.868,24.652 310.868,23.04 C310.868,21.242 310.186,20.095 307.954,18.142 C305.102,15.631 304.172,13.864 304.172,11.384 C304.172,7.974 305.939,5.99 309.256,5.99 C312.573,5.99 314.216,7.974 314.216,11.446 L314.216,12.345 L310.992,12.345 L310.992,11.229 C310.992,9.679 310.372,9.09 309.287,9.09 C308.202,9.09 307.582,9.679 307.582,11.167 C307.582,12.748 308.295,13.895 310.527,15.848 C313.379,18.359 314.278,20.095 314.278,22.792 C314.278,26.326 312.48,28.31 309.132,28.31 Z M316.231,28 L316.231,6.3 L325.531,6.3 L325.531,9.4 L319.641,9.4 L319.641,15.135 L324.322,15.135 L324.322,18.235 L319.641,18.235 L319.641,24.9 L325.531,24.9 L325.531,28 L316.231,28 Z M332.32,28.31 C328.972,28.31 327.236,26.326 327.236,22.854 L327.236,11.446 C327.236,7.974 328.972,5.99 332.32,5.99 C335.668,5.99 337.404,7.974 337.404,11.446 L337.404,13.306 L334.18,13.306 L334.18,11.229 C334.18,9.679 333.498,9.09 332.413,9.09 C331.328,9.09 330.646,9.679 330.646,11.229 L330.646,23.102 C330.646,24.652 331.328,25.21 332.413,25.21 C333.498,25.21 334.18,24.652 334.18,23.102 L334.18,18.855 L332.475,18.855 L332.475,15.755 L337.404,15.755 L337.404,22.854 C337.404,26.326 335.668,28.31 332.32,28.31 Z M344.565,28.31 C341.217,28.31 339.481,26.326 339.481,22.854 L339.481,6.3 L342.891,6.3 L342.891,23.102 C342.891,24.652 343.542,25.21 344.627,25.21 C345.712,25.21 346.363,24.652 346.363,23.102 L346.363,6.3 L349.649,6.3 L349.649,22.854 C349.649,26.326 347.913,28.31 344.565,28.31 Z M352.067,28 L352.067,6.3 L355.477,6.3 L355.477,28 L352.067,28 Z M358.019,28 L358.019,6.3 L363.227,6.3 C366.637,6.3 368.311,8.191 368.311,11.663 L368.311,22.637 C368.311,26.109 366.637,28 363.227,28 L358.019,28 Z M361.429,24.9 L363.165,24.9 C364.25,24.9 364.901,24.342 364.901,22.792 L364.901,11.508 C364.901,9.958 364.25,9.4 363.165,9.4 L361.429,9.4 L361.429,24.9 Z M375.534,28.31 C372.186,28.31 370.357,26.326 370.357,22.854 L370.357,11.446 C370.357,7.974 372.186,5.99 375.534,5.99 C378.882,5.99 380.711,7.974 380.711,11.446 L380.711,22.854 C380.711,26.326 378.882,28.31 375.534,28.31 Z M375.534,25.21 C376.619,25.21 377.301,24.621 377.301,23.071 L377.301,11.229 C377.301,9.679 376.619,9.09 375.534,9.09 C374.449,9.09 373.767,9.679 373.767,11.229 L373.767,23.071 C373.767,24.621 374.449,25.21 375.534,25.21 Z M383.005,28 L383.005,6.3 L388.058,6.3 C391.592,6.3 393.111,7.943 393.111,11.291 L393.111,12.624 C393.111,14.856 392.398,16.282 390.879,16.902 L390.879,16.964 C392.584,17.491 393.142,19.103 393.142,21.552 L393.142,25.365 C393.142,26.419 393.173,27.194 393.514,28 L390.042,28 C389.856,27.442 389.732,27.101 389.732,25.334 L389.732,21.366 C389.732,19.351 389.143,18.7 387.593,18.7 L386.415,18.7 L386.415,28 L383.005,28 Z M386.415,15.6 L387.655,15.6 C388.926,15.6 389.701,15.042 389.701,13.306 L389.701,11.632 C389.701,10.082 389.174,9.4 387.965,9.4 L386.415,9.4 L386.415,15.6 Z M395.498,28 L395.498,6.3 L404.798,6.3 L404.798,9.4 L398.908,9.4 L398.908,15.135 L403.589,15.135 L403.589,18.235 L398.908,18.235 L398.908,24.9 L404.798,24.9 L404.798,28 L395.498,28 Z M411.184,28.31 C407.836,28.31 406.162,26.326 406.162,22.854 L406.162,21.614 L409.386,21.614 L409.386,23.102 C409.386,24.652 410.068,25.21 411.153,25.21 C412.238,25.21 412.92,24.652 412.92,23.04 C412.92,21.242 412.238,20.095 410.006,18.142 C407.154,15.631 406.224,13.864 406.224,11.384 C406.224,7.974 407.991,5.99 411.308,5.99 C414.625,5.99 416.268,7.974 416.268,11.446 L416.268,12.345 L413.044,12.345 L413.044,11.229 C413.044,9.679 412.424,9.09 411.339,9.09 C410.254,9.09 409.634,9.679 409.634,11.167 C409.634,12.748 410.347,13.895 412.579,15.848 C415.431,18.359 416.33,20.095 416.33,22.792 C416.33,26.326 414.532,28.31 411.184,28.31 Z M420.639,22.265 L420.639,20.963 C420.639,19.537 420.98,18.266 422.313,16.375 C423.832,14.205 424.235,12.872 424.235,11.229 C424.235,9.679 423.615,9.09 422.53,9.09 C421.445,9.09 420.825,9.679 420.825,11.229 L420.825,13.585 L417.601,13.585 L417.601,11.446 C417.601,7.974 419.275,5.99 422.592,5.99 C425.909,5.99 427.645,7.974 427.645,11.446 C427.645,13.337 427.056,14.918 425.382,17.15 C424.049,18.948 423.615,20.002 423.615,21.087 L423.615,22.265 L420.639,22.265 Z M420.484,28 L420.484,24.714 L423.77,24.714 L423.77,28 L420.484,28 Z" id="quinganaenlacarreradeseguidores?" fill="#000000" fill-rule="nonzero"></path>
            </g>
        </g>
    </g>
</svg>