<?xml version="1.0" encoding="UTF-8"?>
<svg width="561px" height="650px" viewBox="0 0 561 650" version="1.1" xmlns="http://www.w3.org/2000/svg" xmlns:xlink="http://www.w3.org/1999/xlink">
    <!-- Generator: Sketch 53.1 (72631) - https://sketchapp.com -->
    <title>Group 32</title>
    <desc>Created with Sketch.</desc>
    <g id="Welcome" stroke="none" stroke-width="1" fill="none" fill-rule="evenodd">
        <g id="Desktop-HD-Copy-10" transform="translate(-429.000000, -20715.000000)">
            <g id="Group-32" transform="translate(429.390000, 20715.120000)">
                <path d="M38.5529998,59.88 L38.5529998,43.78 L42.4169998,43.78 C44.9469998,43.78 46.1889998,45.183 46.1889998,47.759 L46.1889998,55.901 C46.1889998,58.477 44.9469998,59.88 42.4169998,59.88 L38.5529998,59.88 Z M41.0829998,57.58 L42.3709998,57.58 C43.1759998,57.58 43.6589998,57.166 43.6589998,56.016 L43.6589998,47.644 C43.6589998,46.494 43.1759998,46.08 42.3709998,46.08 L41.0829998,46.08 L41.0829998,57.58 Z M47.8909998,59.88 L47.8909998,43.78 L54.7909998,43.78 L54.7909998,46.08 L50.4209998,46.08 L50.4209998,50.335 L53.8939998,50.335 L53.8939998,52.635 L50.4209998,52.635 L50.4209998,57.58 L54.7909998,57.58 L54.7909998,59.88 L47.8909998,59.88 Z M63.4619998,59.88 L63.4619998,47.598 L60.8169998,47.598 L60.8169998,45.804 C62.9559998,45.804 63.7149998,45.344 64.2899998,43.78 L65.9919998,43.78 L65.9919998,59.88 L63.4619998,59.88 Z M72.7769998,60.11 C70.2239998,60.11 68.8209998,58.707 68.8209998,56.131 L68.8209998,54.705 C68.8209998,53.164 69.2809998,52.037 70.4769998,51.416 L70.4769998,51.37 C69.4189998,50.795 68.9129998,49.783 68.9129998,48.196 L68.9129998,47.529 C68.9129998,44.953 70.3159998,43.55 72.7769998,43.55 C75.2379998,43.55 76.6409998,44.953 76.6409998,47.529 L76.6409998,48.196 C76.6409998,49.783 76.1119998,50.795 75.0769998,51.37 L75.0769998,51.416 C76.2729998,52.037 76.7329998,53.164 76.7329998,54.705 L76.7329998,56.131 C76.7329998,58.707 75.3299998,60.11 72.7769998,60.11 Z M72.7769998,50.335 C73.6509998,50.335 74.1109998,49.783 74.1109998,48.725 L74.1109998,47.46 C74.1109998,46.402 73.6509998,45.85 72.7769998,45.85 C71.9029998,45.85 71.4429998,46.402 71.4429998,47.46 L71.4429998,48.725 C71.4429998,49.783 71.9029998,50.335 72.7769998,50.335 Z M72.7769998,57.81 C73.7199998,57.81 74.2029998,57.212 74.2029998,55.993 L74.2029998,54.452 C74.2029998,53.233 73.7199998,52.635 72.7769998,52.635 C71.8339998,52.635 71.3509998,53.233 71.3509998,54.452 L71.3509998,55.993 C71.3509998,57.212 71.8339998,57.81 72.7769998,57.81 Z M81.3329998,59.88 L83.9549998,43.78 L87.3819998,43.78 L90.0039998,59.88 L87.4739998,59.88 L87.0139998,56.683 L87.0139998,56.729 L84.1389998,56.729 L83.6789998,59.88 L81.3329998,59.88 Z M84.4379998,54.544 L86.7149998,54.544 L85.5879998,46.586 L85.5419998,46.586 L84.4379998,54.544 Z M94.8569998,59.88 L94.8569998,58.132 C94.8569998,55.832 95.5009998,54.429 97.3869998,52.451 C99.3189998,50.404 99.8709998,49.185 99.8709998,47.69 C99.8709998,46.241 99.3649998,45.85 98.5599998,45.85 C97.7549998,45.85 97.2489998,46.287 97.2489998,47.437 L97.2489998,49.162 L94.8569998,49.162 L94.8569998,47.598 C94.8569998,45.022 96.1449998,43.55 98.6289998,43.55 C101.113,43.55 102.401,45.022 102.401,47.598 C102.401,49.507 101.619,51.209 99.2729998,53.693 C97.7549998,55.303 97.3639998,56.108 97.3639998,57.235 L97.3639998,57.58 L102.171,57.58 L102.171,59.88 L94.8569998,59.88 Z M108.335,59.88 L108.335,56.959 L103.505,56.959 L103.505,54.659 L108.105,43.78 L110.865,43.78 L110.865,54.659 L112.061,54.659 L112.061,56.959 L110.865,56.959 L110.865,59.88 L108.335,59.88 Z M105.805,54.659 L108.335,54.659 L108.335,48.38 L108.289,48.38 L105.805,54.659 Z M116.316,59.88 L118.938,43.78 L122.365,43.78 L124.987,59.88 L122.457,59.88 L121.997,56.683 L121.997,56.729 L119.122,56.729 L118.662,59.88 L116.316,59.88 Z M119.421,54.544 L121.698,54.544 L120.571,46.586 L120.525,46.586 L119.421,54.544 Z M128.207,42.791 L126.988,42.055 C127.563,40.767 128.207,40.123 129.081,40.123 C129.702,40.123 130.116,40.353 130.461,40.56 C130.737,40.721 130.967,40.859 131.243,40.859 C131.611,40.859 131.864,40.606 132.163,39.962 L133.382,40.698 C132.807,41.986 132.163,42.63 131.289,42.63 C130.668,42.63 130.254,42.4 129.909,42.193 C129.633,42.032 129.403,41.894 129.127,41.894 C128.759,41.894 128.506,42.147 128.207,42.791 Z M126.206,59.88 L126.206,43.78 L129.38,43.78 L131.841,53.417 L131.887,53.417 L131.887,43.78 L134.141,43.78 L134.141,59.88 L131.542,59.88 L128.506,48.127 L128.46,48.127 L128.46,59.88 L126.206,59.88 Z M139.684,60.11 C137.2,60.11 135.843,58.638 135.843,56.062 L135.843,47.598 C135.843,45.022 137.2,43.55 139.684,43.55 C142.168,43.55 143.525,45.022 143.525,47.598 L143.525,56.062 C143.525,58.638 142.168,60.11 139.684,60.11 Z M139.684,57.81 C140.489,57.81 140.995,57.373 140.995,56.223 L140.995,47.437 C140.995,46.287 140.489,45.85 139.684,45.85 C138.879,45.85 138.373,46.287 138.373,47.437 L138.373,56.223 C138.373,57.373 138.879,57.81 139.684,57.81 Z M148.516,60.11 C146.032,60.11 144.79,58.638 144.79,56.062 L144.79,55.142 L147.182,55.142 L147.182,56.246 C147.182,57.396 147.688,57.81 148.493,57.81 C149.298,57.81 149.804,57.396 149.804,56.2 C149.804,54.866 149.298,54.015 147.642,52.566 C145.526,50.703 144.836,49.392 144.836,47.552 C144.836,45.022 146.147,43.55 148.608,43.55 C151.069,43.55 152.288,45.022 152.288,47.598 L152.288,48.265 L149.896,48.265 L149.896,47.437 C149.896,46.287 149.436,45.85 148.631,45.85 C147.826,45.85 147.366,46.287 147.366,47.391 C147.366,48.564 147.895,49.415 149.551,50.864 C151.667,52.727 152.334,54.015 152.334,56.016 C152.334,58.638 151,60.11 148.516,60.11 Z" id="de18a24años" fill="#000000" fill-rule="nonzero" opacity="0.6"></path>
                <circle id="Oval-Copy-5" fill="#F34949" cx="22.6099998" cy="51.88" r="8"></circle>
                <path d="M218,59.918 L218,43.818 L221.864,43.818 C224.394,43.818 225.636,45.221 225.636,47.797 L225.636,55.939 C225.636,58.515 224.394,59.918 221.864,59.918 L218,59.918 Z M220.53,57.618 L221.818,57.618 C222.623,57.618 223.106,57.204 223.106,56.054 L223.106,47.682 C223.106,46.532 222.623,46.118 221.818,46.118 L220.53,46.118 L220.53,57.618 Z M227.338,59.918 L227.338,43.818 L234.238,43.818 L234.238,46.118 L229.868,46.118 L229.868,50.373 L233.341,50.373 L233.341,52.673 L229.868,52.673 L229.868,57.618 L234.238,57.618 L234.238,59.918 L227.338,59.918 Z M239.321,59.918 L239.321,58.17 C239.321,55.87 239.965,54.467 241.851,52.489 C243.783,50.442 244.335,49.223 244.335,47.728 C244.335,46.279 243.829,45.888 243.024,45.888 C242.219,45.888 241.713,46.325 241.713,47.475 L241.713,49.2 L239.321,49.2 L239.321,47.636 C239.321,45.06 240.609,43.588 243.093,43.588 C245.577,43.588 246.865,45.06 246.865,47.636 C246.865,49.545 246.083,51.247 243.737,53.731 C242.219,55.341 241.828,56.146 241.828,57.273 L241.828,57.618 L246.635,57.618 L246.635,59.918 L239.321,59.918 Z M252.27,60.148 C249.786,60.148 248.498,58.676 248.498,56.1 L248.498,54.835 L250.89,54.835 L250.89,56.284 C250.89,57.434 251.396,57.848 252.201,57.848 C253.006,57.848 253.512,57.434 253.512,56.284 L253.512,52.673 C253.512,51.523 253.006,51.086 252.201,51.086 C251.396,51.086 250.89,51.523 250.89,52.673 L250.89,52.811 L248.498,52.811 L248.958,43.818 L255.628,43.818 L255.628,46.118 L251.212,46.118 L251.005,49.959 L251.051,49.959 C251.511,49.2 252.224,48.786 253.236,48.786 C255.099,48.786 256.042,50.097 256.042,52.466 L256.042,56.1 C256.042,58.676 254.754,60.148 252.27,60.148 Z M260.78,59.918 L263.402,43.818 L266.829,43.818 L269.451,59.918 L266.921,59.918 L266.461,56.721 L266.461,56.767 L263.586,56.767 L263.126,59.918 L260.78,59.918 Z M263.885,54.582 L266.162,54.582 L265.035,46.624 L264.989,46.624 L263.885,54.582 Z M277.938,60.148 C275.454,60.148 274.166,58.722 274.166,56.146 L274.166,54.835 L276.558,54.835 L276.558,56.261 C276.558,57.411 277.064,57.848 277.869,57.848 C278.674,57.848 279.18,57.457 279.18,56.031 L279.18,54.72 C279.18,53.225 278.674,52.673 277.524,52.673 L276.673,52.673 L276.673,50.373 L277.593,50.373 C278.536,50.373 279.111,49.959 279.111,48.671 L279.111,47.498 C279.111,46.348 278.582,45.888 277.846,45.888 C277.11,45.888 276.627,46.325 276.627,47.383 L276.627,48.441 L274.235,48.441 L274.235,47.59 C274.235,45.014 275.523,43.588 277.938,43.588 C280.353,43.588 281.641,44.991 281.641,47.567 L281.641,48.142 C281.641,49.867 281.089,50.925 279.847,51.385 L279.847,51.431 C281.204,51.937 281.71,53.11 281.71,54.743 L281.71,56.169 C281.71,58.745 280.422,60.148 277.938,60.148 Z M287.782,59.918 L287.782,56.997 L282.952,56.997 L282.952,54.697 L287.552,43.818 L290.312,43.818 L290.312,54.697 L291.508,54.697 L291.508,56.997 L290.312,56.997 L290.312,59.918 L287.782,59.918 Z M285.252,54.697 L287.782,54.697 L287.782,48.418 L287.736,48.418 L285.252,54.697 Z M295.763,59.918 L298.385,43.818 L301.812,43.818 L304.434,59.918 L301.904,59.918 L301.444,56.721 L301.444,56.767 L298.569,56.767 L298.109,59.918 L295.763,59.918 Z M298.868,54.582 L301.145,54.582 L300.018,46.624 L299.972,46.624 L298.868,54.582 Z M307.654,42.829 L306.435,42.093 C307.01,40.805 307.654,40.161 308.528,40.161 C309.149,40.161 309.563,40.391 309.908,40.598 C310.184,40.759 310.414,40.897 310.69,40.897 C311.058,40.897 311.311,40.644 311.61,40 L312.829,40.736 C312.254,42.024 311.61,42.668 310.736,42.668 C310.115,42.668 309.701,42.438 309.356,42.231 C309.08,42.07 308.85,41.932 308.574,41.932 C308.206,41.932 307.953,42.185 307.654,42.829 Z M305.653,59.918 L305.653,43.818 L308.827,43.818 L311.288,53.455 L311.334,53.455 L311.334,43.818 L313.588,43.818 L313.588,59.918 L310.989,59.918 L307.953,48.165 L307.907,48.165 L307.907,59.918 L305.653,59.918 Z M319.131,60.148 C316.647,60.148 315.29,58.676 315.29,56.1 L315.29,47.636 C315.29,45.06 316.647,43.588 319.131,43.588 C321.615,43.588 322.972,45.06 322.972,47.636 L322.972,56.1 C322.972,58.676 321.615,60.148 319.131,60.148 Z M319.131,57.848 C319.936,57.848 320.442,57.411 320.442,56.261 L320.442,47.475 C320.442,46.325 319.936,45.888 319.131,45.888 C318.326,45.888 317.82,46.325 317.82,47.475 L317.82,56.261 C317.82,57.411 318.326,57.848 319.131,57.848 Z M327.963,60.148 C325.479,60.148 324.237,58.676 324.237,56.1 L324.237,55.18 L326.629,55.18 L326.629,56.284 C326.629,57.434 327.135,57.848 327.94,57.848 C328.745,57.848 329.251,57.434 329.251,56.238 C329.251,54.904 328.745,54.053 327.089,52.604 C324.973,50.741 324.283,49.43 324.283,47.59 C324.283,45.06 325.594,43.588 328.055,43.588 C330.516,43.588 331.735,45.06 331.735,47.636 L331.735,48.303 L329.343,48.303 L329.343,47.475 C329.343,46.325 328.883,45.888 328.078,45.888 C327.273,45.888 326.813,46.325 326.813,47.429 C326.813,48.602 327.342,49.453 328.998,50.902 C331.114,52.765 331.781,54.053 331.781,56.054 C331.781,58.676 330.447,60.148 327.963,60.148 Z" id="de25a34años" fill="#000000" fill-rule="nonzero" opacity="0.6"></path>
                <path d="M396,59.918 L396,43.818 L399.864,43.818 C402.394,43.818 403.636,45.221 403.636,47.797 L403.636,55.939 C403.636,58.515 402.394,59.918 399.864,59.918 L396,59.918 Z M398.53,57.618 L399.818,57.618 C400.623,57.618 401.106,57.204 401.106,56.054 L401.106,47.682 C401.106,46.532 400.623,46.118 399.818,46.118 L398.53,46.118 L398.53,57.618 Z M405.338,59.918 L405.338,43.818 L412.238,43.818 L412.238,46.118 L407.868,46.118 L407.868,50.373 L411.341,50.373 L411.341,52.673 L407.868,52.673 L407.868,57.618 L412.238,57.618 L412.238,59.918 L405.338,59.918 Z M420.955,60.148 C418.471,60.148 417.183,58.722 417.183,56.146 L417.183,54.835 L419.575,54.835 L419.575,56.261 C419.575,57.411 420.081,57.848 420.886,57.848 C421.691,57.848 422.197,57.457 422.197,56.031 L422.197,54.72 C422.197,53.225 421.691,52.673 420.541,52.673 L419.69,52.673 L419.69,50.373 L420.61,50.373 C421.553,50.373 422.128,49.959 422.128,48.671 L422.128,47.498 C422.128,46.348 421.599,45.888 420.863,45.888 C420.127,45.888 419.644,46.325 419.644,47.383 L419.644,48.441 L417.252,48.441 L417.252,47.59 C417.252,45.014 418.54,43.588 420.955,43.588 C423.37,43.588 424.658,44.991 424.658,47.567 L424.658,48.142 C424.658,49.867 424.106,50.925 422.864,51.385 L422.864,51.431 C424.221,51.937 424.727,53.11 424.727,54.743 L424.727,56.169 C424.727,58.745 423.439,60.148 420.955,60.148 Z M430.27,60.148 C427.786,60.148 426.498,58.676 426.498,56.1 L426.498,54.835 L428.89,54.835 L428.89,56.284 C428.89,57.434 429.396,57.848 430.201,57.848 C431.006,57.848 431.512,57.434 431.512,56.284 L431.512,52.673 C431.512,51.523 431.006,51.086 430.201,51.086 C429.396,51.086 428.89,51.523 428.89,52.673 L428.89,52.811 L426.498,52.811 L426.958,43.818 L433.628,43.818 L433.628,46.118 L429.212,46.118 L429.005,49.959 L429.051,49.959 C429.511,49.2 430.224,48.786 431.236,48.786 C433.099,48.786 434.042,50.097 434.042,52.466 L434.042,56.1 C434.042,58.676 432.754,60.148 430.27,60.148 Z M438.78,59.918 L441.402,43.818 L444.829,43.818 L447.451,59.918 L444.921,59.918 L444.461,56.721 L444.461,56.767 L441.586,56.767 L441.126,59.918 L438.78,59.918 Z M441.885,54.582 L444.162,54.582 L443.035,46.624 L442.989,46.624 L441.885,54.582 Z M456.582,59.918 L456.582,56.997 L451.752,56.997 L451.752,54.697 L456.352,43.818 L459.112,43.818 L459.112,54.697 L460.308,54.697 L460.308,56.997 L459.112,56.997 L459.112,59.918 L456.582,59.918 Z M454.052,54.697 L456.582,54.697 L456.582,48.418 L456.536,48.418 L454.052,54.697 Z M465.782,59.918 L465.782,56.997 L460.952,56.997 L460.952,54.697 L465.552,43.818 L468.312,43.818 L468.312,54.697 L469.508,54.697 L469.508,56.997 L468.312,56.997 L468.312,59.918 L465.782,59.918 Z M463.252,54.697 L465.782,54.697 L465.782,48.418 L465.736,48.418 L463.252,54.697 Z M473.763,59.918 L476.385,43.818 L479.812,43.818 L482.434,59.918 L479.904,59.918 L479.444,56.721 L479.444,56.767 L476.569,56.767 L476.109,59.918 L473.763,59.918 Z M476.868,54.582 L479.145,54.582 L478.018,46.624 L477.972,46.624 L476.868,54.582 Z M485.654,42.829 L484.435,42.093 C485.01,40.805 485.654,40.161 486.528,40.161 C487.149,40.161 487.563,40.391 487.908,40.598 C488.184,40.759 488.414,40.897 488.69,40.897 C489.058,40.897 489.311,40.644 489.61,40 L490.829,40.736 C490.254,42.024 489.61,42.668 488.736,42.668 C488.115,42.668 487.701,42.438 487.356,42.231 C487.08,42.07 486.85,41.932 486.574,41.932 C486.206,41.932 485.953,42.185 485.654,42.829 Z M483.653,59.918 L483.653,43.818 L486.827,43.818 L489.288,53.455 L489.334,53.455 L489.334,43.818 L491.588,43.818 L491.588,59.918 L488.989,59.918 L485.953,48.165 L485.907,48.165 L485.907,59.918 L483.653,59.918 Z M497.131,60.148 C494.647,60.148 493.29,58.676 493.29,56.1 L493.29,47.636 C493.29,45.06 494.647,43.588 497.131,43.588 C499.615,43.588 500.972,45.06 500.972,47.636 L500.972,56.1 C500.972,58.676 499.615,60.148 497.131,60.148 Z M497.131,57.848 C497.936,57.848 498.442,57.411 498.442,56.261 L498.442,47.475 C498.442,46.325 497.936,45.888 497.131,45.888 C496.326,45.888 495.82,46.325 495.82,47.475 L495.82,56.261 C495.82,57.411 496.326,57.848 497.131,57.848 Z M505.963,60.148 C503.479,60.148 502.237,58.676 502.237,56.1 L502.237,55.18 L504.629,55.18 L504.629,56.284 C504.629,57.434 505.135,57.848 505.94,57.848 C506.745,57.848 507.251,57.434 507.251,56.238 C507.251,54.904 506.745,54.053 505.089,52.604 C502.973,50.741 502.283,49.43 502.283,47.59 C502.283,45.06 503.594,43.588 506.055,43.588 C508.516,43.588 509.735,45.06 509.735,47.636 L509.735,48.303 L507.343,48.303 L507.343,47.475 C507.343,46.325 506.883,45.888 506.078,45.888 C505.273,45.888 504.813,46.325 504.813,47.429 C504.813,48.602 505.342,49.453 506.998,50.902 C509.114,52.765 509.781,54.053 509.781,56.054 C509.781,58.676 508.447,60.148 505.963,60.148 Z" id="de35a44años" fill="#000000" fill-rule="nonzero" opacity="0.6"></path>
                <circle id="Oval-Copy-6" fill="#3B3B3B" cx="201.61" cy="51.88" r="8"></circle>
                <ellipse id="Oval-Copy-7" fill="#CECDCD" cx="379.11" cy="51.88" rx="8.5" ry="8"></ellipse>
                <path d="M220.506,94.88 L220.506,86.336 L218.666,86.336 L218.666,85.088 C220.154,85.088 220.682,84.768 221.082,83.68 L222.266,83.68 L222.266,94.88 L220.506,94.88 Z M226.986,95.04 C225.258,95.04 224.314,94.016 224.314,92.224 L224.314,86.336 C224.314,84.544 225.258,83.52 226.986,83.52 C228.714,83.52 229.658,84.544 229.658,86.336 L229.658,92.224 C229.658,94.016 228.714,95.04 226.986,95.04 Z M226.986,93.44 C227.546,93.44 227.898,93.136 227.898,92.336 L227.898,86.224 C227.898,85.424 227.546,85.12 226.986,85.12 C226.426,85.12 226.074,85.424 226.074,86.224 L226.074,92.336 C226.074,93.136 226.426,93.44 226.986,93.44 Z M232.442,89.904 C231.338,89.904 230.746,89.264 230.746,88.112 L230.746,85.312 C230.746,84.16 231.338,83.52 232.442,83.52 C233.546,83.52 234.138,84.16 234.138,85.312 L234.138,88.112 C234.138,89.264 233.546,89.904 232.442,89.904 Z M232.17,94.88 L236.506,83.68 L237.626,83.68 L233.29,94.88 L232.17,94.88 Z M232.442,88.896 C232.794,88.896 233.018,88.688 233.018,88.192 L233.018,85.232 C233.018,84.736 232.794,84.528 232.442,84.528 C232.074,84.528 231.866,84.736 231.866,85.232 L231.866,88.192 C231.866,88.688 232.074,88.896 232.442,88.896 Z M237.354,95.04 C236.25,95.04 235.658,94.4 235.658,93.248 L235.658,90.448 C235.658,89.296 236.25,88.656 237.354,88.656 C238.458,88.656 239.05,89.296 239.05,90.448 L239.05,93.248 C239.05,94.4 238.458,95.04 237.354,95.04 Z M237.354,94.032 C237.706,94.032 237.93,93.824 237.93,93.328 L237.93,90.368 C237.93,89.872 237.706,89.664 237.354,89.664 C236.986,89.664 236.778,89.872 236.778,90.368 L236.778,93.328 C236.778,93.824 236.986,94.032 237.354,94.032 Z" id="10%" fill="#9C9C9C" fill-rule="nonzero"></path>
                <path d="M355.01,94.88 L355.01,93.664 C355.01,92.064 355.458,91.088 356.77,89.712 C358.114,88.288 358.498,87.44 358.498,86.4 C358.498,85.392 358.146,85.12 357.586,85.12 C357.026,85.12 356.674,85.424 356.674,86.224 L356.674,87.424 L355.01,87.424 L355.01,86.336 C355.01,84.544 355.906,83.52 357.634,83.52 C359.362,83.52 360.258,84.544 360.258,86.336 C360.258,87.664 359.714,88.848 358.082,90.576 C357.026,91.696 356.754,92.256 356.754,93.04 L356.754,93.28 L360.098,93.28 L360.098,94.88 L355.01,94.88 Z M363.986,95.04 C362.258,95.04 361.314,94.016 361.314,92.224 L361.314,86.336 C361.314,84.544 362.258,83.52 363.986,83.52 C365.714,83.52 366.658,84.544 366.658,86.336 L366.658,92.224 C366.658,94.016 365.714,95.04 363.986,95.04 Z M363.986,93.44 C364.546,93.44 364.898,93.136 364.898,92.336 L364.898,86.224 C364.898,85.424 364.546,85.12 363.986,85.12 C363.426,85.12 363.074,85.424 363.074,86.224 L363.074,92.336 C363.074,93.136 363.426,93.44 363.986,93.44 Z M369.442,89.904 C368.338,89.904 367.746,89.264 367.746,88.112 L367.746,85.312 C367.746,84.16 368.338,83.52 369.442,83.52 C370.546,83.52 371.138,84.16 371.138,85.312 L371.138,88.112 C371.138,89.264 370.546,89.904 369.442,89.904 Z M369.17,94.88 L373.506,83.68 L374.626,83.68 L370.29,94.88 L369.17,94.88 Z M369.442,88.896 C369.794,88.896 370.018,88.688 370.018,88.192 L370.018,85.232 C370.018,84.736 369.794,84.528 369.442,84.528 C369.074,84.528 368.866,84.736 368.866,85.232 L368.866,88.192 C368.866,88.688 369.074,88.896 369.442,88.896 Z M374.354,95.04 C373.25,95.04 372.658,94.4 372.658,93.248 L372.658,90.448 C372.658,89.296 373.25,88.656 374.354,88.656 C375.458,88.656 376.05,89.296 376.05,90.448 L376.05,93.248 C376.05,94.4 375.458,95.04 374.354,95.04 Z M374.354,94.032 C374.706,94.032 374.93,93.824 374.93,93.328 L374.93,90.368 C374.93,89.872 374.706,89.664 374.354,89.664 C373.986,89.664 373.778,89.872 373.778,90.368 L373.778,93.328 C373.778,93.824 373.986,94.032 374.354,94.032 Z" id="20%" fill="#9C9C9C" fill-rule="nonzero"></path>
                <path d="M493.538,95.04 C491.81,95.04 490.914,94.048 490.914,92.256 L490.914,91.344 L492.578,91.344 L492.578,92.336 C492.578,93.136 492.93,93.44 493.49,93.44 C494.05,93.44 494.402,93.168 494.402,92.176 L494.402,91.264 C494.402,90.224 494.05,89.84 493.25,89.84 L492.658,89.84 L492.658,88.24 L493.298,88.24 C493.954,88.24 494.354,87.952 494.354,87.056 L494.354,86.24 C494.354,85.44 493.986,85.12 493.474,85.12 C492.962,85.12 492.626,85.424 492.626,86.16 L492.626,86.896 L490.962,86.896 L490.962,86.304 C490.962,84.512 491.858,83.52 493.538,83.52 C495.218,83.52 496.114,84.496 496.114,86.288 L496.114,86.688 C496.114,87.888 495.73,88.624 494.866,88.944 L494.866,88.976 C495.81,89.328 496.162,90.144 496.162,91.28 L496.162,92.272 C496.162,94.064 495.266,95.04 493.538,95.04 Z M499.986,95.04 C498.258,95.04 497.314,94.016 497.314,92.224 L497.314,86.336 C497.314,84.544 498.258,83.52 499.986,83.52 C501.714,83.52 502.658,84.544 502.658,86.336 L502.658,92.224 C502.658,94.016 501.714,95.04 499.986,95.04 Z M499.986,93.44 C500.546,93.44 500.898,93.136 500.898,92.336 L500.898,86.224 C500.898,85.424 500.546,85.12 499.986,85.12 C499.426,85.12 499.074,85.424 499.074,86.224 L499.074,92.336 C499.074,93.136 499.426,93.44 499.986,93.44 Z M505.442,89.904 C504.338,89.904 503.746,89.264 503.746,88.112 L503.746,85.312 C503.746,84.16 504.338,83.52 505.442,83.52 C506.546,83.52 507.138,84.16 507.138,85.312 L507.138,88.112 C507.138,89.264 506.546,89.904 505.442,89.904 Z M505.17,94.88 L509.506,83.68 L510.626,83.68 L506.29,94.88 L505.17,94.88 Z M505.442,88.896 C505.794,88.896 506.018,88.688 506.018,88.192 L506.018,85.232 C506.018,84.736 505.794,84.528 505.442,84.528 C505.074,84.528 504.866,84.736 504.866,85.232 L504.866,88.192 C504.866,88.688 505.074,88.896 505.442,88.896 Z M510.354,95.04 C509.25,95.04 508.658,94.4 508.658,93.248 L508.658,90.448 C508.658,89.296 509.25,88.656 510.354,88.656 C511.458,88.656 512.05,89.296 512.05,90.448 L512.05,93.248 C512.05,94.4 511.458,95.04 510.354,95.04 Z M510.354,94.032 C510.706,94.032 510.93,93.824 510.93,93.328 L510.93,90.368 C510.93,89.872 510.706,89.664 510.354,89.664 C509.986,89.664 509.778,89.872 509.778,90.368 L509.778,93.328 C509.778,93.824 509.986,94.032 510.354,94.032 Z" id="30%" fill="#9C9C9C" fill-rule="nonzero"></path>
                <path d="M100.986,95.04 C99.2579998,95.04 98.3139998,94.016 98.3139998,92.224 L98.3139998,86.336 C98.3139998,84.544 99.2579998,83.52 100.986,83.52 C102.714,83.52 103.658,84.544 103.658,86.336 L103.658,92.224 C103.658,94.016 102.714,95.04 100.986,95.04 Z M100.986,93.44 C101.546,93.44 101.898,93.136 101.898,92.336 L101.898,86.224 C101.898,85.424 101.546,85.12 100.986,85.12 C100.426,85.12 100.074,85.424 100.074,86.224 L100.074,92.336 C100.074,93.136 100.426,93.44 100.986,93.44 Z M106.442,89.904 C105.338,89.904 104.746,89.264 104.746,88.112 L104.746,85.312 C104.746,84.16 105.338,83.52 106.442,83.52 C107.546,83.52 108.138,84.16 108.138,85.312 L108.138,88.112 C108.138,89.264 107.546,89.904 106.442,89.904 Z M106.17,94.88 L110.506,83.68 L111.626,83.68 L107.29,94.88 L106.17,94.88 Z M106.442,88.896 C106.794,88.896 107.018,88.688 107.018,88.192 L107.018,85.232 C107.018,84.736 106.794,84.528 106.442,84.528 C106.074,84.528 105.866,84.736 105.866,85.232 L105.866,88.192 C105.866,88.688 106.074,88.896 106.442,88.896 Z M111.354,95.04 C110.25,95.04 109.658,94.4 109.658,93.248 L109.658,90.448 C109.658,89.296 110.25,88.656 111.354,88.656 C112.458,88.656 113.05,89.296 113.05,90.448 L113.05,93.248 C113.05,94.4 112.458,95.04 111.354,95.04 Z M111.354,94.032 C111.706,94.032 111.93,93.824 111.93,93.328 L111.93,90.368 C111.93,89.872 111.706,89.664 111.354,89.664 C110.986,89.664 110.778,89.872 110.778,90.368 L110.778,93.328 C110.778,93.824 110.986,94.032 111.354,94.032 Z" id="0%" fill="#9C9C9C" fill-rule="nonzero"></path>
                <path d="M220.61,100.230765 L220.61,649.786828" id="Line-Copy" stroke="#979797" stroke-width="0.5" stroke-linecap="square" stroke-dasharray="2,5"></path>
                <path d="M351.11,100.230765 L351.11,649.786828" id="Line-Copy-10" stroke="#979797" stroke-width="0.5" stroke-linecap="square" stroke-dasharray="2,5"></path>
                <path d="M486.11,100.228522 L486.11,649.786828" id="Line-Copy-11" stroke="#979797" stroke-width="0.5" stroke-linecap="square" stroke-dasharray="2,5"></path>
                <g id="Group-13" transform="translate(92.610000, 110.880000)">
                    <rect id="Rectangle" fill="#F34949" x="0" y="0" width="461" height="12"></rect>
                    <rect id="Rectangle-Copy" fill="#3B3B3B" x="0" y="12" width="468" height="12"></rect>
                    <rect id="Rectangle-Copy-2" fill="#CECDCD" x="0" y="24" width="444" height="12"></rect>
                </g>
                <g id="Group-14" transform="translate(92.610000, 155.789091)">
                    <rect id="Rectangle-Copy-34" fill="#F34949" x="0" y="0" width="248" height="12"></rect>
                    <rect id="Rectangle-Copy-36" fill="#3B3B3B" x="0" y="12" width="307" height="12"></rect>
                    <rect id="Rectangle-Copy-37" fill="#CECDCD" x="0" y="24" width="313" height="12"></rect>
                </g>
                <g id="Group-15" transform="translate(92.610000, 200.698182)">
                    <rect id="Rectangle-Copy-38" fill="#F34949" x="0" y="0" width="242" height="12"></rect>
                    <rect id="Rectangle-Copy-39" fill="#3B3B3B" x="0" y="12" width="147" height="12"></rect>
                    <rect id="Rectangle-Copy-40" fill="#CECDCD" x="0" y="24" width="155" height="12"></rect>
                </g>
                <g id="Group-18" transform="translate(92.610000, 245.607273)">
                    <rect id="Rectangle-Copy-41" fill="#F34949" x="0" y="0" width="181" height="12"></rect>
                    <rect id="Rectangle-Copy-42" fill="#3B3B3B" x="0" y="12" width="229" height="12"></rect>
                    <rect id="Rectangle-Copy-43" fill="#CECDCD" x="0" y="24" width="213" height="12"></rect>
                </g>
                <g id="Group-19" transform="translate(92.610000, 290.516364)">
                    <rect id="Rectangle-Copy-44" fill="#F34949" x="0" y="0" width="100" height="12"></rect>
                    <rect id="Rectangle-Copy-45" fill="#3B3B3B" x="0" y="12" width="113" height="12"></rect>
                    <rect id="Rectangle-Copy-46" fill="#CECDCD" x="0" y="24" width="135" height="12"></rect>
                </g>
                <g id="Group-20" transform="translate(92.610000, 335.425455)">
                    <rect id="Rectangle-Copy-47" fill="#F34949" x="0" y="0" width="85" height="12"></rect>
                    <rect id="Rectangle-Copy-48" fill="#3B3B3B" x="0" y="12" width="157" height="12"></rect>
                    <rect id="Rectangle-Copy-49" fill="#CECDCD" x="0" y="24" width="147" height="12"></rect>
                </g>
                <g id="Group-21" transform="translate(92.610000, 380.334545)">
                    <rect id="Rectangle-Copy-50" fill="#F34949" x="0" y="0" width="78" height="12"></rect>
                    <rect id="Rectangle-Copy-51" fill="#3B3B3B" x="0" y="12" width="70" height="12"></rect>
                    <rect id="Rectangle-Copy-52" fill="#CECDCD" x="0" y="24" width="133" height="12"></rect>
                </g>
                <g id="Group-22" transform="translate(92.610000, 425.243636)">
                    <rect id="Rectangle-Copy-53" fill="#F34949" x="0" y="0" width="47" height="12"></rect>
                    <rect id="Rectangle-Copy-54" fill="#3B3B3B" x="0" y="12" width="76" height="12"></rect>
                    <rect id="Rectangle-Copy-55" fill="#CECDCD" x="0" y="24" width="70" height="12"></rect>
                </g>
                <g id="Group-23" transform="translate(92.610000, 470.152727)">
                    <rect id="Rectangle-Copy-56" fill="#F34949" x="0" y="0" width="47" height="12"></rect>
                    <rect id="Rectangle-Copy-57" fill="#3B3B3B" x="0" y="12" width="120" height="12"></rect>
                    <rect id="Rectangle-Copy-58" fill="#CECDCD" x="0" y="24" width="129" height="12"></rect>
                </g>
                <g id="Group-24" transform="translate(92.610000, 515.061818)">
                    <rect id="Rectangle-Copy-59" fill="#F34949" x="0" y="0" width="22" height="12"></rect>
                    <rect id="Rectangle-Copy-60" fill="#3B3B3B" x="0" y="12" width="14" height="12"></rect>
                    <rect id="Rectangle-Copy-61" fill="#CECDCD" x="0" y="24" width="22" height="12"></rect>
                </g>
                <g id="Group-30" transform="translate(92.610000, 559.970909)">
                    <rect id="Rectangle-Copy-62" fill="#F34949" x="0" y="0" width="22" height="12"></rect>
                    <rect id="Rectangle-Copy-63" fill="#3B3B3B" x="0" y="12" width="20" height="12"></rect>
                    <rect id="Rectangle-Copy-64" fill="#CECDCD" x="0" y="24" width="27" height="12"></rect>
                </g>
                <g id="Group-31" transform="translate(92.610000, 604.880000)">
                    <rect id="Rectangle-Copy-65" fill="#F34949" x="0" y="0" width="14" height="12"></rect>
                    <rect id="Rectangle-Copy-66" fill="#3B3B3B" x="0" y="12" width="20" height="12"></rect>
                    <rect id="Rectangle-Copy-67" fill="#CECDCD" x="0" y="24" width="23" height="12"></rect>
                </g>
                <path d="M92.1099998,101.88 L92.1099998,648.852731" id="Line" stroke="#000000" stroke-width="2" stroke-linecap="square"></path>
                <path d="M39.8519999,135.66 L39.8519999,123.06 L45.2519999,123.06 L45.2519999,124.86 L41.8319999,124.86 L41.8319999,128.19 L44.5499999,128.19 L44.5499999,129.99 L41.8319999,129.99 L41.8319999,133.86 L45.2519999,133.86 L45.2519999,135.66 L39.8519999,135.66 Z M46.0859999,135.66 L46.0859999,123.06 L48.0659999,123.06 L48.0659999,133.86 L51.3239999,133.86 L51.3239999,135.66 L46.0859999,135.66 Z M54.5579999,135.66 L54.5579999,123.06 L57.4739999,123.06 C59.4539999,123.06 60.4259999,124.158 60.4259999,126.174 L60.4259999,127.416 C60.4259999,129.432 59.4539999,130.53 57.4739999,130.53 L56.5379999,130.53 L56.5379999,135.66 L54.5579999,135.66 Z M56.5379999,128.73 L57.4739999,128.73 C58.1039999,128.73 58.4459999,128.442 58.4459999,127.542 L58.4459999,126.048 C58.4459999,125.148 58.1039999,124.86 57.4739999,124.86 L56.5379999,124.86 L56.5379999,128.73 Z M60.0539999,135.66 L62.1059999,123.06 L64.7879999,123.06 L66.8399999,135.66 L64.8599999,135.66 L64.4999999,133.158 L64.4999999,133.194 L62.2499999,133.194 L61.8899999,135.66 L60.0539999,135.66 Z M62.4839999,131.484 L64.2659999,131.484 L63.3839999,125.256 L63.3479999,125.256 L62.4839999,131.484 Z M67.4939999,135.66 L67.4939999,123.06 L70.4279999,123.06 C72.4799999,123.06 73.3619999,124.014 73.3619999,125.958 L73.3619999,126.732 C73.3619999,128.028 72.9479999,128.856 72.0659999,129.216 L72.0659999,129.252 C73.0559999,129.558 73.3799999,130.494 73.3799999,131.916 L73.3799999,134.13 C73.3799999,134.742 73.3979999,135.192 73.5959999,135.66 L71.5799999,135.66 C71.4719999,135.336 71.3999999,135.138 71.3999999,134.112 L71.3999999,131.808 C71.3999999,130.638 71.0579999,130.26 70.1579999,130.26 L69.4739999,130.26 L69.4739999,135.66 L67.4939999,135.66 Z M69.4739999,128.46 L70.1939999,128.46 C70.9319999,128.46 71.3819999,128.136 71.3819999,127.128 L71.3819999,126.156 C71.3819999,125.256 71.0759999,124.86 70.3739999,124.86 L69.4739999,124.86 L69.4739999,128.46 Z M77.3099999,135.84 C75.3659999,135.84 74.3039999,134.688 74.3039999,132.672 L74.3039999,126.048 C74.3039999,124.032 75.3659999,122.88 77.3099999,122.88 C79.2539999,122.88 80.3159999,124.032 80.3159999,126.048 L80.3159999,132.672 C80.3159999,134.688 79.2539999,135.84 77.3099999,135.84 Z M77.3099999,134.04 C77.9399999,134.04 78.3359999,133.698 78.3359999,132.798 L78.3359999,125.922 C78.3359999,125.022 77.9399999,124.68 77.3099999,124.68 C76.6799999,124.68 76.2839999,125.022 76.2839999,125.922 L76.2839999,132.798 C76.2839999,133.698 76.6799999,134.04 77.3099999,134.04 Z" id="elparo" fill="#666666" fill-rule="nonzero"></path>
                <path d="M23.658,225.88 L23.658,213.28 L29.058,213.28 L29.058,215.08 L25.638,215.08 L25.638,218.41 L28.356,218.41 L28.356,220.21 L25.638,220.21 L25.638,224.08 L29.058,224.08 L29.058,225.88 L23.658,225.88 Z M29.8919999,225.88 L29.8919999,213.28 L32.9159999,213.28 C34.8959999,213.28 35.8679999,214.378 35.8679999,216.394 L35.8679999,222.766 C35.8679999,224.782 34.8959999,225.88 32.9159999,225.88 L29.8919999,225.88 Z M31.8719999,224.08 L32.8799999,224.08 C33.5099999,224.08 33.8879999,223.756 33.8879999,222.856 L33.8879999,216.304 C33.8879999,215.404 33.5099999,215.08 32.8799999,215.08 L31.8719999,215.08 L31.8719999,224.08 Z M39.7799999,226.06 C37.8359999,226.06 36.8279999,224.908 36.8279999,222.892 L36.8279999,213.28 L38.8079999,213.28 L38.8079999,223.036 C38.8079999,223.936 39.1859999,224.26 39.8159999,224.26 C40.4459999,224.26 40.8239999,223.936 40.8239999,223.036 L40.8239999,213.28 L42.7319999,213.28 L42.7319999,222.892 C42.7319999,224.908 41.7239999,226.06 39.7799999,226.06 Z M46.6259999,226.06 C44.7179999,226.06 43.7099999,224.908 43.7099999,222.964 L43.7099999,216.196 C43.7099999,214.252 44.7179999,213.1 46.6259999,213.1 C48.5339999,213.1 49.5419999,214.252 49.5419999,216.196 L49.5419999,217.528 L47.6699999,217.528 L47.6699999,216.07 C47.6699999,215.242 47.2739999,214.9 46.6799999,214.9 C46.0859999,214.9 45.6899999,215.242 45.6899999,216.07 L45.6899999,223.108 C45.6899999,223.936 46.0859999,224.26 46.6799999,224.26 C47.2739999,224.26 47.6699999,223.936 47.6699999,223.108 L47.6699999,221.182 L49.5419999,221.182 L49.5419999,222.964 C49.5419999,224.908 48.5339999,226.06 46.6259999,226.06 Z M49.9079999,225.88 L51.9599999,213.28 L54.6419999,213.28 L56.6939999,225.88 L54.7139999,225.88 L54.3539999,223.378 L54.3539999,223.414 L52.1039999,223.414 L51.7439999,225.88 L49.9079999,225.88 Z M52.3379999,221.704 L54.1199999,221.704 L53.2379999,215.476 L53.2019999,215.476 L52.3379999,221.704 Z M60.1019999,226.06 C58.1939999,226.06 57.1859999,224.908 57.1859999,222.964 L57.1859999,216.196 C57.1859999,214.252 58.1939999,213.1 60.1019999,213.1 C62.0099999,213.1 63.0179999,214.252 63.0179999,216.196 L63.0179999,217.528 L61.1459999,217.528 L61.1459999,216.07 C61.1459999,215.242 60.7499999,214.9 60.1559999,214.9 C59.5619999,214.9 59.1659999,215.242 59.1659999,216.07 L59.1659999,223.108 C59.1659999,223.936 59.5619999,224.26 60.1559999,224.26 C60.7499999,224.26 61.1459999,223.936 61.1459999,223.108 L61.1459999,221.182 L63.0179999,221.182 L63.0179999,222.964 C63.0179999,224.908 62.0099999,226.06 60.1019999,226.06 Z M63.9059999,225.88 L63.9059999,213.28 L65.8859999,213.28 L65.8859999,225.88 L63.9059999,225.88 Z M68.8439999,212.434 L70.1039999,210.364 L72.2639999,210.364 L70.3379999,212.434 L68.8439999,212.434 Z M69.9239999,226.06 C67.9799999,226.06 66.9179999,224.908 66.9179999,222.892 L66.9179999,216.268 C66.9179999,214.252 67.9799999,213.1 69.9239999,213.1 C71.8679999,213.1 72.9299999,214.252 72.9299999,216.268 L72.9299999,222.892 C72.9299999,224.908 71.8679999,226.06 69.9239999,226.06 Z M69.9239999,224.26 C70.5539999,224.26 70.9499999,223.918 70.9499999,223.018 L70.9499999,216.142 C70.9499999,215.242 70.5539999,214.9 69.9239999,214.9 C69.2939999,214.9 68.8979999,215.242 68.8979999,216.142 L68.8979999,223.018 C68.8979999,223.918 69.2939999,224.26 69.9239999,224.26 Z M73.9619999,225.88 L73.9619999,213.28 L76.4459999,213.28 L78.3719999,220.822 L78.4079999,220.822 L78.4079999,213.28 L80.1719999,213.28 L80.1719999,225.88 L78.1379999,225.88 L75.7619999,216.682 L75.7259999,216.682 L75.7259999,225.88 L73.9619999,225.88 Z" id="educación" fill="#666666" fill-rule="nonzero"></path>
                <path d="M35.8319999,316.88 L35.8319999,304.28 L38.7479999,304.28 C40.7279999,304.28 41.6999999,305.378 41.6999999,307.394 L41.6999999,308.636 C41.6999999,310.652 40.7279999,311.75 38.7479999,311.75 L37.8119999,311.75 L37.8119999,316.88 L35.8319999,316.88 Z M37.8119999,309.95 L38.7479999,309.95 C39.3779999,309.95 39.7199999,309.662 39.7199999,308.762 L39.7199999,307.268 C39.7199999,306.368 39.3779999,306.08 38.7479999,306.08 L37.8119999,306.08 L37.8119999,309.95 Z M45.3419999,317.06 C43.3979999,317.06 42.3359999,315.908 42.3359999,313.892 L42.3359999,307.268 C42.3359999,305.252 43.3979999,304.1 45.3419999,304.1 C47.2859999,304.1 48.3479999,305.252 48.3479999,307.268 L48.3479999,313.892 C48.3479999,315.908 47.2859999,317.06 45.3419999,317.06 Z M45.3419999,315.26 C45.9719999,315.26 46.3679999,314.918 46.3679999,314.018 L46.3679999,307.142 C46.3679999,306.242 45.9719999,305.9 45.3419999,305.9 C44.7119999,305.9 44.3159999,306.242 44.3159999,307.142 L44.3159999,314.018 C44.3159999,314.918 44.7119999,315.26 45.3419999,315.26 Z M49.3799999,316.88 L49.3799999,304.28 L51.3599999,304.28 L51.3599999,315.08 L54.6179999,315.08 L54.6179999,316.88 L49.3799999,316.88 Z M55.1819999,303.434 L56.4419999,301.364 L58.6019999,301.364 L56.6759999,303.434 L55.1819999,303.434 Z M55.2719999,316.88 L55.2719999,304.28 L57.2519999,304.28 L57.2519999,316.88 L55.2719999,316.88 Z M59.9759999,316.88 L59.9759999,306.08 L57.9059999,306.08 L57.9059999,304.28 L64.0259999,304.28 L64.0259999,306.08 L61.9559999,306.08 L61.9559999,316.88 L59.9759999,316.88 Z M64.6799999,316.88 L64.6799999,304.28 L66.6599999,304.28 L66.6599999,316.88 L64.6799999,316.88 Z M70.6259999,317.06 C68.7179999,317.06 67.7099999,315.908 67.7099999,313.964 L67.7099999,307.196 C67.7099999,305.252 68.7179999,304.1 70.6259999,304.1 C72.5339999,304.1 73.5419999,305.252 73.5419999,307.196 L73.5419999,308.528 L71.6699999,308.528 L71.6699999,307.07 C71.6699999,306.242 71.2739999,305.9 70.6799999,305.9 C70.0859999,305.9 69.6899999,306.242 69.6899999,307.07 L69.6899999,314.108 C69.6899999,314.936 70.0859999,315.26 70.6799999,315.26 C71.2739999,315.26 71.6699999,314.936 71.6699999,314.108 L71.6699999,312.182 L73.5419999,312.182 L73.5419999,313.964 C73.5419999,315.908 72.5339999,317.06 70.6259999,317.06 Z M73.9079999,316.88 L75.9599999,304.28 L78.6419999,304.28 L80.6939999,316.88 L78.7139999,316.88 L78.3539999,314.378 L78.3539999,314.414 L76.1039999,314.414 L75.7439999,316.88 L73.9079999,316.88 Z M76.3379999,312.704 L78.1199999,312.704 L77.2379999,306.476 L77.2019999,306.476 L76.3379999,312.704 Z" id="política" fill="#666666" fill-rule="nonzero"></path>
                <path d="M39.2219999,361.06 C37.2779999,361.06 36.3059999,359.908 36.3059999,357.892 L36.3059999,357.172 L38.1779999,357.172 L38.1779999,358.036 C38.1779999,358.936 38.5739999,359.26 39.2039999,359.26 C39.8339999,359.26 40.2299999,358.936 40.2299999,358 C40.2299999,356.956 39.8339999,356.29 38.5379999,355.156 C36.8819999,353.698 36.3419999,352.672 36.3419999,351.232 C36.3419999,349.252 37.3679999,348.1 39.2939999,348.1 C41.2199999,348.1 42.1739999,349.252 42.1739999,351.268 L42.1739999,351.79 L40.3019999,351.79 L40.3019999,351.142 C40.3019999,350.242 39.9419999,349.9 39.3119999,349.9 C38.6819999,349.9 38.3219999,350.242 38.3219999,351.106 C38.3219999,352.024 38.7359999,352.69 40.0319999,353.824 C41.6879999,355.282 42.2099999,356.29 42.2099999,357.856 C42.2099999,359.908 41.1659999,361.06 39.2219999,361.06 Z M42.4679999,360.88 L44.5199999,348.28 L47.2019999,348.28 L49.2539999,360.88 L47.2739999,360.88 L46.9139999,358.378 L46.9139999,358.414 L44.6639999,358.414 L44.3039999,360.88 L42.4679999,360.88 Z M44.8979999,356.704 L46.6799999,356.704 L45.7979999,350.476 L45.7619999,350.476 L44.8979999,356.704 Z M49.9079999,360.88 L49.9079999,348.28 L52.3919999,348.28 L54.3179999,355.822 L54.3539999,355.822 L54.3539999,348.28 L56.1179999,348.28 L56.1179999,360.88 L54.0839999,360.88 L51.7079999,351.682 L51.6719999,351.682 L51.6719999,360.88 L49.9079999,360.88 Z M57.2939999,360.88 L57.2939999,348.28 L59.2739999,348.28 L59.2739999,360.88 L57.2939999,360.88 Z M60.4499999,360.88 L60.4499999,348.28 L63.4739999,348.28 C65.4539999,348.28 66.4259999,349.378 66.4259999,351.394 L66.4259999,357.766 C66.4259999,359.782 65.4539999,360.88 63.4739999,360.88 L60.4499999,360.88 Z M62.4299999,359.08 L63.4379999,359.08 C64.0679999,359.08 64.4459999,358.756 64.4459999,357.856 L64.4459999,351.304 C64.4459999,350.404 64.0679999,350.08 63.4379999,350.08 L62.4299999,350.08 L62.4299999,359.08 Z M66.8999999,360.88 L68.9519999,348.28 L71.6339999,348.28 L73.6859999,360.88 L71.7059999,360.88 L71.3459999,358.378 L71.3459999,358.414 L69.0959999,358.414 L68.7359999,360.88 L66.8999999,360.88 Z M69.3299999,356.704 L71.1119999,356.704 L70.2299999,350.476 L70.1939999,350.476 L69.3299999,356.704 Z M74.3399999,360.88 L74.3399999,348.28 L77.3639999,348.28 C79.3439999,348.28 80.3159999,349.378 80.3159999,351.394 L80.3159999,357.766 C80.3159999,359.782 79.3439999,360.88 77.3639999,360.88 L74.3399999,360.88 Z M76.3199999,359.08 L77.3279999,359.08 C77.9579999,359.08 78.3359999,358.756 78.3359999,357.856 L78.3359999,351.304 C78.3359999,350.404 77.9579999,350.08 77.3279999,350.08 L76.3199999,350.08 L76.3199999,359.08 Z" id="sanidad" fill="#666666" fill-rule="nonzero"></path>
                <path d="M33.7439999,407.06 C31.7999999,407.06 30.8279999,405.908 30.8279999,403.892 L30.8279999,403.172 L32.6999999,403.172 L32.6999999,404.036 C32.6999999,404.936 33.0959999,405.26 33.7259999,405.26 C34.3559999,405.26 34.7519999,404.936 34.7519999,404 C34.7519999,402.956 34.3559999,402.29 33.0599999,401.156 C31.4039999,399.698 30.8639999,398.672 30.8639999,397.232 C30.8639999,395.252 31.8899999,394.1 33.8159999,394.1 C35.7419999,394.1 36.6959999,395.252 36.6959999,397.268 L36.6959999,397.79 L34.8239999,397.79 L34.8239999,397.142 C34.8239999,396.242 34.4639999,395.9 33.8339999,395.9 C33.2039999,395.9 32.8439999,396.242 32.8439999,397.106 C32.8439999,398.024 33.2579999,398.69 34.5539999,399.824 C36.2099999,401.282 36.7319999,402.29 36.7319999,403.856 C36.7319999,405.908 35.6879999,407.06 33.7439999,407.06 Z M40.4279999,407.06 C38.4839999,407.06 37.4219999,405.908 37.4219999,403.892 L37.4219999,397.268 C37.4219999,395.252 38.4839999,394.1 40.4279999,394.1 C42.3719999,394.1 43.4339999,395.252 43.4339999,397.268 L43.4339999,403.892 C43.4339999,405.908 42.3719999,407.06 40.4279999,407.06 Z M40.4279999,405.26 C41.0579999,405.26 41.4539999,404.918 41.4539999,404.018 L41.4539999,397.142 C41.4539999,396.242 41.0579999,395.9 40.4279999,395.9 C39.7979999,395.9 39.4019999,396.242 39.4019999,397.142 L39.4019999,404.018 C39.4019999,404.918 39.7979999,405.26 40.4279999,405.26 Z M47.2559999,407.06 C45.3479999,407.06 44.3399999,405.908 44.3399999,403.964 L44.3399999,397.196 C44.3399999,395.252 45.3479999,394.1 47.2559999,394.1 C49.1639999,394.1 50.1719999,395.252 50.1719999,397.196 L50.1719999,398.528 L48.2999999,398.528 L48.2999999,397.07 C48.2999999,396.242 47.9039999,395.9 47.3099999,395.9 C46.7159999,395.9 46.3199999,396.242 46.3199999,397.07 L46.3199999,404.108 C46.3199999,404.936 46.7159999,405.26 47.3099999,405.26 C47.9039999,405.26 48.2999999,404.936 48.2999999,404.108 L48.2999999,402.182 L50.1719999,402.182 L50.1719999,403.964 C50.1719999,405.908 49.1639999,407.06 47.2559999,407.06 Z M51.0599999,406.88 L51.0599999,394.28 L53.0399999,394.28 L53.0399999,406.88 L51.0599999,406.88 Z M54.2159999,406.88 L54.2159999,394.28 L59.6159999,394.28 L59.6159999,396.08 L56.1959999,396.08 L56.1959999,399.41 L58.9139999,399.41 L58.9139999,401.21 L56.1959999,401.21 L56.1959999,405.08 L59.6159999,405.08 L59.6159999,406.88 L54.2159999,406.88 Z M60.4499999,406.88 L60.4499999,394.28 L63.4739999,394.28 C65.4539999,394.28 66.4259999,395.378 66.4259999,397.394 L66.4259999,403.766 C66.4259999,405.782 65.4539999,406.88 63.4739999,406.88 L60.4499999,406.88 Z M62.4299999,405.08 L63.4379999,405.08 C64.0679999,405.08 64.4459999,404.756 64.4459999,403.856 L64.4459999,397.304 C64.4459999,396.404 64.0679999,396.08 63.4379999,396.08 L62.4299999,396.08 L62.4299999,405.08 Z M66.8999999,406.88 L68.9519999,394.28 L71.6339999,394.28 L73.6859999,406.88 L71.7059999,406.88 L71.3459999,404.378 L71.3459999,404.414 L69.0959999,404.414 L68.7359999,406.88 L66.8999999,406.88 Z M69.3299999,402.704 L71.1119999,402.704 L70.2299999,396.476 L70.1939999,396.476 L69.3299999,402.704 Z M74.3399999,406.88 L74.3399999,394.28 L77.3639999,394.28 C79.3439999,394.28 80.3159999,395.378 80.3159999,397.394 L80.3159999,403.766 C80.3159999,405.782 79.3439999,406.88 77.3639999,406.88 L74.3399999,406.88 Z M76.3199999,405.08 L77.3279999,405.08 C77.9579999,405.08 78.3359999,404.756 78.3359999,403.856 L78.3359999,397.304 C78.3359999,396.404 77.9579999,396.08 77.3279999,396.08 L76.3199999,396.08 L76.3199999,405.08 Z" id="sociedad" fill="#666666" fill-rule="nonzero"></path>
                <path d="M35.7599999,449.88 L33.8519999,437.28 L35.8499999,437.28 L37.1459999,447.054 L37.1819999,447.054 L38.4779999,437.28 L40.2959999,437.28 L38.3879999,449.88 L35.7599999,449.88 Z M40.9499999,449.88 L40.9499999,437.28 L42.9299999,437.28 L42.9299999,449.88 L40.9499999,449.88 Z M45.4919999,449.88 L43.5839999,437.28 L45.5819999,437.28 L46.8779999,447.054 L46.9139999,447.054 L48.2099999,437.28 L50.0279999,437.28 L48.1199999,449.88 L45.4919999,449.88 Z M50.6819999,449.88 L50.6819999,437.28 L52.6619999,437.28 L52.6619999,449.88 L50.6819999,449.88 Z M53.8379999,449.88 L53.8379999,437.28 L59.2379999,437.28 L59.2379999,439.08 L55.8179999,439.08 L55.8179999,442.41 L58.5359999,442.41 L58.5359999,444.21 L55.8179999,444.21 L55.8179999,448.08 L59.2379999,448.08 L59.2379999,449.88 L53.8379999,449.88 Z M60.0719999,449.88 L60.0719999,437.28 L62.5559999,437.28 L64.4819999,444.822 L64.5179999,444.822 L64.5179999,437.28 L66.2819999,437.28 L66.2819999,449.88 L64.2479999,449.88 L61.8719999,440.682 L61.8359999,440.682 L61.8359999,449.88 L60.0719999,449.88 Z M67.4579999,449.88 L67.4579999,437.28 L70.4819999,437.28 C72.4619999,437.28 73.4339999,438.378 73.4339999,440.394 L73.4339999,446.766 C73.4339999,448.782 72.4619999,449.88 70.4819999,449.88 L67.4579999,449.88 Z M69.4379999,448.08 L70.4459999,448.08 C71.0759999,448.08 71.4539999,447.756 71.4539999,446.856 L71.4539999,440.304 C71.4539999,439.404 71.0759999,439.08 70.4459999,439.08 L69.4379999,439.08 L69.4379999,448.08 Z M73.9079999,449.88 L75.9599999,437.28 L78.6419999,437.28 L80.6939999,449.88 L78.7139999,449.88 L78.3539999,447.378 L78.3539999,447.414 L76.1039999,447.414 L75.7439999,449.88 L73.9079999,449.88 Z M76.3379999,445.704 L78.1199999,445.704 L77.2379999,439.476 L77.2019999,439.476 L76.3379999,445.704 Z" id="vivienda" fill="#666666" fill-rule="nonzero"></path>
                <path d="M19.08,496.06 C17.172,496.06 16.164,494.908 16.164,492.964 L16.164,486.196 C16.164,484.252 17.172,483.1 19.08,483.1 C20.988,483.1 21.996,484.252 21.996,486.196 L21.996,487.528 L20.124,487.528 L20.124,486.07 C20.124,485.242 19.728,484.9 19.134,484.9 C18.54,484.9 18.144,485.242 18.144,486.07 L18.144,493.108 C18.144,493.936 18.54,494.26 19.134,494.26 C19.728,494.26 20.124,493.936 20.124,493.108 L20.124,491.182 L21.996,491.182 L21.996,492.964 C21.996,494.908 20.988,496.06 19.08,496.06 Z M25.782,496.06 C23.838,496.06 22.776,494.908 22.776,492.892 L22.776,486.268 C22.776,484.252 23.838,483.1 25.782,483.1 C27.726,483.1 28.788,484.252 28.788,486.268 L28.788,492.892 C28.788,494.908 27.726,496.06 25.782,496.06 Z M25.782,494.26 C26.412,494.26 26.808,493.918 26.808,493.018 L26.808,486.142 C26.808,485.242 26.412,484.9 25.782,484.9 C25.152,484.9 24.756,485.242 24.756,486.142 L24.756,493.018 C24.756,493.918 25.152,494.26 25.782,494.26 Z M29.8199999,495.88 L29.8199999,483.28 L32.7539999,483.28 C34.8059999,483.28 35.6879999,484.234 35.6879999,486.178 L35.6879999,486.952 C35.6879999,488.248 35.2739999,489.076 34.3919999,489.436 L34.3919999,489.472 C35.3819999,489.778 35.7059999,490.714 35.7059999,492.136 L35.7059999,494.35 C35.7059999,494.962 35.7239999,495.412 35.9219999,495.88 L33.9059999,495.88 C33.7979999,495.556 33.7259999,495.358 33.7259999,494.332 L33.7259999,492.028 C33.7259999,490.858 33.3839999,490.48 32.4839999,490.48 L31.7999999,490.48 L31.7999999,495.88 L29.8199999,495.88 Z M31.7999999,488.68 L32.5199999,488.68 C33.2579999,488.68 33.7079999,488.356 33.7079999,487.348 L33.7079999,486.376 C33.7079999,485.476 33.4019999,485.08 32.6999999,485.08 L31.7999999,485.08 L31.7999999,488.68 Z M36.7739999,495.88 L36.7739999,483.28 L39.7079999,483.28 C41.7599999,483.28 42.6419999,484.234 42.6419999,486.178 L42.6419999,486.952 C42.6419999,488.248 42.2279999,489.076 41.3459999,489.436 L41.3459999,489.472 C42.3359999,489.778 42.6599999,490.714 42.6599999,492.136 L42.6599999,494.35 C42.6599999,494.962 42.6779999,495.412 42.8759999,495.88 L40.8599999,495.88 C40.7519999,495.556 40.6799999,495.358 40.6799999,494.332 L40.6799999,492.028 C40.6799999,490.858 40.3379999,490.48 39.4379999,490.48 L38.7539999,490.48 L38.7539999,495.88 L36.7739999,495.88 Z M38.7539999,488.68 L39.4739999,488.68 C40.2119999,488.68 40.6619999,488.356 40.6619999,487.348 L40.6619999,486.376 C40.6619999,485.476 40.3559999,485.08 39.6539999,485.08 L38.7539999,485.08 L38.7539999,488.68 Z M46.6079999,496.06 C44.6639999,496.06 43.6559999,494.908 43.6559999,492.892 L43.6559999,483.28 L45.6359999,483.28 L45.6359999,493.036 C45.6359999,493.936 46.0139999,494.26 46.6439999,494.26 C47.2739999,494.26 47.6519999,493.936 47.6519999,493.036 L47.6519999,483.28 L49.5599999,483.28 L49.5599999,492.892 C49.5599999,494.908 48.5519999,496.06 46.6079999,496.06 Z M50.6639999,495.88 L50.6639999,483.28 L53.5799999,483.28 C55.5599999,483.28 56.5319999,484.378 56.5319999,486.394 L56.5319999,487.636 C56.5319999,489.652 55.5599999,490.75 53.5799999,490.75 L52.6439999,490.75 L52.6439999,495.88 L50.6639999,495.88 Z M52.6439999,488.95 L53.5799999,488.95 C54.2099999,488.95 54.5519999,488.662 54.5519999,487.762 L54.5519999,486.268 C54.5519999,485.368 54.2099999,485.08 53.5799999,485.08 L52.6439999,485.08 L52.6439999,488.95 Z M60.1019999,496.06 C58.1939999,496.06 57.1859999,494.908 57.1859999,492.964 L57.1859999,486.196 C57.1859999,484.252 58.1939999,483.1 60.1019999,483.1 C62.0099999,483.1 63.0179999,484.252 63.0179999,486.196 L63.0179999,487.528 L61.1459999,487.528 L61.1459999,486.07 C61.1459999,485.242 60.7499999,484.9 60.1559999,484.9 C59.5619999,484.9 59.1659999,485.242 59.1659999,486.07 L59.1659999,493.108 C59.1659999,493.936 59.5619999,494.26 60.1559999,494.26 C60.7499999,494.26 61.1459999,493.936 61.1459999,493.108 L61.1459999,491.182 L63.0179999,491.182 L63.0179999,492.964 C63.0179999,494.908 62.0099999,496.06 60.1019999,496.06 Z M63.9059999,495.88 L63.9059999,483.28 L65.8859999,483.28 L65.8859999,495.88 L63.9059999,495.88 Z M68.8439999,482.434 L70.1039999,480.364 L72.2639999,480.364 L70.3379999,482.434 L68.8439999,482.434 Z M69.9239999,496.06 C67.9799999,496.06 66.9179999,494.908 66.9179999,492.892 L66.9179999,486.268 C66.9179999,484.252 67.9799999,483.1 69.9239999,483.1 C71.8679999,483.1 72.9299999,484.252 72.9299999,486.268 L72.9299999,492.892 C72.9299999,494.908 71.8679999,496.06 69.9239999,496.06 Z M69.9239999,494.26 C70.5539999,494.26 70.9499999,493.918 70.9499999,493.018 L70.9499999,486.142 C70.9499999,485.242 70.5539999,484.9 69.9239999,484.9 C69.2939999,484.9 68.8979999,485.242 68.8979999,486.142 L68.8979999,493.018 C68.8979999,493.918 69.2939999,494.26 69.9239999,494.26 Z M73.9619999,495.88 L73.9619999,483.28 L76.4459999,483.28 L78.3719999,490.822 L78.4079999,490.822 L78.4079999,483.28 L80.1719999,483.28 L80.1719999,495.88 L78.1379999,495.88 L75.7619999,486.682 L75.7259999,486.682 L75.7259999,495.88 L73.9619999,495.88 Z" id="corrupción" fill="#666666" fill-rule="nonzero"></path>
                <path d="M29.922,532.88 L28.014,520.28 L30.012,520.28 L31.308,530.054 L31.344,530.054 L32.64,520.28 L34.458,520.28 L32.55,532.88 L29.922,532.88 Z M35.1119999,532.88 L35.1119999,520.28 L37.0919999,520.28 L37.0919999,532.88 L35.1119999,532.88 Z M41.1299999,533.06 C39.1859999,533.06 38.1239999,531.908 38.1239999,529.892 L38.1239999,523.268 C38.1239999,521.252 39.1859999,520.1 41.1299999,520.1 C43.0739999,520.1 44.1359999,521.252 44.1359999,523.268 L44.1359999,529.892 C44.1359999,531.908 43.0739999,533.06 41.1299999,533.06 Z M41.1299999,531.26 C41.7599999,531.26 42.1559999,530.918 42.1559999,530.018 L42.1559999,523.142 C42.1559999,522.242 41.7599999,521.9 41.1299999,521.9 C40.4999999,521.9 40.1039999,522.242 40.1039999,523.142 L40.1039999,530.018 C40.1039999,530.918 40.4999999,531.26 41.1299999,531.26 Z M45.1679999,532.88 L45.1679999,520.28 L47.1479999,520.28 L47.1479999,531.08 L50.4059999,531.08 L50.4059999,532.88 L45.1679999,532.88 Z M51.0599999,532.88 L51.0599999,520.28 L56.4599999,520.28 L56.4599999,522.08 L53.0399999,522.08 L53.0399999,525.41 L55.7579999,525.41 L55.7579999,527.21 L53.0399999,527.21 L53.0399999,531.08 L56.4599999,531.08 L56.4599999,532.88 L51.0599999,532.88 Z M57.2939999,532.88 L57.2939999,520.28 L59.7779999,520.28 L61.7039999,527.822 L61.7399999,527.822 L61.7399999,520.28 L63.5039999,520.28 L63.5039999,532.88 L61.4699999,532.88 L59.0939999,523.682 L59.0579999,523.682 L59.0579999,532.88 L57.2939999,532.88 Z M67.4699999,533.06 C65.5619999,533.06 64.5539999,531.908 64.5539999,529.964 L64.5539999,523.196 C64.5539999,521.252 65.5619999,520.1 67.4699999,520.1 C69.3779999,520.1 70.3859999,521.252 70.3859999,523.196 L70.3859999,524.528 L68.5139999,524.528 L68.5139999,523.07 C68.5139999,522.242 68.1179999,521.9 67.5239999,521.9 C66.9299999,521.9 66.5339999,522.242 66.5339999,523.07 L66.5339999,530.108 C66.5339999,530.936 66.9299999,531.26 67.5239999,531.26 C68.1179999,531.26 68.5139999,530.936 68.5139999,530.108 L68.5139999,528.182 L70.3859999,528.182 L70.3859999,529.964 C70.3859999,531.908 69.3779999,533.06 67.4699999,533.06 Z M71.2739999,532.88 L71.2739999,520.28 L73.2539999,520.28 L73.2539999,532.88 L71.2739999,532.88 Z M73.9079999,532.88 L75.9599999,520.28 L78.6419999,520.28 L80.6939999,532.88 L78.7139999,532.88 L78.3539999,530.378 L78.3539999,530.414 L76.1039999,530.414 L75.7439999,532.88 L73.9079999,532.88 Z M76.3379999,528.704 L78.1199999,528.704 L77.2379999,522.476 L77.2019999,522.476 L76.3379999,528.704 Z M29.3339999,548.88 L29.3339999,536.28 L32.1599999,536.28 L33.4199999,545.298 L33.4559999,545.298 L34.7159999,536.28 L37.5419999,536.28 L37.5419999,548.88 L35.6699999,548.88 L35.6699999,539.34 L35.6339999,539.34 L34.1939999,548.88 L32.5379999,548.88 L31.0979999,539.34 L31.0619999,539.34 L31.0619999,548.88 L29.3339999,548.88 Z M38.1959999,548.88 L40.2479999,536.28 L42.9299999,536.28 L44.9819999,548.88 L43.0019999,548.88 L42.6419999,546.378 L42.6419999,546.414 L40.3919999,546.414 L40.0319999,548.88 L38.1959999,548.88 Z M40.6259999,544.704 L42.4079999,544.704 L41.5259999,538.476 L41.4899999,538.476 L40.6259999,544.704 Z M48.3899999,549.06 C46.4819999,549.06 45.4739999,547.908 45.4739999,545.964 L45.4739999,539.196 C45.4739999,537.252 46.4819999,536.1 48.3899999,536.1 C50.2979999,536.1 51.3059999,537.252 51.3059999,539.196 L51.3059999,540.528 L49.4339999,540.528 L49.4339999,539.07 C49.4339999,538.242 49.0379999,537.9 48.4439999,537.9 C47.8499999,537.9 47.4539999,538.242 47.4539999,539.07 L47.4539999,546.108 C47.4539999,546.936 47.8499999,547.26 48.4439999,547.26 C49.0379999,547.26 49.4339999,546.936 49.4339999,546.108 L49.4339999,544.182 L51.3059999,544.182 L51.3059999,545.964 C51.3059999,547.908 50.2979999,549.06 48.3899999,549.06 Z M52.1939999,548.88 L52.1939999,536.28 L54.1739999,536.28 L54.1739999,541.41 L56.2979999,541.41 L56.2979999,536.28 L58.2779999,536.28 L58.2779999,548.88 L56.2979999,548.88 L56.2979999,543.21 L54.1739999,543.21 L54.1739999,548.88 L52.1939999,548.88 Z M59.4539999,548.88 L59.4539999,536.28 L61.4339999,536.28 L61.4339999,548.88 L59.4539999,548.88 Z M65.1839999,549.06 C63.2399999,549.06 62.2679999,547.908 62.2679999,545.892 L62.2679999,545.172 L64.1399999,545.172 L64.1399999,546.036 C64.1399999,546.936 64.5359999,547.26 65.1659999,547.26 C65.7959999,547.26 66.1919999,546.936 66.1919999,546 C66.1919999,544.956 65.7959999,544.29 64.4999999,543.156 C62.8439999,541.698 62.3039999,540.672 62.3039999,539.232 C62.3039999,537.252 63.3299999,536.1 65.2559999,536.1 C67.1819999,536.1 68.1359999,537.252 68.1359999,539.268 L68.1359999,539.79 L66.2639999,539.79 L66.2639999,539.142 C66.2639999,538.242 65.9039999,537.9 65.2739999,537.9 C64.6439999,537.9 64.2839999,538.242 64.2839999,539.106 C64.2839999,540.024 64.6979999,540.69 65.9939999,541.824 C67.6499999,543.282 68.1719999,544.29 68.1719999,545.856 C68.1719999,547.908 67.1279999,549.06 65.1839999,549.06 Z M70.5539999,548.88 L70.5539999,538.08 L68.4839999,538.08 L68.4839999,536.28 L74.6039999,536.28 L74.6039999,538.08 L72.5339999,538.08 L72.5339999,548.88 L70.5539999,548.88 Z M73.9079999,548.88 L75.9599999,536.28 L78.6419999,536.28 L80.6939999,548.88 L78.7139999,548.88 L78.3539999,546.378 L78.3539999,546.414 L76.1039999,546.414 L75.7439999,548.88 L73.9079999,548.88 Z M76.3379999,544.704 L78.1199999,544.704 L77.2379999,538.476 L77.2019999,538.476 L76.3379999,544.704 Z" id="violenciamachista" fill="#666666" fill-rule="nonzero"></path>
                <path d="M-2.78532752e-12,577.88 L-2.78532752e-12,565.28 L1.98,565.28 L1.98,577.88 L-2.78532752e-12,577.88 Z M3.15599999,577.88 L3.15599999,565.28 L5.63999999,565.28 L7.56599999,572.822 L7.60199999,572.822 L7.60199999,565.28 L9.36599999,565.28 L9.36599999,577.88 L7.33199999,577.88 L4.95599999,568.682 L4.91999999,568.682 L4.91999999,577.88 L3.15599999,577.88 Z M10.542,577.88 L10.542,565.28 L13.566,565.28 C15.546,565.28 16.518,566.378 16.518,568.394 L16.518,574.766 C16.518,576.782 15.546,577.88 13.566,577.88 L10.542,577.88 Z M12.522,576.08 L13.53,576.08 C14.16,576.08 14.538,575.756 14.538,574.856 L14.538,568.304 C14.538,567.404 14.16,567.08 13.53,567.08 L12.522,567.08 L12.522,576.08 Z M17.55,577.88 L17.55,565.28 L22.95,565.28 L22.95,567.08 L19.53,567.08 L19.53,570.41 L22.248,570.41 L22.248,572.21 L19.53,572.21 L19.53,576.08 L22.95,576.08 L22.95,577.88 L17.55,577.88 Z M23.784,577.88 L23.784,565.28 L26.7,565.28 C28.68,565.28 29.652,566.378 29.652,568.394 L29.652,569.636 C29.652,571.652 28.68,572.75 26.7,572.75 L25.764,572.75 L25.764,577.88 L23.784,577.88 Z M25.764,570.95 L26.7,570.95 C27.33,570.95 27.672,570.662 27.672,569.762 L27.672,568.268 C27.672,567.368 27.33,567.08 26.7,567.08 L25.764,567.08 L25.764,570.95 Z M30.4319999,577.88 L30.4319999,565.28 L35.8319999,565.28 L35.8319999,567.08 L32.4119999,567.08 L32.4119999,570.41 L35.1299999,570.41 L35.1299999,572.21 L32.4119999,572.21 L32.4119999,576.08 L35.8319999,576.08 L35.8319999,577.88 L30.4319999,577.88 Z M36.6659999,577.88 L36.6659999,565.28 L39.1499999,565.28 L41.0759999,572.822 L41.1119999,572.822 L41.1119999,565.28 L42.8759999,565.28 L42.8759999,577.88 L40.8419999,577.88 L38.4659999,568.682 L38.4299999,568.682 L38.4299999,577.88 L36.6659999,577.88 Z M44.0519999,577.88 L44.0519999,565.28 L47.0759999,565.28 C49.0559999,565.28 50.0279999,566.378 50.0279999,568.394 L50.0279999,574.766 C50.0279999,576.782 49.0559999,577.88 47.0759999,577.88 L44.0519999,577.88 Z M46.0319999,576.08 L47.0399999,576.08 C47.6699999,576.08 48.0479999,575.756 48.0479999,574.856 L48.0479999,568.304 C48.0479999,567.404 47.6699999,567.08 47.0399999,567.08 L46.0319999,567.08 L46.0319999,576.08 Z M51.0599999,577.88 L51.0599999,565.28 L56.4599999,565.28 L56.4599999,567.08 L53.0399999,567.08 L53.0399999,570.41 L55.7579999,570.41 L55.7579999,572.21 L53.0399999,572.21 L53.0399999,576.08 L56.4599999,576.08 L56.4599999,577.88 L51.0599999,577.88 Z M57.2939999,577.88 L57.2939999,565.28 L59.7779999,565.28 L61.7039999,572.822 L61.7399999,572.822 L61.7399999,565.28 L63.5039999,565.28 L63.5039999,577.88 L61.4699999,577.88 L59.0939999,568.682 L59.0579999,568.682 L59.0579999,577.88 L57.2939999,577.88 Z M67.4699999,578.06 C65.5619999,578.06 64.5539999,576.908 64.5539999,574.964 L64.5539999,568.196 C64.5539999,566.252 65.5619999,565.1 67.4699999,565.1 C69.3779999,565.1 70.3859999,566.252 70.3859999,568.196 L70.3859999,569.528 L68.5139999,569.528 L68.5139999,568.07 C68.5139999,567.242 68.1179999,566.9 67.5239999,566.9 C66.9299999,566.9 66.5339999,567.242 66.5339999,568.07 L66.5339999,575.108 C66.5339999,575.936 66.9299999,576.26 67.5239999,576.26 C68.1179999,576.26 68.5139999,575.936 68.5139999,575.108 L68.5139999,573.182 L70.3859999,573.182 L70.3859999,574.964 C70.3859999,576.908 69.3779999,578.06 67.4699999,578.06 Z M71.2739999,577.88 L71.2739999,565.28 L73.2539999,565.28 L73.2539999,577.88 L71.2739999,577.88 Z M73.9079999,577.88 L75.9599999,565.28 L78.6419999,565.28 L80.6939999,577.88 L78.7139999,577.88 L78.3539999,575.378 L78.3539999,575.414 L76.1039999,575.414 L75.7439999,577.88 L73.9079999,577.88 Z M76.3379999,573.704 L78.1199999,573.704 L77.2379999,567.476 L77.2019999,567.476 L76.3379999,573.704 Z M13.368,593.88 L13.368,581.28 L16.392,581.28 C18.372,581.28 19.344,582.378 19.344,584.394 L19.344,590.766 C19.344,592.782 18.372,593.88 16.392,593.88 L13.368,593.88 Z M15.348,592.08 L16.356,592.08 C16.986,592.08 17.364,591.756 17.364,590.856 L17.364,584.304 C17.364,583.404 16.986,583.08 16.356,583.08 L15.348,583.08 L15.348,592.08 Z M20.376,593.88 L20.376,581.28 L25.776,581.28 L25.776,583.08 L22.356,583.08 L22.356,586.41 L25.074,586.41 L25.074,588.21 L22.356,588.21 L22.356,592.08 L25.776,592.08 L25.776,593.88 L20.376,593.88 Z M31.9799999,594.06 C30.0719999,594.06 29.0639999,592.908 29.0639999,590.964 L29.0639999,584.196 C29.0639999,582.252 30.0719999,581.1 31.9799999,581.1 C33.8879999,581.1 34.8959999,582.252 34.8959999,584.196 L34.8959999,585.528 L33.0239999,585.528 L33.0239999,584.07 C33.0239999,583.242 32.6279999,582.9 32.0339999,582.9 C31.4399999,582.9 31.0439999,583.242 31.0439999,584.07 L31.0439999,591.108 C31.0439999,591.936 31.4399999,592.26 32.0339999,592.26 C32.6279999,592.26 33.0239999,591.936 33.0239999,591.108 L33.0239999,589.182 L34.8959999,589.182 L34.8959999,590.964 C34.8959999,592.908 33.8879999,594.06 31.9799999,594.06 Z M35.2619999,593.88 L37.3139999,581.28 L39.9959999,581.28 L42.0479999,593.88 L40.0679999,593.88 L39.7079999,591.378 L39.7079999,591.414 L37.4579999,591.414 L37.0979999,593.88 L35.2619999,593.88 Z M37.6919999,589.704 L39.4739999,589.704 L38.5919999,583.476 L38.5559999,583.476 L37.6919999,589.704 Z M43.4219999,593.88 L43.4219999,583.08 L41.3519999,583.08 L41.3519999,581.28 L47.4719999,581.28 L47.4719999,583.08 L45.4019999,583.08 L45.4019999,593.88 L43.4219999,593.88 Z M46.7759999,593.88 L48.8279999,581.28 L51.5099999,581.28 L53.5619999,593.88 L51.5819999,593.88 L51.2219999,591.378 L51.2219999,591.414 L48.9719999,591.414 L48.6119999,593.88 L46.7759999,593.88 Z M49.2059999,589.704 L50.9879999,589.704 L50.1059999,583.476 L50.0699999,583.476 L49.2059999,589.704 Z M54.2159999,593.88 L54.2159999,581.28 L56.1959999,581.28 L56.1959999,592.08 L59.4539999,592.08 L59.4539999,593.88 L54.2159999,593.88 Z M62.9879999,594.06 C61.0439999,594.06 60.0359999,592.908 60.0359999,590.892 L60.0359999,581.28 L62.0159999,581.28 L62.0159999,591.036 C62.0159999,591.936 62.3939999,592.26 63.0239999,592.26 C63.6539999,592.26 64.0319999,591.936 64.0319999,591.036 L64.0319999,581.28 L65.9399999,581.28 L65.9399999,590.892 C65.9399999,592.908 64.9319999,594.06 62.9879999,594.06 Z M68.6099999,580.506 L67.6559999,579.93 C68.1059999,578.922 68.6099999,578.418 69.2939999,578.418 C69.7799999,578.418 70.1039999,578.598 70.3739999,578.76 C70.5899999,578.886 70.7699999,578.994 70.9859999,578.994 C71.2739999,578.994 71.4719999,578.796 71.7059999,578.292 L72.6599999,578.868 C72.2099999,579.876 71.7059999,580.38 71.0219999,580.38 C70.5359999,580.38 70.2119999,580.2 69.9419999,580.038 C69.7259999,579.912 69.5459999,579.804 69.3299999,579.804 C69.0419999,579.804 68.8439999,580.002 68.6099999,580.506 Z M67.0439999,593.88 L67.0439999,581.28 L69.5279999,581.28 L71.4539999,588.822 L71.4899999,588.822 L71.4899999,581.28 L73.2539999,581.28 L73.2539999,593.88 L71.2199999,593.88 L68.8439999,584.682 L68.8079999,584.682 L68.8079999,593.88 L67.0439999,593.88 Z M73.9079999,593.88 L75.9599999,581.28 L78.6419999,581.28 L80.6939999,593.88 L78.7139999,593.88 L78.3539999,591.378 L78.3539999,591.414 L76.1039999,591.414 L75.7439999,593.88 L73.9079999,593.88 Z M76.3379999,589.704 L78.1199999,589.704 L77.2379999,583.476 L77.2019999,583.476 L76.3379999,589.704 Z" id="independenciadecataluña" fill="#666666" fill-rule="nonzero"></path>
                <path d="M5.724,623.88 L5.724,611.28 L7.704,611.28 L7.704,623.88 L5.724,623.88 Z M8.87999999,623.88 L8.87999999,611.28 L11.364,611.28 L13.29,618.822 L13.326,618.822 L13.326,611.28 L15.09,611.28 L15.09,623.88 L13.056,623.88 L10.68,614.682 L10.644,614.682 L10.644,623.88 L8.87999999,623.88 Z M16.266,623.88 L16.266,611.28 L21.666,611.28 L21.666,613.08 L18.246,613.08 L18.246,616.41 L20.964,616.41 L20.964,618.21 L18.246,618.21 L18.246,622.08 L21.666,622.08 L21.666,623.88 L16.266,623.88 Z M25.11,624.06 C23.166,624.06 22.194,622.908 22.194,620.892 L22.194,620.172 L24.066,620.172 L24.066,621.036 C24.066,621.936 24.462,622.26 25.092,622.26 C25.722,622.26 26.118,621.936 26.118,621 C26.118,619.956 25.722,619.29 24.426,618.156 C22.77,616.698 22.23,615.672 22.23,614.232 C22.23,612.252 23.256,611.1 25.182,611.1 C27.108,611.1 28.062,612.252 28.062,614.268 L28.062,614.79 L26.19,614.79 L26.19,614.142 C26.19,613.242 25.83,612.9 25.2,612.9 C24.57,612.9 24.21,613.242 24.21,614.106 C24.21,615.024 24.624,615.69 25.92,616.824 C27.576,618.282 28.098,619.29 28.098,620.856 C28.098,622.908 27.054,624.06 25.11,624.06 Z M30.48,623.88 L30.48,613.08 L28.41,613.08 L28.41,611.28 L34.53,611.28 L34.53,613.08 L32.46,613.08 L32.46,623.88 L30.48,623.88 Z M33.8339999,623.88 L35.8859999,611.28 L38.5679999,611.28 L40.6199999,623.88 L38.6399999,623.88 L38.2799999,621.378 L38.2799999,621.414 L36.0299999,621.414 L35.6699999,623.88 L33.8339999,623.88 Z M36.2639999,619.704 L38.0459999,619.704 L37.1639999,613.476 L37.1279999,613.476 L36.2639999,619.704 Z M41.2739999,623.88 L41.2739999,611.28 L44.2619999,611.28 C46.3139999,611.28 47.1959999,612.234 47.1959999,614.178 L47.1959999,614.682 C47.1959999,615.978 46.7999999,616.788 45.9179999,617.148 L45.9179999,617.184 C46.9799999,617.544 47.3939999,618.48 47.3939999,619.812 L47.3939999,620.892 C47.3939999,622.836 46.3679999,623.88 44.3879999,623.88 L41.2739999,623.88 Z M43.2539999,616.41 L44.0279999,616.41 C44.7659999,616.41 45.2159999,616.086 45.2159999,615.078 L45.2159999,614.376 C45.2159999,613.476 44.9099999,613.08 44.2079999,613.08 L43.2539999,613.08 L43.2539999,616.41 Z M43.2539999,622.08 L44.3879999,622.08 C45.0539999,622.08 45.4139999,621.774 45.4139999,620.838 L45.4139999,619.74 C45.4139999,618.57 45.0359999,618.21 44.1359999,618.21 L43.2539999,618.21 L43.2539999,622.08 Z M48.2459999,623.88 L48.2459999,611.28 L50.2259999,611.28 L50.2259999,623.88 L48.2459999,623.88 Z M51.4019999,623.88 L51.4019999,611.28 L53.3819999,611.28 L53.3819999,622.08 L56.6399999,622.08 L56.6399999,623.88 L51.4019999,623.88 Z M57.2939999,623.88 L57.2939999,611.28 L59.2739999,611.28 L59.2739999,623.88 L57.2939999,623.88 Z M60.4499999,623.88 L60.4499999,611.28 L63.4739999,611.28 C65.4539999,611.28 66.4259999,612.378 66.4259999,614.394 L66.4259999,620.766 C66.4259999,622.782 65.4539999,623.88 63.4739999,623.88 L60.4499999,623.88 Z M62.4299999,622.08 L63.4379999,622.08 C64.0679999,622.08 64.4459999,621.756 64.4459999,620.856 L64.4459999,614.304 C64.4459999,613.404 64.0679999,613.08 63.4379999,613.08 L62.4299999,613.08 L62.4299999,622.08 Z M66.8999999,623.88 L68.9519999,611.28 L71.6339999,611.28 L73.6859999,623.88 L71.7059999,623.88 L71.3459999,621.378 L71.3459999,621.414 L69.0959999,621.414 L68.7359999,623.88 L66.8999999,623.88 Z M69.3299999,619.704 L71.1119999,619.704 L70.2299999,613.476 L70.1939999,613.476 L69.3299999,619.704 Z M74.3399999,623.88 L74.3399999,611.28 L77.3639999,611.28 C79.3439999,611.28 80.3159999,612.378 80.3159999,614.394 L80.3159999,620.766 C80.3159999,622.782 79.3439999,623.88 77.3639999,623.88 L74.3399999,623.88 Z M76.3199999,622.08 L77.3279999,622.08 C77.9579999,622.08 78.3359999,621.756 78.3359999,620.856 L78.3359999,614.304 C78.3359999,613.404 77.9579999,613.08 77.3279999,613.08 L76.3199999,613.08 L76.3199999,622.08 Z M35.8319999,639.88 L35.8319999,627.28 L38.7479999,627.28 C40.7279999,627.28 41.6999999,628.378 41.6999999,630.394 L41.6999999,631.636 C41.6999999,633.652 40.7279999,634.75 38.7479999,634.75 L37.8119999,634.75 L37.8119999,639.88 L35.8319999,639.88 Z M37.8119999,632.95 L38.7479999,632.95 C39.3779999,632.95 39.7199999,632.662 39.7199999,631.762 L39.7199999,630.268 C39.7199999,629.368 39.3779999,629.08 38.7479999,629.08 L37.8119999,629.08 L37.8119999,632.95 Z M45.3419999,640.06 C43.3979999,640.06 42.3359999,638.908 42.3359999,636.892 L42.3359999,630.268 C42.3359999,628.252 43.3979999,627.1 45.3419999,627.1 C47.2859999,627.1 48.3479999,628.252 48.3479999,630.268 L48.3479999,636.892 C48.3479999,638.908 47.2859999,640.06 45.3419999,640.06 Z M45.3419999,638.26 C45.9719999,638.26 46.3679999,637.918 46.3679999,637.018 L46.3679999,630.142 C46.3679999,629.242 45.9719999,628.9 45.3419999,628.9 C44.7119999,628.9 44.3159999,629.242 44.3159999,630.142 L44.3159999,637.018 C44.3159999,637.918 44.7119999,638.26 45.3419999,638.26 Z M49.3799999,639.88 L49.3799999,627.28 L51.3599999,627.28 L51.3599999,638.08 L54.6179999,638.08 L54.6179999,639.88 L49.3799999,639.88 Z M55.1819999,626.434 L56.4419999,624.364 L58.6019999,624.364 L56.6759999,626.434 L55.1819999,626.434 Z M55.2719999,639.88 L55.2719999,627.28 L57.2519999,627.28 L57.2519999,639.88 L55.2719999,639.88 Z M59.9759999,639.88 L59.9759999,629.08 L57.9059999,629.08 L57.9059999,627.28 L64.0259999,627.28 L64.0259999,629.08 L61.9559999,629.08 L61.9559999,639.88 L59.9759999,639.88 Z M64.6799999,639.88 L64.6799999,627.28 L66.6599999,627.28 L66.6599999,639.88 L64.6799999,639.88 Z M70.6259999,640.06 C68.7179999,640.06 67.7099999,638.908 67.7099999,636.964 L67.7099999,630.196 C67.7099999,628.252 68.7179999,627.1 70.6259999,627.1 C72.5339999,627.1 73.5419999,628.252 73.5419999,630.196 L73.5419999,631.528 L71.6699999,631.528 L71.6699999,630.07 C71.6699999,629.242 71.2739999,628.9 70.6799999,628.9 C70.0859999,628.9 69.6899999,629.242 69.6899999,630.07 L69.6899999,637.108 C69.6899999,637.936 70.0859999,638.26 70.6799999,638.26 C71.2739999,638.26 71.6699999,637.936 71.6699999,637.108 L71.6699999,635.182 L73.5419999,635.182 L73.5419999,636.964 C73.5419999,638.908 72.5339999,640.06 70.6259999,640.06 Z M73.9079999,639.88 L75.9599999,627.28 L78.6419999,627.28 L80.6939999,639.88 L78.7139999,639.88 L78.3539999,637.378 L78.3539999,637.414 L76.1039999,637.414 L75.7439999,639.88 L73.9079999,639.88 Z M76.3379999,635.704 L78.1199999,635.704 L77.2379999,629.476 L77.2019999,629.476 L76.3379999,635.704 Z" id="inestabilidadpolítica" fill="#666666" fill-rule="nonzero"></path>
                <path d="M27.8399999,180.88 L27.8399999,168.28 L33.2399999,168.28 L33.2399999,170.08 L29.8199999,170.08 L29.8199999,173.41 L32.5379999,173.41 L32.5379999,175.21 L29.8199999,175.21 L29.8199999,179.08 L33.2399999,179.08 L33.2399999,180.88 L27.8399999,180.88 Z M36.8639999,181.06 C34.9559999,181.06 33.9479999,179.908 33.9479999,177.964 L33.9479999,171.196 C33.9479999,169.252 34.9559999,168.1 36.8639999,168.1 C38.7719999,168.1 39.7799999,169.252 39.7799999,171.196 L39.7799999,172.528 L37.9079999,172.528 L37.9079999,171.07 C37.9079999,170.242 37.5119999,169.9 36.9179999,169.9 C36.3239999,169.9 35.9279999,170.242 35.9279999,171.07 L35.9279999,178.108 C35.9279999,178.936 36.3239999,179.26 36.9179999,179.26 C37.5119999,179.26 37.9079999,178.936 37.9079999,178.108 L37.9079999,176.182 L39.7799999,176.182 L39.7799999,177.964 C39.7799999,179.908 38.7719999,181.06 36.8639999,181.06 Z M43.5659999,181.06 C41.6219999,181.06 40.5599999,179.908 40.5599999,177.892 L40.5599999,171.268 C40.5599999,169.252 41.6219999,168.1 43.5659999,168.1 C45.5099999,168.1 46.5719999,169.252 46.5719999,171.268 L46.5719999,177.892 C46.5719999,179.908 45.5099999,181.06 43.5659999,181.06 Z M43.5659999,179.26 C44.1959999,179.26 44.5919999,178.918 44.5919999,178.018 L44.5919999,171.142 C44.5919999,170.242 44.1959999,169.9 43.5659999,169.9 C42.9359999,169.9 42.5399999,170.242 42.5399999,171.142 L42.5399999,178.018 C42.5399999,178.918 42.9359999,179.26 43.5659999,179.26 Z M47.6039999,180.88 L47.6039999,168.28 L50.0879999,168.28 L52.0139999,175.822 L52.0499999,175.822 L52.0499999,168.28 L53.8139999,168.28 L53.8139999,180.88 L51.7799999,180.88 L49.4039999,171.682 L49.3679999,171.682 L49.3679999,180.88 L47.6039999,180.88 Z M57.8519999,181.06 C55.9079999,181.06 54.8459999,179.908 54.8459999,177.892 L54.8459999,171.268 C54.8459999,169.252 55.9079999,168.1 57.8519999,168.1 C59.7959999,168.1 60.8579999,169.252 60.8579999,171.268 L60.8579999,177.892 C60.8579999,179.908 59.7959999,181.06 57.8519999,181.06 Z M57.8519999,179.26 C58.4819999,179.26 58.8779999,178.918 58.8779999,178.018 L58.8779999,171.142 C58.8779999,170.242 58.4819999,169.9 57.8519999,169.9 C57.2219999,169.9 56.8259999,170.242 56.8259999,171.142 L56.8259999,178.018 C56.8259999,178.918 57.2219999,179.26 57.8519999,179.26 Z M61.8899999,180.88 L61.8899999,168.28 L64.7159999,168.28 L65.9759999,177.298 L66.0119999,177.298 L67.2719999,168.28 L70.0979999,168.28 L70.0979999,180.88 L68.2259999,180.88 L68.2259999,171.34 L68.1899999,171.34 L66.7499999,180.88 L65.0939999,180.88 L63.6539999,171.34 L63.6179999,171.34 L63.6179999,180.88 L61.8899999,180.88 Z M71.1839999,167.434 L72.4439999,165.364 L74.6039999,165.364 L72.6779999,167.434 L71.1839999,167.434 Z M71.2739999,180.88 L71.2739999,168.28 L73.2539999,168.28 L73.2539999,180.88 L71.2739999,180.88 Z M73.9079999,180.88 L75.9599999,168.28 L78.6419999,168.28 L80.6939999,180.88 L78.7139999,180.88 L78.3539999,178.378 L78.3539999,178.414 L76.1039999,178.414 L75.7439999,180.88 L73.9079999,180.88 Z M76.3379999,176.704 L78.1199999,176.704 L77.2379999,170.476 L77.2019999,170.476 L76.3379999,176.704 Z" id="economía" fill="#666666" fill-rule="nonzero"></path>
                <path d="M40.6799999,263.06 C38.7719999,263.06 37.7639999,261.908 37.7639999,259.964 L37.7639999,253.196 C37.7639999,251.252 38.7719999,250.1 40.6799999,250.1 C42.5879999,250.1 43.5959999,251.252 43.5959999,253.196 L43.5959999,254.528 L41.7239999,254.528 L41.7239999,253.07 C41.7239999,252.242 41.3279999,251.9 40.7339999,251.9 C40.1399999,251.9 39.7439999,252.242 39.7439999,253.07 L39.7439999,260.108 C39.7439999,260.936 40.1399999,261.26 40.7339999,261.26 C41.3279999,261.26 41.7239999,260.936 41.7239999,260.108 L41.7239999,258.182 L43.5959999,258.182 L43.5959999,259.964 C43.5959999,261.908 42.5879999,263.06 40.6799999,263.06 Z M43.9619999,262.88 L46.0139999,250.28 L48.6959999,250.28 L50.7479999,262.88 L48.7679999,262.88 L48.4079999,260.378 L48.4079999,260.414 L46.1579999,260.414 L45.7979999,262.88 L43.9619999,262.88 Z M46.3919999,258.704 L48.1739999,258.704 L47.2919999,252.476 L47.2559999,252.476 L46.3919999,258.704 Z M51.4019999,262.88 L51.4019999,250.28 L53.3819999,250.28 L53.3819999,261.08 L56.6399999,261.08 L56.6399999,262.88 L51.4019999,262.88 Z M57.2939999,262.88 L57.2939999,250.28 L59.2739999,250.28 L59.2739999,262.88 L57.2939999,262.88 Z M60.4499999,262.88 L60.4499999,250.28 L63.4739999,250.28 C65.4539999,250.28 66.4259999,251.378 66.4259999,253.394 L66.4259999,259.766 C66.4259999,261.782 65.4539999,262.88 63.4739999,262.88 L60.4499999,262.88 Z M62.4299999,261.08 L63.4379999,261.08 C64.0679999,261.08 64.4459999,260.756 64.4459999,259.856 L64.4459999,253.304 C64.4459999,252.404 64.0679999,252.08 63.4379999,252.08 L62.4299999,252.08 L62.4299999,261.08 Z M66.8999999,262.88 L68.9519999,250.28 L71.6339999,250.28 L73.6859999,262.88 L71.7059999,262.88 L71.3459999,260.378 L71.3459999,260.414 L69.0959999,260.414 L68.7359999,262.88 L66.8999999,262.88 Z M69.3299999,258.704 L71.1119999,258.704 L70.2299999,252.476 L70.1939999,252.476 L69.3299999,258.704 Z M74.3399999,262.88 L74.3399999,250.28 L77.3639999,250.28 C79.3439999,250.28 80.3159999,251.378 80.3159999,253.394 L80.3159999,259.766 C80.3159999,261.782 79.3439999,262.88 77.3639999,262.88 L74.3399999,262.88 Z M76.3199999,261.08 L77.3279999,261.08 C77.9579999,261.08 78.3359999,260.756 78.3359999,259.856 L78.3359999,253.304 C78.3359999,252.404 77.9579999,252.08 77.3279999,252.08 L76.3199999,252.08 L76.3199999,261.08 Z M24.234,278.88 L24.234,266.28 L27.258,266.28 C29.238,266.28 30.21,267.378 30.21,269.394 L30.21,275.766 C30.21,277.782 29.238,278.88 27.258,278.88 L24.234,278.88 Z M26.214,277.08 L27.222,277.08 C27.852,277.08 28.23,276.756 28.23,275.856 L28.23,269.304 C28.23,268.404 27.852,268.08 27.222,268.08 L26.214,268.08 L26.214,277.08 Z M31.2419999,278.88 L31.2419999,266.28 L36.6419999,266.28 L36.6419999,268.08 L33.2219999,268.08 L33.2219999,271.41 L35.9399999,271.41 L35.9399999,273.21 L33.2219999,273.21 L33.2219999,277.08 L36.6419999,277.08 L36.6419999,278.88 L31.2419999,278.88 Z M40.0559999,278.88 L40.0559999,266.28 L45.4559999,266.28 L45.4559999,268.08 L42.0359999,268.08 L42.0359999,271.41 L44.7539999,271.41 L44.7539999,273.21 L42.0359999,273.21 L42.0359999,277.08 L45.4559999,277.08 L45.4559999,278.88 L40.0559999,278.88 Z M46.2899999,278.88 L46.2899999,266.28 L49.1159999,266.28 L50.3759999,275.298 L50.4119999,275.298 L51.6719999,266.28 L54.4979999,266.28 L54.4979999,278.88 L52.6259999,278.88 L52.6259999,269.34 L52.5899999,269.34 L51.1499999,278.88 L49.4939999,278.88 L48.0539999,269.34 L48.0179999,269.34 L48.0179999,278.88 L46.2899999,278.88 Z M55.6739999,278.88 L55.6739999,266.28 L58.5899999,266.28 C60.5699999,266.28 61.5419999,267.378 61.5419999,269.394 L61.5419999,270.636 C61.5419999,272.652 60.5699999,273.75 58.5899999,273.75 L57.6539999,273.75 L57.6539999,278.88 L55.6739999,278.88 Z M57.6539999,271.95 L58.5899999,271.95 C59.2199999,271.95 59.5619999,271.662 59.5619999,270.762 L59.5619999,269.268 C59.5619999,268.368 59.2199999,268.08 58.5899999,268.08 L57.6539999,268.08 L57.6539999,271.95 Z M62.3219999,278.88 L62.3219999,266.28 L64.3019999,266.28 L64.3019999,277.08 L67.5599999,277.08 L67.5599999,278.88 L62.3219999,278.88 Z M68.2139999,278.88 L68.2139999,266.28 L73.6139999,266.28 L73.6139999,268.08 L70.1939999,268.08 L70.1939999,271.41 L72.9119999,271.41 L72.9119999,273.21 L70.1939999,273.21 L70.1939999,277.08 L73.6139999,277.08 L73.6139999,278.88 L68.2139999,278.88 Z M77.3099999,279.06 C75.3659999,279.06 74.3039999,277.908 74.3039999,275.892 L74.3039999,269.268 C74.3039999,267.252 75.3659999,266.1 77.3099999,266.1 C79.2539999,266.1 80.3159999,267.252 80.3159999,269.268 L80.3159999,275.892 C80.3159999,277.908 79.2539999,279.06 77.3099999,279.06 Z M77.3099999,277.26 C77.9399999,277.26 78.3359999,276.918 78.3359999,276.018 L78.3359999,269.142 C78.3359999,268.242 77.9399999,267.9 77.3099999,267.9 C76.6799999,267.9 76.2839999,268.242 76.2839999,269.142 L76.2839999,276.018 C76.2839999,276.918 76.6799999,277.26 77.3099999,277.26 Z" id="calidaddeempleo" fill="#666666" fill-rule="nonzero"></path>
                <path d="M496.307,645.88 L496.307,633.98 L501.254,633.98 L501.254,635.68 L498.177,635.68 L498.177,638.995 L500.591,638.995 L500.591,640.695 L498.177,640.695 L498.177,645.88 L496.307,645.88 Z M504.875,646.05 C503.039,646.05 502.087,644.962 502.087,643.058 L502.087,633.98 L503.957,633.98 L503.957,643.194 C503.957,644.044 504.314,644.35 504.909,644.35 C505.504,644.35 505.861,644.044 505.861,643.194 L505.861,633.98 L507.663,633.98 L507.663,643.058 C507.663,644.962 506.711,646.05 504.875,646.05 Z M508.989,645.88 L508.989,633.98 L514.089,633.98 L514.089,635.68 L510.859,635.68 L510.859,638.825 L513.426,638.825 L513.426,640.525 L510.859,640.525 L510.859,644.18 L514.089,644.18 L514.089,645.88 L508.989,645.88 Z M515.16,645.88 L515.16,633.98 L517.506,633.98 L519.325,641.103 L519.359,641.103 L519.359,633.98 L521.025,633.98 L521.025,645.88 L519.104,645.88 L516.86,637.193 L516.826,637.193 L516.826,645.88 L515.16,645.88 Z M523.881,645.88 L523.881,635.68 L521.926,635.68 L521.926,633.98 L527.706,633.98 L527.706,635.68 L525.751,635.68 L525.751,645.88 L523.881,645.88 Z M528.607,645.88 L528.607,633.98 L533.707,633.98 L533.707,635.68 L530.477,635.68 L530.477,638.825 L533.044,638.825 L533.044,640.525 L530.477,640.525 L530.477,644.18 L533.707,644.18 L533.707,645.88 L528.607,645.88 Z M534.778,639.403 L534.778,637.601 L536.58,637.601 L536.58,639.403 L534.778,639.403 Z M534.778,645.88 L534.778,644.078 L536.58,644.078 L536.58,645.88 L534.778,645.88 Z M543.329,646.05 C541.527,646.05 540.575,644.962 540.575,643.126 L540.575,636.734 C540.575,634.898 541.527,633.81 543.329,633.81 C545.131,633.81 546.083,634.898 546.083,636.734 L546.083,637.992 L544.315,637.992 L544.315,636.615 C544.315,635.833 543.941,635.51 543.38,635.51 C542.819,635.51 542.445,635.833 542.445,636.615 L542.445,643.262 C542.445,644.044 542.819,644.35 543.38,644.35 C543.941,644.35 544.315,644.044 544.315,643.262 L544.315,641.443 L546.083,641.443 L546.083,643.126 C546.083,644.962 545.131,646.05 543.329,646.05 Z M547.205,645.88 L547.205,633.98 L549.075,633.98 L549.075,645.88 L547.205,645.88 Z M552.9,646.05 C551.064,646.05 550.146,644.962 550.146,643.058 L550.146,642.378 L551.914,642.378 L551.914,643.194 C551.914,644.044 552.288,644.35 552.883,644.35 C553.478,644.35 553.852,644.044 553.852,643.16 C553.852,642.174 553.478,641.545 552.254,640.474 C550.69,639.097 550.18,638.128 550.18,636.768 C550.18,634.898 551.149,633.81 552.968,633.81 C554.787,633.81 555.688,634.898 555.688,636.802 L555.688,637.295 L553.92,637.295 L553.92,636.683 C553.92,635.833 553.58,635.51 552.985,635.51 C552.39,635.51 552.05,635.833 552.05,636.649 C552.05,637.516 552.441,638.145 553.665,639.216 C555.229,640.593 555.722,641.545 555.722,643.024 C555.722,644.962 554.736,646.05 552.9,646.05 Z" id="fuente:cis" fill="#9C9C9C" fill-rule="nonzero"></path>
                <path d="M15.7579998,19.88 L15.7579998,0.28 L20.3219998,0.28 C23.5139998,0.28 24.8859998,1.764 24.8859998,4.788 L24.8859998,5.992 C24.8859998,8.008 24.2419998,9.296 22.8699998,9.856 L22.8699998,9.912 C24.4099998,10.388 24.9139998,11.844 24.9139998,14.056 L24.9139998,17.5 C24.9139998,18.452 24.9419998,19.152 25.2499998,19.88 L22.1139998,19.88 C21.9459998,19.376 21.8339998,19.068 21.8339998,17.472 L21.8339998,13.888 C21.8339998,12.068 21.3019998,11.48 19.9019998,11.48 L18.8379998,11.48 L18.8379998,19.88 L15.7579998,19.88 Z M18.8379998,8.68 L19.9579998,8.68 C21.1059998,8.68 21.8059998,8.176 21.8059998,6.608 L21.8059998,5.096 C21.8059998,3.696 21.3299998,3.08 20.2379998,3.08 L18.8379998,3.08 L18.8379998,8.68 Z M26.2299998,19.88 L29.4219998,0.28 L33.5939998,0.28 L36.7859998,19.88 L33.7059998,19.88 L33.1459998,15.988 L33.1459998,16.044 L29.6459998,16.044 L29.0859998,19.88 L26.2299998,19.88 Z M30.0099998,13.384 L32.7819998,13.384 L31.4099998,3.696 L31.3539998,3.696 L30.0099998,13.384 Z M38.2699998,19.88 L38.2699998,0.28 L42.1339998,0.28 L45.1299998,12.012 L45.1859998,12.012 L45.1859998,0.28 L47.9299998,0.28 L47.9299998,19.88 L44.7659998,19.88 L41.0699998,5.572 L41.0139998,5.572 L41.0139998,19.88 L38.2699998,19.88 Z M50.2259998,19.88 L50.2259998,0.28 L53.3059998,0.28 L53.3059998,8.54 L57.2259998,0.28 L60.3059998,0.28 L56.6379998,7.476 L60.3619998,19.88 L57.1419998,19.88 L54.5379998,11.144 L53.3059998,13.636 L53.3059998,19.88 L50.2259998,19.88 Z M61.8179998,19.88 L61.8179998,0.28 L64.8979998,0.28 L64.8979998,19.88 L61.8179998,19.88 Z M67.1939998,19.88 L67.1939998,0.28 L71.0579998,0.28 L74.0539998,12.012 L74.1099998,12.012 L74.1099998,0.28 L76.8539998,0.28 L76.8539998,19.88 L73.6899998,19.88 L69.9939998,5.572 L69.9379998,5.572 L69.9379998,19.88 L67.1939998,19.88 Z M83.5179998,20.16 C80.4939998,20.16 78.9259998,18.368 78.9259998,15.232 L78.9259998,4.928 C78.9259998,1.792 80.4939998,-1.8189894e-12 83.5179998,-1.8189894e-12 C86.5419998,-1.8189894e-12 88.1099998,1.792 88.1099998,4.928 L88.1099998,6.608 L85.1979998,6.608 L85.1979998,4.732 C85.1979998,3.332 84.5819998,2.8 83.6019998,2.8 C82.6219998,2.8 82.0059998,3.332 82.0059998,4.732 L82.0059998,15.456 C82.0059998,16.856 82.6219998,17.36 83.6019998,17.36 C84.5819998,17.36 85.1979998,16.856 85.1979998,15.456 L85.1979998,11.62 L83.6579998,11.62 L83.6579998,8.82 L88.1099998,8.82 L88.1099998,15.232 C88.1099998,18.368 86.5419998,20.16 83.5179998,20.16 Z M94.5779998,19.88 L94.5779998,0.28 L99.2819998,0.28 C102.362,0.28 103.874,1.988 103.874,5.124 L103.874,15.036 C103.874,18.172 102.362,19.88 99.2819998,19.88 L94.5779998,19.88 Z M97.6579998,17.08 L99.2259998,17.08 C100.206,17.08 100.794,16.576 100.794,15.176 L100.794,4.984 C100.794,3.584 100.206,3.08 99.2259998,3.08 L97.6579998,3.08 L97.6579998,17.08 Z M105.946,19.88 L105.946,0.28 L114.346,0.28 L114.346,3.08 L109.026,3.08 L109.026,8.26 L113.254,8.26 L113.254,11.06 L109.026,11.06 L109.026,17.08 L114.346,17.08 L114.346,19.88 L105.946,19.88 Z M120.59,19.88 L120.59,0.28 L125.126,0.28 C128.206,0.28 129.718,1.988 129.718,5.124 L129.718,7.056 C129.718,10.192 128.206,11.9 125.126,11.9 L123.67,11.9 L123.67,19.88 L120.59,19.88 Z M123.67,9.1 L125.126,9.1 C126.106,9.1 126.638,8.652 126.638,7.252 L126.638,4.928 C126.638,3.528 126.106,3.08 125.126,3.08 L123.67,3.08 L123.67,9.1 Z M131.398,19.88 L131.398,0.28 L135.962,0.28 C139.154,0.28 140.526,1.764 140.526,4.788 L140.526,5.992 C140.526,8.008 139.882,9.296 138.51,9.856 L138.51,9.912 C140.05,10.388 140.554,11.844 140.554,14.056 L140.554,17.5 C140.554,18.452 140.582,19.152 140.89,19.88 L137.754,19.88 C137.586,19.376 137.474,19.068 137.474,17.472 L137.474,13.888 C137.474,12.068 136.942,11.48 135.542,11.48 L134.478,11.48 L134.478,19.88 L131.398,19.88 Z M134.478,8.68 L135.598,8.68 C136.746,8.68 137.446,8.176 137.446,6.608 L137.446,5.096 C137.446,3.696 136.97,3.08 135.878,3.08 L134.478,3.08 L134.478,8.68 Z M142.682,19.88 L142.682,0.28 L151.082,0.28 L151.082,3.08 L145.762,3.08 L145.762,8.26 L149.99,8.26 L149.99,11.06 L145.762,11.06 L145.762,17.08 L151.082,17.08 L151.082,19.88 L142.682,19.88 Z M157.298,20.16 C154.274,20.16 152.622,18.368 152.622,15.232 L152.622,4.928 C152.622,1.792 154.274,-1.8189894e-12 157.298,-1.8189894e-12 C160.322,-1.8189894e-12 161.974,1.792 161.974,4.928 L161.974,15.232 C161.974,18.368 160.322,20.16 157.298,20.16 Z M157.298,17.36 C158.278,17.36 158.894,16.828 158.894,15.428 L158.894,4.732 C158.894,3.332 158.278,2.8 157.298,2.8 C156.318,2.8 155.702,3.332 155.702,4.732 L155.702,15.428 C155.702,16.828 156.318,17.36 157.298,17.36 Z M168.386,20.16 C165.418,20.16 163.85,18.368 163.85,15.344 L163.85,4.816 C163.85,1.792 165.418,-1.8189894e-12 168.386,-1.8189894e-12 C171.354,-1.8189894e-12 172.922,1.792 172.922,4.816 L172.922,6.888 L170.01,6.888 L170.01,4.62 C170.01,3.332 169.394,2.8 168.47,2.8 C167.546,2.8 166.93,3.332 166.93,4.62 L166.93,15.568 C166.93,16.856 167.546,17.36 168.47,17.36 C169.394,17.36 170.01,16.856 170.01,15.568 L170.01,12.572 L172.922,12.572 L172.922,15.344 C172.922,18.368 171.354,20.16 168.386,20.16 Z M179.25,20.16 C176.226,20.16 174.658,18.368 174.658,15.232 L174.658,0.28 L177.738,0.28 L177.738,15.456 C177.738,16.856 178.326,17.36 179.306,17.36 C180.286,17.36 180.874,16.856 180.874,15.456 L180.874,0.28 L183.842,0.28 L183.842,15.232 C183.842,18.368 182.274,20.16 179.25,20.16 Z M186.026,19.88 L186.026,0.28 L190.562,0.28 C193.642,0.28 195.154,1.988 195.154,5.124 L195.154,7.056 C195.154,10.192 193.642,11.9 190.562,11.9 L189.106,11.9 L189.106,19.88 L186.026,19.88 Z M189.106,9.1 L190.562,9.1 C191.542,9.1 192.074,8.652 192.074,7.252 L192.074,4.928 C192.074,3.528 191.542,3.08 190.562,3.08 L189.106,3.08 L189.106,9.1 Z M196.022,19.88 L199.214,0.28 L203.386,0.28 L206.578,19.88 L203.498,19.88 L202.938,15.988 L202.938,16.044 L199.438,16.044 L198.878,19.88 L196.022,19.88 Z M199.802,13.384 L202.574,13.384 L201.202,3.696 L201.146,3.696 L199.802,13.384 Z M212.402,20.16 C209.434,20.16 207.866,18.368 207.866,15.344 L207.866,4.816 C207.866,1.792 209.434,-1.8189894e-12 212.402,-1.8189894e-12 C215.37,-1.8189894e-12 216.938,1.792 216.938,4.816 L216.938,6.888 L214.026,6.888 L214.026,4.62 C214.026,3.332 213.41,2.8 212.486,2.8 C211.562,2.8 210.946,3.332 210.946,4.62 L210.946,15.568 C210.946,16.856 211.562,17.36 212.486,17.36 C213.41,17.36 214.026,16.856 214.026,15.568 L214.026,12.572 L216.938,12.572 L216.938,15.344 C216.938,18.368 215.37,20.16 212.402,20.16 Z M218.786,19.88 L218.786,0.28 L221.866,0.28 L221.866,19.88 L218.786,19.88 Z M228.614,20.16 C225.59,20.16 223.938,18.368 223.938,15.232 L223.938,4.928 C223.938,1.792 225.59,-1.8189894e-12 228.614,-1.8189894e-12 C231.638,-1.8189894e-12 233.29,1.792 233.29,4.928 L233.29,15.232 C233.29,18.368 231.638,20.16 228.614,20.16 Z M228.614,17.36 C229.594,17.36 230.21,16.828 230.21,15.428 L230.21,4.732 C230.21,3.332 229.594,2.8 228.614,2.8 C227.634,2.8 227.018,3.332 227.018,4.732 L227.018,15.428 C227.018,16.828 227.634,17.36 228.614,17.36 Z M235.362,19.88 L235.362,0.28 L239.226,0.28 L242.222,12.012 L242.278,12.012 L242.278,0.28 L245.022,0.28 L245.022,19.88 L241.858,19.88 L238.162,5.572 L238.106,5.572 L238.106,19.88 L235.362,19.88 Z M247.318,19.88 L247.318,0.28 L255.718,0.28 L255.718,3.08 L250.398,3.08 L250.398,8.26 L254.626,8.26 L254.626,11.06 L250.398,11.06 L250.398,17.08 L255.718,17.08 L255.718,19.88 L247.318,19.88 Z M261.486,20.16 C258.462,20.16 256.95,18.368 256.95,15.232 L256.95,14.112 L259.862,14.112 L259.862,15.456 C259.862,16.856 260.478,17.36 261.458,17.36 C262.438,17.36 263.054,16.856 263.054,15.4 C263.054,13.776 262.438,12.74 260.422,10.976 C257.846,8.708 257.006,7.112 257.006,4.872 C257.006,1.792 258.602,-1.8189894e-12 261.598,-1.8189894e-12 C264.594,-1.8189894e-12 266.078,1.792 266.078,4.928 L266.078,5.74 L263.166,5.74 L263.166,4.732 C263.166,3.332 262.606,2.8 261.626,2.8 C260.646,2.8 260.086,3.332 260.086,4.676 C260.086,6.104 260.73,7.14 262.746,8.904 C265.322,11.172 266.134,12.74 266.134,15.176 C266.134,18.368 264.51,20.16 261.486,20.16 Z" id="RANKINGDEPREOCUPACIONES" fill="#000000" fill-rule="nonzero"></path>
            </g>
        </g>
    </g>
</svg>