<?xml version="1.0" encoding="UTF-8"?>
<svg width="564px" height="564px" viewBox="0 0 564 564" version="1.1" xmlns="http://www.w3.org/2000/svg" xmlns:xlink="http://www.w3.org/1999/xlink">
    <!-- Generator: Sketch 53.1 (72631) - https://sketchapp.com -->
    <title>Group 29</title>
    <desc>Created with Sketch.</desc>
    <g id="Welcome" stroke="none" stroke-width="1" fill="none" fill-rule="evenodd">
        <g id="Desktop-HD-Copy-10" transform="translate(-430.000000, -16031.000000)">
            <g id="Group-29" transform="translate(430.151059, 16031.864000)">
                <g id="Group-3" transform="translate(29.848941, 117.136000)" stroke-dasharray="1,5" stroke-linecap="square">
                    <path d="M261.5,-57 L261.5,464" id="Line-Copy-3" stroke="#979797" stroke-width="0.5" transform="translate(261.500000, 203.500000) rotate(-270.000000) translate(-261.500000, -203.500000) "></path>
                    <path d="M261.5,59 L261.5,580" id="Line-Copy-7" stroke="#979797" stroke-width="0.5" transform="translate(261.500000, 319.500000) rotate(-270.000000) translate(-261.500000, -319.500000) "></path>
                    <path d="M261.5,-172 L261.5,349" id="Line-Copy-12" stroke="#979797" stroke-width="0.5" transform="translate(261.500000, 88.500000) rotate(-270.000000) translate(-261.500000, -88.500000) "></path>
                    <path d="M261.5,1 L261.5,522" id="Line-Copy-5" stroke="#979797" stroke-width="0.5" transform="translate(261.500000, 261.500000) rotate(-270.000000) translate(-261.500000, -261.500000) "></path>
                    <path d="M261.5,-231 L261.5,290" id="Line-Copy-13" stroke="#979797" stroke-width="0.5" transform="translate(261.500000, 29.500000) rotate(-270.000000) translate(-261.500000, -29.500000) "></path>
                    <path d="M261.5,117 L261.5,638" id="Line-Copy-8" stroke="#000000" opacity="0.7" transform="translate(261.500000, 377.500000) rotate(-270.000000) translate(-261.500000, -377.500000) "></path>
                    <path d="M261.5,-115 L261.5,406" id="Line-Copy-14" stroke="#979797" stroke-width="0.5" transform="translate(261.500000, 145.500000) rotate(-270.000000) translate(-261.500000, -145.500000) "></path>
                    <path d="M261.5,-28 L261.5,493" id="Line-Copy-4" stroke="#979797" stroke-width="0.5" transform="translate(261.500000, 232.500000) rotate(-270.000000) translate(-261.500000, -232.500000) "></path>
                    <path d="M261.5,-260 L261.5,261" id="Line-Copy-15" stroke="#979797" stroke-width="0.5" transform="translate(261.500000, 0.500000) rotate(-270.000000) translate(-261.500000, -0.500000) "></path>
                    <path d="M261.5,88 L261.5,609" id="Line-Copy-9" stroke="#979797" stroke-width="0.5" transform="translate(261.500000, 348.500000) rotate(-270.000000) translate(-261.500000, -348.500000) "></path>
                    <path d="M261.5,-143 L261.5,378" id="Line-Copy-16" stroke="#979797" stroke-width="0.5" transform="translate(261.500000, 117.500000) rotate(-270.000000) translate(-261.500000, -117.500000) "></path>
                    <path d="M261.5,30 L261.5,551" id="Line-Copy-6" stroke="#979797" stroke-width="0.5" transform="translate(261.500000, 290.500000) rotate(-270.000000) translate(-261.500000, -290.500000) "></path>
                    <path d="M261.5,-202 L261.5,319" id="Line-Copy-17" stroke="#979797" stroke-width="0.5" transform="translate(261.500000, 58.500000) rotate(-270.000000) translate(-261.500000, -58.500000) "></path>
                    <path d="M261.5,-86 L261.5,435" id="Line-Copy-18" stroke="#979797" stroke-width="0.5" transform="translate(261.500000, 174.500000) rotate(-270.000000) translate(-261.500000, -174.500000) "></path>
                </g>
                <path d="" id="Path" stroke="#979797"></path>
                <polyline id="Path-2" stroke="#BABABA" stroke-width="4" stroke-linecap="round" stroke-linejoin="round" points="32.848941 208.974179 91.7771934 147.939558 148.255421 150.700843 207.274678 196.86056 265.833183 206.12395 323.004836 212.136 381.101057 113.136 441.505635 150.700843 496.829683 147.939558 555.848941 171.052985"></polyline>
                <polyline id="Path-3" stroke="#F34949" stroke-width="4" stroke-linecap="round" stroke-linejoin="round" points="32.848941 460.136 91.72163 454.754596 149.557009 365.110383 207.392388 338.824031 265.354754 252.004624 323.190133 283.561198 380.889346 184.823043 439.070495 138.922936 498.059461 127.136 555.848941 159.404364"></polyline>
                <polyline id="Path-4" stroke="#3B3B3B" stroke-width="4" stroke-linecap="round" stroke-linejoin="round" points="32.848941 475.136 91.5946437 449.086883 149.890539 440.418583 206.456055 414.235666 267.062184 370.983749 323.858723 385.289459 382.270896 321.136 440.104745 352.91211 497.478077 367.395837 555.848941 414.235666"></polyline>
                <path d="M2.592,497.136 L2.592,488.592 L0.752,488.592 L0.752,487.344 C2.24,487.344 2.768,487.024 3.168,485.936 L4.352,485.936 L4.352,497.136 L2.592,497.136 Z M6.869647,497.136 L9.685647,487.536 L6.133647,487.536 L6.133647,485.936 L11.413647,485.936 L11.413647,487.472 L8.661647,497.136 L6.869647,497.136 Z M13.963294,492.16 C12.859294,492.16 12.267294,491.52 12.267294,490.368 L12.267294,487.568 C12.267294,486.416 12.859294,485.776 13.963294,485.776 C15.067294,485.776 15.659294,486.416 15.659294,487.568 L15.659294,490.368 C15.659294,491.52 15.067294,492.16 13.963294,492.16 Z M13.691294,497.136 L18.027294,485.936 L19.147294,485.936 L14.811294,497.136 L13.691294,497.136 Z M13.963294,491.152 C14.315294,491.152 14.539294,490.944 14.539294,490.448 L14.539294,487.488 C14.539294,486.992 14.315294,486.784 13.963294,486.784 C13.595294,486.784 13.387294,486.992 13.387294,487.488 L13.387294,490.448 C13.387294,490.944 13.595294,491.152 13.963294,491.152 Z M18.875294,497.296 C17.771294,497.296 17.179294,496.656 17.179294,495.504 L17.179294,492.704 C17.179294,491.552 17.771294,490.912 18.875294,490.912 C19.979294,490.912 20.571294,491.552 20.571294,492.704 L20.571294,495.504 C20.571294,496.656 19.979294,497.296 18.875294,497.296 Z M18.875294,496.288 C19.227294,496.288 19.451294,496.08 19.451294,495.584 L19.451294,492.624 C19.451294,492.128 19.227294,491.92 18.875294,491.92 C18.507294,491.92 18.299294,492.128 18.299294,492.624 L18.299294,495.584 C18.299294,496.08 18.507294,496.288 18.875294,496.288 Z" id="17%" fill="#9C9C9C" fill-rule="nonzero"></path>
                <path d="M21.8429414,526.636 L21.8429414,525.268 C21.8429414,523.468 22.3469414,522.37 23.8229414,520.822 C25.3349414,519.22 25.7669414,518.266 25.7669414,517.096 C25.7669414,515.962 25.3709414,515.656 24.7409414,515.656 C24.1109414,515.656 23.7149414,515.998 23.7149414,516.898 L23.7149414,518.248 L21.8429414,518.248 L21.8429414,517.024 C21.8429414,515.008 22.8509414,513.856 24.7949414,513.856 C26.7389414,513.856 27.7469414,515.008 27.7469414,517.024 C27.7469414,518.518 27.1349414,519.85 25.2989414,521.794 C24.1109414,523.054 23.8049414,523.684 23.8049414,524.566 L23.8049414,524.836 L27.5669414,524.836 L27.5669414,526.636 L21.8429414,526.636 Z M31.2929413,526.816 C29.3489413,526.816 28.2869413,525.664 28.2869413,523.648 L28.2869413,517.024 C28.2869413,515.008 29.3489413,513.856 31.2929413,513.856 C33.2369413,513.856 34.2989413,515.008 34.2989413,517.024 L34.2989413,523.648 C34.2989413,525.664 33.2369413,526.816 31.2929413,526.816 Z M31.2929413,525.016 C31.9229413,525.016 32.3189413,524.674 32.3189413,523.774 L32.3189413,516.898 C32.3189413,515.998 31.9229413,515.656 31.2929413,515.656 C30.6629413,515.656 30.2669413,515.998 30.2669413,516.898 L30.2669413,523.774 C30.2669413,524.674 30.6629413,525.016 31.2929413,525.016 Z M37.8449412,526.816 C35.9009412,526.816 34.8389412,525.664 34.8389412,523.648 L34.8389412,517.024 C34.8389412,515.008 35.9009412,513.856 37.8449412,513.856 C39.7889412,513.856 40.8509412,515.008 40.8509412,517.024 L40.8509412,523.648 C40.8509412,525.664 39.7889412,526.816 37.8449412,526.816 Z M37.8449412,525.016 C38.4749412,525.016 38.8709412,524.674 38.8709412,523.774 L38.8709412,516.898 C38.8709412,515.998 38.4749412,515.656 37.8449412,515.656 C37.2149412,515.656 36.8189412,515.998 36.8189412,516.898 L36.8189412,523.774 C36.8189412,524.674 37.2149412,525.016 37.8449412,525.016 Z M44.3969411,526.816 C42.3989411,526.816 41.3009411,525.718 41.3009411,523.702 L41.3009411,522.586 C41.3009411,521.38 41.6609411,520.498 42.5969411,520.012 L42.5969411,519.976 C41.7689411,519.526 41.3729411,518.734 41.3729411,517.492 L41.3729411,516.97 C41.3729411,514.954 42.4709411,513.856 44.3969411,513.856 C46.3229411,513.856 47.4209411,514.954 47.4209411,516.97 L47.4209411,517.492 C47.4209411,518.734 47.0069411,519.526 46.1969411,519.976 L46.1969411,520.012 C47.1329411,520.498 47.4929411,521.38 47.4929411,522.586 L47.4929411,523.702 C47.4929411,525.718 46.3949411,526.816 44.3969411,526.816 Z M44.3969411,519.166 C45.0809411,519.166 45.4409411,518.734 45.4409411,517.906 L45.4409411,516.916 C45.4409411,516.088 45.0809411,515.656 44.3969411,515.656 C43.7129411,515.656 43.3529411,516.088 43.3529411,516.916 L43.3529411,517.906 C43.3529411,518.734 43.7129411,519.166 44.3969411,519.166 Z M44.3969411,525.016 C45.1349411,525.016 45.5129411,524.548 45.5129411,523.594 L45.5129411,522.388 C45.5129411,521.434 45.1349411,520.966 44.3969411,520.966 C43.6589411,520.966 43.2809411,521.434 43.2809411,522.388 L43.2809411,523.594 C43.2809411,524.548 43.6589411,525.016 44.3969411,525.016 Z" id="2008" fill="#666666" fill-rule="nonzero" transform="translate(34.667941, 520.336000) rotate(90.000000) translate(-34.667941, -520.336000) "></path>
                <path d="M78.8429414,526.636 L78.8429414,525.268 C78.8429414,523.468 79.3469414,522.37 80.8229414,520.822 C82.3349414,519.22 82.7669414,518.266 82.7669414,517.096 C82.7669414,515.962 82.3709414,515.656 81.7409414,515.656 C81.1109414,515.656 80.7149414,515.998 80.7149414,516.898 L80.7149414,518.248 L78.8429414,518.248 L78.8429414,517.024 C78.8429414,515.008 79.8509414,513.856 81.7949414,513.856 C83.7389414,513.856 84.7469414,515.008 84.7469414,517.024 C84.7469414,518.518 84.1349414,519.85 82.2989414,521.794 C81.1109414,523.054 80.8049414,523.684 80.8049414,524.566 L80.8049414,524.836 L84.5669414,524.836 L84.5669414,526.636 L78.8429414,526.636 Z M88.2929413,526.816 C86.3489413,526.816 85.2869413,525.664 85.2869413,523.648 L85.2869413,517.024 C85.2869413,515.008 86.3489413,513.856 88.2929413,513.856 C90.2369413,513.856 91.2989413,515.008 91.2989413,517.024 L91.2989413,523.648 C91.2989413,525.664 90.2369413,526.816 88.2929413,526.816 Z M88.2929413,525.016 C88.9229413,525.016 89.3189413,524.674 89.3189413,523.774 L89.3189413,516.898 C89.3189413,515.998 88.9229413,515.656 88.2929413,515.656 C87.6629413,515.656 87.2669413,515.998 87.2669413,516.898 L87.2669413,523.774 C87.2669413,524.674 87.6629413,525.016 88.2929413,525.016 Z M94.8449412,526.816 C92.9009412,526.816 91.8389412,525.664 91.8389412,523.648 L91.8389412,517.024 C91.8389412,515.008 92.9009412,513.856 94.8449412,513.856 C96.7889412,513.856 97.8509412,515.008 97.8509412,517.024 L97.8509412,523.648 C97.8509412,525.664 96.7889412,526.816 94.8449412,526.816 Z M94.8449412,525.016 C95.4749412,525.016 95.8709412,524.674 95.8709412,523.774 L95.8709412,516.898 C95.8709412,515.998 95.4749412,515.656 94.8449412,515.656 C94.2149412,515.656 93.8189412,515.998 93.8189412,516.898 L93.8189412,523.774 C93.8189412,524.674 94.2149412,525.016 94.8449412,525.016 Z M101.324941,526.816 C99.3809411,526.816 98.3729411,525.664 98.3729411,523.648 L98.3729411,523.414 L100.244941,523.414 L100.244941,523.774 C100.244941,524.674 100.640941,525.016 101.270941,525.016 C101.972941,525.016 102.368941,524.674 102.368941,523.468 L102.368941,521.056 L102.332941,521.056 C101.990941,521.776 101.414941,522.154 100.532941,522.154 C99.0749411,522.154 98.3369411,521.128 98.3369411,519.274 L98.3369411,517.024 C98.3369411,515.008 99.3989411,513.856 101.342941,513.856 C103.286941,513.856 104.348941,515.008 104.348941,517.024 L104.348941,523.54 C104.348941,525.664 103.376941,526.816 101.324941,526.816 Z M101.342941,520.354 C102.026941,520.354 102.368941,519.958 102.368941,519.112 L102.368941,516.88 C102.368941,516.052 102.026941,515.656 101.342941,515.656 C100.658941,515.656 100.316941,516.052 100.316941,516.88 L100.316941,519.112 C100.316941,519.958 100.658941,520.354 101.342941,520.354 Z" id="2009" fill="#666666" fill-rule="nonzero" transform="translate(91.595941, 520.336000) rotate(90.000000) translate(-91.595941, -520.336000) "></path>
                <path d="M193.842941,526.636 L193.842941,525.268 C193.842941,523.468 194.346941,522.37 195.822941,520.822 C197.334941,519.22 197.766941,518.266 197.766941,517.096 C197.766941,515.962 197.370941,515.656 196.740941,515.656 C196.110941,515.656 195.714941,515.998 195.714941,516.898 L195.714941,518.248 L193.842941,518.248 L193.842941,517.024 C193.842941,515.008 194.850941,513.856 196.794941,513.856 C198.738941,513.856 199.746941,515.008 199.746941,517.024 C199.746941,518.518 199.134941,519.85 197.298941,521.794 C196.110941,523.054 195.804941,523.684 195.804941,524.566 L195.804941,524.836 L199.566941,524.836 L199.566941,526.636 L193.842941,526.636 Z M203.292941,526.816 C201.348941,526.816 200.286941,525.664 200.286941,523.648 L200.286941,517.024 C200.286941,515.008 201.348941,513.856 203.292941,513.856 C205.236941,513.856 206.298941,515.008 206.298941,517.024 L206.298941,523.648 C206.298941,525.664 205.236941,526.816 203.292941,526.816 Z M203.292941,525.016 C203.922941,525.016 204.318941,524.674 204.318941,523.774 L204.318941,516.898 C204.318941,515.998 203.922941,515.656 203.292941,515.656 C202.662941,515.656 202.266941,515.998 202.266941,516.898 L202.266941,523.774 C202.266941,524.674 202.662941,525.016 203.292941,525.016 Z M209.754941,526.636 L209.754941,517.024 L207.684941,517.024 L207.684941,515.62 C209.358941,515.62 209.952941,515.26 210.402941,514.036 L211.734941,514.036 L211.734941,526.636 L209.754941,526.636 Z M216.306941,526.636 L216.306941,517.024 L214.236941,517.024 L214.236941,515.62 C215.910941,515.62 216.504941,515.26 216.954941,514.036 L218.286941,514.036 L218.286941,526.636 L216.306941,526.636 Z" id="2011" fill="#666666" fill-rule="nonzero" transform="translate(206.064941, 520.336000) rotate(90.000000) translate(-206.064941, -520.336000) "></path>
                <path d="M136.842941,526.636 L136.842941,525.268 C136.842941,523.468 137.346941,522.37 138.822941,520.822 C140.334941,519.22 140.766941,518.266 140.766941,517.096 C140.766941,515.962 140.370941,515.656 139.740941,515.656 C139.110941,515.656 138.714941,515.998 138.714941,516.898 L138.714941,518.248 L136.842941,518.248 L136.842941,517.024 C136.842941,515.008 137.850941,513.856 139.794941,513.856 C141.738941,513.856 142.746941,515.008 142.746941,517.024 C142.746941,518.518 142.134941,519.85 140.298941,521.794 C139.110941,523.054 138.804941,523.684 138.804941,524.566 L138.804941,524.836 L142.566941,524.836 L142.566941,526.636 L136.842941,526.636 Z M146.292941,526.816 C144.348941,526.816 143.286941,525.664 143.286941,523.648 L143.286941,517.024 C143.286941,515.008 144.348941,513.856 146.292941,513.856 C148.236941,513.856 149.298941,515.008 149.298941,517.024 L149.298941,523.648 C149.298941,525.664 148.236941,526.816 146.292941,526.816 Z M146.292941,525.016 C146.922941,525.016 147.318941,524.674 147.318941,523.774 L147.318941,516.898 C147.318941,515.998 146.922941,515.656 146.292941,515.656 C145.662941,515.656 145.266941,515.998 145.266941,516.898 L145.266941,523.774 C145.266941,524.674 145.662941,525.016 146.292941,525.016 Z M152.754941,526.636 L152.754941,517.024 L150.684941,517.024 L150.684941,515.62 C152.358941,515.62 152.952941,515.26 153.402941,514.036 L154.734941,514.036 L154.734941,526.636 L152.754941,526.636 Z M159.396941,526.816 C157.452941,526.816 156.390941,525.664 156.390941,523.648 L156.390941,517.024 C156.390941,515.008 157.452941,513.856 159.396941,513.856 C161.340941,513.856 162.402941,515.008 162.402941,517.024 L162.402941,523.648 C162.402941,525.664 161.340941,526.816 159.396941,526.816 Z M159.396941,525.016 C160.026941,525.016 160.422941,524.674 160.422941,523.774 L160.422941,516.898 C160.422941,515.998 160.026941,515.656 159.396941,515.656 C158.766941,515.656 158.370941,515.998 158.370941,516.898 L158.370941,523.774 C158.370941,524.674 158.766941,525.016 159.396941,525.016 Z" id="2010" fill="#666666" fill-rule="nonzero" transform="translate(149.622941, 520.336000) rotate(90.000000) translate(-149.622941, -520.336000) "></path>
                <path d="M251.842941,526.636 L251.842941,525.268 C251.842941,523.468 252.346941,522.37 253.822941,520.822 C255.334941,519.22 255.766941,518.266 255.766941,517.096 C255.766941,515.962 255.370941,515.656 254.740941,515.656 C254.110941,515.656 253.714941,515.998 253.714941,516.898 L253.714941,518.248 L251.842941,518.248 L251.842941,517.024 C251.842941,515.008 252.850941,513.856 254.794941,513.856 C256.738941,513.856 257.746941,515.008 257.746941,517.024 C257.746941,518.518 257.134941,519.85 255.298941,521.794 C254.110941,523.054 253.804941,523.684 253.804941,524.566 L253.804941,524.836 L257.566941,524.836 L257.566941,526.636 L251.842941,526.636 Z M261.292941,526.816 C259.348941,526.816 258.286941,525.664 258.286941,523.648 L258.286941,517.024 C258.286941,515.008 259.348941,513.856 261.292941,513.856 C263.236941,513.856 264.298941,515.008 264.298941,517.024 L264.298941,523.648 C264.298941,525.664 263.236941,526.816 261.292941,526.816 Z M261.292941,525.016 C261.922941,525.016 262.318941,524.674 262.318941,523.774 L262.318941,516.898 C262.318941,515.998 261.922941,515.656 261.292941,515.656 C260.662941,515.656 260.266941,515.998 260.266941,516.898 L260.266941,523.774 C260.266941,524.674 260.662941,525.016 261.292941,525.016 Z M267.754941,526.636 L267.754941,517.024 L265.684941,517.024 L265.684941,515.62 C267.358941,515.62 267.952941,515.26 268.402941,514.036 L269.734941,514.036 L269.734941,526.636 L267.754941,526.636 Z M271.498941,526.636 L271.498941,525.268 C271.498941,523.468 272.002941,522.37 273.478941,520.822 C274.990941,519.22 275.422941,518.266 275.422941,517.096 C275.422941,515.962 275.026941,515.656 274.396941,515.656 C273.766941,515.656 273.370941,515.998 273.370941,516.898 L273.370941,518.248 L271.498941,518.248 L271.498941,517.024 C271.498941,515.008 272.506941,513.856 274.450941,513.856 C276.394941,513.856 277.402941,515.008 277.402941,517.024 C277.402941,518.518 276.790941,519.85 274.954941,521.794 C273.766941,523.054 273.460941,523.684 273.460941,524.566 L273.460941,524.836 L277.222941,524.836 L277.222941,526.636 L271.498941,526.636 Z" id="2012" fill="#666666" fill-rule="nonzero" transform="translate(264.622941, 520.336000) rotate(90.000000) translate(-264.622941, -520.336000) "></path>
                <path d="M2.592,471.136 L2.592,462.592 L0.752,462.592 L0.752,461.344 C2.24,461.344 2.768,461.024 3.168,459.936 L4.352,459.936 L4.352,471.136 L2.592,471.136 Z M8.789647,471.296 C7.013647,471.296 6.037647,470.32 6.037647,468.528 L6.037647,467.536 C6.037647,466.464 6.357647,465.68 7.189647,465.248 L7.189647,465.216 C6.453647,464.816 6.101647,464.112 6.101647,463.008 L6.101647,462.544 C6.101647,460.752 7.077647,459.776 8.789647,459.776 C10.501647,459.776 11.477647,460.752 11.477647,462.544 L11.477647,463.008 C11.477647,464.112 11.109647,464.816 10.389647,465.216 L10.389647,465.248 C11.221647,465.68 11.541647,466.464 11.541647,467.536 L11.541647,468.528 C11.541647,470.32 10.565647,471.296 8.789647,471.296 Z M8.789647,464.496 C9.397647,464.496 9.717647,464.112 9.717647,463.376 L9.717647,462.496 C9.717647,461.76 9.397647,461.376 8.789647,461.376 C8.181647,461.376 7.861647,461.76 7.861647,462.496 L7.861647,463.376 C7.861647,464.112 8.181647,464.496 8.789647,464.496 Z M8.789647,469.696 C9.445647,469.696 9.781647,469.28 9.781647,468.432 L9.781647,467.36 C9.781647,466.512 9.445647,466.096 8.789647,466.096 C8.133647,466.096 7.797647,466.512 7.797647,467.36 L7.797647,468.432 C7.797647,469.28 8.133647,469.696 8.789647,469.696 Z M13.963294,466.16 C12.859294,466.16 12.267294,465.52 12.267294,464.368 L12.267294,461.568 C12.267294,460.416 12.859294,459.776 13.963294,459.776 C15.067294,459.776 15.659294,460.416 15.659294,461.568 L15.659294,464.368 C15.659294,465.52 15.067294,466.16 13.963294,466.16 Z M13.691294,471.136 L18.027294,459.936 L19.147294,459.936 L14.811294,471.136 L13.691294,471.136 Z M13.963294,465.152 C14.315294,465.152 14.539294,464.944 14.539294,464.448 L14.539294,461.488 C14.539294,460.992 14.315294,460.784 13.963294,460.784 C13.595294,460.784 13.387294,460.992 13.387294,461.488 L13.387294,464.448 C13.387294,464.944 13.595294,465.152 13.963294,465.152 Z M18.875294,471.296 C17.771294,471.296 17.179294,470.656 17.179294,469.504 L17.179294,466.704 C17.179294,465.552 17.771294,464.912 18.875294,464.912 C19.979294,464.912 20.571294,465.552 20.571294,466.704 L20.571294,469.504 C20.571294,470.656 19.979294,471.296 18.875294,471.296 Z M18.875294,470.288 C19.227294,470.288 19.451294,470.08 19.451294,469.584 L19.451294,466.624 C19.451294,466.128 19.227294,465.92 18.875294,465.92 C18.507294,465.92 18.299294,466.128 18.299294,466.624 L18.299294,469.584 C18.299294,470.08 18.507294,470.288 18.875294,470.288 Z" id="18%" fill="#9C9C9C" fill-rule="nonzero"></path>
                <path d="M2.592,441.136 L2.592,432.592 L0.752,432.592 L0.752,431.344 C2.24,431.344 2.768,431.024 3.168,429.936 L4.352,429.936 L4.352,441.136 L2.592,441.136 Z M8.725647,441.296 C6.997647,441.296 6.101647,440.272 6.101647,438.48 L6.101647,438.272 L7.765647,438.272 L7.765647,438.592 C7.765647,439.392 8.117647,439.696 8.677647,439.696 C9.301647,439.696 9.653647,439.392 9.653647,438.32 L9.653647,436.176 L9.621647,436.176 C9.317647,436.816 8.805647,437.152 8.021647,437.152 C6.725647,437.152 6.069647,436.24 6.069647,434.592 L6.069647,432.592 C6.069647,430.8 7.013647,429.776 8.741647,429.776 C10.469647,429.776 11.413647,430.8 11.413647,432.592 L11.413647,438.384 C11.413647,440.272 10.549647,441.296 8.725647,441.296 Z M8.741647,435.552 C9.349647,435.552 9.653647,435.2 9.653647,434.448 L9.653647,432.464 C9.653647,431.728 9.349647,431.376 8.741647,431.376 C8.133647,431.376 7.829647,431.728 7.829647,432.464 L7.829647,434.448 C7.829647,435.2 8.133647,435.552 8.741647,435.552 Z M13.963294,436.16 C12.859294,436.16 12.267294,435.52 12.267294,434.368 L12.267294,431.568 C12.267294,430.416 12.859294,429.776 13.963294,429.776 C15.067294,429.776 15.659294,430.416 15.659294,431.568 L15.659294,434.368 C15.659294,435.52 15.067294,436.16 13.963294,436.16 Z M13.691294,441.136 L18.027294,429.936 L19.147294,429.936 L14.811294,441.136 L13.691294,441.136 Z M13.963294,435.152 C14.315294,435.152 14.539294,434.944 14.539294,434.448 L14.539294,431.488 C14.539294,430.992 14.315294,430.784 13.963294,430.784 C13.595294,430.784 13.387294,430.992 13.387294,431.488 L13.387294,434.448 C13.387294,434.944 13.595294,435.152 13.963294,435.152 Z M18.875294,441.296 C17.771294,441.296 17.179294,440.656 17.179294,439.504 L17.179294,436.704 C17.179294,435.552 17.771294,434.912 18.875294,434.912 C19.979294,434.912 20.571294,435.552 20.571294,436.704 L20.571294,439.504 C20.571294,440.656 19.979294,441.296 18.875294,441.296 Z M18.875294,440.288 C19.227294,440.288 19.451294,440.08 19.451294,439.584 L19.451294,436.624 C19.451294,436.128 19.227294,435.92 18.875294,435.92 C18.507294,435.92 18.299294,436.128 18.299294,436.624 L18.299294,439.584 C18.299294,440.08 18.507294,440.288 18.875294,440.288 Z" id="19%" fill="#9C9C9C" fill-rule="nonzero"></path>
                <path d="M0.096,412.136 L0.096,410.92 C0.096,409.32 0.544,408.344 1.856,406.968 C3.2,405.544 3.584,404.696 3.584,403.656 C3.584,402.648 3.232,402.376 2.672,402.376 C2.112,402.376 1.76,402.68 1.76,403.48 L1.76,404.68 L0.096,404.68 L0.096,403.592 C0.096,401.8 0.992,400.776 2.72,400.776 C4.448,400.776 5.344,401.8 5.344,403.592 C5.344,404.92 4.8,406.104 3.168,407.832 C2.112,408.952 1.84,409.512 1.84,410.296 L1.84,410.536 L5.184,410.536 L5.184,412.136 L0.096,412.136 Z M8.789647,412.296 C7.061647,412.296 6.117647,411.272 6.117647,409.48 L6.117647,403.592 C6.117647,401.8 7.061647,400.776 8.789647,400.776 C10.517647,400.776 11.461647,401.8 11.461647,403.592 L11.461647,409.48 C11.461647,411.272 10.517647,412.296 8.789647,412.296 Z M8.789647,410.696 C9.349647,410.696 9.701647,410.392 9.701647,409.592 L9.701647,403.48 C9.701647,402.68 9.349647,402.376 8.789647,402.376 C8.229647,402.376 7.877647,402.68 7.877647,403.48 L7.877647,409.592 C7.877647,410.392 8.229647,410.696 8.789647,410.696 Z M13.963294,407.16 C12.859294,407.16 12.267294,406.52 12.267294,405.368 L12.267294,402.568 C12.267294,401.416 12.859294,400.776 13.963294,400.776 C15.067294,400.776 15.659294,401.416 15.659294,402.568 L15.659294,405.368 C15.659294,406.52 15.067294,407.16 13.963294,407.16 Z M13.691294,412.136 L18.027294,400.936 L19.147294,400.936 L14.811294,412.136 L13.691294,412.136 Z M13.963294,406.152 C14.315294,406.152 14.539294,405.944 14.539294,405.448 L14.539294,402.488 C14.539294,401.992 14.315294,401.784 13.963294,401.784 C13.595294,401.784 13.387294,401.992 13.387294,402.488 L13.387294,405.448 C13.387294,405.944 13.595294,406.152 13.963294,406.152 Z M18.875294,412.296 C17.771294,412.296 17.179294,411.656 17.179294,410.504 L17.179294,407.704 C17.179294,406.552 17.771294,405.912 18.875294,405.912 C19.979294,405.912 20.571294,406.552 20.571294,407.704 L20.571294,410.504 C20.571294,411.656 19.979294,412.296 18.875294,412.296 Z M18.875294,411.288 C19.227294,411.288 19.451294,411.08 19.451294,410.584 L19.451294,407.624 C19.451294,407.128 19.227294,406.92 18.875294,406.92 C18.507294,406.92 18.299294,407.128 18.299294,407.624 L18.299294,410.584 C18.299294,411.08 18.507294,411.288 18.875294,411.288 Z" id="20%" fill="#9C9C9C" fill-rule="nonzero"></path>
                <path d="M0.096,384.136 L0.096,382.92 C0.096,381.32 0.544,380.344 1.856,378.968 C3.2,377.544 3.584,376.696 3.584,375.656 C3.584,374.648 3.232,374.376 2.672,374.376 C2.112,374.376 1.76,374.68 1.76,375.48 L1.76,376.68 L0.096,376.68 L0.096,375.592 C0.096,373.8 0.992,372.776 2.72,372.776 C4.448,372.776 5.344,373.8 5.344,375.592 C5.344,376.92 4.8,378.104 3.168,379.832 C2.112,380.952 1.84,381.512 1.84,382.296 L1.84,382.536 L5.184,382.536 L5.184,384.136 L0.096,384.136 Z M8.709647,384.136 L8.709647,375.592 L6.869647,375.592 L6.869647,374.344 C8.357647,374.344 8.885647,374.024 9.285647,372.936 L10.469647,372.936 L10.469647,384.136 L8.709647,384.136 Z M13.963294,379.16 C12.859294,379.16 12.267294,378.52 12.267294,377.368 L12.267294,374.568 C12.267294,373.416 12.859294,372.776 13.963294,372.776 C15.067294,372.776 15.659294,373.416 15.659294,374.568 L15.659294,377.368 C15.659294,378.52 15.067294,379.16 13.963294,379.16 Z M13.691294,384.136 L18.027294,372.936 L19.147294,372.936 L14.811294,384.136 L13.691294,384.136 Z M13.963294,378.152 C14.315294,378.152 14.539294,377.944 14.539294,377.448 L14.539294,374.488 C14.539294,373.992 14.315294,373.784 13.963294,373.784 C13.595294,373.784 13.387294,373.992 13.387294,374.488 L13.387294,377.448 C13.387294,377.944 13.595294,378.152 13.963294,378.152 Z M18.875294,384.296 C17.771294,384.296 17.179294,383.656 17.179294,382.504 L17.179294,379.704 C17.179294,378.552 17.771294,377.912 18.875294,377.912 C19.979294,377.912 20.571294,378.552 20.571294,379.704 L20.571294,382.504 C20.571294,383.656 19.979294,384.296 18.875294,384.296 Z M18.875294,383.288 C19.227294,383.288 19.451294,383.08 19.451294,382.584 L19.451294,379.624 C19.451294,379.128 19.227294,378.92 18.875294,378.92 C18.507294,378.92 18.299294,379.128 18.299294,379.624 L18.299294,382.584 C18.299294,383.08 18.507294,383.288 18.875294,383.288 Z" id="21%" fill="#9C9C9C" fill-rule="nonzero"></path>
                <path d="M0.096,354.136 L0.096,352.92 C0.096,351.32 0.544,350.344 1.856,348.968 C3.2,347.544 3.584,346.696 3.584,345.656 C3.584,344.648 3.232,344.376 2.672,344.376 C2.112,344.376 1.76,344.68 1.76,345.48 L1.76,346.68 L0.096,346.68 L0.096,345.592 C0.096,343.8 0.992,342.776 2.72,342.776 C4.448,342.776 5.344,343.8 5.344,345.592 C5.344,346.92 4.8,348.104 3.168,349.832 C2.112,350.952 1.84,351.512 1.84,352.296 L1.84,352.536 L5.184,352.536 L5.184,354.136 L0.096,354.136 Z M6.213647,354.136 L6.213647,352.92 C6.213647,351.32 6.661647,350.344 7.973647,348.968 C9.317647,347.544 9.701647,346.696 9.701647,345.656 C9.701647,344.648 9.349647,344.376 8.789647,344.376 C8.229647,344.376 7.877647,344.68 7.877647,345.48 L7.877647,346.68 L6.213647,346.68 L6.213647,345.592 C6.213647,343.8 7.109647,342.776 8.837647,342.776 C10.565647,342.776 11.461647,343.8 11.461647,345.592 C11.461647,346.92 10.917647,348.104 9.285647,349.832 C8.229647,350.952 7.957647,351.512 7.957647,352.296 L7.957647,352.536 L11.301647,352.536 L11.301647,354.136 L6.213647,354.136 Z M13.963294,349.16 C12.859294,349.16 12.267294,348.52 12.267294,347.368 L12.267294,344.568 C12.267294,343.416 12.859294,342.776 13.963294,342.776 C15.067294,342.776 15.659294,343.416 15.659294,344.568 L15.659294,347.368 C15.659294,348.52 15.067294,349.16 13.963294,349.16 Z M13.691294,354.136 L18.027294,342.936 L19.147294,342.936 L14.811294,354.136 L13.691294,354.136 Z M13.963294,348.152 C14.315294,348.152 14.539294,347.944 14.539294,347.448 L14.539294,344.488 C14.539294,343.992 14.315294,343.784 13.963294,343.784 C13.595294,343.784 13.387294,343.992 13.387294,344.488 L13.387294,347.448 C13.387294,347.944 13.595294,348.152 13.963294,348.152 Z M18.875294,354.296 C17.771294,354.296 17.179294,353.656 17.179294,352.504 L17.179294,349.704 C17.179294,348.552 17.771294,347.912 18.875294,347.912 C19.979294,347.912 20.571294,348.552 20.571294,349.704 L20.571294,352.504 C20.571294,353.656 19.979294,354.296 18.875294,354.296 Z M18.875294,353.288 C19.227294,353.288 19.451294,353.08 19.451294,352.584 L19.451294,349.624 C19.451294,349.128 19.227294,348.92 18.875294,348.92 C18.507294,348.92 18.299294,349.128 18.299294,349.624 L18.299294,352.584 C18.299294,353.08 18.507294,353.288 18.875294,353.288 Z" id="22%" fill="#9C9C9C" fill-rule="nonzero"></path>
                <path d="M0.096,325.136 L0.096,323.92 C0.096,322.32 0.544,321.344 1.856,319.968 C3.2,318.544 3.584,317.696 3.584,316.656 C3.584,315.648 3.232,315.376 2.672,315.376 C2.112,315.376 1.76,315.68 1.76,316.48 L1.76,317.68 L0.096,317.68 L0.096,316.592 C0.096,314.8 0.992,313.776 2.72,313.776 C4.448,313.776 5.344,314.8 5.344,316.592 C5.344,317.92 4.8,319.104 3.168,320.832 C2.112,321.952 1.84,322.512 1.84,323.296 L1.84,323.536 L5.184,323.536 L5.184,325.136 L0.096,325.136 Z M8.741647,325.296 C7.013647,325.296 6.117647,324.304 6.117647,322.512 L6.117647,321.6 L7.781647,321.6 L7.781647,322.592 C7.781647,323.392 8.133647,323.696 8.693647,323.696 C9.253647,323.696 9.605647,323.424 9.605647,322.432 L9.605647,321.52 C9.605647,320.48 9.253647,320.096 8.453647,320.096 L7.861647,320.096 L7.861647,318.496 L8.501647,318.496 C9.157647,318.496 9.557647,318.208 9.557647,317.312 L9.557647,316.496 C9.557647,315.696 9.189647,315.376 8.677647,315.376 C8.165647,315.376 7.829647,315.68 7.829647,316.416 L7.829647,317.152 L6.165647,317.152 L6.165647,316.56 C6.165647,314.768 7.061647,313.776 8.741647,313.776 C10.421647,313.776 11.317647,314.752 11.317647,316.544 L11.317647,316.944 C11.317647,318.144 10.933647,318.88 10.069647,319.2 L10.069647,319.232 C11.013647,319.584 11.365647,320.4 11.365647,321.536 L11.365647,322.528 C11.365647,324.32 10.469647,325.296 8.741647,325.296 Z M13.963294,320.16 C12.859294,320.16 12.267294,319.52 12.267294,318.368 L12.267294,315.568 C12.267294,314.416 12.859294,313.776 13.963294,313.776 C15.067294,313.776 15.659294,314.416 15.659294,315.568 L15.659294,318.368 C15.659294,319.52 15.067294,320.16 13.963294,320.16 Z M13.691294,325.136 L18.027294,313.936 L19.147294,313.936 L14.811294,325.136 L13.691294,325.136 Z M13.963294,319.152 C14.315294,319.152 14.539294,318.944 14.539294,318.448 L14.539294,315.488 C14.539294,314.992 14.315294,314.784 13.963294,314.784 C13.595294,314.784 13.387294,314.992 13.387294,315.488 L13.387294,318.448 C13.387294,318.944 13.595294,319.152 13.963294,319.152 Z M18.875294,325.296 C17.771294,325.296 17.179294,324.656 17.179294,323.504 L17.179294,320.704 C17.179294,319.552 17.771294,318.912 18.875294,318.912 C19.979294,318.912 20.571294,319.552 20.571294,320.704 L20.571294,323.504 C20.571294,324.656 19.979294,325.296 18.875294,325.296 Z M18.875294,324.288 C19.227294,324.288 19.451294,324.08 19.451294,323.584 L19.451294,320.624 C19.451294,320.128 19.227294,319.92 18.875294,319.92 C18.507294,319.92 18.299294,320.128 18.299294,320.624 L18.299294,323.584 C18.299294,324.08 18.507294,324.288 18.875294,324.288 Z" id="23%" fill="#9C9C9C" fill-rule="nonzero"></path>
                <path d="M0.096,295.136 L0.096,293.92 C0.096,292.32 0.544,291.344 1.856,289.968 C3.2,288.544 3.584,287.696 3.584,286.656 C3.584,285.648 3.232,285.376 2.672,285.376 C2.112,285.376 1.76,285.68 1.76,286.48 L1.76,287.68 L0.096,287.68 L0.096,286.592 C0.096,284.8 0.992,283.776 2.72,283.776 C4.448,283.776 5.344,284.8 5.344,286.592 C5.344,287.92 4.8,289.104 3.168,290.832 C2.112,291.952 1.84,292.512 1.84,293.296 L1.84,293.536 L5.184,293.536 L5.184,295.136 L0.096,295.136 Z M9.189647,295.136 L9.189647,293.104 L5.829647,293.104 L5.829647,291.504 L9.029647,283.936 L10.949647,283.936 L10.949647,291.504 L11.781647,291.504 L11.781647,293.104 L10.949647,293.104 L10.949647,295.136 L9.189647,295.136 Z M7.429647,291.504 L9.189647,291.504 L9.189647,287.136 L9.157647,287.136 L7.429647,291.504 Z M13.963294,290.16 C12.859294,290.16 12.267294,289.52 12.267294,288.368 L12.267294,285.568 C12.267294,284.416 12.859294,283.776 13.963294,283.776 C15.067294,283.776 15.659294,284.416 15.659294,285.568 L15.659294,288.368 C15.659294,289.52 15.067294,290.16 13.963294,290.16 Z M13.691294,295.136 L18.027294,283.936 L19.147294,283.936 L14.811294,295.136 L13.691294,295.136 Z M13.963294,289.152 C14.315294,289.152 14.539294,288.944 14.539294,288.448 L14.539294,285.488 C14.539294,284.992 14.315294,284.784 13.963294,284.784 C13.595294,284.784 13.387294,284.992 13.387294,285.488 L13.387294,288.448 C13.387294,288.944 13.595294,289.152 13.963294,289.152 Z M18.875294,295.296 C17.771294,295.296 17.179294,294.656 17.179294,293.504 L17.179294,290.704 C17.179294,289.552 17.771294,288.912 18.875294,288.912 C19.979294,288.912 20.571294,289.552 20.571294,290.704 L20.571294,293.504 C20.571294,294.656 19.979294,295.296 18.875294,295.296 Z M18.875294,294.288 C19.227294,294.288 19.451294,294.08 19.451294,293.584 L19.451294,290.624 C19.451294,290.128 19.227294,289.92 18.875294,289.92 C18.507294,289.92 18.299294,290.128 18.299294,290.624 L18.299294,293.584 C18.299294,294.08 18.507294,294.288 18.875294,294.288 Z" id="24%" fill="#9C9C9C" fill-rule="nonzero"></path>
                <path d="M0.096,268.136 L0.096,266.92 C0.096,265.32 0.544,264.344 1.856,262.968 C3.2,261.544 3.584,260.696 3.584,259.656 C3.584,258.648 3.232,258.376 2.672,258.376 C2.112,258.376 1.76,258.68 1.76,259.48 L1.76,260.68 L0.096,260.68 L0.096,259.592 C0.096,257.8 0.992,256.776 2.72,256.776 C4.448,256.776 5.344,257.8 5.344,259.592 C5.344,260.92 4.8,262.104 3.168,263.832 C2.112,264.952 1.84,265.512 1.84,266.296 L1.84,266.536 L5.184,266.536 L5.184,268.136 L0.096,268.136 Z M8.821647,268.296 C7.093647,268.296 6.197647,267.272 6.197647,265.48 L6.197647,264.6 L7.861647,264.6 L7.861647,265.608 C7.861647,266.408 8.213647,266.696 8.773647,266.696 C9.333647,266.696 9.685647,266.408 9.685647,265.608 L9.685647,263.096 C9.685647,262.296 9.333647,261.992 8.773647,261.992 C8.213647,261.992 7.861647,262.296 7.861647,263.096 L7.861647,263.192 L6.197647,263.192 L6.517647,256.936 L11.157647,256.936 L11.157647,258.536 L8.085647,258.536 L7.941647,261.208 L7.973647,261.208 C8.293647,260.68 8.789647,260.392 9.493647,260.392 C10.789647,260.392 11.445647,261.304 11.445647,262.952 L11.445647,265.48 C11.445647,267.272 10.549647,268.296 8.821647,268.296 Z M13.963294,263.16 C12.859294,263.16 12.267294,262.52 12.267294,261.368 L12.267294,258.568 C12.267294,257.416 12.859294,256.776 13.963294,256.776 C15.067294,256.776 15.659294,257.416 15.659294,258.568 L15.659294,261.368 C15.659294,262.52 15.067294,263.16 13.963294,263.16 Z M13.691294,268.136 L18.027294,256.936 L19.147294,256.936 L14.811294,268.136 L13.691294,268.136 Z M13.963294,262.152 C14.315294,262.152 14.539294,261.944 14.539294,261.448 L14.539294,258.488 C14.539294,257.992 14.315294,257.784 13.963294,257.784 C13.595294,257.784 13.387294,257.992 13.387294,258.488 L13.387294,261.448 C13.387294,261.944 13.595294,262.152 13.963294,262.152 Z M18.875294,268.296 C17.771294,268.296 17.179294,267.656 17.179294,266.504 L17.179294,263.704 C17.179294,262.552 17.771294,261.912 18.875294,261.912 C19.979294,261.912 20.571294,262.552 20.571294,263.704 L20.571294,266.504 C20.571294,267.656 19.979294,268.296 18.875294,268.296 Z M18.875294,267.288 C19.227294,267.288 19.451294,267.08 19.451294,266.584 L19.451294,263.624 C19.451294,263.128 19.227294,262.92 18.875294,262.92 C18.507294,262.92 18.299294,263.128 18.299294,263.624 L18.299294,266.584 C18.299294,267.08 18.507294,267.288 18.875294,267.288 Z" id="25%" fill="#9C9C9C" fill-rule="nonzero"></path>
                <path d="M0.096,238.136 L0.096,236.92 C0.096,235.32 0.544,234.344 1.856,232.968 C3.2,231.544 3.584,230.696 3.584,229.656 C3.584,228.648 3.232,228.376 2.672,228.376 C2.112,228.376 1.76,228.68 1.76,229.48 L1.76,230.68 L0.096,230.68 L0.096,229.592 C0.096,227.8 0.992,226.776 2.72,226.776 C4.448,226.776 5.344,227.8 5.344,229.592 C5.344,230.92 4.8,232.104 3.168,233.832 C2.112,234.952 1.84,235.512 1.84,236.296 L1.84,236.536 L5.184,236.536 L5.184,238.136 L0.096,238.136 Z M8.837647,238.296 C7.109647,238.296 6.165647,237.272 6.165647,235.48 L6.165647,229.688 C6.165647,227.8 7.029647,226.776 8.853647,226.776 C10.581647,226.776 11.477647,227.8 11.477647,229.592 L11.477647,229.8 L9.813647,229.8 L9.813647,229.48 C9.813647,228.68 9.461647,228.376 8.901647,228.376 C8.277647,228.376 7.925647,228.68 7.925647,229.752 L7.925647,231.896 L7.957647,231.896 C8.261647,231.256 8.773647,230.92 9.557647,230.92 C10.853647,230.92 11.509647,231.832 11.509647,233.48 L11.509647,235.48 C11.509647,237.272 10.565647,238.296 8.837647,238.296 Z M8.837647,236.696 C9.445647,236.696 9.749647,236.344 9.749647,235.608 L9.749647,233.624 C9.749647,232.872 9.445647,232.52 8.837647,232.52 C8.229647,232.52 7.925647,232.872 7.925647,233.624 L7.925647,235.608 C7.925647,236.344 8.229647,236.696 8.837647,236.696 Z M13.963294,233.16 C12.859294,233.16 12.267294,232.52 12.267294,231.368 L12.267294,228.568 C12.267294,227.416 12.859294,226.776 13.963294,226.776 C15.067294,226.776 15.659294,227.416 15.659294,228.568 L15.659294,231.368 C15.659294,232.52 15.067294,233.16 13.963294,233.16 Z M13.691294,238.136 L18.027294,226.936 L19.147294,226.936 L14.811294,238.136 L13.691294,238.136 Z M13.963294,232.152 C14.315294,232.152 14.539294,231.944 14.539294,231.448 L14.539294,228.488 C14.539294,227.992 14.315294,227.784 13.963294,227.784 C13.595294,227.784 13.387294,227.992 13.387294,228.488 L13.387294,231.448 C13.387294,231.944 13.595294,232.152 13.963294,232.152 Z M18.875294,238.296 C17.771294,238.296 17.179294,237.656 17.179294,236.504 L17.179294,233.704 C17.179294,232.552 17.771294,231.912 18.875294,231.912 C19.979294,231.912 20.571294,232.552 20.571294,233.704 L20.571294,236.504 C20.571294,237.656 19.979294,238.296 18.875294,238.296 Z M18.875294,237.288 C19.227294,237.288 19.451294,237.08 19.451294,236.584 L19.451294,233.624 C19.451294,233.128 19.227294,232.92 18.875294,232.92 C18.507294,232.92 18.299294,233.128 18.299294,233.624 L18.299294,236.584 C18.299294,237.08 18.507294,237.288 18.875294,237.288 Z" id="26%" fill="#9C9C9C" fill-rule="nonzero"></path>
                <path d="M0.096,209.136 L0.096,207.92 C0.096,206.32 0.544,205.344 1.856,203.968 C3.2,202.544 3.584,201.696 3.584,200.656 C3.584,199.648 3.232,199.376 2.672,199.376 C2.112,199.376 1.76,199.68 1.76,200.48 L1.76,201.68 L0.096,201.68 L0.096,200.592 C0.096,198.8 0.992,197.776 2.72,197.776 C4.448,197.776 5.344,198.8 5.344,200.592 C5.344,201.92 4.8,203.104 3.168,204.832 C2.112,205.952 1.84,206.512 1.84,207.296 L1.84,207.536 L5.184,207.536 L5.184,209.136 L0.096,209.136 Z M6.869647,209.136 L9.685647,199.536 L6.133647,199.536 L6.133647,197.936 L11.413647,197.936 L11.413647,199.472 L8.661647,209.136 L6.869647,209.136 Z M13.963294,204.16 C12.859294,204.16 12.267294,203.52 12.267294,202.368 L12.267294,199.568 C12.267294,198.416 12.859294,197.776 13.963294,197.776 C15.067294,197.776 15.659294,198.416 15.659294,199.568 L15.659294,202.368 C15.659294,203.52 15.067294,204.16 13.963294,204.16 Z M13.691294,209.136 L18.027294,197.936 L19.147294,197.936 L14.811294,209.136 L13.691294,209.136 Z M13.963294,203.152 C14.315294,203.152 14.539294,202.944 14.539294,202.448 L14.539294,199.488 C14.539294,198.992 14.315294,198.784 13.963294,198.784 C13.595294,198.784 13.387294,198.992 13.387294,199.488 L13.387294,202.448 C13.387294,202.944 13.595294,203.152 13.963294,203.152 Z M18.875294,209.296 C17.771294,209.296 17.179294,208.656 17.179294,207.504 L17.179294,204.704 C17.179294,203.552 17.771294,202.912 18.875294,202.912 C19.979294,202.912 20.571294,203.552 20.571294,204.704 L20.571294,207.504 C20.571294,208.656 19.979294,209.296 18.875294,209.296 Z M18.875294,208.288 C19.227294,208.288 19.451294,208.08 19.451294,207.584 L19.451294,204.624 C19.451294,204.128 19.227294,203.92 18.875294,203.92 C18.507294,203.92 18.299294,204.128 18.299294,204.624 L18.299294,207.584 C18.299294,208.08 18.507294,208.288 18.875294,208.288 Z" id="27%" fill="#9C9C9C" fill-rule="nonzero"></path>
                <path d="M0.096,181.136 L0.096,179.92 C0.096,178.32 0.544,177.344 1.856,175.968 C3.2,174.544 3.584,173.696 3.584,172.656 C3.584,171.648 3.232,171.376 2.672,171.376 C2.112,171.376 1.76,171.68 1.76,172.48 L1.76,173.68 L0.096,173.68 L0.096,172.592 C0.096,170.8 0.992,169.776 2.72,169.776 C4.448,169.776 5.344,170.8 5.344,172.592 C5.344,173.92 4.8,175.104 3.168,176.832 C2.112,177.952 1.84,178.512 1.84,179.296 L1.84,179.536 L5.184,179.536 L5.184,181.136 L0.096,181.136 Z M8.789647,181.296 C7.013647,181.296 6.037647,180.32 6.037647,178.528 L6.037647,177.536 C6.037647,176.464 6.357647,175.68 7.189647,175.248 L7.189647,175.216 C6.453647,174.816 6.101647,174.112 6.101647,173.008 L6.101647,172.544 C6.101647,170.752 7.077647,169.776 8.789647,169.776 C10.501647,169.776 11.477647,170.752 11.477647,172.544 L11.477647,173.008 C11.477647,174.112 11.109647,174.816 10.389647,175.216 L10.389647,175.248 C11.221647,175.68 11.541647,176.464 11.541647,177.536 L11.541647,178.528 C11.541647,180.32 10.565647,181.296 8.789647,181.296 Z M8.789647,174.496 C9.397647,174.496 9.717647,174.112 9.717647,173.376 L9.717647,172.496 C9.717647,171.76 9.397647,171.376 8.789647,171.376 C8.181647,171.376 7.861647,171.76 7.861647,172.496 L7.861647,173.376 C7.861647,174.112 8.181647,174.496 8.789647,174.496 Z M8.789647,179.696 C9.445647,179.696 9.781647,179.28 9.781647,178.432 L9.781647,177.36 C9.781647,176.512 9.445647,176.096 8.789647,176.096 C8.133647,176.096 7.797647,176.512 7.797647,177.36 L7.797647,178.432 C7.797647,179.28 8.133647,179.696 8.789647,179.696 Z M13.963294,176.16 C12.859294,176.16 12.267294,175.52 12.267294,174.368 L12.267294,171.568 C12.267294,170.416 12.859294,169.776 13.963294,169.776 C15.067294,169.776 15.659294,170.416 15.659294,171.568 L15.659294,174.368 C15.659294,175.52 15.067294,176.16 13.963294,176.16 Z M13.691294,181.136 L18.027294,169.936 L19.147294,169.936 L14.811294,181.136 L13.691294,181.136 Z M13.963294,175.152 C14.315294,175.152 14.539294,174.944 14.539294,174.448 L14.539294,171.488 C14.539294,170.992 14.315294,170.784 13.963294,170.784 C13.595294,170.784 13.387294,170.992 13.387294,171.488 L13.387294,174.448 C13.387294,174.944 13.595294,175.152 13.963294,175.152 Z M18.875294,181.296 C17.771294,181.296 17.179294,180.656 17.179294,179.504 L17.179294,176.704 C17.179294,175.552 17.771294,174.912 18.875294,174.912 C19.979294,174.912 20.571294,175.552 20.571294,176.704 L20.571294,179.504 C20.571294,180.656 19.979294,181.296 18.875294,181.296 Z M18.875294,180.288 C19.227294,180.288 19.451294,180.08 19.451294,179.584 L19.451294,176.624 C19.451294,176.128 19.227294,175.92 18.875294,175.92 C18.507294,175.92 18.299294,176.128 18.299294,176.624 L18.299294,179.584 C18.299294,180.08 18.507294,180.288 18.875294,180.288 Z" id="28%" fill="#9C9C9C" fill-rule="nonzero"></path>
                <path d="M0.096,152.136 L0.096,150.92 C0.096,149.32 0.544,148.344 1.856,146.968 C3.2,145.544 3.584,144.696 3.584,143.656 C3.584,142.648 3.232,142.376 2.672,142.376 C2.112,142.376 1.76,142.68 1.76,143.48 L1.76,144.68 L0.096,144.68 L0.096,143.592 C0.096,141.8 0.992,140.776 2.72,140.776 C4.448,140.776 5.344,141.8 5.344,143.592 C5.344,144.92 4.8,146.104 3.168,147.832 C2.112,148.952 1.84,149.512 1.84,150.296 L1.84,150.536 L5.184,150.536 L5.184,152.136 L0.096,152.136 Z M8.725647,152.296 C6.997647,152.296 6.101647,151.272 6.101647,149.48 L6.101647,149.272 L7.765647,149.272 L7.765647,149.592 C7.765647,150.392 8.117647,150.696 8.677647,150.696 C9.301647,150.696 9.653647,150.392 9.653647,149.32 L9.653647,147.176 L9.621647,147.176 C9.317647,147.816 8.805647,148.152 8.021647,148.152 C6.725647,148.152 6.069647,147.24 6.069647,145.592 L6.069647,143.592 C6.069647,141.8 7.013647,140.776 8.741647,140.776 C10.469647,140.776 11.413647,141.8 11.413647,143.592 L11.413647,149.384 C11.413647,151.272 10.549647,152.296 8.725647,152.296 Z M8.741647,146.552 C9.349647,146.552 9.653647,146.2 9.653647,145.448 L9.653647,143.464 C9.653647,142.728 9.349647,142.376 8.741647,142.376 C8.133647,142.376 7.829647,142.728 7.829647,143.464 L7.829647,145.448 C7.829647,146.2 8.133647,146.552 8.741647,146.552 Z M13.963294,147.16 C12.859294,147.16 12.267294,146.52 12.267294,145.368 L12.267294,142.568 C12.267294,141.416 12.859294,140.776 13.963294,140.776 C15.067294,140.776 15.659294,141.416 15.659294,142.568 L15.659294,145.368 C15.659294,146.52 15.067294,147.16 13.963294,147.16 Z M13.691294,152.136 L18.027294,140.936 L19.147294,140.936 L14.811294,152.136 L13.691294,152.136 Z M13.963294,146.152 C14.315294,146.152 14.539294,145.944 14.539294,145.448 L14.539294,142.488 C14.539294,141.992 14.315294,141.784 13.963294,141.784 C13.595294,141.784 13.387294,141.992 13.387294,142.488 L13.387294,145.448 C13.387294,145.944 13.595294,146.152 13.963294,146.152 Z M18.875294,152.296 C17.771294,152.296 17.179294,151.656 17.179294,150.504 L17.179294,147.704 C17.179294,146.552 17.771294,145.912 18.875294,145.912 C19.979294,145.912 20.571294,146.552 20.571294,147.704 L20.571294,150.504 C20.571294,151.656 19.979294,152.296 18.875294,152.296 Z M18.875294,151.288 C19.227294,151.288 19.451294,151.08 19.451294,150.584 L19.451294,147.624 C19.451294,147.128 19.227294,146.92 18.875294,146.92 C18.507294,146.92 18.299294,147.128 18.299294,147.624 L18.299294,150.584 C18.299294,151.08 18.507294,151.288 18.875294,151.288 Z" id="29%" fill="#9C9C9C" fill-rule="nonzero"></path>
                <path d="M2.624,122.296 C0.896,122.296 -3.04112291e-12,121.304 -3.04112291e-12,119.512 L-3.04112291e-12,118.6 L1.664,118.6 L1.664,119.592 C1.664,120.392 2.016,120.696 2.576,120.696 C3.136,120.696 3.488,120.424 3.488,119.432 L3.488,118.52 C3.488,117.48 3.136,117.096 2.336,117.096 L1.744,117.096 L1.744,115.496 L2.384,115.496 C3.04,115.496 3.44,115.208 3.44,114.312 L3.44,113.496 C3.44,112.696 3.072,112.376 2.56,112.376 C2.048,112.376 1.712,112.68 1.712,113.416 L1.712,114.152 L0.048,114.152 L0.048,113.56 C0.048,111.768 0.944,110.776 2.624,110.776 C4.304,110.776 5.2,111.752 5.2,113.544 L5.2,113.944 C5.2,115.144 4.816,115.88 3.952,116.2 L3.952,116.232 C4.896,116.584 5.248,117.4 5.248,118.536 L5.248,119.528 C5.248,121.32 4.352,122.296 2.624,122.296 Z M8.789647,122.296 C7.061647,122.296 6.117647,121.272 6.117647,119.48 L6.117647,113.592 C6.117647,111.8 7.061647,110.776 8.789647,110.776 C10.517647,110.776 11.461647,111.8 11.461647,113.592 L11.461647,119.48 C11.461647,121.272 10.517647,122.296 8.789647,122.296 Z M8.789647,120.696 C9.349647,120.696 9.701647,120.392 9.701647,119.592 L9.701647,113.48 C9.701647,112.68 9.349647,112.376 8.789647,112.376 C8.229647,112.376 7.877647,112.68 7.877647,113.48 L7.877647,119.592 C7.877647,120.392 8.229647,120.696 8.789647,120.696 Z M13.963294,117.16 C12.859294,117.16 12.267294,116.52 12.267294,115.368 L12.267294,112.568 C12.267294,111.416 12.859294,110.776 13.963294,110.776 C15.067294,110.776 15.659294,111.416 15.659294,112.568 L15.659294,115.368 C15.659294,116.52 15.067294,117.16 13.963294,117.16 Z M13.691294,122.136 L18.027294,110.936 L19.147294,110.936 L14.811294,122.136 L13.691294,122.136 Z M13.963294,116.152 C14.315294,116.152 14.539294,115.944 14.539294,115.448 L14.539294,112.488 C14.539294,111.992 14.315294,111.784 13.963294,111.784 C13.595294,111.784 13.387294,111.992 13.387294,112.488 L13.387294,115.448 C13.387294,115.944 13.595294,116.152 13.963294,116.152 Z M18.875294,122.296 C17.771294,122.296 17.179294,121.656 17.179294,120.504 L17.179294,117.704 C17.179294,116.552 17.771294,115.912 18.875294,115.912 C19.979294,115.912 20.571294,116.552 20.571294,117.704 L20.571294,120.504 C20.571294,121.656 19.979294,122.296 18.875294,122.296 Z M18.875294,121.288 C19.227294,121.288 19.451294,121.08 19.451294,120.584 L19.451294,117.624 C19.451294,117.128 19.227294,116.92 18.875294,116.92 C18.507294,116.92 18.299294,117.128 18.299294,117.624 L18.299294,120.584 C18.299294,121.08 18.507294,121.288 18.875294,121.288 Z" id="30%" fill="#9C9C9C" fill-rule="nonzero"></path>
                <path d="M31.848941,493.519518 L31.848941,105.217671" id="Line-2" stroke="#000000" opacity="0.7" stroke-linecap="square" stroke-dasharray="1,5"></path>
                <path d="M90.848941,493.519518 L90.848941,105.217671" id="Line-2-Copy" stroke="#979797" stroke-width="0.5" stroke-linecap="square" stroke-dasharray="1,5"></path>
                <path d="M148.848941,493.519518 L148.848941,105.217671" id="Line-2-Copy-2" stroke="#979797" stroke-width="0.5" stroke-linecap="square" stroke-dasharray="1,5"></path>
                <path d="M208.848941,493.519518 L208.848941,105.217671" id="Line-2-Copy-3" stroke="#979797" stroke-width="0.5" stroke-linecap="square" stroke-dasharray="1,5"></path>
                <path d="M263.848941,493.519518 L263.848941,105.217671" id="Line-2-Copy-4" stroke="#979797" stroke-width="0.5" stroke-linecap="square" stroke-dasharray="1,5"></path>
                <path d="M321.848941,493.519518 L321.848941,105.217671" id="Line-2-Copy-5" stroke="#C7C7C7" stroke-width="0.5" stroke-linecap="square" stroke-dasharray="1,5"></path>
                <path d="M377.848941,493.519518 L377.848941,105.217671" id="Line-2-Copy-6" stroke="#979797" stroke-width="0.5" stroke-linecap="square" stroke-dasharray="1,5"></path>
                <path d="M438.848941,493.519518 L438.848941,105.217671" id="Line-2-Copy-7" stroke="#979797" stroke-width="0.5" stroke-linecap="square" stroke-dasharray="1,5"></path>
                <path d="M494.848941,493.519518 L494.848941,105.217671" id="Line-2-Copy-8" stroke="#979797" stroke-width="0.5" stroke-linecap="square" stroke-dasharray="1,5"></path>
                <path d="M553.848941,493.519518 L553.848941,105.217671" id="Line-2-Copy-9" stroke="#979797" stroke-width="0.5" stroke-linecap="square" stroke-dasharray="1,5"></path>
                <path d="M310.842941,526.636 L310.842941,525.268 C310.842941,523.468 311.346941,522.37 312.822941,520.822 C314.334941,519.22 314.766941,518.266 314.766941,517.096 C314.766941,515.962 314.370941,515.656 313.740941,515.656 C313.110941,515.656 312.714941,515.998 312.714941,516.898 L312.714941,518.248 L310.842941,518.248 L310.842941,517.024 C310.842941,515.008 311.850941,513.856 313.794941,513.856 C315.738941,513.856 316.746941,515.008 316.746941,517.024 C316.746941,518.518 316.134941,519.85 314.298941,521.794 C313.110941,523.054 312.804941,523.684 312.804941,524.566 L312.804941,524.836 L316.566941,524.836 L316.566941,526.636 L310.842941,526.636 Z M320.292941,526.816 C318.348941,526.816 317.286941,525.664 317.286941,523.648 L317.286941,517.024 C317.286941,515.008 318.348941,513.856 320.292941,513.856 C322.236941,513.856 323.298941,515.008 323.298941,517.024 L323.298941,523.648 C323.298941,525.664 322.236941,526.816 320.292941,526.816 Z M320.292941,525.016 C320.922941,525.016 321.318941,524.674 321.318941,523.774 L321.318941,516.898 C321.318941,515.998 320.922941,515.656 320.292941,515.656 C319.662941,515.656 319.266941,515.998 319.266941,516.898 L319.266941,523.774 C319.266941,524.674 319.662941,525.016 320.292941,525.016 Z M326.754941,526.636 L326.754941,517.024 L324.684941,517.024 L324.684941,515.62 C326.358941,515.62 326.952941,515.26 327.402941,514.036 L328.734941,514.036 L328.734941,526.636 L326.754941,526.636 Z M333.342941,526.816 C331.398941,526.816 330.390941,525.7 330.390941,523.684 L330.390941,522.658 L332.262941,522.658 L332.262941,523.774 C332.262941,524.674 332.658941,525.016 333.288941,525.016 C333.918941,525.016 334.314941,524.71 334.314941,523.594 L334.314941,522.568 C334.314941,521.398 333.918941,520.966 333.018941,520.966 L332.352941,520.966 L332.352941,519.166 L333.072941,519.166 C333.810941,519.166 334.260941,518.842 334.260941,517.834 L334.260941,516.916 C334.260941,516.016 333.846941,515.656 333.270941,515.656 C332.694941,515.656 332.316941,515.998 332.316941,516.826 L332.316941,517.654 L330.444941,517.654 L330.444941,516.988 C330.444941,514.972 331.452941,513.856 333.342941,513.856 C335.232941,513.856 336.240941,514.954 336.240941,516.97 L336.240941,517.42 C336.240941,518.77 335.808941,519.598 334.836941,519.958 L334.836941,519.994 C335.898941,520.39 336.294941,521.308 336.294941,522.586 L336.294941,523.702 C336.294941,525.718 335.286941,526.816 333.342941,526.816 Z" id="2013" fill="#666666" fill-rule="nonzero" transform="translate(323.568941, 520.336000) rotate(90.000000) translate(-323.568941, -520.336000) "></path>
                <path d="M368.842941,526.636 L368.842941,525.268 C368.842941,523.468 369.346941,522.37 370.822941,520.822 C372.334941,519.22 372.766941,518.266 372.766941,517.096 C372.766941,515.962 372.370941,515.656 371.740941,515.656 C371.110941,515.656 370.714941,515.998 370.714941,516.898 L370.714941,518.248 L368.842941,518.248 L368.842941,517.024 C368.842941,515.008 369.850941,513.856 371.794941,513.856 C373.738941,513.856 374.746941,515.008 374.746941,517.024 C374.746941,518.518 374.134941,519.85 372.298941,521.794 C371.110941,523.054 370.804941,523.684 370.804941,524.566 L370.804941,524.836 L374.566941,524.836 L374.566941,526.636 L368.842941,526.636 Z M378.292941,526.816 C376.348941,526.816 375.286941,525.664 375.286941,523.648 L375.286941,517.024 C375.286941,515.008 376.348941,513.856 378.292941,513.856 C380.236941,513.856 381.298941,515.008 381.298941,517.024 L381.298941,523.648 C381.298941,525.664 380.236941,526.816 378.292941,526.816 Z M378.292941,525.016 C378.922941,525.016 379.318941,524.674 379.318941,523.774 L379.318941,516.898 C379.318941,515.998 378.922941,515.656 378.292941,515.656 C377.662941,515.656 377.266941,515.998 377.266941,516.898 L377.266941,523.774 C377.266941,524.674 377.662941,525.016 378.292941,525.016 Z M384.754941,526.636 L384.754941,517.024 L382.684941,517.024 L382.684941,515.62 C384.358941,515.62 384.952941,515.26 385.402941,514.036 L386.734941,514.036 L386.734941,526.636 L384.754941,526.636 Z M391.846941,526.636 L391.846941,524.35 L388.066941,524.35 L388.066941,522.55 L391.666941,514.036 L393.826941,514.036 L393.826941,522.55 L394.762941,522.55 L394.762941,524.35 L393.826941,524.35 L393.826941,526.636 L391.846941,526.636 Z M389.866941,522.55 L391.846941,522.55 L391.846941,517.636 L391.810941,517.636 L389.866941,522.55 Z" id="2014" fill="#666666" fill-rule="nonzero" transform="translate(381.802941, 520.336000) rotate(90.000000) translate(-381.802941, -520.336000) "></path>
                <path d="M424.842941,526.636 L424.842941,525.268 C424.842941,523.468 425.346941,522.37 426.822941,520.822 C428.334941,519.22 428.766941,518.266 428.766941,517.096 C428.766941,515.962 428.370941,515.656 427.740941,515.656 C427.110941,515.656 426.714941,515.998 426.714941,516.898 L426.714941,518.248 L424.842941,518.248 L424.842941,517.024 C424.842941,515.008 425.850941,513.856 427.794941,513.856 C429.738941,513.856 430.746941,515.008 430.746941,517.024 C430.746941,518.518 430.134941,519.85 428.298941,521.794 C427.110941,523.054 426.804941,523.684 426.804941,524.566 L426.804941,524.836 L430.566941,524.836 L430.566941,526.636 L424.842941,526.636 Z M434.292941,526.816 C432.348941,526.816 431.286941,525.664 431.286941,523.648 L431.286941,517.024 C431.286941,515.008 432.348941,513.856 434.292941,513.856 C436.236941,513.856 437.298941,515.008 437.298941,517.024 L437.298941,523.648 C437.298941,525.664 436.236941,526.816 434.292941,526.816 Z M434.292941,525.016 C434.922941,525.016 435.318941,524.674 435.318941,523.774 L435.318941,516.898 C435.318941,515.998 434.922941,515.656 434.292941,515.656 C433.662941,515.656 433.266941,515.998 433.266941,516.898 L433.266941,523.774 C433.266941,524.674 433.662941,525.016 434.292941,525.016 Z M440.754941,526.636 L440.754941,517.024 L438.684941,517.024 L438.684941,515.62 C440.358941,515.62 440.952941,515.26 441.402941,514.036 L442.734941,514.036 L442.734941,526.636 L440.754941,526.636 Z M447.432941,526.816 C445.488941,526.816 444.480941,525.664 444.480941,523.648 L444.480941,522.658 L446.352941,522.658 L446.352941,523.792 C446.352941,524.692 446.748941,525.016 447.378941,525.016 C448.008941,525.016 448.404941,524.692 448.404941,523.792 L448.404941,520.966 C448.404941,520.066 448.008941,519.724 447.378941,519.724 C446.748941,519.724 446.352941,520.066 446.352941,520.966 L446.352941,521.074 L444.480941,521.074 L444.840941,514.036 L450.060941,514.036 L450.060941,515.836 L446.604941,515.836 L446.442941,518.842 L446.478941,518.842 C446.838941,518.248 447.396941,517.924 448.188941,517.924 C449.646941,517.924 450.384941,518.95 450.384941,520.804 L450.384941,523.648 C450.384941,525.664 449.376941,526.816 447.432941,526.816 Z" id="2015" fill="#666666" fill-rule="nonzero" transform="translate(437.613941, 520.336000) rotate(90.000000) translate(-437.613941, -520.336000) "></path>
                <path d="M483.842941,526.636 L483.842941,525.268 C483.842941,523.468 484.346941,522.37 485.822941,520.822 C487.334941,519.22 487.766941,518.266 487.766941,517.096 C487.766941,515.962 487.370941,515.656 486.740941,515.656 C486.110941,515.656 485.714941,515.998 485.714941,516.898 L485.714941,518.248 L483.842941,518.248 L483.842941,517.024 C483.842941,515.008 484.850941,513.856 486.794941,513.856 C488.738941,513.856 489.746941,515.008 489.746941,517.024 C489.746941,518.518 489.134941,519.85 487.298941,521.794 C486.110941,523.054 485.804941,523.684 485.804941,524.566 L485.804941,524.836 L489.566941,524.836 L489.566941,526.636 L483.842941,526.636 Z M493.292941,526.816 C491.348941,526.816 490.286941,525.664 490.286941,523.648 L490.286941,517.024 C490.286941,515.008 491.348941,513.856 493.292941,513.856 C495.236941,513.856 496.298941,515.008 496.298941,517.024 L496.298941,523.648 C496.298941,525.664 495.236941,526.816 493.292941,526.816 Z M493.292941,525.016 C493.922941,525.016 494.318941,524.674 494.318941,523.774 L494.318941,516.898 C494.318941,515.998 493.922941,515.656 493.292941,515.656 C492.662941,515.656 492.266941,515.998 492.266941,516.898 L492.266941,523.774 C492.266941,524.674 492.662941,525.016 493.292941,525.016 Z M499.754941,526.636 L499.754941,517.024 L497.684941,517.024 L497.684941,515.62 C499.358941,515.62 499.952941,515.26 500.402941,514.036 L501.734941,514.036 L501.734941,526.636 L499.754941,526.636 Z M506.450941,526.816 C504.506941,526.816 503.444941,525.664 503.444941,523.648 L503.444941,517.132 C503.444941,515.008 504.416941,513.856 506.468941,513.856 C508.412941,513.856 509.420941,515.008 509.420941,517.024 L509.420941,517.258 L507.548941,517.258 L507.548941,516.898 C507.548941,515.998 507.152941,515.656 506.522941,515.656 C505.820941,515.656 505.424941,515.998 505.424941,517.204 L505.424941,519.616 L505.460941,519.616 C505.802941,518.896 506.378941,518.518 507.260941,518.518 C508.718941,518.518 509.456941,519.544 509.456941,521.398 L509.456941,523.648 C509.456941,525.664 508.394941,526.816 506.450941,526.816 Z M506.450941,525.016 C507.134941,525.016 507.476941,524.62 507.476941,523.792 L507.476941,521.56 C507.476941,520.714 507.134941,520.318 506.450941,520.318 C505.766941,520.318 505.424941,520.714 505.424941,521.56 L505.424941,523.792 C505.424941,524.62 505.766941,525.016 506.450941,525.016 Z" id="2016" fill="#666666" fill-rule="nonzero" transform="translate(496.649941, 520.336000) rotate(90.000000) translate(-496.649941, -520.336000) "></path>
                <path d="M541.842941,526.636 L541.842941,525.268 C541.842941,523.468 542.346941,522.37 543.822941,520.822 C545.334941,519.22 545.766941,518.266 545.766941,517.096 C545.766941,515.962 545.370941,515.656 544.740941,515.656 C544.110941,515.656 543.714941,515.998 543.714941,516.898 L543.714941,518.248 L541.842941,518.248 L541.842941,517.024 C541.842941,515.008 542.850941,513.856 544.794941,513.856 C546.738941,513.856 547.746941,515.008 547.746941,517.024 C547.746941,518.518 547.134941,519.85 545.298941,521.794 C544.110941,523.054 543.804941,523.684 543.804941,524.566 L543.804941,524.836 L547.566941,524.836 L547.566941,526.636 L541.842941,526.636 Z M551.292941,526.816 C549.348941,526.816 548.286941,525.664 548.286941,523.648 L548.286941,517.024 C548.286941,515.008 549.348941,513.856 551.292941,513.856 C553.236941,513.856 554.298941,515.008 554.298941,517.024 L554.298941,523.648 C554.298941,525.664 553.236941,526.816 551.292941,526.816 Z M551.292941,525.016 C551.922941,525.016 552.318941,524.674 552.318941,523.774 L552.318941,516.898 C552.318941,515.998 551.922941,515.656 551.292941,515.656 C550.662941,515.656 550.266941,515.998 550.266941,516.898 L550.266941,523.774 C550.266941,524.674 550.662941,525.016 551.292941,525.016 Z M557.754941,526.636 L557.754941,517.024 L555.684941,517.024 L555.684941,515.62 C557.358941,515.62 557.952941,515.26 558.402941,514.036 L559.734941,514.036 L559.734941,526.636 L557.754941,526.636 Z M562.236941,526.636 L565.404941,515.836 L561.408941,515.836 L561.408941,514.036 L567.348941,514.036 L567.348941,515.764 L564.252941,526.636 L562.236941,526.636 Z" id="2017" fill="#666666" fill-rule="nonzero" transform="translate(554.595941, 520.336000) rotate(90.000000) translate(-554.595941, -520.336000) "></path>
                <path d="M44.791941,59.136 L44.791941,43.036 L48.402941,43.036 L50.012941,54.559 L50.058941,54.559 L51.668941,43.036 L55.279941,43.036 L55.279941,59.136 L52.887941,59.136 L52.887941,46.946 L52.841941,46.946 L51.001941,59.136 L48.885941,59.136 L47.045941,46.946 L46.999941,46.946 L46.999941,59.136 L44.791941,59.136 Z M57.165941,59.136 L57.165941,43.036 L64.065941,43.036 L64.065941,45.336 L59.695941,45.336 L59.695941,49.591 L63.168941,49.591 L63.168941,51.891 L59.695941,51.891 L59.695941,56.836 L64.065941,56.836 L64.065941,59.136 L57.165941,59.136 Z M65.514941,59.136 L65.514941,43.036 L68.688941,43.036 L71.149941,52.673 L71.195941,52.673 L71.195941,43.036 L73.449941,43.036 L73.449941,59.136 L70.850941,59.136 L67.814941,47.383 L67.768941,47.383 L67.768941,59.136 L65.514941,59.136 Z M78.992941,59.366 C76.508941,59.366 75.151941,57.894 75.151941,55.318 L75.151941,46.854 C75.151941,44.278 76.508941,42.806 78.992941,42.806 C81.476941,42.806 82.833941,44.278 82.833941,46.854 L82.833941,55.318 C82.833941,57.894 81.476941,59.366 78.992941,59.366 Z M78.992941,57.066 C79.797941,57.066 80.303941,56.629 80.303941,55.479 L80.303941,46.693 C80.303941,45.543 79.797941,45.106 78.992941,45.106 C78.187941,45.106 77.681941,45.543 77.681941,46.693 L77.681941,55.479 C77.681941,56.629 78.187941,57.066 78.992941,57.066 Z M84.535941,59.136 L84.535941,43.036 L88.284941,43.036 C90.906941,43.036 92.033941,44.255 92.033941,46.739 L92.033941,47.728 C92.033941,49.384 91.504941,50.442 90.377941,50.902 L90.377941,50.948 C91.642941,51.339 92.056941,52.535 92.056941,54.352 L92.056941,57.181 C92.056941,57.963 92.079941,58.538 92.332941,59.136 L89.756941,59.136 C89.618941,58.722 89.526941,58.469 89.526941,57.158 L89.526941,54.214 C89.526941,52.719 89.089941,52.236 87.939941,52.236 L87.065941,52.236 L87.065941,59.136 L84.535941,59.136 Z M87.065941,49.936 L87.985941,49.936 C88.928941,49.936 89.503941,49.522 89.503941,48.234 L89.503941,46.992 C89.503941,45.842 89.112941,45.336 88.215941,45.336 L87.065941,45.336 L87.065941,49.936 Z M93.804941,59.136 L93.804941,43.036 L100.704941,43.036 L100.704941,45.336 L96.334941,45.336 L96.334941,49.591 L99.807941,49.591 L99.807941,51.891 L96.334941,51.891 L96.334941,56.836 L100.704941,56.836 L100.704941,59.136 L93.804941,59.136 Z M105.442941,59.366 C102.958941,59.366 101.716941,57.894 101.716941,55.318 L101.716941,54.398 L104.108941,54.398 L104.108941,55.502 C104.108941,56.652 104.614941,57.066 105.419941,57.066 C106.224941,57.066 106.730941,56.652 106.730941,55.456 C106.730941,54.122 106.224941,53.271 104.568941,51.822 C102.452941,49.959 101.762941,48.648 101.762941,46.808 C101.762941,44.278 103.073941,42.806 105.534941,42.806 C107.995941,42.806 109.214941,44.278 109.214941,46.854 L109.214941,47.521 L106.822941,47.521 L106.822941,46.693 C106.822941,45.543 106.362941,45.106 105.557941,45.106 C104.752941,45.106 104.292941,45.543 104.292941,46.647 C104.292941,47.82 104.821941,48.671 106.477941,50.12 C108.593941,51.983 109.260941,53.271 109.260941,55.272 C109.260941,57.894 107.926941,59.366 105.442941,59.366 Z M114.389941,59.136 L114.389941,43.036 L118.253941,43.036 C120.783941,43.036 122.025941,44.439 122.025941,47.015 L122.025941,55.157 C122.025941,57.733 120.783941,59.136 118.253941,59.136 L114.389941,59.136 Z M116.919941,56.836 L118.207941,56.836 C119.012941,56.836 119.495941,56.422 119.495941,55.272 L119.495941,46.9 C119.495941,45.75 119.012941,45.336 118.207941,45.336 L116.919941,45.336 L116.919941,56.836 Z M123.727941,59.136 L123.727941,43.036 L130.627941,43.036 L130.627941,45.336 L126.257941,45.336 L126.257941,49.591 L129.730941,49.591 L129.730941,51.891 L126.257941,51.891 L126.257941,56.836 L130.627941,56.836 L130.627941,59.136 L123.727941,59.136 Z M139.298941,59.136 L139.298941,46.854 L136.653941,46.854 L136.653941,45.06 C138.792941,45.06 139.551941,44.6 140.126941,43.036 L141.828941,43.036 L141.828941,59.136 L139.298941,59.136 Z M148.682941,59.366 C146.198941,59.366 144.841941,57.894 144.841941,55.318 L144.841941,46.992 C144.841941,44.278 146.083941,42.806 148.705941,42.806 C151.189941,42.806 152.477941,44.278 152.477941,46.854 L152.477941,47.153 L150.085941,47.153 L150.085941,46.693 C150.085941,45.543 149.579941,45.106 148.774941,45.106 C147.877941,45.106 147.371941,45.543 147.371941,47.084 L147.371941,50.166 L147.417941,50.166 C147.854941,49.246 148.590941,48.763 149.717941,48.763 C151.580941,48.763 152.523941,50.074 152.523941,52.443 L152.523941,55.318 C152.523941,57.894 151.166941,59.366 148.682941,59.366 Z M148.682941,57.066 C149.556941,57.066 149.993941,56.56 149.993941,55.502 L149.993941,52.65 C149.993941,51.569 149.556941,51.063 148.682941,51.063 C147.808941,51.063 147.371941,51.569 147.371941,52.65 L147.371941,55.502 C147.371941,56.56 147.808941,57.066 148.682941,57.066 Z M157.169941,59.136 L159.791941,43.036 L163.218941,43.036 L165.840941,59.136 L163.310941,59.136 L162.850941,55.939 L162.850941,55.985 L159.975941,55.985 L159.515941,59.136 L157.169941,59.136 Z M160.274941,53.8 L162.551941,53.8 L161.424941,45.842 L161.378941,45.842 L160.274941,53.8 Z M169.060941,42.047 L167.841941,41.311 C168.416941,40.023 169.060941,39.379 169.934941,39.379 C170.555941,39.379 170.969941,39.609 171.314941,39.816 C171.590941,39.977 171.820941,40.115 172.096941,40.115 C172.464941,40.115 172.717941,39.862 173.016941,39.218 L174.235941,39.954 C173.660941,41.242 173.016941,41.886 172.142941,41.886 C171.521941,41.886 171.107941,41.656 170.762941,41.449 C170.486941,41.288 170.256941,41.15 169.980941,41.15 C169.612941,41.15 169.359941,41.403 169.060941,42.047 Z M167.059941,59.136 L167.059941,43.036 L170.233941,43.036 L172.694941,52.673 L172.740941,52.673 L172.740941,43.036 L174.994941,43.036 L174.994941,59.136 L172.395941,59.136 L169.359941,47.383 L169.313941,47.383 L169.313941,59.136 L167.059941,59.136 Z M180.537941,59.366 C178.053941,59.366 176.696941,57.894 176.696941,55.318 L176.696941,46.854 C176.696941,44.278 178.053941,42.806 180.537941,42.806 C183.021941,42.806 184.378941,44.278 184.378941,46.854 L184.378941,55.318 C184.378941,57.894 183.021941,59.366 180.537941,59.366 Z M180.537941,57.066 C181.342941,57.066 181.848941,56.629 181.848941,55.479 L181.848941,46.693 C181.848941,45.543 181.342941,45.106 180.537941,45.106 C179.732941,45.106 179.226941,45.543 179.226941,46.693 L179.226941,55.479 C179.226941,56.629 179.732941,57.066 180.537941,57.066 Z M189.369941,59.366 C186.885941,59.366 185.643941,57.894 185.643941,55.318 L185.643941,54.398 L188.035941,54.398 L188.035941,55.502 C188.035941,56.652 188.541941,57.066 189.346941,57.066 C190.151941,57.066 190.657941,56.652 190.657941,55.456 C190.657941,54.122 190.151941,53.271 188.495941,51.822 C186.379941,49.959 185.689941,48.648 185.689941,46.808 C185.689941,44.278 187.000941,42.806 189.461941,42.806 C191.922941,42.806 193.141941,44.278 193.141941,46.854 L193.141941,47.521 L190.749941,47.521 L190.749941,46.693 C190.749941,45.543 190.289941,45.106 189.484941,45.106 C188.679941,45.106 188.219941,45.543 188.219941,46.647 C188.219941,47.82 188.748941,48.671 190.404941,50.12 C192.520941,51.983 193.187941,53.271 193.187941,55.272 C193.187941,57.894 191.853941,59.366 189.369941,59.366 Z" id="menoresde16aos" fill="#000000" fill-rule="nonzero" opacity="0.6"></path>
                <path d="M18.996941,24.136 L18.996941,4.536 L27.396941,4.536 L27.396941,7.336 L22.076941,7.336 L22.076941,12.516 L26.304941,12.516 L26.304941,15.316 L22.076941,15.316 L22.076941,21.336 L27.396941,21.336 L27.396941,24.136 L18.996941,24.136 Z M31.316941,24.136 L28.348941,4.536 L31.456941,4.536 L33.472941,19.74 L33.528941,19.74 L35.544941,4.536 L38.372941,4.536 L35.404941,24.136 L31.316941,24.136 Z M44.308941,24.416 C41.284941,24.416 39.632941,22.624 39.632941,19.488 L39.632941,9.184 C39.632941,6.048 41.284941,4.256 44.308941,4.256 C47.332941,4.256 48.984941,6.048 48.984941,9.184 L48.984941,19.488 C48.984941,22.624 47.332941,24.416 44.308941,24.416 Z M44.308941,21.616 C45.288941,21.616 45.904941,21.084 45.904941,19.684 L45.904941,8.988 C45.904941,7.588 45.288941,7.056 44.308941,7.056 C43.328941,7.056 42.712941,7.588 42.712941,8.988 L42.712941,19.684 C42.712941,21.084 43.328941,21.616 44.308941,21.616 Z M51.056941,24.136 L51.056941,4.536 L54.136941,4.536 L54.136941,21.336 L59.204941,21.336 L59.204941,24.136 L51.056941,24.136 Z M65.168941,24.416 C62.144941,24.416 60.576941,22.624 60.576941,19.488 L60.576941,4.536 L63.656941,4.536 L63.656941,19.712 C63.656941,21.112 64.244941,21.616 65.224941,21.616 C66.204941,21.616 66.792941,21.112 66.792941,19.712 L66.792941,4.536 L69.760941,4.536 L69.760941,19.488 C69.760941,22.624 68.192941,24.416 65.168941,24.416 Z M76.284941,24.416 C73.316941,24.416 71.748941,22.624 71.748941,19.6 L71.748941,9.072 C71.748941,6.048 73.316941,4.256 76.284941,4.256 C79.252941,4.256 80.820941,6.048 80.820941,9.072 L80.820941,11.144 L77.908941,11.144 L77.908941,8.876 C77.908941,7.588 77.292941,7.056 76.368941,7.056 C75.444941,7.056 74.828941,7.588 74.828941,8.876 L74.828941,19.824 C74.828941,21.112 75.444941,21.616 76.368941,21.616 C77.292941,21.616 77.908941,21.112 77.908941,19.824 L77.908941,16.828 L80.820941,16.828 L80.820941,19.6 C80.820941,22.624 79.252941,24.416 76.284941,24.416 Z M82.668941,24.136 L82.668941,4.536 L85.748941,4.536 L85.748941,24.136 L82.668941,24.136 Z M90.816941,3.22 L92.776941,0 L96.136941,0 L93.140941,3.22 L90.816941,3.22 Z M92.496941,24.416 C89.472941,24.416 87.820941,22.624 87.820941,19.488 L87.820941,9.184 C87.820941,6.048 89.472941,4.256 92.496941,4.256 C95.520941,4.256 97.172941,6.048 97.172941,9.184 L97.172941,19.488 C97.172941,22.624 95.520941,24.416 92.496941,24.416 Z M92.496941,21.616 C93.476941,21.616 94.092941,21.084 94.092941,19.684 L94.092941,8.988 C94.092941,7.588 93.476941,7.056 92.496941,7.056 C91.516941,7.056 90.900941,7.588 90.900941,8.988 L90.900941,19.684 C90.900941,21.084 91.516941,21.616 92.496941,21.616 Z M99.244941,24.136 L99.244941,4.536 L103.108941,4.536 L106.104941,16.268 L106.160941,16.268 L106.160941,4.536 L108.904941,4.536 L108.904941,24.136 L105.740941,24.136 L102.044941,9.828 L101.988941,9.828 L101.988941,24.136 L99.244941,24.136 Z M115.680941,24.136 L115.680941,4.536 L120.384941,4.536 C123.464941,4.536 124.976941,6.244 124.976941,9.38 L124.976941,19.292 C124.976941,22.428 123.464941,24.136 120.384941,24.136 L115.680941,24.136 Z M118.760941,21.336 L120.328941,21.336 C121.308941,21.336 121.896941,20.832 121.896941,19.432 L121.896941,9.24 C121.896941,7.84 121.308941,7.336 120.328941,7.336 L118.760941,7.336 L118.760941,21.336 Z M127.048941,24.136 L127.048941,4.536 L135.448941,4.536 L135.448941,7.336 L130.128941,7.336 L130.128941,12.516 L134.356941,12.516 L134.356941,15.316 L130.128941,15.316 L130.128941,21.336 L135.448941,21.336 L135.448941,24.136 L127.048941,24.136 Z M141.692941,24.136 L141.692941,4.536 L144.772941,4.536 L144.772941,21.336 L149.840941,21.336 L149.840941,24.136 L141.692941,24.136 Z M150.512941,24.136 L153.704941,4.536 L157.876941,4.536 L161.068941,24.136 L157.988941,24.136 L157.428941,20.244 L157.428941,20.3 L153.928941,20.3 L153.368941,24.136 L150.512941,24.136 Z M154.292941,17.64 L157.064941,17.64 L155.692941,7.952 L155.636941,7.952 L154.292941,17.64 Z M169.440941,24.136 L169.440941,7.336 L166.220941,7.336 L166.220941,4.536 L175.740941,4.536 L175.740941,7.336 L172.520941,7.336 L172.520941,24.136 L169.440941,24.136 Z M176.412941,24.136 L179.604941,4.536 L183.776941,4.536 L186.968941,24.136 L183.888941,24.136 L183.328941,20.244 L183.328941,20.3 L179.828941,20.3 L179.268941,24.136 L176.412941,24.136 Z M180.192941,17.64 L182.964941,17.64 L181.592941,7.952 L181.536941,7.952 L180.192941,17.64 Z M192.456941,24.416 C189.432941,24.416 187.920941,22.624 187.920941,19.488 L187.920941,18.368 L190.832941,18.368 L190.832941,19.712 C190.832941,21.112 191.448941,21.616 192.428941,21.616 C193.408941,21.616 194.024941,21.112 194.024941,19.656 C194.024941,18.032 193.408941,16.996 191.392941,15.232 C188.816941,12.964 187.976941,11.368 187.976941,9.128 C187.976941,6.048 189.572941,4.256 192.568941,4.256 C195.564941,4.256 197.048941,6.048 197.048941,9.184 L197.048941,9.996 L194.136941,9.996 L194.136941,8.988 C194.136941,7.588 193.576941,7.056 192.596941,7.056 C191.616941,7.056 191.056941,7.588 191.056941,8.932 C191.056941,10.36 191.700941,11.396 193.716941,13.16 C196.292941,15.428 197.104941,16.996 197.104941,19.432 C197.104941,22.624 195.480941,24.416 192.456941,24.416 Z M198.056941,24.136 L201.248941,4.536 L205.420941,4.536 L208.612941,24.136 L205.532941,24.136 L204.972941,20.244 L204.972941,20.3 L201.472941,20.3 L200.912941,24.136 L198.056941,24.136 Z M201.836941,17.64 L204.608941,17.64 L203.236941,7.952 L203.180941,7.952 L201.836941,17.64 Z M214.576941,24.136 L214.576941,4.536 L219.280941,4.536 C222.360941,4.536 223.872941,6.244 223.872941,9.38 L223.872941,19.292 C223.872941,22.428 222.360941,24.136 219.280941,24.136 L214.576941,24.136 Z M217.656941,21.336 L219.224941,21.336 C220.204941,21.336 220.792941,20.832 220.792941,19.432 L220.792941,9.24 C220.792941,7.84 220.204941,7.336 219.224941,7.336 L217.656941,7.336 L217.656941,21.336 Z M225.944941,24.136 L225.944941,4.536 L234.344941,4.536 L234.344941,7.336 L229.024941,7.336 L229.024941,12.516 L233.252941,12.516 L233.252941,15.316 L229.024941,15.316 L229.024941,21.336 L234.344941,21.336 L234.344941,24.136 L225.944941,24.136 Z M240.588941,24.136 L240.588941,4.536 L245.124941,4.536 C248.204941,4.536 249.716941,6.244 249.716941,9.38 L249.716941,11.312 C249.716941,14.448 248.204941,16.156 245.124941,16.156 L243.668941,16.156 L243.668941,24.136 L240.588941,24.136 Z M243.668941,13.356 L245.124941,13.356 C246.104941,13.356 246.636941,12.908 246.636941,11.508 L246.636941,9.184 C246.636941,7.784 246.104941,7.336 245.124941,7.336 L243.668941,7.336 L243.668941,13.356 Z M255.848941,24.416 C252.824941,24.416 251.172941,22.624 251.172941,19.488 L251.172941,9.184 C251.172941,6.048 252.824941,4.256 255.848941,4.256 C258.872941,4.256 260.524941,6.048 260.524941,9.184 L260.524941,19.488 C260.524941,22.624 258.872941,24.416 255.848941,24.416 Z M255.848941,21.616 C256.828941,21.616 257.444941,21.084 257.444941,19.684 L257.444941,8.988 C257.444941,7.588 256.828941,7.056 255.848941,7.056 C254.868941,7.056 254.252941,7.588 254.252941,8.988 L254.252941,19.684 C254.252941,21.084 254.868941,21.616 255.848941,21.616 Z M262.596941,24.136 L262.596941,4.536 L267.244941,4.536 C270.436941,4.536 271.808941,6.02 271.808941,9.044 L271.808941,9.828 C271.808941,11.844 271.192941,13.104 269.820941,13.664 L269.820941,13.72 C271.472941,14.28 272.116941,15.736 272.116941,17.808 L272.116941,19.488 C272.116941,22.512 270.520941,24.136 267.440941,24.136 L262.596941,24.136 Z M265.676941,12.516 L266.880941,12.516 C268.028941,12.516 268.728941,12.012 268.728941,10.444 L268.728941,9.352 C268.728941,7.952 268.252941,7.336 267.160941,7.336 L265.676941,7.336 L265.676941,12.516 Z M265.676941,21.336 L267.440941,21.336 C268.476941,21.336 269.036941,20.86 269.036941,19.404 L269.036941,17.696 C269.036941,15.876 268.448941,15.316 267.048941,15.316 L265.676941,15.316 L265.676941,21.336 Z M273.908941,24.136 L273.908941,4.536 L278.472941,4.536 C281.664941,4.536 283.036941,6.02 283.036941,9.044 L283.036941,10.248 C283.036941,12.264 282.392941,13.552 281.020941,14.112 L281.020941,14.168 C282.560941,14.644 283.064941,16.1 283.064941,18.312 L283.064941,21.756 C283.064941,22.708 283.092941,23.408 283.400941,24.136 L280.264941,24.136 C280.096941,23.632 279.984941,23.324 279.984941,21.728 L279.984941,18.144 C279.984941,16.324 279.452941,15.736 278.052941,15.736 L276.988941,15.736 L276.988941,24.136 L273.908941,24.136 Z M276.988941,12.936 L278.108941,12.936 C279.256941,12.936 279.956941,12.432 279.956941,10.864 L279.956941,9.352 C279.956941,7.952 279.480941,7.336 278.388941,7.336 L276.988941,7.336 L276.988941,12.936 Z M285.192941,24.136 L285.192941,4.536 L293.592941,4.536 L293.592941,7.336 L288.272941,7.336 L288.272941,12.516 L292.500941,12.516 L292.500941,15.316 L288.272941,15.316 L288.272941,21.336 L293.592941,21.336 L293.592941,24.136 L285.192941,24.136 Z M294.740941,24.136 L294.740941,21.392 L300.452941,7.336 L295.020941,7.336 L295.020941,4.536 L303.756941,4.536 L303.756941,7.28 L298.044941,21.336 L303.756941,21.336 L303.756941,24.136 L294.740941,24.136 Z M304.680941,24.136 L307.872941,4.536 L312.044941,4.536 L315.236941,24.136 L312.156941,24.136 L311.596941,20.244 L311.596941,20.3 L308.096941,20.3 L307.536941,24.136 L304.680941,24.136 Z M308.460941,17.64 L311.232941,17.64 L309.860941,7.952 L309.804941,7.952 L308.460941,17.64 Z" id="evolucindelatasadepobreza" fill="#000000" fill-rule="nonzero"></path>
                <path d="M258.791941,59.136 L258.791941,43.036 L262.655941,43.036 C265.185941,43.036 266.427941,44.439 266.427941,47.015 L266.427941,55.157 C266.427941,57.733 265.185941,59.136 262.655941,59.136 L258.791941,59.136 Z M261.321941,56.836 L262.609941,56.836 C263.414941,56.836 263.897941,56.422 263.897941,55.272 L263.897941,46.9 C263.897941,45.75 263.414941,45.336 262.609941,45.336 L261.321941,45.336 L261.321941,56.836 Z M268.129941,59.136 L268.129941,43.036 L275.029941,43.036 L275.029941,45.336 L270.659941,45.336 L270.659941,49.591 L274.132941,49.591 L274.132941,51.891 L270.659941,51.891 L270.659941,56.836 L275.029941,56.836 L275.029941,59.136 L268.129941,59.136 Z M283.700941,59.136 L283.700941,46.854 L281.055941,46.854 L281.055941,45.06 C283.194941,45.06 283.953941,44.6 284.528941,43.036 L286.230941,43.036 L286.230941,59.136 L283.700941,59.136 Z M293.084941,59.366 C290.600941,59.366 289.243941,57.894 289.243941,55.318 L289.243941,46.992 C289.243941,44.278 290.485941,42.806 293.107941,42.806 C295.591941,42.806 296.879941,44.278 296.879941,46.854 L296.879941,47.153 L294.487941,47.153 L294.487941,46.693 C294.487941,45.543 293.981941,45.106 293.176941,45.106 C292.279941,45.106 291.773941,45.543 291.773941,47.084 L291.773941,50.166 L291.819941,50.166 C292.256941,49.246 292.992941,48.763 294.119941,48.763 C295.982941,48.763 296.925941,50.074 296.925941,52.443 L296.925941,55.318 C296.925941,57.894 295.568941,59.366 293.084941,59.366 Z M293.084941,57.066 C293.958941,57.066 294.395941,56.56 294.395941,55.502 L294.395941,52.65 C294.395941,51.569 293.958941,51.063 293.084941,51.063 C292.210941,51.063 291.773941,51.569 291.773941,52.65 L291.773941,55.502 C291.773941,56.56 292.210941,57.066 293.084941,57.066 Z M301.571941,59.136 L304.193941,43.036 L307.620941,43.036 L310.242941,59.136 L307.712941,59.136 L307.252941,55.939 L307.252941,55.985 L304.377941,55.985 L303.917941,59.136 L301.571941,59.136 Z M304.676941,53.8 L306.953941,53.8 L305.826941,45.842 L305.780941,45.842 L304.676941,53.8 Z M315.095941,59.136 L315.095941,57.388 C315.095941,55.088 315.739941,53.685 317.625941,51.707 C319.557941,49.66 320.109941,48.441 320.109941,46.946 C320.109941,45.497 319.603941,45.106 318.798941,45.106 C317.993941,45.106 317.487941,45.543 317.487941,46.693 L317.487941,48.418 L315.095941,48.418 L315.095941,46.854 C315.095941,44.278 316.383941,42.806 318.867941,42.806 C321.351941,42.806 322.639941,44.278 322.639941,46.854 C322.639941,48.763 321.857941,50.465 319.511941,52.949 C317.993941,54.559 317.602941,55.364 317.602941,56.491 L317.602941,56.836 L322.409941,56.836 L322.409941,59.136 L315.095941,59.136 Z M327.906941,59.366 C325.422941,59.366 324.134941,57.894 324.134941,55.318 L324.134941,55.019 L326.526941,55.019 L326.526941,55.479 C326.526941,56.629 327.032941,57.066 327.837941,57.066 C328.734941,57.066 329.240941,56.629 329.240941,55.088 L329.240941,52.006 L329.194941,52.006 C328.757941,52.926 328.021941,53.409 326.894941,53.409 C325.031941,53.409 324.088941,52.098 324.088941,49.729 L324.088941,46.854 C324.088941,44.278 325.445941,42.806 327.929941,42.806 C330.413941,42.806 331.770941,44.278 331.770941,46.854 L331.770941,55.18 C331.770941,57.894 330.528941,59.366 327.906941,59.366 Z M327.929941,51.109 C328.803941,51.109 329.240941,50.603 329.240941,49.522 L329.240941,46.67 C329.240941,45.612 328.803941,45.106 327.929941,45.106 C327.055941,45.106 326.618941,45.612 326.618941,46.67 L326.618941,49.522 C326.618941,50.603 327.055941,51.109 327.929941,51.109 Z M336.554941,59.136 L339.176941,43.036 L342.603941,43.036 L345.225941,59.136 L342.695941,59.136 L342.235941,55.939 L342.235941,55.985 L339.360941,55.985 L338.900941,59.136 L336.554941,59.136 Z M339.659941,53.8 L341.936941,53.8 L340.809941,45.842 L340.763941,45.842 L339.659941,53.8 Z M348.445941,42.047 L347.226941,41.311 C347.801941,40.023 348.445941,39.379 349.319941,39.379 C349.940941,39.379 350.354941,39.609 350.699941,39.816 C350.975941,39.977 351.205941,40.115 351.481941,40.115 C351.849941,40.115 352.102941,39.862 352.401941,39.218 L353.620941,39.954 C353.045941,41.242 352.401941,41.886 351.527941,41.886 C350.906941,41.886 350.492941,41.656 350.147941,41.449 C349.871941,41.288 349.641941,41.15 349.365941,41.15 C348.997941,41.15 348.744941,41.403 348.445941,42.047 Z M346.444941,59.136 L346.444941,43.036 L349.618941,43.036 L352.079941,52.673 L352.125941,52.673 L352.125941,43.036 L354.379941,43.036 L354.379941,59.136 L351.780941,59.136 L348.744941,47.383 L348.698941,47.383 L348.698941,59.136 L346.444941,59.136 Z M359.922941,59.366 C357.438941,59.366 356.081941,57.894 356.081941,55.318 L356.081941,46.854 C356.081941,44.278 357.438941,42.806 359.922941,42.806 C362.406941,42.806 363.763941,44.278 363.763941,46.854 L363.763941,55.318 C363.763941,57.894 362.406941,59.366 359.922941,59.366 Z M359.922941,57.066 C360.727941,57.066 361.233941,56.629 361.233941,55.479 L361.233941,46.693 C361.233941,45.543 360.727941,45.106 359.922941,45.106 C359.117941,45.106 358.611941,45.543 358.611941,46.693 L358.611941,55.479 C358.611941,56.629 359.117941,57.066 359.922941,57.066 Z M368.754941,59.366 C366.270941,59.366 365.028941,57.894 365.028941,55.318 L365.028941,54.398 L367.420941,54.398 L367.420941,55.502 C367.420941,56.652 367.926941,57.066 368.731941,57.066 C369.536941,57.066 370.042941,56.652 370.042941,55.456 C370.042941,54.122 369.536941,53.271 367.880941,51.822 C365.764941,49.959 365.074941,48.648 365.074941,46.808 C365.074941,44.278 366.385941,42.806 368.846941,42.806 C371.307941,42.806 372.526941,44.278 372.526941,46.854 L372.526941,47.521 L370.134941,47.521 L370.134941,46.693 C370.134941,45.543 369.674941,45.106 368.869941,45.106 C368.064941,45.106 367.604941,45.543 367.604941,46.647 C367.604941,47.82 368.133941,48.671 369.789941,50.12 C371.905941,51.983 372.572941,53.271 372.572941,55.272 C372.572941,57.894 371.238941,59.366 368.754941,59.366 Z" id="de16a29aos" fill="#000000" fill-rule="nonzero" opacity="0.6"></path>
                <path d="M426.791941,61.136 L426.791941,45.036 L430.655941,45.036 C433.185941,45.036 434.427941,46.439 434.427941,49.015 L434.427941,57.157 C434.427941,59.733 433.185941,61.136 430.655941,61.136 L426.791941,61.136 Z M429.321941,58.836 L430.609941,58.836 C431.414941,58.836 431.897941,58.422 431.897941,57.272 L431.897941,48.9 C431.897941,47.75 431.414941,47.336 430.609941,47.336 L429.321941,47.336 L429.321941,58.836 Z M436.129941,61.136 L436.129941,45.036 L443.029941,45.036 L443.029941,47.336 L438.659941,47.336 L438.659941,51.591 L442.132941,51.591 L442.132941,53.891 L438.659941,53.891 L438.659941,58.836 L443.029941,58.836 L443.029941,61.136 L436.129941,61.136 Z M451.746941,61.366 C449.262941,61.366 447.974941,59.94 447.974941,57.364 L447.974941,56.053 L450.366941,56.053 L450.366941,57.479 C450.366941,58.629 450.872941,59.066 451.677941,59.066 C452.482941,59.066 452.988941,58.675 452.988941,57.249 L452.988941,55.938 C452.988941,54.443 452.482941,53.891 451.332941,53.891 L450.481941,53.891 L450.481941,51.591 L451.401941,51.591 C452.344941,51.591 452.919941,51.177 452.919941,49.889 L452.919941,48.716 C452.919941,47.566 452.390941,47.106 451.654941,47.106 C450.918941,47.106 450.435941,47.543 450.435941,48.601 L450.435941,49.659 L448.043941,49.659 L448.043941,48.808 C448.043941,46.232 449.331941,44.806 451.746941,44.806 C454.161941,44.806 455.449941,46.209 455.449941,48.785 L455.449941,49.36 C455.449941,51.085 454.897941,52.143 453.655941,52.603 L453.655941,52.649 C455.012941,53.155 455.518941,54.328 455.518941,55.961 L455.518941,57.387 C455.518941,59.963 454.230941,61.366 451.746941,61.366 Z M461.015941,61.366 C458.531941,61.366 457.174941,59.894 457.174941,57.318 L457.174941,48.854 C457.174941,46.278 458.531941,44.806 461.015941,44.806 C463.499941,44.806 464.856941,46.278 464.856941,48.854 L464.856941,57.318 C464.856941,59.894 463.499941,61.366 461.015941,61.366 Z M461.015941,59.066 C461.820941,59.066 462.326941,58.629 462.326941,57.479 L462.326941,48.693 C462.326941,47.543 461.820941,47.106 461.015941,47.106 C460.210941,47.106 459.704941,47.543 459.704941,48.693 L459.704941,57.479 C459.704941,58.629 460.210941,59.066 461.015941,59.066 Z M469.571941,61.136 L472.193941,45.036 L475.620941,45.036 L478.242941,61.136 L475.712941,61.136 L475.252941,57.939 L475.252941,57.985 L472.377941,57.985 L471.917941,61.136 L469.571941,61.136 Z M472.676941,55.8 L474.953941,55.8 L473.826941,47.842 L473.780941,47.842 L472.676941,55.8 Z M486.729941,61.366 C484.245941,61.366 482.957941,59.94 482.957941,57.364 L482.957941,56.053 L485.349941,56.053 L485.349941,57.479 C485.349941,58.629 485.855941,59.066 486.660941,59.066 C487.465941,59.066 487.971941,58.675 487.971941,57.249 L487.971941,55.938 C487.971941,54.443 487.465941,53.891 486.315941,53.891 L485.464941,53.891 L485.464941,51.591 L486.384941,51.591 C487.327941,51.591 487.902941,51.177 487.902941,49.889 L487.902941,48.716 C487.902941,47.566 487.373941,47.106 486.637941,47.106 C485.901941,47.106 485.418941,47.543 485.418941,48.601 L485.418941,49.659 L483.026941,49.659 L483.026941,48.808 C483.026941,46.232 484.314941,44.806 486.729941,44.806 C489.144941,44.806 490.432941,46.209 490.432941,48.785 L490.432941,49.36 C490.432941,51.085 489.880941,52.143 488.638941,52.603 L488.638941,52.649 C489.995941,53.155 490.501941,54.328 490.501941,55.961 L490.501941,57.387 C490.501941,59.963 489.213941,61.366 486.729941,61.366 Z M496.573941,61.136 L496.573941,58.215 L491.743941,58.215 L491.743941,55.915 L496.343941,45.036 L499.103941,45.036 L499.103941,55.915 L500.299941,55.915 L500.299941,58.215 L499.103941,58.215 L499.103941,61.136 L496.573941,61.136 Z M494.043941,55.915 L496.573941,55.915 L496.573941,49.636 L496.527941,49.636 L494.043941,55.915 Z M504.554941,61.136 L507.176941,45.036 L510.603941,45.036 L513.225941,61.136 L510.695941,61.136 L510.235941,57.939 L510.235941,57.985 L507.360941,57.985 L506.900941,61.136 L504.554941,61.136 Z M507.659941,55.8 L509.936941,55.8 L508.809941,47.842 L508.763941,47.842 L507.659941,55.8 Z M516.445941,44.047 L515.226941,43.311 C515.801941,42.023 516.445941,41.379 517.319941,41.379 C517.940941,41.379 518.354941,41.609 518.699941,41.816 C518.975941,41.977 519.205941,42.115 519.481941,42.115 C519.849941,42.115 520.102941,41.862 520.401941,41.218 L521.620941,41.954 C521.045941,43.242 520.401941,43.886 519.527941,43.886 C518.906941,43.886 518.492941,43.656 518.147941,43.449 C517.871941,43.288 517.641941,43.15 517.365941,43.15 C516.997941,43.15 516.744941,43.403 516.445941,44.047 Z M514.444941,61.136 L514.444941,45.036 L517.618941,45.036 L520.079941,54.673 L520.125941,54.673 L520.125941,45.036 L522.379941,45.036 L522.379941,61.136 L519.780941,61.136 L516.744941,49.383 L516.698941,49.383 L516.698941,61.136 L514.444941,61.136 Z M527.922941,61.366 C525.438941,61.366 524.081941,59.894 524.081941,57.318 L524.081941,48.854 C524.081941,46.278 525.438941,44.806 527.922941,44.806 C530.406941,44.806 531.763941,46.278 531.763941,48.854 L531.763941,57.318 C531.763941,59.894 530.406941,61.366 527.922941,61.366 Z M527.922941,59.066 C528.727941,59.066 529.233941,58.629 529.233941,57.479 L529.233941,48.693 C529.233941,47.543 528.727941,47.106 527.922941,47.106 C527.117941,47.106 526.611941,47.543 526.611941,48.693 L526.611941,57.479 C526.611941,58.629 527.117941,59.066 527.922941,59.066 Z M536.754941,61.366 C534.270941,61.366 533.028941,59.894 533.028941,57.318 L533.028941,56.398 L535.420941,56.398 L535.420941,57.502 C535.420941,58.652 535.926941,59.066 536.731941,59.066 C537.536941,59.066 538.042941,58.652 538.042941,57.456 C538.042941,56.122 537.536941,55.271 535.880941,53.822 C533.764941,51.959 533.074941,50.648 533.074941,48.808 C533.074941,46.278 534.385941,44.806 536.846941,44.806 C539.307941,44.806 540.526941,46.278 540.526941,48.854 L540.526941,49.521 L538.134941,49.521 L538.134941,48.693 C538.134941,47.543 537.674941,47.106 536.869941,47.106 C536.064941,47.106 535.604941,47.543 535.604941,48.647 C535.604941,49.82 536.133941,50.671 537.789941,52.12 C539.905941,53.983 540.572941,55.271 540.572941,57.272 C540.572941,59.894 539.238941,61.366 536.754941,61.366 Z" id="de30a34aos" fill="#000000" fill-rule="nonzero" opacity="0.6"></path>
                <path d="M503.545941,562.136 L503.545941,550.236 L508.492941,550.236 L508.492941,551.936 L505.415941,551.936 L505.415941,555.251 L507.829941,555.251 L507.829941,556.951 L505.415941,556.951 L505.415941,562.136 L503.545941,562.136 Z M512.113941,562.306 C510.277941,562.306 509.325941,561.218 509.325941,559.314 L509.325941,550.236 L511.195941,550.236 L511.195941,559.45 C511.195941,560.3 511.552941,560.606 512.147941,560.606 C512.742941,560.606 513.099941,560.3 513.099941,559.45 L513.099941,550.236 L514.901941,550.236 L514.901941,559.314 C514.901941,561.218 513.949941,562.306 512.113941,562.306 Z M516.227941,562.136 L516.227941,550.236 L521.327941,550.236 L521.327941,551.936 L518.097941,551.936 L518.097941,555.081 L520.664941,555.081 L520.664941,556.781 L518.097941,556.781 L518.097941,560.436 L521.327941,560.436 L521.327941,562.136 L516.227941,562.136 Z M522.398941,562.136 L522.398941,550.236 L524.744941,550.236 L526.563941,557.359 L526.597941,557.359 L526.597941,550.236 L528.263941,550.236 L528.263941,562.136 L526.342941,562.136 L524.098941,553.449 L524.064941,553.449 L524.064941,562.136 L522.398941,562.136 Z M531.119941,562.136 L531.119941,551.936 L529.164941,551.936 L529.164941,550.236 L534.944941,550.236 L534.944941,551.936 L532.989941,551.936 L532.989941,562.136 L531.119941,562.136 Z M535.845941,562.136 L535.845941,550.236 L540.945941,550.236 L540.945941,551.936 L537.715941,551.936 L537.715941,555.081 L540.282941,555.081 L540.282941,556.781 L537.715941,556.781 L537.715941,560.436 L540.945941,560.436 L540.945941,562.136 L535.845941,562.136 Z M542.016941,555.659 L542.016941,553.857 L543.818941,553.857 L543.818941,555.659 L542.016941,555.659 Z M542.016941,562.136 L542.016941,560.334 L543.818941,560.334 L543.818941,562.136 L542.016941,562.136 Z M550.567941,562.306 C548.765941,562.306 547.813941,561.218 547.813941,559.382 L547.813941,552.99 C547.813941,551.154 548.765941,550.066 550.567941,550.066 C552.369941,550.066 553.321941,551.154 553.321941,552.99 L553.321941,554.248 L551.553941,554.248 L551.553941,552.871 C551.553941,552.089 551.179941,551.766 550.618941,551.766 C550.057941,551.766 549.683941,552.089 549.683941,552.871 L549.683941,559.518 C549.683941,560.3 550.057941,560.606 550.618941,560.606 C551.179941,560.606 551.553941,560.3 551.553941,559.518 L551.553941,557.699 L553.321941,557.699 L553.321941,559.382 C553.321941,561.218 552.369941,562.306 550.567941,562.306 Z M554.443941,562.136 L554.443941,550.236 L556.313941,550.236 L556.313941,562.136 L554.443941,562.136 Z M560.138941,562.306 C558.302941,562.306 557.384941,561.218 557.384941,559.314 L557.384941,558.634 L559.152941,558.634 L559.152941,559.45 C559.152941,560.3 559.526941,560.606 560.121941,560.606 C560.716941,560.606 561.090941,560.3 561.090941,559.416 C561.090941,558.43 560.716941,557.801 559.492941,556.73 C557.928941,555.353 557.418941,554.384 557.418941,553.024 C557.418941,551.154 558.387941,550.066 560.206941,550.066 C562.025941,550.066 562.926941,551.154 562.926941,553.058 L562.926941,553.551 L561.158941,553.551 L561.158941,552.939 C561.158941,552.089 560.818941,551.766 560.223941,551.766 C559.628941,551.766 559.288941,552.089 559.288941,552.905 C559.288941,553.772 559.679941,554.401 560.903941,555.472 C562.467941,556.849 562.960941,557.801 562.960941,559.28 C562.960941,561.218 561.974941,562.306 560.138941,562.306 Z" id="fuente:cis" fill="#9C9C9C" fill-rule="nonzero"></path>
                <circle id="Oval-Copy-5" fill="#BABABA" cx="28.848941" cy="52.136" r="8"></circle>
                <circle id="Oval-Copy-6" fill="#F34949" cx="242.848941" cy="51.136" r="8"></circle>
                <circle id="Oval-Copy-7" fill="#3B3B3B" cx="410.848941" cy="53.136" r="8"></circle>
            </g>
        </g>
    </g>
</svg>